<svg width="39" height="38" viewBox="0 0 39 38" fill="none" xmlns="http://www.w3.org/2000/svg">
<path d="M21.8751 34.6561C29.4925 33.5098 35.3334 26.9373 35.3334 19.0001C35.3334 10.2553 28.2448 3.16675 19.5001 3.16675C10.7553 3.16675 3.66675 10.2553 3.66675 19.0001C3.66675 26.9373 9.50767 33.5113 17.1251 34.6561V23.7501H14.7501C14.1202 23.7501 13.5161 23.4999 13.0707 23.0545C12.6253 22.6091 12.3751 22.005 12.3751 21.3751C12.3751 20.7452 12.6253 20.1411 13.0707 19.6957C13.5161 19.2503 14.1202 19.0001 14.7501 19.0001H17.1251V15.8334C17.1251 14.3637 17.7089 12.9541 18.7482 11.9149C19.7875 10.8756 21.197 10.2917 22.6667 10.2917H23.4584C24.0883 10.2917 24.6924 10.542 25.1378 10.9874C25.5832 11.4328 25.8334 12.0369 25.8334 12.6667C25.8334 13.2966 25.5832 13.9007 25.1378 14.3461C24.6924 14.7915 24.0883 15.0417 23.4584 15.0417H22.6667C22.4568 15.0417 22.2554 15.1252 22.107 15.2736C21.9585 15.4221 21.8751 15.6235 21.8751 15.8334V19.0001H24.2501C24.88 19.0001 25.4841 19.2503 25.9295 19.6957C26.3749 20.1411 26.6251 20.7452 26.6251 21.3751C26.6251 22.005 26.3749 22.6091 25.9295 23.0545C25.4841 23.4999 24.88 23.7501 24.2501 23.7501H21.8751V34.6561Z" fill="#BB413D"/>
</svg>
