<svg width="28" height="28" viewBox="0 0 28 28" fill="none" xmlns="http://www.w3.org/2000/svg">
<g clip-path="url(#clip0_590_2118)">
<path d="M27.808 19.8574C27.5783 19.4144 27.2184 19.0862 26.841 19.0207L25.6269 18.5448C24.1337 17.9706 23.0016 16.7893 22.493 15.329C23.2149 15.1321 23.9205 14.9188 24.6095 14.6891C25.8717 14.2905 26.6129 12.8876 26.1682 11.5881C25.7568 10.2851 24.3105 9.5927 23.0673 10.0294C22.7883 10.1114 22.5093 10.2099 22.2469 10.2755L22.2796 9.93091C22.4765 7.61751 21.7054 5.3041 20.1303 3.58121C18.5552 1.85842 16.3237 0.874023 13.9939 0.874023C11.664 0.874023 9.43252 1.85842 7.85745 3.58121C6.28228 5.30405 5.51118 7.61751 5.70807 9.93091L5.74083 10.2755C5.47837 10.2099 5.19944 10.1115 4.92046 10.0294C3.62224 9.58537 2.21847 10.3246 1.81949 11.5881C1.37545 12.886 2.1145 14.2901 3.37821 14.6891C4.06727 14.9353 4.78925 15.1321 5.51118 15.329C4.98614 16.7892 3.87043 17.9706 2.3937 18.5448L1.27799 18.9878C0.73649 19.1027 0.348288 19.4636 0.134991 19.9559C-0.094714 20.481 -0.0291388 21.1044 0.315473 21.6295C0.545178 21.9741 0.834989 22.2858 1.31086 22.5319C1.99992 22.9092 2.88593 23.1061 3.64067 23.2539C3.95241 24.6156 4.67434 25.2227 5.79005 25.0586C8.23477 24.6813 8.51364 24.8617 9.3833 25.5017C9.77708 25.7806 10.2692 26.1415 11.0896 26.5845C11.9757 26.9291 12.9601 27.126 13.9609 27.126C15.0603 27.126 16.176 26.8963 17.144 26.4533C17.3409 26.3548 17.5542 26.2072 17.8003 26.0431C18.8176 25.354 20.0646 24.4844 21.8529 24.9602C23.1793 25.2917 24.0865 24.7486 24.3633 23.2539C25.6595 22.9913 27.3155 22.614 27.857 21.3014C28.0705 20.8254 28.0376 20.2839 27.808 19.8574Z" fill="#BB413D"/>
</g>
<defs>
<clipPath id="clip0_590_2118">
<rect width="28" height="28" fill="white"/>
</clipPath>
</defs>
</svg>
