<svg width="29" height="28" viewBox="0 0 29 28" fill="none" xmlns="http://www.w3.org/2000/svg">
<path fill-rule="evenodd" clip-rule="evenodd" d="M19.1667 25.375C20.9458 25.375 22.6521 24.6682 23.9102 23.4102C25.1682 22.1521 25.875 20.4458 25.875 18.6667V9.33333C25.875 7.55417 25.1682 5.84788 23.9102 4.58983C22.6521 3.33177 20.9458 2.625 19.1667 2.625H9.83333C8.05417 2.625 6.34788 3.33177 5.08983 4.58983C3.83177 5.84788 3.125 7.55417 3.125 9.33333V18.6667C3.125 20.4458 3.83177 22.1521 5.08983 23.4102C6.34788 24.6682 8.05417 25.375 9.83333 25.375H19.1667ZM16.4962 6.7235C16.4301 6.52685 16.2964 6.36005 16.1188 6.25286C15.9412 6.14566 15.7313 6.10505 15.5266 6.13827C15.3218 6.17149 15.1355 6.27637 15.0009 6.4342C14.8663 6.59204 14.7921 6.79256 14.7917 7V17.5C14.7917 18.0192 14.6377 18.5267 14.3493 18.9584C14.0608 19.39 13.6509 19.7265 13.1712 19.9252C12.6916 20.1239 12.1638 20.1758 11.6546 20.0746C11.1454 19.9733 10.6776 19.7233 10.3105 19.3562C9.9434 18.989 9.69339 18.5213 9.5921 18.0121C9.49082 17.5029 9.5428 16.9751 9.74148 16.4955C9.94016 16.0158 10.2766 15.6058 10.7083 15.3174C11.14 15.029 11.6475 14.875 12.1667 14.875C12.3987 14.875 12.6213 14.7828 12.7854 14.6187C12.9495 14.4546 13.0417 14.2321 13.0417 14C13.0417 13.7679 12.9495 13.5454 12.7854 13.3813C12.6213 13.2172 12.3987 13.125 12.1667 13.125C11.3014 13.125 10.4555 13.3816 9.73605 13.8623C9.01658 14.3431 8.45583 15.0263 8.12469 15.8258C7.79356 16.6252 7.70692 17.5049 7.87573 18.3535C8.04454 19.2022 8.46122 19.9817 9.07307 20.5936C9.68493 21.2054 10.4645 21.6221 11.3131 21.7909C12.1618 21.9597 13.0415 21.8731 13.8409 21.542C14.6403 21.2108 15.3236 20.6501 15.8043 19.9306C16.2851 19.2112 16.5417 18.3653 16.5417 17.5V9.86767C17.4365 10.6983 18.6965 11.375 20.3333 11.375C20.5654 11.375 20.788 11.2828 20.9521 11.1187C21.1161 10.9546 21.2083 10.7321 21.2083 10.5C21.2083 10.2679 21.1161 10.0454 20.9521 9.88128C20.788 9.71719 20.5654 9.625 20.3333 9.625C19.1993 9.625 18.3372 9.15833 17.6978 8.55283C17.0445 7.93217 16.6502 7.18433 16.4962 6.7235Z" fill="#BB413D"/>
</svg>
