<svg width="32" height="32" viewBox="0 0 32 32" fill="none" xmlns="http://www.w3.org/2000/svg">
<g clip-path="url(#clip0_715_343)">
<path d="M9.34108 3.54187C11.3766 2.45144 13.6792 1.875 16 1.875C19.0475 1.875 21.9473 2.83419 24.3556 4.60894L23.9165 4.64738C23.4007 4.6925 23.0191 5.14725 23.0643 5.663C23.1094 6.17881 23.5641 6.56038 24.0799 6.51525L26.7325 6.28319C27.2483 6.23806 27.6299 5.78331 27.5847 5.26756L27.3526 2.615C27.3075 2.09919 26.8527 1.71769 26.337 1.76281H26.3369C25.8211 1.80794 25.4395 2.26269 25.4847 2.77844L25.5159 3.13462C22.7778 1.10006 19.4736 0 16 0C13.3713 0 10.7626 0.65325 8.4557 1.88906C7.99927 2.13356 7.82752 2.70181 8.07195 3.15819C8.31652 3.61456 8.88483 3.78619 9.34108 3.54187Z" fill="#1E1E1E"/>
<path d="M22.6589 28.4581C20.6233 29.5486 18.3208 30.125 16 30.125C12.9524 30.125 10.0526 29.1658 7.64419 27.3911L8.0835 27.3527C8.59925 27.3076 8.98082 26.8528 8.93569 26.3371C8.89057 25.8213 8.43582 25.4397 7.92007 25.4848L5.26744 25.7169C4.75163 25.762 4.37007 26.2168 4.41525 26.7325L4.64738 29.3851C4.6925 29.9009 5.14725 30.2824 5.663 30.2373C6.17882 30.1921 6.56044 29.7374 6.51525 29.2216L6.48419 28.8665C9.22225 30.9006 12.5266 32 16 32C18.6286 32 21.2374 31.3468 23.5443 30.1109C24.0007 29.8664 24.1724 29.2982 23.928 28.8418C23.6834 28.3855 23.1152 28.2138 22.6589 28.4581Z" fill="#1E1E1E"/>
<path d="M1.875 16C1.875 12.9524 2.83419 10.0526 4.60887 7.64419L4.64731 8.0835C4.69244 8.59925 5.14719 8.98082 5.66294 8.93569C6.17875 8.89057 6.56031 8.43582 6.51519 7.92007L6.28312 5.26744C6.238 4.75163 5.78325 4.37007 5.2675 4.41525L2.61494 4.64738C2.09912 4.6925 1.71763 5.14725 1.76275 5.663C1.80788 6.17882 2.26263 6.56044 2.77844 6.51525L3.13425 6.48413C1.09987 9.22219 0 12.5264 0 16C0 18.6284 0.653125 21.2371 1.88888 23.5439C2.05787 23.8594 2.38156 24.0389 2.71606 24.0389C2.8655 24.0389 3.017 24.0031 3.15794 23.9277C3.61438 23.6832 3.78612 23.115 3.54169 22.6586C2.45138 20.6231 1.875 18.3206 1.875 16Z" fill="#1E1E1E"/>
<path d="M30.2374 26.3369C30.1923 25.8211 29.7375 25.4396 29.2217 25.4847L28.8656 25.5159C30.9 22.7778 32.0001 19.4736 32.0001 16C32.0001 13.3715 31.3469 10.7629 30.1112 8.45603C29.8667 7.99965 29.2985 7.8279 28.8421 8.07228C28.3856 8.31678 28.2139 8.88497 28.4583 9.3414C29.5487 11.3768 30.1251 13.6793 30.1251 16C30.1251 19.0479 29.1663 21.9484 27.3913 24.3571L27.3527 23.9165C27.3076 23.4008 26.8528 23.0192 26.3371 23.0643C25.8213 23.1095 25.4397 23.5642 25.4848 24.08L25.7169 26.7326C25.762 27.2484 26.2168 27.63 26.7325 27.5848L29.3851 27.3527C29.9009 27.3075 30.2825 26.8528 30.2374 26.3369Z" fill="#1E1E1E"/>
<path d="M24.0286 17.4024L23.2042 16.7237C22.9871 16.5451 22.8626 16.2812 22.8626 16C22.8626 15.7188 22.9871 15.4549 23.2042 15.2762L24.0286 14.5976C24.3824 14.3064 24.4738 13.802 24.2446 13.4051L22.3696 10.1575C22.1405 9.76063 21.658 9.58775 21.2289 9.74831L20.2289 10.1229C19.9657 10.2216 19.6749 10.1976 19.4312 10.0568C19.1877 9.91619 19.0214 9.6765 18.9752 9.39913L18.7997 8.34587C18.7244 7.89381 18.3333 7.5625 17.875 7.5625H14.125C13.6667 7.5625 13.2756 7.89381 13.2002 8.34587L13.0247 9.39913C12.9785 9.6765 12.8123 9.91625 12.5687 10.0569C12.3252 10.1974 12.0345 10.2216 11.771 10.1229L10.7711 9.74831C10.3421 9.58756 9.85943 9.76063 9.63031 10.1575L7.75531 13.4051C7.52612 13.802 7.61756 14.3064 7.97137 14.5976L8.79568 15.2761C9.01287 15.4549 9.13737 15.7188 9.13737 16C9.13737 16.2812 9.01287 16.5451 8.79574 16.7237L7.97137 17.4024C7.61756 17.6936 7.52618 18.198 7.75531 18.5949L9.63031 21.8425C9.85943 22.2394 10.342 22.4123 10.7711 22.2517L11.7711 21.8771C12.0344 21.7784 12.3252 21.8026 12.5687 21.9431C12.8122 22.0837 12.9785 22.3235 13.0247 22.6009L13.2002 23.6541C13.2756 24.1062 13.6667 24.4375 14.125 24.4375H17.875C18.3333 24.4375 18.7244 24.1062 18.7997 23.6541L18.9753 22.6009C19.0215 22.3235 19.1877 22.0837 19.4312 21.9432C19.6749 21.8025 19.9657 21.7784 20.2291 21.8771L21.2289 22.2517C21.658 22.4126 22.1406 22.2394 22.3697 21.8425L24.2447 18.5949C24.4737 18.1981 24.3824 17.6937 24.0286 17.4024ZM16 18.5C14.6192 18.5 13.5 17.3807 13.5 16C13.5 14.6193 14.6192 13.5 16 13.5C17.3807 13.5 18.5 14.6193 18.5 16C18.5 17.3807 17.3807 18.5 16 18.5Z" fill="#1E1E1E"/>
</g>
<defs>
<clipPath id="clip0_715_343">
<rect width="32" height="32" fill="white"/>
</clipPath>
</defs>
</svg>
