<svg width="32" height="32" viewBox="0 0 32 32" fill="none" xmlns="http://www.w3.org/2000/svg">
<g clip-path="url(#clip0_715_243)">
<path d="M19.7938 13.5546L23.5524 10.8126C24.2835 10.2792 23.9044 9.11768 22.9998 9.11768H18.3581L16.923 4.68237C16.6441 3.82062 15.4186 3.81887 15.1391 4.68237L13.704 9.11768H9.06227C8.15727 9.11768 7.77902 10.2794 8.50971 10.8126L12.2683 13.5546L10.8321 17.9929C10.5531 18.8552 11.5449 19.5727 12.2766 19.0389L16.031 16.2999L19.7853 19.0389C20.5127 19.5694 21.5095 18.8572 21.2298 17.9929L19.7938 13.5546ZM17.801 13.486L18.5566 15.8214L16.5837 14.382C16.2544 14.1418 15.8078 14.1419 15.4786 14.382L13.5056 15.8214L14.2613 13.486C14.386 13.1006 14.2491 12.6787 13.9219 12.44L11.9381 10.9927H14.3861C14.7926 10.9927 15.1529 10.7306 15.278 10.3438L16.0311 8.01631L16.7843 10.3438C16.9095 10.7306 17.2697 10.9927 17.6762 10.9927H20.1242L18.1404 12.44C17.8131 12.6787 17.6763 13.1006 17.801 13.486Z" fill="#1E1E1E"/>
<path d="M31.2222 29.5576L25.8579 20.1309C27.4746 18.0199 28.4375 15.3793 28.4375 12.5168C28.4374 5.615 22.844 0 15.9687 0C9.09334 0 3.4999 5.615 3.4999 12.5168C3.4999 15.4005 4.47684 18.0591 6.11528 20.1777L0.777528 29.5578C0.158653 30.646 0.941528 32 2.19434 32H10.1662C11.017 32 11.8073 31.5399 12.2285 30.7994L15.5149 25.0244C15.8569 25.0367 16.1135 25.0373 16.484 25.0221L19.7713 30.7994C20.1926 31.54 20.9828 32.0001 21.8337 32.0001H29.8055C31.0569 32 31.842 30.6474 31.2222 29.5576ZM10.5988 29.8722C10.5101 30.0281 10.3443 30.125 10.1662 30.125H2.61209L7.4409 21.6393C9.09884 23.2021 11.181 24.3161 13.4935 24.7854L10.5988 29.8722ZM5.3749 12.5168C5.3749 6.64887 10.1272 1.875 15.9687 1.875C21.8101 1.875 26.5624 6.64887 26.5624 12.5168C26.5624 18.3848 21.8101 23.1586 15.9687 23.1586C10.1272 23.1586 5.3749 18.3847 5.3749 12.5168ZM21.8337 30.125C21.6555 30.125 21.4897 30.0281 21.401 29.8721L18.5002 24.7741C20.809 24.2942 22.8862 23.1714 24.5373 21.6012L29.3877 30.125H21.8337Z" fill="#1E1E1E"/>
</g>
<defs>
<clipPath id="clip0_715_243">
<rect width="32" height="32" fill="white"/>
</clipPath>
</defs>
</svg>
