<svg width="32" height="32" viewBox="0 0 32 32" fill="none" xmlns="http://www.w3.org/2000/svg">
<g clip-path="url(#clip0_715_353)">
<path d="M17.9431 7.28329C18.6952 7.53985 19.381 7.94104 19.966 8.45366L22.2038 7.66641L23.71 10.2752L21.9116 11.8181C21.9859 12.1967 22.0251 12.5873 22.0251 12.9875C22.0251 13.3877 21.9859 13.7783 21.9116 14.1569L23.71 15.6997L22.2038 18.3085L19.966 17.5213C19.381 18.0339 18.6952 18.4351 17.9431 18.6917L17.5063 21.0209H14.4938L14.057 18.6917C13.3049 18.4351 12.619 18.0339 12.0341 17.5213L9.79629 18.3085L8.29004 15.6997L10.0885 14.1569C10.0142 13.7783 9.97498 13.3877 9.97498 12.9875C9.97498 12.5873 10.0142 12.1967 10.0885 11.8181L8.29004 10.2752L9.79629 7.66641L12.0341 8.45366C12.619 7.94104 13.3049 7.53985 14.057 7.28329L14.4938 4.9541H17.5063L17.9431 7.28329Z" stroke="#1E1E1E" stroke-miterlimit="10" stroke-linecap="round" stroke-linejoin="round"/>
<path d="M16 14.9959C17.1092 14.9959 18.0083 14.0967 18.0083 12.9876C18.0083 11.8784 17.1092 10.9792 16 10.9792C14.8909 10.9792 13.9917 11.8784 13.9917 12.9876C13.9917 14.0967 14.8909 14.9959 16 14.9959Z" stroke="#1E1E1E" stroke-miterlimit="10" stroke-linecap="round" stroke-linejoin="round"/>
<path d="M10.9791 27.0448C10.9791 25.2896 10.1598 23.6342 8.76345 22.5693C5.83026 20.4013 3.94995 16.9123 3.94995 12.9875C3.94995 6.33687 9.34933 0.9375 16 0.9375C22.6506 0.9375 28.0499 6.33687 28.0499 12.9875C28.0499 16.9118 26.1696 20.4008 23.2616 22.6019C21.8753 23.6588 21.062 25.3026 21.062 27.0453C21.0208 27.0458 21.0208 27.0458 21.0208 27.0458H10.9791V27.0448Z" stroke="#1E1E1E" stroke-miterlimit="10" stroke-linecap="round" stroke-linejoin="round"/>
<path d="M21.0209 27.0458H10.9792V29.0541C10.9792 29.5868 11.1906 30.0974 11.5677 30.474C11.9442 30.851 12.4549 31.0624 12.9876 31.0624H19.0126C19.5452 31.0624 20.0559 30.851 20.4324 30.474C20.8095 30.0974 21.0209 29.5868 21.0209 29.0541V27.0458Z" stroke="#1E1E1E" stroke-miterlimit="10" stroke-linecap="round" stroke-linejoin="round"/>
<path d="M0.9375 4.29089L2.08875 4.95564" stroke="#1E1E1E" stroke-miterlimit="10" stroke-linecap="round" stroke-linejoin="round"/>
<path d="M29.9111 21.0193L31.0624 21.684" stroke="#1E1E1E" stroke-miterlimit="10" stroke-linecap="round" stroke-linejoin="round"/>
<path d="M31.0624 4.29089L29.9111 4.95564" stroke="#1E1E1E" stroke-miterlimit="10" stroke-linecap="round" stroke-linejoin="round"/>
<path d="M2.08875 21.0193L0.9375 21.684" stroke="#1E1E1E" stroke-miterlimit="10" stroke-linecap="round" stroke-linejoin="round"/>
</g>
<defs>
<clipPath id="clip0_715_353">
<rect width="32" height="32" fill="white"/>
</clipPath>
</defs>
</svg>
