<svg width="244" height="244" viewBox="0 0 244 244" fill="none" xmlns="http://www.w3.org/2000/svg">
<g clip-path="url(#clip0_680_100529)">
<path d="M60.1631 118.987C57.1473 122.002 57.1473 126.892 60.1631 129.908C63.179 132.924 68.0687 132.924 71.0846 129.908C74.1004 126.892 74.1004 122.002 71.0846 118.987C68.0687 115.971 63.1795 115.971 60.1631 118.987Z" fill="url(#paint0_linear_680_100529)"/>
<path d="M99.4208 145.841L93.4868 137.523C94.8615 134.502 95.7286 131.329 96.101 128.121L105.479 124.061L104.376 115.017L94.2968 113.33C93.1647 110.306 91.5596 107.435 89.4993 104.833L93.2593 95.3318L86.0838 89.7164L77.7653 95.6499C74.7446 94.2753 71.5716 93.4081 68.364 93.0357L64.3039 83.6573L55.2593 84.7607L53.5727 94.8404C50.5486 95.9725 47.6772 97.5771 45.0752 99.6379L35.5743 95.8778L29.9589 103.053L35.8925 111.372C34.5178 114.393 33.6506 117.566 33.2783 120.773L23.8999 124.833L25.0033 133.878L35.0824 135.564C36.2146 138.589 37.8191 141.46 39.88 144.062L36.1199 153.563L43.2955 159.178L51.6139 153.245C54.6346 154.619 57.8076 155.487 61.0152 155.859L65.0754 165.237L74.12 164.134L75.8065 154.055C78.8307 152.923 81.702 151.318 84.3041 149.257L93.8049 153.017L99.4208 145.841ZM76.9919 134.074C71.6751 140.868 61.8575 142.066 55.0636 136.749C48.2696 131.432 47.0721 121.614 52.3889 114.821C57.7056 108.027 67.5232 106.829 74.3171 112.146C81.1106 117.463 82.3081 127.28 76.9919 134.074Z" fill="#263238"/>
<path d="M187.637 87.6082C185.644 88.9234 185.095 91.6054 186.41 93.5984C187.725 95.5914 190.407 96.1409 192.4 94.8252C194.393 93.5101 194.943 90.828 193.627 88.8355C192.312 86.842 189.63 86.293 187.637 87.6082Z" fill="#040C2B"/>
<path d="M207.712 90.5836C207.649 88.777 207.309 86.967 206.678 85.2195L210.365 80.845L207.555 76.5872L202.083 78.2567C200.724 76.9894 199.194 75.9646 197.558 75.1964L197.072 69.4956L192.074 68.4718L189.386 73.5221C187.579 73.5851 185.769 73.9257 184.021 74.5567L179.647 70.8698L175.39 73.6797L177.059 79.1512C175.792 80.5103 174.767 82.0402 173.998 83.6764L168.298 84.1629L167.274 89.1601L172.324 91.8489C172.387 93.6555 172.728 95.4655 173.359 97.213L169.672 101.587L172.482 105.845L177.953 104.176C179.312 105.443 180.842 106.468 182.478 107.236L182.965 112.937L187.962 113.961L190.651 108.91C192.458 108.847 194.268 108.507 196.015 107.876L200.389 111.562L204.647 108.752L202.978 103.281C204.245 101.922 205.27 100.392 206.038 98.7556L211.739 98.2691L212.763 93.2715L207.712 90.5836ZM194.836 98.5155C190.804 101.176 185.38 100.064 182.719 96.0335C180.059 92.0022 181.171 86.5781 185.201 83.9175C189.233 81.2574 194.657 82.3686 197.318 86.3995C199.978 90.4308 198.866 95.8554 194.836 98.5155Z" fill="url(#paint1_linear_680_100529)"/>
<path d="M83.8171 168.514L95.2831 163.16L71.8542 112.988L60.3887 118.342L83.8171 168.514Z" fill="#263238"/>
<path d="M34.7345 140.046L45.5779 148.718L68.7574 119.734L57.914 111.062L34.7345 140.046Z" fill="#263238"/>
<path d="M38.4491 150.948L27.1158 157.984L24.3225 174.867L18.6085 152.749L32.9508 147.156L38.4491 150.948Z" fill="#263238"/>
<path d="M38.4491 150.948L47.9026 160.36L46.8144 177.437L57.3718 157.179L44.6608 148.495L38.4491 150.948Z" fill="#263238"/>
<path d="M38.8469 156.428C44.2364 156.428 48.6055 152.059 48.6055 146.669C48.6055 141.28 44.2364 136.911 38.8469 136.911C33.4574 136.911 29.0884 141.28 29.0884 146.669C29.0884 152.059 33.4574 156.428 38.8469 156.428Z" fill="url(#paint2_linear_680_100529)"/>
<path d="M50.0708 201.382H130.384V180.102H50.0708V201.382Z" fill="url(#paint3_linear_680_100529)"/>
<path d="M133.5 196.467H46.955V202.946H133.5V196.467Z" fill="url(#paint4_linear_680_100529)"/>
<path d="M90.2274 154.475C82.3291 154.475 75.9265 160.878 75.9265 168.776V180.102H104.528V168.776C104.528 160.878 98.1256 154.475 90.2274 154.475Z" fill="url(#paint5_linear_680_100529)"/>
<path d="M64.9436 127.246C72.6523 127.246 78.9014 120.997 78.9014 113.289C78.9014 105.58 72.6523 99.3309 64.9436 99.3309C57.2349 99.3309 50.9858 105.58 50.9858 113.289C50.9858 120.997 57.2349 127.246 64.9436 127.246Z" fill="url(#paint6_linear_680_100529)"/>
<path d="M90.2279 172.391C93.25 172.391 95.6999 169.941 95.6999 166.919C95.6999 163.897 93.25 161.447 90.2279 161.447C87.2059 161.447 84.756 163.897 84.756 166.919C84.756 169.941 87.2059 172.391 90.2279 172.391Z" fill="url(#paint7_linear_680_100529)"/>
<path d="M65.0227 118.761C68.0448 118.761 70.4947 116.311 70.4947 113.289C70.4947 110.267 68.0448 107.817 65.0227 107.817C62.0007 107.817 59.5508 110.267 59.5508 113.289C59.5508 116.311 62.0007 118.761 65.0227 118.761Z" fill="url(#paint8_linear_680_100529)"/>
<path d="M118.639 82.7687H33.2144C27.9503 82.7687 23.6832 78.5016 23.6832 73.2375V54.1655C23.6832 48.9015 27.9503 44.6344 33.2144 44.6344H118.639C123.903 44.6344 128.17 48.9015 128.17 54.1655V73.2375C128.17 78.5016 123.903 82.7687 118.639 82.7687Z" stroke="white" stroke-miterlimit="10" stroke-linecap="round" stroke-linejoin="round" stroke-dasharray="5 5"/>
<path d="M208.735 198.232H123.311C118.047 198.232 113.78 193.965 113.78 188.701V169.629C113.78 164.365 118.047 160.098 123.311 160.098H208.736C214 160.098 218.267 164.365 218.267 169.629V188.701C218.267 193.965 213.999 198.232 208.735 198.232Z" stroke="white" stroke-miterlimit="10" stroke-linecap="round" stroke-linejoin="round" stroke-dasharray="5 5"/>
<path d="M177.415 59.6594H88.047C85.8398 59.6594 84.0508 61.4484 84.0508 63.6557V206.931C84.0508 209.138 85.8398 210.927 88.047 210.927H177.415C179.622 210.927 181.411 209.138 181.411 206.931V63.6557C181.411 61.4489 179.622 59.6594 177.415 59.6594Z" fill="url(#paint9_linear_680_100529)"/>
<path d="M176.67 65.6619V196.396C176.67 197.091 176.102 197.659 175.406 197.659H90.0576C89.3573 197.659 88.7942 197.091 88.7942 196.396V65.6619C88.7942 64.9665 89.3573 64.4033 90.0576 64.4033H175.406C176.102 64.4033 176.67 64.9665 176.67 65.6619Z" fill="url(#paint10_linear_680_100529)"/>
<path d="M160.722 162.513H105.56C100.961 162.513 97.2341 166.241 97.2341 170.838C97.2341 175.437 100.962 179.164 105.56 179.164H160.722C165.32 179.164 169.048 175.436 169.048 170.838C169.048 166.241 165.32 162.513 160.722 162.513Z" fill="url(#paint11_linear_680_100529)"/>
<path d="M104.89 166.422H103.352V175.256H104.89V166.422Z" fill="url(#paint12_linear_680_100529)"/>
<path d="M108.466 168.242H106.928V173.436H108.466V168.242Z" fill="url(#paint13_linear_680_100529)"/>
<path d="M117.657 175.256H119.196V166.422H117.657V175.256Z" fill="url(#paint14_linear_680_100529)"/>
<path d="M114.081 173.436H115.619V168.242H114.081V173.436Z" fill="url(#paint15_linear_680_100529)"/>
<path d="M112.042 169.317H110.504V172.361H112.042V169.317Z" fill="url(#paint16_linear_680_100529)"/>
<path d="M131.963 175.256H133.501V166.422H131.963V175.256Z" fill="url(#paint17_linear_680_100529)"/>
<path d="M128.387 173.436H129.925V168.242H128.387V173.436Z" fill="url(#paint18_linear_680_100529)"/>
<path d="M122.772 168.242H121.234V173.436H122.772V168.242Z" fill="url(#paint19_linear_680_100529)"/>
<path d="M124.81 172.361H126.348V169.317H124.81V172.361Z" fill="url(#paint20_linear_680_100529)"/>
<path d="M160.574 175.256H162.112V166.422H160.574V175.256Z" fill="url(#paint21_linear_680_100529)"/>
<path d="M156.998 173.436H158.536V168.242H156.998V173.436Z" fill="url(#paint22_linear_680_100529)"/>
<path d="M147.806 166.422H146.268V175.256H147.806V166.422Z" fill="url(#paint23_linear_680_100529)"/>
<path d="M151.383 168.242H149.845V173.436H151.383V168.242Z" fill="url(#paint24_linear_680_100529)"/>
<path d="M153.421 172.361H154.96V169.317H153.421V172.361Z" fill="url(#paint25_linear_680_100529)"/>
<path d="M137.077 168.242H135.539V173.436H137.077V168.242Z" fill="url(#paint26_linear_680_100529)"/>
<path d="M142.692 173.436H144.23V168.242H142.692V173.436Z" fill="url(#paint27_linear_680_100529)"/>
<path d="M140.654 169.317H139.116V172.361H140.654V169.317Z" fill="url(#paint28_linear_680_100529)"/>
<path d="M143.145 61.526H123.528C123.261 61.526 123.043 61.7427 123.043 62.0106C123.043 62.278 123.26 62.4952 123.528 62.4952H143.145C143.413 62.4952 143.63 62.2785 143.63 62.0106C143.63 61.7427 143.413 61.526 143.145 61.526Z" fill="url(#paint29_linear_680_100529)"/>
<path d="M161.207 64.4033L88.7942 179.165V155.265L146.121 64.4033H161.207Z" fill="url(#paint30_linear_680_100529)"/>
<path d="M176.67 65.6619V91.2014L109.501 197.659H90.0576C89.3573 197.659 88.7942 197.091 88.7942 196.395V186.896L166.079 64.4033H175.406C176.102 64.4033 176.67 64.9665 176.67 65.6619Z" fill="url(#paint31_linear_680_100529)"/>
<path d="M153.887 80.6957H111.575V94.0137H153.887V80.6957Z" fill="url(#paint32_linear_680_100529)"/>
<path d="M167.547 56.4083H163.875V70.9942H167.547C169.274 70.9942 170.673 69.5946 170.673 67.8685V59.5345C170.673 57.8079 169.274 56.4083 167.547 56.4083Z" fill="url(#paint33_linear_680_100529)"/>
<path d="M97.9148 56.4083H101.587V70.9942H97.9148C96.1888 70.9942 94.7892 69.5946 94.7892 67.8685V59.5345C94.7892 57.8079 96.1883 56.4083 97.9148 56.4083Z" fill="url(#paint34_linear_680_100529)"/>
<path d="M155.135 42.0602H110.326C103.622 42.0602 98.1876 47.495 98.1876 54.1987V73.2043C98.1876 79.9085 103.622 85.3428 110.326 85.3428H155.135C161.839 85.3428 167.274 79.908 167.274 73.2043V54.1987C167.274 47.4945 161.839 42.0602 155.135 42.0602Z" fill="black"/>
<path d="M155.186 50.2449H110.275C107.162 50.2449 104.638 52.7683 104.638 55.8813V60.1459C104.638 63.2589 107.162 65.7823 110.275 65.7823H155.186C158.299 65.7823 160.823 63.2589 160.823 60.1459V55.8813C160.823 52.7683 158.299 50.2449 155.186 50.2449Z" fill="black"/>
<path d="M167.272 100.587V119.662C167.272 128.7 161.899 136.474 154.169 139.963C151.373 141.227 148.274 141.935 145.009 141.935H120.453C119.214 141.935 117.994 141.832 116.808 141.637C115.646 141.447 114.514 141.164 113.421 140.793C113.338 140.773 113.255 140.744 113.172 140.715C112.533 140.49 111.903 140.241 111.293 139.963C110.942 139.807 110.596 139.636 110.259 139.461C108.448 138.529 106.779 137.357 105.306 135.981C104.652 135.376 104.032 134.727 103.456 134.044C100.172 130.169 98.1906 125.148 98.1906 119.662V100.587C98.1906 93.652 103.807 88.0352 110.747 88.0352H154.72C157.814 88.0352 160.65 89.1576 162.836 91.0168C163.622 91.6854 164.329 92.4467 164.929 93.2909C166.408 95.3454 167.272 97.8684 167.272 100.587Z" fill="#040C2B"/>
<path d="M154.17 107.957V139.965C151.375 141.228 148.275 141.933 145.009 141.933H120.454C117.188 141.933 114.089 141.233 111.293 139.965V107.957C111.293 102.253 115.915 97.6254 121.619 97.6254H143.844C149.549 97.6254 154.17 102.253 154.17 107.957Z" fill="#263238"/>
<path d="M151.433 53.4203H147.695V62.6069H151.433V53.4203Z" fill="url(#paint35_linear_680_100529)"/>
<path d="M117.767 53.4203H114.029V62.6069H117.767V53.4203Z" fill="url(#paint36_linear_680_100529)"/>
<path d="M144.063 88.0352L113.421 140.793C113.338 140.773 113.255 140.744 113.172 140.715C112.533 140.49 111.903 140.241 111.293 139.963C110.942 139.807 110.596 139.636 110.259 139.461C108.448 138.529 106.779 137.357 105.306 135.981L133.146 88.0352H144.063Z" fill="url(#paint37_linear_680_100529)"/>
<path d="M162.836 91.0168L133.268 141.935H120.453C119.214 141.935 117.994 141.832 116.808 141.637L147.923 88.0352H154.721C157.814 88.0352 160.65 89.1576 162.836 91.0168Z" fill="url(#paint38_linear_680_100529)"/>
<path d="M216.236 124.447V155.027C216.236 157.432 214.289 159.379 211.888 159.379H176.494C174.094 159.379 172.146 157.432 172.146 155.027V124.447H216.236Z" fill="url(#paint39_linear_680_100529)"/>
<path d="M208.067 140.551C207.742 141.246 207.171 141.823 206.48 142.155C207.404 143.203 207.729 144.746 207.307 146.077C207.272 146.187 207.228 146.302 207.135 146.369C206.928 146.517 206.623 146.322 206.554 146.077C206.486 145.832 206.567 145.575 206.615 145.325C206.813 144.318 206.438 143.217 205.666 142.539C205.004 142.767 204.276 142.801 203.596 142.636C203.246 142.552 202.832 142.23 203.012 141.918C203.166 141.651 203.561 141.74 203.86 141.815C205.056 142.114 206.371 141.524 207.105 140.534C207.35 140.203 207.537 139.833 207.668 139.443C208.187 137.898 207.875 136.186 206.861 134.919C206.39 134.332 205.794 133.845 205.123 133.504C204.789 133.333 204.436 133.199 204.072 133.107C203.891 133.062 203.706 133.026 203.52 133.002C203.461 132.995 202.995 132.995 202.98 132.966C203.448 133.885 203.613 134.984 203.288 135.962C202.963 136.94 202.104 137.759 201.082 137.897C201.22 138.812 200.889 139.785 200.224 140.427C200.07 140.576 199.887 140.713 199.675 140.738C199.462 140.763 199.22 140.638 199.182 140.427C199.131 140.142 199.435 139.94 199.659 139.757C200.114 139.385 200.359 138.771 200.284 138.188C200.208 137.605 199.817 137.072 199.283 136.827C198.944 136.672 198.459 136.459 198.577 136.106C198.674 135.812 199.097 135.824 199.384 135.939C199.962 136.172 200.464 136.59 200.797 137.117C201.666 137.048 202.379 136.289 202.567 135.44C202.757 134.59 202.498 133.689 202.045 132.945C201.317 131.75 200.076 130.879 198.705 130.601C197.333 130.323 195.815 130.593 194.715 131.459C194.321 131.769 194.195 132.119 194.19 132.133C194.185 132.119 194.059 131.769 193.664 131.459C192.565 130.593 191.046 130.323 189.675 130.601C188.304 130.879 187.063 131.75 186.335 132.945C185.882 133.689 185.624 134.589 185.812 135.44C186.002 136.289 186.715 137.048 187.582 137.117C187.916 136.59 188.417 136.172 188.996 135.939C189.283 135.824 189.706 135.812 189.803 136.106C189.92 136.459 189.436 136.672 189.097 136.827C188.563 137.072 188.171 137.605 188.096 138.188C188.021 138.771 188.266 139.385 188.72 139.757C188.944 139.941 189.249 140.142 189.198 140.427C189.16 140.638 188.918 140.764 188.705 140.738C188.492 140.713 188.309 140.576 188.156 140.427C187.49 139.785 187.16 138.812 187.297 137.897C186.276 137.759 185.417 136.941 185.092 135.962C184.767 134.984 184.932 133.885 185.4 132.966C185.385 132.995 184.919 132.995 184.859 133.002C184.673 133.026 184.489 133.062 184.307 133.107C183.944 133.199 183.591 133.333 183.257 133.504C182.586 133.845 181.989 134.332 181.519 134.919C180.505 136.186 180.193 137.899 180.711 139.443C180.842 139.833 181.029 140.203 181.274 140.534C182.009 141.525 183.324 142.114 184.52 141.815C184.819 141.74 185.215 141.651 185.368 141.918C185.547 142.23 185.134 142.551 184.784 142.636C184.103 142.801 183.376 142.767 182.714 142.539C181.942 143.217 181.567 144.317 181.764 145.325C181.813 145.575 181.894 145.832 181.825 146.077C181.757 146.321 181.451 146.517 181.245 146.369C181.152 146.302 181.108 146.187 181.073 146.077C180.651 144.746 180.976 143.204 181.9 142.155C181.209 141.823 180.638 141.246 180.313 140.551C179.005 141.56 178.272 143.269 178.444 144.913C178.615 146.556 179.686 148.077 181.174 148.794C181.765 149.078 182.439 149.247 183.092 149.35C183.979 149.491 184.961 149.621 185.829 149.322C186.483 149.096 187.091 148.614 187.208 147.896C187.232 147.744 187.238 147.575 187.342 147.461C187.512 147.273 187.856 147.371 187.982 147.592C188.107 147.812 188.069 148.089 187.989 148.33C187.751 149.043 187.177 149.615 186.502 149.945C185.828 150.275 185.059 150.379 184.308 150.346C185.653 151.893 188.021 152.45 189.914 151.664C191.161 152.472 192.737 152.759 194.189 152.443C195.641 152.759 197.217 152.472 198.464 151.664C200.357 152.45 202.724 151.894 204.069 150.346C203.319 150.379 202.55 150.275 201.875 149.945C201.2 149.615 200.627 149.043 200.389 148.33C200.309 148.089 200.271 147.812 200.396 147.592C200.522 147.371 200.866 147.273 201.036 147.461C201.139 147.575 201.145 147.744 201.17 147.896C201.286 148.614 201.895 149.096 202.549 149.322C203.417 149.621 204.399 149.491 205.286 149.35C205.939 149.247 206.612 149.079 207.204 148.794C208.693 148.077 209.762 146.556 209.934 144.913C210.108 143.269 209.375 141.56 208.067 140.551ZM191.648 134.102C191.808 133.943 192.074 133.946 192.234 134.102C192.558 134.418 192.961 134.695 193.365 134.839C193.485 134.882 193.608 134.917 193.733 134.943C193.762 134.949 193.792 134.954 193.821 134.959C193.829 134.961 193.833 134.962 193.837 134.962C193.839 134.963 193.84 134.963 193.843 134.963C193.902 134.97 193.961 134.973 194.021 134.975C194.078 134.977 194.134 134.976 194.19 134.973C194.246 134.976 194.303 134.977 194.359 134.975C194.419 134.973 194.478 134.97 194.537 134.963C194.54 134.962 194.541 134.962 194.543 134.962C194.547 134.962 194.551 134.961 194.559 134.959C194.589 134.954 194.618 134.949 194.648 134.943C194.773 134.917 194.896 134.882 195.016 134.839C195.42 134.695 195.823 134.418 196.146 134.102C196.306 133.946 196.573 133.943 196.732 134.102C196.889 134.26 196.893 134.532 196.732 134.689C196.068 135.337 195.131 135.84 194.19 135.802C194.19 136.039 194.19 136.515 194.19 136.515C194.19 136.277 194.19 136.039 194.19 135.802C193.249 135.84 192.312 135.337 191.647 134.689C191.488 134.532 191.491 134.26 191.648 134.102ZM199.44 145.326C199.348 145.535 199.137 145.667 198.924 145.75C198.485 145.922 197.986 145.937 197.536 145.793C196.795 146.805 195.393 147.276 194.192 146.919C194.19 146.919 194.192 146.919 194.19 146.919C192.988 147.276 191.587 146.804 190.846 145.793C190.396 145.937 189.896 145.922 189.457 145.75C189.245 145.667 189.035 145.535 188.942 145.326C188.85 145.118 188.929 144.825 189.147 144.756C189.34 144.695 189.536 144.822 189.719 144.908C190.114 145.094 190.61 145.09 190.965 144.835C191.319 144.582 191.48 144.062 191.272 143.678C191.192 143.53 191.06 143.395 191.056 143.226C191.05 142.976 191.355 142.806 191.596 142.871C191.837 142.937 192.003 143.161 192.098 143.392C192.375 144.066 192.151 144.911 191.576 145.364C192.168 146.13 193.299 146.423 194.188 146.04C194.188 145.924 194.194 145.924 194.194 146.04C195.083 146.422 196.215 146.13 196.807 145.364C196.231 144.911 196.008 144.066 196.284 143.392C196.379 143.161 196.545 142.937 196.787 142.871C197.028 142.806 197.333 142.976 197.326 143.226C197.322 143.395 197.191 143.53 197.11 143.678C196.902 144.062 197.063 144.582 197.418 144.835C197.772 145.089 198.269 145.094 198.663 144.908C198.846 144.822 199.042 144.695 199.235 144.756C199.452 144.825 199.532 145.118 199.44 145.326Z" fill="url(#paint40_linear_680_100529)"/>
<path d="M213.874 117.264H174.507C173.203 117.264 172.147 118.321 172.147 119.625V124.448H216.235V119.625C216.235 118.321 215.178 117.264 213.874 117.264Z" fill="url(#paint41_linear_680_100529)"/>
<path d="M175.036 121.491C175.387 121.491 175.671 121.207 175.671 120.857C175.671 120.506 175.387 120.222 175.036 120.222C174.686 120.222 174.402 120.506 174.402 120.857C174.402 121.207 174.686 121.491 175.036 121.491Z" fill="white"/>
<path d="M178.063 121.491C178.414 121.491 178.698 121.207 178.698 120.857C178.698 120.506 178.414 120.222 178.063 120.222C177.713 120.222 177.429 120.506 177.429 120.857C177.429 121.207 177.713 121.491 178.063 121.491Z" fill="white"/>
<path d="M181.091 121.491C181.441 121.491 181.725 121.207 181.725 120.857C181.725 120.506 181.441 120.222 181.091 120.222C180.74 120.222 180.456 120.506 180.456 120.857C180.456 121.207 180.74 121.491 181.091 121.491Z" fill="white"/>
<path d="M207.972 124.447L185.93 159.379H177.943L199.986 124.447H207.972Z" fill="url(#paint42_linear_680_100529)"/>
<path d="M216.236 124.447V138.517L203.074 159.379H188.511L210.554 124.447H216.236Z" fill="url(#paint43_linear_680_100529)"/>
<path d="M79.4162 46.457V77.0366C79.4162 79.4419 77.4691 81.3886 75.0686 81.3886H39.6745C37.2735 81.3886 35.3269 79.4414 35.3269 77.0366V46.457H79.4162Z" fill="#263238"/>
<path d="M58.3571 71.8901C58.0345 71.9375 57.7076 71.9609 57.3733 71.9609C57.0385 71.9609 56.7121 71.9375 56.3895 71.8901V74.3575H51.4431V76.7658H63.3V74.3575H58.3576L58.3571 71.8901Z" fill="url(#paint44_linear_680_100529)"/>
<path d="M60.5531 60.1888H63.5001V58.5814H60.5531C60.0353 58.5814 59.6152 58.1617 59.6152 57.6434C59.6152 57.1252 60.0349 56.7055 60.5531 56.7055H63.4748C63.2186 53.5564 60.5868 51.0789 57.3713 51.0789C54.1559 51.0789 51.5241 53.5559 51.2679 56.7055H54.1896C54.7074 56.7055 55.1275 57.1252 55.1275 57.6434C55.1275 58.1617 54.7078 58.5814 54.1896 58.5814H51.2426V60.1888H54.1896C54.7074 60.1888 55.1275 60.6085 55.1275 61.1268C55.1275 61.6445 54.7078 62.0647 54.1896 62.0647H51.2426V63.6722H54.1896C54.7074 63.6722 55.1275 64.0919 55.1275 64.6101C55.1275 65.1284 54.7078 65.5481 54.1896 65.5481H51.2679C51.5241 68.6971 54.1564 71.1747 57.3713 71.1747C60.5868 71.1747 63.2186 68.6976 63.4748 65.5481H60.5531C60.0353 65.5481 59.6152 65.1284 59.6152 64.6101C59.6152 64.0919 60.0349 63.6722 60.5531 63.6722H63.5001V62.0647H60.5531C60.0353 62.0647 59.6152 61.645 59.6152 61.1268C59.6157 60.6085 60.0353 60.1888 60.5531 60.1888Z" fill="url(#paint45_linear_680_100529)"/>
<path d="M77.0548 39.2742H37.6883C36.3844 39.2742 35.3279 40.3312 35.3279 41.6346V46.4575H79.4158V41.6346C79.4153 40.3312 78.3587 39.2742 77.0548 39.2742Z" fill="url(#paint46_linear_680_100529)"/>
<path d="M38.2173 43.5002C38.5677 43.5002 38.8517 43.2162 38.8517 42.8658C38.8517 42.5155 38.5677 42.2314 38.2173 42.2314C37.8669 42.2314 37.5829 42.5155 37.5829 42.8658C37.5829 43.2162 37.8669 43.5002 38.2173 43.5002Z" fill="white"/>
<path d="M41.2444 43.5002C41.5948 43.5002 41.8788 43.2162 41.8788 42.8658C41.8788 42.5155 41.5948 42.2314 41.2444 42.2314C40.894 42.2314 40.61 42.5155 40.61 42.8658C40.61 43.2162 40.894 43.5002 41.2444 43.5002Z" fill="white"/>
<path d="M44.2715 43.5002C44.6219 43.5002 44.9059 43.2162 44.9059 42.8658C44.9059 42.5155 44.6219 42.2314 44.2715 42.2314C43.9211 42.2314 43.6371 42.5155 43.6371 42.8658C43.6371 43.2162 43.9211 43.5002 44.2715 43.5002Z" fill="white"/>
<path d="M71.1525 46.457L49.11 81.3886H41.1239L63.1664 46.457H71.1525Z" fill="url(#paint47_linear_680_100529)"/>
<path d="M79.4163 46.457V60.5266L66.2544 81.3886H51.6915L73.734 46.457H79.4163Z" fill="url(#paint48_linear_680_100529)"/>
<path d="M113.602 175.264H67.996C66.1699 175.264 64.6903 176.744 64.6903 178.57V215.313H116.908V178.57C116.908 176.744 115.428 175.264 113.602 175.264Z" fill="url(#paint49_linear_680_100529)"/>
<path d="M112.031 155.618H73.5432V201.153H112.031V155.618Z" fill="url(#paint50_linear_680_100529)"/>
<path d="M86.6885 173.401V171.367H84.6545C84.6545 170.408 83.8772 169.631 82.9182 169.631C81.9593 169.631 81.1819 170.408 81.1819 171.367H79.1479V178.908H81.1819C81.1819 179.867 81.9593 180.644 82.9182 180.644C83.8772 180.644 84.6545 179.867 84.6545 178.908H86.6885V176.874C85.7296 176.874 84.9522 176.097 84.9522 175.138C84.9522 174.179 85.7296 173.401 86.6885 173.401Z" fill="url(#paint51_linear_680_100529)"/>
<path d="M84.6545 171.367H86.6885V169.333C87.6474 169.333 88.4248 168.556 88.4248 167.597C88.4248 166.638 87.6474 165.861 86.6885 165.861V163.827H79.1484V165.861C78.1895 165.861 77.4121 166.638 77.4121 167.597C77.4121 168.556 78.1895 169.333 79.1484 169.333V171.367H81.1824C81.1824 170.409 81.9598 169.631 82.9187 169.631C83.8776 169.631 84.6545 170.409 84.6545 171.367Z" fill="url(#paint52_linear_680_100529)"/>
<path d="M88.7224 171.367H86.6885V173.401C85.7295 173.401 84.9521 174.179 84.9521 175.138C84.9521 176.097 85.7295 176.874 86.6885 176.874V178.908H94.229V176.874C95.1879 176.874 95.9653 176.097 95.9653 175.138C95.9653 174.179 95.1879 173.401 94.229 173.401V171.367H92.195C92.195 172.326 91.4177 173.104 90.4587 173.104C89.4998 173.104 88.7224 172.326 88.7224 171.367Z" fill="url(#paint53_linear_680_100529)"/>
<path d="M86.6885 169.333V171.367H88.7225C88.7225 172.326 89.4998 173.104 90.4588 173.104C91.4177 173.104 92.1951 172.326 92.1951 171.367H94.2291V163.827H92.1951C92.1951 162.868 91.4177 162.091 90.4588 162.091C89.4998 162.091 88.7225 162.868 88.7225 163.827H86.6885V165.861C87.6474 165.861 88.4248 166.638 88.4248 167.597C88.4248 168.556 87.6474 169.333 86.6885 169.333Z" fill="url(#paint54_linear_680_100529)"/>
<path d="M108.162 182.591H78.5643V183.267H108.162V182.591Z" fill="url(#paint55_linear_680_100529)"/>
<path d="M108.162 178.787H98.3151V179.462H108.162V178.787Z" fill="url(#paint56_linear_680_100529)"/>
<path d="M108.162 174.983H98.3151V175.658H108.162V174.983Z" fill="url(#paint57_linear_680_100529)"/>
<path d="M108.162 171.179H98.3151V171.854H108.162V171.179Z" fill="url(#paint58_linear_680_100529)"/>
<path d="M108.162 167.374H98.3151V168.05H108.162V167.374Z" fill="url(#paint59_linear_680_100529)"/>
<path d="M108.162 163.57H98.3151V164.245H108.162V163.57Z" fill="url(#paint60_linear_680_100529)"/>
<path d="M108.162 186.396H78.5643V187.071H108.162V186.396Z" fill="url(#paint61_linear_680_100529)"/>
<path d="M108.162 190.2H78.5643V190.876H108.162V190.2Z" fill="url(#paint62_linear_680_100529)"/>
<path d="M108.162 194.005H78.5643V194.68H108.162V194.005Z" fill="url(#paint63_linear_680_100529)"/>
<path d="M107.01 152.291H68.5216V197.825H107.01V152.291Z" fill="url(#paint64_linear_680_100529)"/>
<path d="M81.6669 170.074V168.04H79.6329C79.6329 167.081 78.8555 166.303 77.8966 166.303C76.9377 166.303 76.1603 167.081 76.1603 168.04H74.1263V175.58H76.1603C76.1603 176.539 76.9377 177.317 77.8966 177.317C78.8555 177.317 79.6329 176.539 79.6329 175.58H81.6669V173.546C80.708 173.546 79.9306 172.769 79.9306 171.81C79.9306 170.851 80.708 170.074 81.6669 170.074Z" fill="url(#paint65_linear_680_100529)"/>
<path d="M79.6329 168.04H81.6669V166.006C82.6258 166.006 83.4032 165.228 83.4032 164.27C83.4032 163.311 82.6258 162.533 81.6669 162.533V160.499H74.1263V162.533C73.1674 162.533 72.39 163.311 72.39 164.27C72.39 165.228 73.1674 166.006 74.1263 166.006V168.04H76.1603C76.1603 167.081 76.9377 166.304 77.8966 166.304C78.8555 166.304 79.6329 167.081 79.6329 168.04Z" fill="url(#paint66_linear_680_100529)"/>
<path d="M83.7008 168.04H81.6668V170.074C80.7079 170.074 79.9305 170.851 79.9305 171.81C79.9305 172.769 80.7079 173.546 81.6668 173.546V175.58H89.2074V173.546C90.1663 173.546 90.9437 172.769 90.9437 171.81C90.9437 170.851 90.1663 170.074 89.2074 170.074V168.04H87.1734C87.1734 168.999 86.3961 169.776 85.4371 169.776C84.4782 169.776 83.7008 168.999 83.7008 168.04Z" fill="url(#paint67_linear_680_100529)"/>
<path d="M81.6669 166.006V168.04H83.7009C83.7009 168.999 84.4782 169.776 85.4372 169.776C86.3961 169.776 87.1735 168.999 87.1735 168.04H89.2074V160.5H87.1735C87.1735 159.541 86.3961 158.763 85.4372 158.763C84.4782 158.763 83.7009 159.541 83.7009 160.5H81.6669V162.534C82.6258 162.534 83.4032 163.311 83.4032 164.27C83.4032 165.228 82.6258 166.006 81.6669 166.006Z" fill="url(#paint68_linear_680_100529)"/>
<path d="M103.141 179.264H73.5432V179.939H103.141V179.264Z" fill="url(#paint69_linear_680_100529)"/>
<path d="M103.14 175.459H93.2935V176.135H103.14V175.459Z" fill="url(#paint70_linear_680_100529)"/>
<path d="M103.14 171.655H93.2935V172.33H103.14V171.655Z" fill="url(#paint71_linear_680_100529)"/>
<path d="M103.14 167.851H93.2935V168.526H103.14V167.851Z" fill="url(#paint72_linear_680_100529)"/>
<path d="M103.14 164.047H93.2935V164.722H103.14V164.047Z" fill="url(#paint73_linear_680_100529)"/>
<path d="M103.14 160.242H93.2935V160.917H103.14V160.242Z" fill="url(#paint74_linear_680_100529)"/>
<path d="M103.141 183.068H73.5432V183.744H103.141V183.068Z" fill="url(#paint75_linear_680_100529)"/>
<path d="M103.141 186.872H73.5432V187.548H103.141V186.872Z" fill="url(#paint76_linear_680_100529)"/>
<path d="M103.141 190.677H73.5432V191.352H103.141V190.677Z" fill="url(#paint77_linear_680_100529)"/>
<path d="M109.186 181.805H63.5797C61.7541 181.805 60.4687 183.285 60.7092 185.111L64.6899 215.313H116.908L112.927 185.111C112.687 183.285 111.011 181.805 109.186 181.805Z" fill="url(#paint78_linear_680_100529)"/>
<path d="M119.818 26.2275H104.994C102.34 26.2275 100.19 28.3786 100.19 31.0319C100.19 33.6852 102.341 35.8363 104.994 35.8363H105.612L105.062 37.6209L108.391 35.8363H119.818C122.471 35.8363 124.622 33.6852 124.622 31.0319C124.622 28.3786 122.471 26.2275 119.818 26.2275ZM107.058 29.8309C107.721 29.8309 108.259 30.3687 108.259 31.0319C108.259 31.6951 107.721 32.2329 107.058 32.2329C106.395 32.2329 105.857 31.6951 105.857 31.0319C105.857 30.3687 106.394 29.8309 107.058 29.8309ZM112.405 32.2329C111.742 32.2329 111.204 31.6951 111.204 31.0319C111.204 30.3687 111.742 29.8309 112.405 29.8309C113.069 29.8309 113.606 30.3687 113.606 31.0319C113.607 31.6951 113.069 32.2329 112.405 32.2329ZM117.753 32.2329C117.09 32.2329 116.552 31.6951 116.552 31.0319C116.552 30.3687 117.09 29.8309 117.753 29.8309C118.417 29.8309 118.954 30.3687 118.954 31.0319C118.954 31.6951 118.417 32.2329 117.753 32.2329Z" fill="white"/>
<path d="M230.301 99.9629H215.002C214.533 99.9629 214.152 100.344 214.152 100.813V109.547C214.152 110.017 214.533 110.397 215.002 110.397H230.301C230.771 110.397 231.151 110.017 231.151 109.547V100.813C231.151 100.344 230.771 99.9629 230.301 99.9629ZM230.156 101.352L223.335 106.475C223.13 106.628 222.889 106.706 222.648 106.706C222.409 106.706 222.171 106.63 221.968 106.48L215.031 101.353C214.879 101.24 214.846 101.024 214.959 100.872C215.072 100.718 215.288 100.686 215.441 100.799L222.377 105.926C222.541 106.047 222.759 106.046 222.921 105.924L229.743 100.801C229.895 100.688 230.111 100.718 230.225 100.87C230.339 101.022 230.308 101.238 230.156 101.352Z" fill="white"/>
<path d="M183.061 176.43C183.061 179.425 185.489 181.854 188.484 181.854H201.385L205.143 183.868L204.523 181.854H205.221C208.216 181.854 210.644 179.425 210.644 176.43C210.644 173.435 208.216 171.006 205.221 171.006H188.484C185.489 171.006 183.061 173.434 183.061 176.43ZM204.246 176.43C204.246 177.179 203.639 177.786 202.89 177.786C202.141 177.786 201.534 177.179 201.534 176.43C201.534 175.681 202.141 175.074 202.89 175.074C203.639 175.074 204.246 175.681 204.246 176.43ZM195.497 176.43C195.497 175.681 196.104 175.074 196.852 175.074C197.601 175.074 198.209 175.681 198.209 176.43C198.209 177.179 197.601 177.786 196.852 177.786C196.104 177.786 195.497 177.179 195.497 176.43ZM189.459 176.43C189.459 175.681 190.066 175.074 190.815 175.074C191.564 175.074 192.172 175.681 192.172 176.43C192.172 177.179 191.564 177.786 190.815 177.786C190.066 177.786 189.459 177.179 189.459 176.43Z" fill="white"/>
<path d="M23.5373 98.7751C27.7118 98.7751 31.0959 95.391 31.0959 91.2165C31.0959 87.042 27.7118 83.6578 23.5373 83.6578C19.3628 83.6578 15.9786 87.042 15.9786 91.2165C15.9786 95.391 19.3628 98.7751 23.5373 98.7751Z" stroke="white" stroke-width="2" stroke-miterlimit="10"/>
<path d="M23.5373 98.7751C25.3614 98.7751 26.8401 95.391 26.8401 91.2165C26.8401 87.042 25.3614 83.6578 23.5373 83.6578C21.7132 83.6578 20.2345 87.042 20.2345 91.2165C20.2345 95.391 21.7132 98.7751 23.5373 98.7751Z" stroke="white" stroke-width="2" stroke-miterlimit="10"/>
<path d="M15.9786 91.2164H31.0959H31.3877" stroke="white" stroke-width="2" stroke-miterlimit="10"/>
<path d="M23.5372 83.6578V98.7756" stroke="white" stroke-width="2" stroke-miterlimit="10"/>
<path d="M18.2712 85.6758C18.2712 85.6758 23.4792 86.6362 28.6798 85.6758" stroke="white" stroke-width="2" stroke-miterlimit="10"/>
<path d="M28.6798 96.7558C28.6798 96.7558 23.4719 95.7954 18.2712 96.7558" stroke="white" stroke-width="2" stroke-miterlimit="10"/>
<path d="M211.271 36.9367C210.454 36.824 209.662 36.8567 208.912 37.0055C207.831 31.6887 203.131 27.6876 197.496 27.6876C192.622 27.6876 188.45 30.6805 186.711 34.9281C185.536 34.3337 184.205 34.0028 182.794 34.018C178.114 34.0692 174.402 38.0039 174.402 42.6839V47.6507C174.402 50.1478 176.427 52.172 178.924 52.172H212.833C215.331 52.172 217.355 50.1478 217.355 47.6507V44.0766C217.354 40.5264 214.788 37.4218 211.271 36.9367Z" fill="url(#paint79_linear_680_100529)"/>
<path d="M219.777 60.1318C219.391 60.0786 219.017 60.0942 218.662 60.1645C218.151 57.6522 215.93 55.7612 213.267 55.7612C210.964 55.7612 208.993 57.1755 208.171 59.1826C207.616 58.902 206.987 58.7453 206.32 58.7527C204.109 58.7771 202.355 60.6363 202.355 62.8475V65.1948C202.355 66.3747 203.311 67.3312 204.491 67.3312H220.515C221.695 67.3312 222.651 66.3747 222.651 65.1948V63.5058C222.652 61.828 221.439 60.3606 219.777 60.1318Z" fill="url(#paint80_linear_680_100529)"/>
</g>
<defs>
<linearGradient id="paint0_linear_680_100529" x1="29.1858" y1="-24.5084" x2="120.611" y2="349.228" gradientUnits="userSpaceOnUse">
<stop stop-color="#EDE8FF"/>
<stop offset="0.2566" stop-color="#DBD2FF"/>
<stop offset="1" stop-color="#A793FF"/>
</linearGradient>
<linearGradient id="paint1_linear_680_100529" x1="155.051" y1="-51.7276" x2="219.732" y2="212.682" gradientUnits="userSpaceOnUse">
<stop stop-color="#040C2B"/>
<stop offset="0.2566" stop-color="#040C2B"/>
<stop offset="1" stop-color="#040C2B"/>
</linearGradient>
<linearGradient id="paint2_linear_680_100529" x1="40.239" y1="125.139" x2="37.2574" y2="171.251" gradientUnits="userSpaceOnUse">
<stop stop-color="#FF7D71"/>
<stop offset="0.5317" stop-color="#BD1F00"/>
<stop offset="1" stop-color="#741000"/>
</linearGradient>
<linearGradient id="paint3_linear_680_100529" x1="90.2276" y1="120.775" x2="90.2276" y2="205.237" gradientUnits="userSpaceOnUse">
<stop stop-color="#DBCCFF"/>
<stop offset="0.5" stop-color="#6744FF"/>
<stop offset="1" stop-color="#240068"/>
</linearGradient>
<linearGradient id="paint4_linear_680_100529" x1="90.2276" y1="186.748" x2="90.2276" y2="219.902" gradientUnits="userSpaceOnUse">
<stop stop-color="#DBCCFF"/>
<stop offset="0.5" stop-color="#6744FF"/>
<stop offset="1" stop-color="#240068"/>
</linearGradient>
<linearGradient id="paint5_linear_680_100529" x1="90.2276" y1="76.0087" x2="90.2276" y2="194.114" gradientUnits="userSpaceOnUse">
<stop stop-color="#FF7D71"/>
<stop offset="0.5317" stop-color="#BD1F00"/>
<stop offset="1" stop-color="#741000"/>
</linearGradient>
<linearGradient id="paint6_linear_680_100529" x1="64.1893" y1="81.7261" x2="65.3674" y2="131.009" gradientUnits="userSpaceOnUse">
<stop stop-color="#FF7D71"/>
<stop offset="0.5317" stop-color="#BD1F00"/>
<stop offset="1" stop-color="#741000"/>
</linearGradient>
<linearGradient id="paint7_linear_680_100529" x1="90.2277" y1="145.031" x2="90.2277" y2="201.029" gradientUnits="userSpaceOnUse">
<stop stop-color="#DBCCFF"/>
<stop offset="0.5" stop-color="#6744FF"/>
<stop offset="1" stop-color="#240068"/>
</linearGradient>
<linearGradient id="paint8_linear_680_100529" x1="65.0225" y1="91.4012" x2="65.0225" y2="147.399" gradientUnits="userSpaceOnUse">
<stop stop-color="#DBCCFF"/>
<stop offset="0.5" stop-color="#6744FF"/>
<stop offset="1" stop-color="#240068"/>
</linearGradient>
<linearGradient id="paint9_linear_680_100529" x1="58.5092" y1="-77.1967" x2="238.698" y2="438.665" gradientUnits="userSpaceOnUse">
<stop stop-color="#040C2B"/>
<stop offset="0.5" stop-color="#040C2B"/>
<stop offset="1" stop-color="#240068"/>
</linearGradient>
<linearGradient id="paint10_linear_680_100529" x1="102.168" y1="45.7458" x2="164.175" y2="218.765" gradientUnits="userSpaceOnUse">
<stop stop-color="#EDE8FF"/>
<stop offset="0.2566" stop-color="#B32C28"/>
<stop offset="1" stop-color="#B32C28"/>
</linearGradient>
<linearGradient id="paint11_linear_680_100529" x1="91.8816" y1="73.1644" x2="189.893" y2="305.191" gradientUnits="userSpaceOnUse">
<stop stop-color="#EDE8FF"/>
<stop offset="0.2566" stop-color="#DBD2FF"/>
<stop offset="1" stop-color="#A793FF"/>
</linearGradient>
<linearGradient id="paint12_linear_680_100529" x1="104.121" y1="143.669" x2="104.121" y2="174.424" gradientUnits="userSpaceOnUse">
<stop stop-color="#F4DC73"/>
<stop offset="1" stop-color="#E57300"/>
</linearGradient>
<linearGradient id="paint13_linear_680_100529" x1="107.697" y1="143.669" x2="107.697" y2="174.424" gradientUnits="userSpaceOnUse">
<stop stop-color="#F4DC73"/>
<stop offset="1" stop-color="#E57300"/>
</linearGradient>
<linearGradient id="paint14_linear_680_100529" x1="118.426" y1="143.669" x2="118.426" y2="174.424" gradientUnits="userSpaceOnUse">
<stop stop-color="#F4DC73"/>
<stop offset="1" stop-color="#E57300"/>
</linearGradient>
<linearGradient id="paint15_linear_680_100529" x1="114.85" y1="143.669" x2="114.85" y2="174.424" gradientUnits="userSpaceOnUse">
<stop stop-color="#F4DC73"/>
<stop offset="1" stop-color="#E57300"/>
</linearGradient>
<linearGradient id="paint16_linear_680_100529" x1="111.274" y1="143.669" x2="111.274" y2="174.424" gradientUnits="userSpaceOnUse">
<stop stop-color="#F4DC73"/>
<stop offset="1" stop-color="#E57300"/>
</linearGradient>
<linearGradient id="paint17_linear_680_100529" x1="132.732" y1="143.669" x2="132.732" y2="174.424" gradientUnits="userSpaceOnUse">
<stop stop-color="#F4DC73"/>
<stop offset="1" stop-color="#E57300"/>
</linearGradient>
<linearGradient id="paint18_linear_680_100529" x1="129.156" y1="143.669" x2="129.156" y2="174.424" gradientUnits="userSpaceOnUse">
<stop stop-color="#F4DC73"/>
<stop offset="1" stop-color="#E57300"/>
</linearGradient>
<linearGradient id="paint19_linear_680_100529" x1="122.003" y1="143.669" x2="122.003" y2="174.424" gradientUnits="userSpaceOnUse">
<stop stop-color="#F4DC73"/>
<stop offset="1" stop-color="#E57300"/>
</linearGradient>
<linearGradient id="paint20_linear_680_100529" x1="125.579" y1="143.669" x2="125.579" y2="174.424" gradientUnits="userSpaceOnUse">
<stop stop-color="#F4DC73"/>
<stop offset="1" stop-color="#E57300"/>
</linearGradient>
<linearGradient id="paint21_linear_680_100529" x1="161.343" y1="143.669" x2="161.343" y2="174.424" gradientUnits="userSpaceOnUse">
<stop stop-color="#F4DC73"/>
<stop offset="1" stop-color="#E57300"/>
</linearGradient>
<linearGradient id="paint22_linear_680_100529" x1="157.767" y1="143.669" x2="157.767" y2="174.424" gradientUnits="userSpaceOnUse">
<stop stop-color="#F4DC73"/>
<stop offset="1" stop-color="#E57300"/>
</linearGradient>
<linearGradient id="paint23_linear_680_100529" x1="147.037" y1="143.669" x2="147.037" y2="174.424" gradientUnits="userSpaceOnUse">
<stop stop-color="#F4DC73"/>
<stop offset="1" stop-color="#E57300"/>
</linearGradient>
<linearGradient id="paint24_linear_680_100529" x1="150.614" y1="143.669" x2="150.614" y2="174.424" gradientUnits="userSpaceOnUse">
<stop stop-color="#F4DC73"/>
<stop offset="1" stop-color="#E57300"/>
</linearGradient>
<linearGradient id="paint25_linear_680_100529" x1="154.19" y1="143.669" x2="154.19" y2="174.424" gradientUnits="userSpaceOnUse">
<stop stop-color="#F4DC73"/>
<stop offset="1" stop-color="#E57300"/>
</linearGradient>
<linearGradient id="paint26_linear_680_100529" x1="136.308" y1="143.669" x2="136.308" y2="174.424" gradientUnits="userSpaceOnUse">
<stop stop-color="#F4DC73"/>
<stop offset="1" stop-color="#E57300"/>
</linearGradient>
<linearGradient id="paint27_linear_680_100529" x1="143.461" y1="143.669" x2="143.461" y2="174.424" gradientUnits="userSpaceOnUse">
<stop stop-color="#F4DC73"/>
<stop offset="1" stop-color="#E57300"/>
</linearGradient>
<linearGradient id="paint28_linear_680_100529" x1="139.885" y1="143.669" x2="139.885" y2="174.424" gradientUnits="userSpaceOnUse">
<stop stop-color="#F4DC73"/>
<stop offset="1" stop-color="#E57300"/>
</linearGradient>
<linearGradient id="paint29_linear_680_100529" x1="133.691" y1="43.8611" x2="133.086" y2="74.8606" gradientUnits="userSpaceOnUse">
<stop stop-color="#DBCCFF"/>
<stop offset="0.5" stop-color="#6744FF"/>
<stop offset="1" stop-color="#240068"/>
</linearGradient>
<linearGradient id="paint30_linear_680_100529" x1="198.529" y1="-18.7534" x2="93.0171" y2="165.768" gradientUnits="userSpaceOnUse">
<stop stop-color="white"/>
<stop offset="1" stop-color="white" stop-opacity="0"/>
</linearGradient>
<linearGradient id="paint31_linear_680_100529" x1="216.945" y1="-8.22328" x2="111.433" y2="176.297" gradientUnits="userSpaceOnUse">
<stop stop-color="white"/>
<stop offset="1" stop-color="white" stop-opacity="0"/>
</linearGradient>
<linearGradient id="paint32_linear_680_100529" x1="132.731" y1="71.4111" x2="132.731" y2="87.1674" gradientUnits="userSpaceOnUse">
<stop stop-color="#DBCCFF"/>
<stop offset="0.5" stop-color="#6744FF"/>
<stop offset="1" stop-color="#240068"/>
</linearGradient>
<linearGradient id="paint33_linear_680_100529" x1="175.93" y1="62.0448" x2="164.762" y2="63.8783" gradientUnits="userSpaceOnUse">
<stop stop-color="#FF7D71"/>
<stop offset="0.5317" stop-color="#BD1F00"/>
<stop offset="1" stop-color="#741000"/>
</linearGradient>
<linearGradient id="paint34_linear_680_100529" x1="89.5318" y1="62.0448" x2="100.7" y2="63.8783" gradientUnits="userSpaceOnUse">
<stop stop-color="#FF7D71"/>
<stop offset="0.5317" stop-color="#BD1F00"/>
<stop offset="1" stop-color="#741000"/>
</linearGradient>
<linearGradient id="paint35_linear_680_100529" x1="147.645" y1="41.8516" x2="151.245" y2="72.1704" gradientUnits="userSpaceOnUse">
<stop stop-color="#F4DC73"/>
<stop offset="1" stop-color="#E57300"/>
</linearGradient>
<linearGradient id="paint36_linear_680_100529" x1="113.979" y1="41.8516" x2="117.579" y2="72.1704" gradientUnits="userSpaceOnUse">
<stop stop-color="#F4DC73"/>
<stop offset="1" stop-color="#E57300"/>
</linearGradient>
<linearGradient id="paint37_linear_680_100529" x1="173.268" y1="57.8522" x2="116.453" y2="122.144" gradientUnits="userSpaceOnUse">
<stop stop-color="white"/>
<stop offset="1" stop-color="white" stop-opacity="0"/>
</linearGradient>
<linearGradient id="paint38_linear_680_100529" x1="183.272" y1="66.6927" x2="126.457" y2="130.984" gradientUnits="userSpaceOnUse">
<stop stop-color="white"/>
<stop offset="1" stop-color="white" stop-opacity="0"/>
</linearGradient>
<linearGradient id="paint39_linear_680_100529" x1="188.321" y1="104.703" x2="197.186" y2="157.892" gradientUnits="userSpaceOnUse">
<stop stop-color="#EDE8FF"/>
<stop offset="0.2566" stop-color="#DBD2FF"/>
<stop offset="1" stop-color="#A793FF"/>
</linearGradient>
<linearGradient id="paint40_linear_680_100529" x1="194.191" y1="108.187" x2="194.191" y2="161.981" gradientUnits="userSpaceOnUse">
<stop stop-color="#FF7D71"/>
<stop offset="0.5317" stop-color="#BD1F00"/>
<stop offset="1" stop-color="#741000"/>
</linearGradient>
<linearGradient id="paint41_linear_680_100529" x1="191.566" y1="104.655" x2="196.248" y2="135.493" gradientUnits="userSpaceOnUse">
<stop stop-color="#F4DC73"/>
<stop offset="1" stop-color="#E57300"/>
</linearGradient>
<linearGradient id="paint42_linear_680_100529" x1="230.033" y1="116.702" x2="199.104" y2="137.733" gradientUnits="userSpaceOnUse">
<stop stop-color="white"/>
<stop offset="1" stop-color="white" stop-opacity="0"/>
</linearGradient>
<linearGradient id="paint43_linear_680_100529" x1="234.414" y1="123.145" x2="203.486" y2="144.176" gradientUnits="userSpaceOnUse">
<stop stop-color="white"/>
<stop offset="1" stop-color="white" stop-opacity="0"/>
</linearGradient>
<linearGradient id="paint44_linear_680_100529" x1="46.8199" y1="36.5415" x2="60.0715" y2="85.5471" gradientUnits="userSpaceOnUse">
<stop stop-color="#FF7D71"/>
<stop offset="0.5317" stop-color="#BD1F00"/>
<stop offset="1" stop-color="#741000"/>
</linearGradient>
<linearGradient id="paint45_linear_680_100529" x1="50.4576" y1="35.5579" x2="63.7091" y2="84.5634" gradientUnits="userSpaceOnUse">
<stop stop-color="#FF7D71"/>
<stop offset="0.5317" stop-color="#BD1F00"/>
<stop offset="1" stop-color="#741000"/>
</linearGradient>
<linearGradient id="paint46_linear_680_100529" x1="54.7464" y1="26.6643" x2="59.4282" y2="57.5028" gradientUnits="userSpaceOnUse">
<stop stop-color="#F4DC73"/>
<stop offset="1" stop-color="#E57300"/>
</linearGradient>
<linearGradient id="paint47_linear_680_100529" x1="89.2895" y1="34.182" x2="48.7849" y2="70.5195" gradientUnits="userSpaceOnUse">
<stop stop-color="white"/>
<stop offset="1" stop-color="white" stop-opacity="0"/>
</linearGradient>
<linearGradient id="paint48_linear_680_100529" x1="95.4683" y1="41.0693" x2="54.9638" y2="77.4066" gradientUnits="userSpaceOnUse">
<stop stop-color="white"/>
<stop offset="1" stop-color="white" stop-opacity="0"/>
</linearGradient>
<linearGradient id="paint49_linear_680_100529" x1="109.112" y1="161.32" x2="94.4819" y2="189.454" gradientUnits="userSpaceOnUse">
<stop stop-color="#F4DC73"/>
<stop offset="1" stop-color="#E57300"/>
</linearGradient>
<linearGradient id="paint50_linear_680_100529" x1="119.855" y1="142.528" x2="87.106" y2="185.911" gradientUnits="userSpaceOnUse">
<stop stop-color="#EDE8FF"/>
<stop offset="0.2566" stop-color="#DBD2FF"/>
<stop offset="1" stop-color="#A793FF"/>
</linearGradient>
<linearGradient id="paint51_linear_680_100529" x1="76.1711" y1="165.482" x2="99.189" y2="198.421" gradientUnits="userSpaceOnUse">
<stop stop-color="#DBCCFF"/>
<stop offset="0.5" stop-color="#6744FF"/>
<stop offset="1" stop-color="#240068"/>
</linearGradient>
<linearGradient id="paint52_linear_680_100529" x1="79.0122" y1="159.513" x2="90.422" y2="183.127" gradientUnits="userSpaceOnUse">
<stop stop-color="#FF7D71"/>
<stop offset="0.5317" stop-color="#BD1F00"/>
<stop offset="1" stop-color="#741000"/>
</linearGradient>
<linearGradient id="paint53_linear_680_100529" x1="84.6291" y1="163.964" x2="96.5349" y2="186.784" gradientUnits="userSpaceOnUse">
<stop stop-color="#F4DC73"/>
<stop offset="1" stop-color="#E57300"/>
</linearGradient>
<linearGradient id="paint54_linear_680_100529" x1="81.3839" y1="147.914" x2="95.4724" y2="178.472" gradientUnits="userSpaceOnUse">
<stop stop-color="#DBCCFF"/>
<stop offset="0.5" stop-color="#6744FF"/>
<stop offset="1" stop-color="#240068"/>
</linearGradient>
<linearGradient id="paint55_linear_680_100529" x1="88.3303" y1="149.651" x2="94.7074" y2="191.815" gradientUnits="userSpaceOnUse">
<stop stop-color="#DBCCFF"/>
<stop offset="0.5" stop-color="#6744FF"/>
<stop offset="1" stop-color="#240068"/>
</linearGradient>
<linearGradient id="paint56_linear_680_100529" x1="101.124" y1="165.143" x2="103.803" y2="182.858" gradientUnits="userSpaceOnUse">
<stop stop-color="#DBCCFF"/>
<stop offset="0.5" stop-color="#6744FF"/>
<stop offset="1" stop-color="#240068"/>
</linearGradient>
<linearGradient id="paint57_linear_680_100529" x1="101.124" y1="161.339" x2="103.803" y2="179.054" gradientUnits="userSpaceOnUse">
<stop stop-color="#DBCCFF"/>
<stop offset="0.5" stop-color="#6744FF"/>
<stop offset="1" stop-color="#240068"/>
</linearGradient>
<linearGradient id="paint58_linear_680_100529" x1="101.124" y1="157.534" x2="103.803" y2="175.25" gradientUnits="userSpaceOnUse">
<stop stop-color="#DBCCFF"/>
<stop offset="0.5" stop-color="#6744FF"/>
<stop offset="1" stop-color="#240068"/>
</linearGradient>
<linearGradient id="paint59_linear_680_100529" x1="101.124" y1="153.73" x2="103.803" y2="171.445" gradientUnits="userSpaceOnUse">
<stop stop-color="#DBCCFF"/>
<stop offset="0.5" stop-color="#6744FF"/>
<stop offset="1" stop-color="#240068"/>
</linearGradient>
<linearGradient id="paint60_linear_680_100529" x1="101.124" y1="149.926" x2="103.803" y2="167.641" gradientUnits="userSpaceOnUse">
<stop stop-color="#DBCCFF"/>
<stop offset="0.5" stop-color="#6744FF"/>
<stop offset="1" stop-color="#240068"/>
</linearGradient>
<linearGradient id="paint61_linear_680_100529" x1="88.3303" y1="153.456" x2="94.7071" y2="195.62" gradientUnits="userSpaceOnUse">
<stop stop-color="#DBCCFF"/>
<stop offset="0.5" stop-color="#6744FF"/>
<stop offset="1" stop-color="#240068"/>
</linearGradient>
<linearGradient id="paint62_linear_680_100529" x1="88.3303" y1="157.26" x2="94.7074" y2="199.424" gradientUnits="userSpaceOnUse">
<stop stop-color="#DBCCFF"/>
<stop offset="0.5" stop-color="#6744FF"/>
<stop offset="1" stop-color="#240068"/>
</linearGradient>
<linearGradient id="paint63_linear_680_100529" x1="88.3303" y1="161.064" x2="94.7074" y2="203.228" gradientUnits="userSpaceOnUse">
<stop stop-color="#DBCCFF"/>
<stop offset="0.5" stop-color="#6744FF"/>
<stop offset="1" stop-color="#240068"/>
</linearGradient>
<linearGradient id="paint64_linear_680_100529" x1="71.203" y1="150.835" x2="152.828" y2="270.211" gradientUnits="userSpaceOnUse">
<stop stop-color="#EDE8FF"/>
<stop offset="0.2566" stop-color="#DBD2FF"/>
<stop offset="1" stop-color="#A793FF"/>
</linearGradient>
<linearGradient id="paint65_linear_680_100529" x1="71.1496" y1="162.154" x2="94.1675" y2="195.094" gradientUnits="userSpaceOnUse">
<stop stop-color="#DBCCFF"/>
<stop offset="0.5" stop-color="#6744FF"/>
<stop offset="1" stop-color="#240068"/>
</linearGradient>
<linearGradient id="paint66_linear_680_100529" x1="73.9907" y1="156.186" x2="85.4004" y2="179.799" gradientUnits="userSpaceOnUse">
<stop stop-color="#FF7D71"/>
<stop offset="0.5317" stop-color="#BD1F00"/>
<stop offset="1" stop-color="#741000"/>
</linearGradient>
<linearGradient id="paint67_linear_680_100529" x1="79.6076" y1="160.636" x2="91.5134" y2="183.456" gradientUnits="userSpaceOnUse">
<stop stop-color="#F4DC73"/>
<stop offset="1" stop-color="#E57300"/>
</linearGradient>
<linearGradient id="paint68_linear_680_100529" x1="76.3624" y1="144.586" x2="90.4509" y2="175.144" gradientUnits="userSpaceOnUse">
<stop stop-color="#DBCCFF"/>
<stop offset="0.5" stop-color="#6744FF"/>
<stop offset="1" stop-color="#240068"/>
</linearGradient>
<linearGradient id="paint69_linear_680_100529" x1="83.3087" y1="146.323" x2="89.6859" y2="188.488" gradientUnits="userSpaceOnUse">
<stop stop-color="#DBCCFF"/>
<stop offset="0.5" stop-color="#6744FF"/>
<stop offset="1" stop-color="#240068"/>
</linearGradient>
<linearGradient id="paint70_linear_680_100529" x1="96.1023" y1="161.815" x2="98.7818" y2="179.531" gradientUnits="userSpaceOnUse">
<stop stop-color="#DBCCFF"/>
<stop offset="0.5" stop-color="#6744FF"/>
<stop offset="1" stop-color="#240068"/>
</linearGradient>
<linearGradient id="paint71_linear_680_100529" x1="96.1023" y1="158.011" x2="98.7817" y2="175.726" gradientUnits="userSpaceOnUse">
<stop stop-color="#DBCCFF"/>
<stop offset="0.5" stop-color="#6744FF"/>
<stop offset="1" stop-color="#240068"/>
</linearGradient>
<linearGradient id="paint72_linear_680_100529" x1="96.1023" y1="154.206" x2="98.7818" y2="171.922" gradientUnits="userSpaceOnUse">
<stop stop-color="#DBCCFF"/>
<stop offset="0.5" stop-color="#6744FF"/>
<stop offset="1" stop-color="#240068"/>
</linearGradient>
<linearGradient id="paint73_linear_680_100529" x1="96.1024" y1="150.402" x2="98.7818" y2="168.118" gradientUnits="userSpaceOnUse">
<stop stop-color="#DBCCFF"/>
<stop offset="0.5" stop-color="#6744FF"/>
<stop offset="1" stop-color="#240068"/>
</linearGradient>
<linearGradient id="paint74_linear_680_100529" x1="96.1024" y1="146.598" x2="98.7818" y2="164.313" gradientUnits="userSpaceOnUse">
<stop stop-color="#DBCCFF"/>
<stop offset="0.5" stop-color="#6744FF"/>
<stop offset="1" stop-color="#240068"/>
</linearGradient>
<linearGradient id="paint75_linear_680_100529" x1="83.3087" y1="150.128" x2="89.6856" y2="192.292" gradientUnits="userSpaceOnUse">
<stop stop-color="#DBCCFF"/>
<stop offset="0.5" stop-color="#6744FF"/>
<stop offset="1" stop-color="#240068"/>
</linearGradient>
<linearGradient id="paint76_linear_680_100529" x1="83.3087" y1="153.932" x2="89.6859" y2="196.096" gradientUnits="userSpaceOnUse">
<stop stop-color="#DBCCFF"/>
<stop offset="0.5" stop-color="#6744FF"/>
<stop offset="1" stop-color="#240068"/>
</linearGradient>
<linearGradient id="paint77_linear_680_100529" x1="83.3087" y1="157.736" x2="89.6859" y2="199.901" gradientUnits="userSpaceOnUse">
<stop stop-color="#DBCCFF"/>
<stop offset="0.5" stop-color="#6744FF"/>
<stop offset="1" stop-color="#240068"/>
</linearGradient>
<linearGradient id="paint78_linear_680_100529" x1="79.7235" y1="161.388" x2="97.2795" y2="236.339" gradientUnits="userSpaceOnUse">
<stop stop-color="#F4DC73"/>
<stop offset="1" stop-color="#E57300"/>
</linearGradient>
<linearGradient id="paint79_linear_680_100529" x1="192.374" y1="0.263191" x2="201.875" y2="123.777" gradientUnits="userSpaceOnUse">
<stop stop-color="#040C2B"/>
<stop offset="0.5" stop-color="#040C2B"/>
<stop offset="1" stop-color="#240068"/>
</linearGradient>
<linearGradient id="paint80_linear_680_100529" x1="212.503" y1="25.9201" x2="212.503" y2="82.9265" gradientUnits="userSpaceOnUse">
<stop stop-color="#040C2B"/>
<stop offset="0.5" stop-color="#040C2B"/>
<stop offset="1" stop-color="#040C2B"/>
</linearGradient>
<clipPath id="clip0_680_100529">
<rect width="244" height="244" fill="white"/>
</clipPath>
</defs>
</svg>
