<svg width="274" height="274" viewBox="0 0 274 274" fill="none" xmlns="http://www.w3.org/2000/svg">
<g clip-path="url(#clip0_680_100067)">
<path d="M274 0H0V274H274V0Z" fill="white"/>
<path d="M139.224 243.279C206.187 243.279 260.472 239.845 260.472 235.608C260.472 231.371 206.187 227.936 139.224 227.936C72.2605 227.936 17.9761 231.371 17.9761 235.608C17.9761 239.845 72.2605 243.279 139.224 243.279Z" fill="#E3E5E8"/>
<path d="M223.573 187.883L224.665 188.243L225.244 188.434L226.885 188.974C226.885 188.974 251.319 169.209 245.057 157.435C243.13 153.81 237.303 154.035 234.034 166.153C231.004 177.386 223.573 187.883 223.573 187.883Z" fill="#D4D5D6"/>
<path d="M224.665 188.243L225.244 188.434C230.152 183.266 233.941 177.158 236.329 172.77C239.165 167.56 240.697 163.578 240.711 163.539C240.766 163.397 240.695 163.238 240.552 163.184C240.41 163.129 240.251 163.2 240.197 163.342C240.181 163.382 238.66 167.336 235.84 172.515C233.44 176.924 229.617 183.081 224.665 188.243Z" fill="#C6C6C6"/>
<path d="M64.1828 85.9045L62.8391 85.9297L62.1261 85.9428L60.1073 85.9801C60.1073 85.9801 39.6444 55.4658 50.7036 44.4784C54.1083 41.0956 60.5386 43.3594 60.0032 58.0222C59.5083 71.6148 64.1828 85.9045 64.1828 85.9045Z" fill="#D4D5D6"/>
<path d="M62.839 85.9297L62.126 85.9428C58.4287 78.4758 56.3074 70.3462 55.1555 64.6201C53.7877 57.8211 53.4517 52.8458 53.449 52.7965C53.4369 52.6189 53.5717 52.4655 53.7493 52.4545C53.9268 52.4425 54.0803 52.5773 54.0923 52.7543C54.0956 52.8042 54.4288 57.7449 55.79 64.504C56.948 70.2574 59.0906 78.4533 62.839 85.9297Z" fill="#C6C6C6"/>
<path d="M70.7172 90.6617L69.099 91.7418L68.2403 92.3145L65.8082 93.9365C65.8082 93.9365 17.0329 72.7185 21.9348 50.6873C23.4435 43.9047 33.0504 41.6431 43.8488 59.9359C53.8591 76.8926 70.7172 90.6617 70.7172 90.6617Z" fill="#E3E5E8"/>
<path d="M69.099 91.7418L68.2402 92.3145C57.9017 86.099 48.9665 77.8456 43.0909 71.7645C36.1137 64.5446 31.8191 58.7412 31.7774 58.6837C31.624 58.4766 31.6684 58.1845 31.8761 58.0327C32.0832 57.8792 32.3753 57.9236 32.5276 58.1302C32.5704 58.1889 36.8349 63.9511 43.7726 71.1277C49.6784 77.2368 58.6908 85.5549 69.099 91.7418Z" fill="#D4D5D6"/>
<path d="M217.905 191.685L219.107 192.836L219.745 193.446L221.553 195.174C221.553 195.174 265.796 184.558 264.945 165.271C264.683 159.333 256.928 155.998 245.109 169.801C234.154 182.595 217.905 191.685 217.905 191.685Z" fill="#E3E5E8"/>
<path d="M219.107 192.835L219.745 193.445C229.379 189.748 238.134 184.125 243.988 179.877C250.939 174.833 255.421 170.584 255.464 170.541C255.624 170.39 255.631 170.137 255.478 169.978C255.326 169.818 255.074 169.812 254.915 169.963C254.87 170.006 250.42 174.226 243.508 179.239C237.625 183.507 228.795 189.172 219.107 192.835Z" fill="#D4D5D6"/>
<path d="M256.395 83.2357C254.478 88.6861 248.962 88.2417 248.858 92.738C248.755 97.2333 245.765 100.504 241.928 99.4899C238.089 98.475 235.321 97.5144 233.331 101.894C231.343 106.274 225.591 108.228 223.531 104.592C223.018 103.687 222.464 102.706 221.922 101.744C221.774 101.481 221.627 101.22 221.482 100.962C221.448 100.902 221.414 100.843 221.381 100.783C219.202 96.9132 220.227 91.9768 223.848 89.4051C225.314 88.3639 227.033 87.823 228.919 88.4806C234.827 90.5383 232.964 84.4029 236.661 82.0284C240.919 79.2923 244.284 82.7924 247.225 80.4272C251.318 77.1386 258.313 77.7853 256.395 83.2357Z" fill="#D4D5D6"/>
<path d="M249.126 85.2748L221.923 101.744C221.775 101.481 221.627 101.22 221.482 100.962L248.66 84.507C248.873 84.3788 249.149 84.4462 249.277 84.6583C249.406 84.8704 249.338 85.1465 249.126 85.2748Z" fill="#C6C6C6"/>
<path d="M252.493 52.6677C253.258 59.778 246.859 62.2238 249.142 67.301C251.423 72.3771 249.828 77.6242 245.001 78.5383C240.173 79.4518 236.569 79.8551 236.682 85.8075C236.796 91.7599 231.414 97.0108 227.175 94.0472C226.119 93.3107 224.977 92.5101 223.86 91.7248C223.554 91.51 223.25 91.2963 222.95 91.0858C222.88 91.0376 222.81 90.9888 222.742 90.9401C218.243 87.7798 216.756 81.7194 219.43 76.9151C220.512 74.9708 222.143 73.4496 224.6 73.1783C232.297 72.3262 226.943 66.4669 229.806 61.8429C233.103 56.5158 238.727 58.6311 240.752 54.4203C243.569 48.5654 251.728 45.5574 252.493 52.6677Z" fill="#E3E5E8"/>
<path d="M245.46 58.8218L223.859 91.7248C223.554 91.51 223.249 91.2963 222.949 91.0858L244.531 58.2124C244.699 57.956 245.044 57.8842 245.3 58.0524C245.557 58.2212 245.629 58.5653 245.46 58.8218Z" fill="#D4D5D6"/>
<path d="M26.1512 193.773C31.2202 195.501 34.0588 191.23 37.3934 193.732C40.7269 196.233 44.8226 195.931 46.2841 192.555C47.7457 189.178 48.6329 186.61 52.9632 187.672C57.2935 188.735 62.0145 185.666 60.5469 182.082C60.1825 181.189 59.7852 180.223 59.3951 179.278C59.2882 179.02 59.1824 178.761 59.0778 178.508C59.0536 178.449 59.0301 178.39 59.0054 178.332C57.4365 174.526 53.2531 172.444 49.3036 173.606C47.7051 174.077 46.3252 175.018 45.723 176.769C43.8351 182.252 40.4342 177.377 36.5851 178.708C32.1507 180.24 32.771 184.698 29.3619 185.485C24.6212 186.579 21.0822 192.046 26.1512 193.773Z" fill="#D4D5D6"/>
<path d="M31.8039 189.647L59.3952 179.277C59.2883 179.019 59.1825 178.761 59.0779 178.508L31.5113 188.869C31.2965 188.949 31.1869 189.189 31.268 189.405C31.3491 189.619 31.5891 189.729 31.8039 189.647Z" fill="#C6C6C6"/>
<path d="M13.0424 173.491C17.7826 178.124 23.2319 174.866 25.6212 179.44C28.0104 184.012 32.7462 185.859 36.1795 182.867C39.6132 179.874 41.9729 177.48 46.244 180.975C50.514 184.471 57.4238 183.562 57.6961 178.775C57.7652 177.584 57.837 176.293 57.9055 175.028C57.9241 174.683 57.9433 174.339 57.9614 174C57.9663 173.922 57.9707 173.843 57.9745 173.765C58.2518 168.677 54.6898 164.119 49.6586 163.312C47.6223 162.985 45.5788 163.301 43.972 164.935C38.9392 170.052 37.7407 162.794 32.7315 162.228C26.9616 161.575 25.277 166.885 21.0497 165.945C15.1702 164.64 8.30216 168.857 13.0424 173.491Z" fill="#E3E5E8"/>
<path d="M21.5567 171.897L57.9055 175.028C57.9242 174.683 57.9433 174.339 57.9614 174L21.6455 170.871C21.3622 170.847 21.1123 171.057 21.0882 171.34C21.0635 171.623 21.2734 171.873 21.5567 171.897Z" fill="#D4D5D6"/>
<path d="M198.888 86.5604C202.489 76.606 206.167 68.3301 209.841 61.9235C214.641 53.5538 219.454 48.3741 224.147 46.5296C224.459 46.4074 224.81 46.5603 224.932 46.8715C225.054 47.1828 224.901 47.5341 224.59 47.6563C216.386 50.8812 207.585 65.3539 199.114 89.5366L198.888 86.5604Z" fill="#D4D5D6"/>
<path d="M214.741 54.8187C214.741 54.8187 210.113 52.7757 214.023 44.7771C214.023 44.7771 220.221 49.9141 214.741 54.8187Z" fill="#E3E5E8"/>
<path d="M212.512 58.8383C212.512 58.8383 214.294 54.1024 222.498 57.5614C222.498 57.5614 217.714 64.0366 212.512 58.8383Z" fill="#E3E5E8"/>
<path d="M221.075 48.9709C221.075 48.9709 221.176 43.9118 230.064 44.4379C230.064 44.4379 227.712 52.1378 221.075 48.9709Z" fill="#E3E5E8"/>
<path d="M207.778 66.7859C207.778 66.7859 202.73 66.4291 203.705 57.5795C203.705 57.5795 211.276 60.3167 207.778 66.7859Z" fill="#E3E5E8"/>
<path d="M206.127 71.2247C206.127 71.2247 207.063 66.2521 215.742 68.2403C215.742 68.2403 212.149 75.4448 206.127 71.2247Z" fill="#E3E5E8"/>
<path d="M203.263 77.0773C203.263 77.0773 198.209 76.8165 199.016 67.9498C199.016 67.9498 206.638 70.543 203.263 77.0773Z" fill="#E3E5E8"/>
<path d="M162.464 53.3001C163.28 53.6799 164.098 54.0827 164.897 54.4975C164.977 54.5397 165.064 54.5594 165.149 54.5594C165.347 54.5594 165.538 54.452 165.636 54.2641C165.775 53.9955 165.671 53.6645 165.402 53.5253C164.589 53.1028 163.756 52.6929 162.926 52.3066C162.652 52.1784 162.326 52.2978 162.198 52.5724C162.07 52.8469 162.19 53.1724 162.464 53.3001Z" fill="#E3E5E8"/>
<path d="M167.275 55.8006C168.053 56.25 168.833 56.7224 169.593 57.2057C169.684 57.2638 169.786 57.2917 169.886 57.2917C170.068 57.2917 170.245 57.2019 170.349 57.038C170.512 56.7827 170.437 56.444 170.181 56.2812C169.409 55.7897 168.615 55.3085 167.823 54.8515C167.561 54.7003 167.225 54.7901 167.074 55.0526C166.922 55.314 167.012 55.6494 167.275 55.8006Z" fill="#E3E5E8"/>
<path d="M157.45 51.2303C158.296 51.5366 159.148 51.8665 159.98 52.2101C160.049 52.2381 160.119 52.2518 160.189 52.2518C160.404 52.2518 160.609 52.1241 160.696 51.9126C160.812 51.6331 160.678 51.3125 160.398 51.1969C159.551 50.8472 158.685 50.5113 157.823 50.1995C157.538 50.0959 157.224 50.2433 157.121 50.5283C157.018 50.8133 157.165 51.1273 157.45 51.2303Z" fill="#E3E5E8"/>
<path d="M141.622 47.7626C142.519 47.8387 143.425 47.9352 144.314 48.0497C144.338 48.053 144.361 48.0541 144.385 48.0541C144.656 48.0541 144.892 47.8524 144.928 47.5757C144.966 47.2754 144.755 47.0009 144.454 46.9625C143.549 46.8458 142.627 46.7477 141.715 46.6704C141.413 46.6447 141.148 46.8688 141.123 47.1702C141.097 47.4721 141.32 47.7374 141.622 47.7626Z" fill="#E3E5E8"/>
<path d="M146.99 48.4536C147.875 48.6071 148.769 48.7824 149.647 48.9742C149.686 48.983 149.726 48.9868 149.764 48.9868C150.017 48.9868 150.243 48.812 150.299 48.5561C150.364 48.2602 150.177 47.9681 149.881 47.9034C148.988 47.7078 148.078 47.5297 147.178 47.3735C146.88 47.322 146.596 47.5215 146.544 47.8196C146.492 48.1183 146.692 48.4021 146.99 48.4536Z" fill="#E3E5E8"/>
<path d="M171.846 58.7099C172.583 59.2256 173.319 59.7643 174.031 60.3107C174.131 60.3868 174.248 60.4235 174.365 60.4235C174.53 60.4235 174.692 60.3496 174.8 60.2087C174.984 59.9687 174.939 59.6246 174.699 59.4404C173.973 58.8842 173.225 58.3357 172.475 57.8112C172.226 57.6375 171.885 57.6983 171.711 57.946C171.538 58.1948 171.598 58.5368 171.846 58.7099Z" fill="#E3E5E8"/>
<path d="M152.278 49.611C153.147 49.8417 154.021 50.0943 154.878 50.3628C154.933 50.3798 154.987 50.388 155.042 50.388C155.275 50.388 155.491 50.2379 155.565 50.0039C155.655 49.7151 155.494 49.4077 155.205 49.3172C154.333 49.0443 153.443 48.7868 152.558 48.5522C152.266 48.4744 151.966 48.6487 151.888 48.9413C151.811 49.2334 151.986 49.5332 152.278 49.611Z" fill="#E3E5E8"/>
<path d="M178.183 63.7889C178.288 63.8847 178.421 63.9324 178.553 63.9324C178.702 63.9324 178.85 63.8721 178.958 63.7543C179.162 63.5307 179.146 63.1844 178.923 62.98C178.248 62.363 177.551 61.7525 176.849 61.165C176.618 60.9705 176.272 61.0012 176.077 61.233C175.883 61.4648 175.913 61.8106 176.146 62.0051C176.835 62.5822 177.52 63.1828 178.183 63.7889Z" fill="#E3E5E8"/>
<path d="M193.622 85.7362C193.71 85.9466 193.914 86.0738 194.128 86.0738C194.198 86.0738 194.27 86.0601 194.338 86.0316C194.618 85.9154 194.75 85.5943 194.633 85.3148C194.283 84.4747 193.909 83.6292 193.52 82.8017C193.391 82.5277 193.066 82.4098 192.791 82.5386C192.517 82.6674 192.399 82.9935 192.528 83.2675C192.91 84.0802 193.278 84.9109 193.622 85.7362Z" fill="#E3E5E8"/>
<path d="M188.614 76.1731C188.719 76.3364 188.895 76.4257 189.076 76.4257C189.177 76.4257 189.279 76.3977 189.371 76.3391C189.626 76.1758 189.7 75.8371 189.537 75.5823C189.045 74.8135 188.528 74.0452 188.002 73.2977C187.828 73.05 187.486 72.9908 187.239 73.1651C186.991 73.3394 186.932 73.6813 187.106 73.9285C187.623 74.6622 188.13 75.4174 188.614 76.1731Z" fill="#E3E5E8"/>
<path d="M194.606 88.2504C194.915 89.0938 195.209 89.9553 195.481 90.8118C195.555 91.0452 195.771 91.1943 196.004 91.1943C196.058 91.1943 196.114 91.1861 196.17 91.1685C196.458 91.077 196.618 90.769 196.526 90.4802C196.25 89.6084 195.95 88.7316 195.635 87.8729C195.531 87.5885 195.217 87.4427 194.932 87.5468C194.648 87.6515 194.502 87.966 194.606 88.2504Z" fill="#E3E5E8"/>
<path d="M185.502 71.7496C185.61 71.8899 185.772 71.9633 185.936 71.9633C186.053 71.9633 186.171 71.9261 186.271 71.8494C186.511 71.6647 186.555 71.3205 186.37 71.0805C185.813 70.3566 185.231 69.6349 184.643 68.9367C184.447 68.7049 184.102 68.6753 183.87 68.871C183.639 69.0661 183.61 69.4119 183.804 69.6431C184.382 70.3298 184.953 71.0383 185.502 71.7496Z" fill="#E3E5E8"/>
<path d="M182.016 67.6117C182.124 67.7295 182.271 67.7887 182.419 67.7887C182.552 67.7887 182.684 67.741 182.79 67.644C183.013 67.4391 183.027 67.0922 182.822 66.8697C182.203 66.1962 181.561 65.5277 180.914 64.8827C180.7 64.6689 180.353 64.6695 180.139 64.8838C179.926 65.098 179.926 65.4449 180.141 65.6586C180.777 66.2927 181.408 66.9497 182.016 67.6117Z" fill="#E3E5E8"/>
<path d="M136.213 47.539H136.214H136.315C137.181 47.539 138.057 47.5571 138.921 47.5927C138.928 47.5932 138.936 47.5932 138.944 47.5932C139.236 47.5932 139.479 47.3625 139.491 47.0677C139.504 46.7652 139.269 46.5098 138.966 46.4978C138.088 46.4616 137.196 46.443 136.315 46.443H136.212C135.91 46.4435 135.665 46.6896 135.666 46.9921C135.666 47.2946 135.911 47.539 136.213 47.539Z" fill="#E3E5E8"/>
<path d="M191.327 80.847C191.426 81.0338 191.616 81.1407 191.814 81.1407C191.899 81.1407 191.986 81.1204 192.067 81.0782C192.335 80.9379 192.439 80.6069 192.299 80.3384C191.877 79.5323 191.429 78.7218 190.97 77.9305C190.818 77.6686 190.482 77.5798 190.221 77.7316C189.959 77.8834 189.87 78.2188 190.022 78.4807C190.474 79.2589 190.913 80.0546 191.327 80.847Z" fill="#E3E5E8"/>
<path d="M92.0096 65.9107C92.1499 65.9107 92.2902 65.857 92.3976 65.7501C93.0327 65.1144 93.6898 64.4837 94.3512 63.8765C94.5743 63.6721 94.5891 63.3252 94.3841 63.1022C94.1792 62.8791 93.8328 62.8643 93.6098 63.0693C92.9368 63.6874 92.2677 64.3286 91.6216 64.9758C91.4079 65.1901 91.4079 65.5369 91.6222 65.7507C91.7291 65.8575 91.8693 65.9107 92.0096 65.9107Z" fill="#E3E5E8"/>
<path d="M130.757 47.7823C130.773 47.7823 130.789 47.7817 130.806 47.7801C131.7 47.7017 132.609 47.6414 133.507 47.6014C133.81 47.5877 134.043 47.3318 134.03 47.0293C134.017 46.7268 133.757 46.4934 133.458 46.506C132.544 46.5465 131.62 46.6079 130.709 46.6879C130.408 46.7142 130.185 46.9805 130.211 47.2819C130.237 47.5675 130.476 47.7823 130.757 47.7823Z" fill="#E3E5E8"/>
<path d="M88.3211 69.9396C88.4773 69.9396 88.6329 69.8727 88.7414 69.744C89.3196 69.0551 89.9196 68.3696 90.5263 67.707C90.7307 67.484 90.7153 67.1371 90.4923 66.9327C90.2693 66.7283 89.9224 66.7437 89.718 66.9667C89.1009 67.6407 88.4899 68.3383 87.9019 69.0392C87.7074 69.271 87.7375 69.6168 87.9699 69.8114C88.0723 69.8974 88.1973 69.9396 88.3211 69.9396Z" fill="#E3E5E8"/>
<path d="M81.7835 78.8117C81.8695 78.8616 81.9637 78.8851 82.0569 78.8851C82.2465 78.8851 82.4306 78.7871 82.532 78.6111C82.9819 77.8324 83.4549 77.0532 83.9382 76.2942C84.1009 76.0388 84.0259 75.7002 83.7705 75.5374C83.5151 75.3747 83.1765 75.4497 83.0137 75.7051C82.5216 76.4772 82.0399 77.2707 81.5823 78.0631C81.4316 78.3256 81.5215 78.6605 81.7835 78.8117Z" fill="#E3E5E8"/>
<path d="M76.8437 91.8048C76.9238 91.5368 77.0049 91.2699 77.0882 91.0047C77.1786 90.7159 77.018 90.4085 76.7292 90.3181C76.4399 90.2271 76.133 90.3882 76.0426 90.677C75.9253 91.0502 75.8119 91.4272 75.7012 91.8048H76.8437Z" fill="#E3E5E8"/>
<path d="M79.3015 83.6856C79.3765 83.7207 79.4549 83.7371 79.5327 83.7371C79.7393 83.7371 79.9372 83.6199 80.0298 83.4204C80.4101 82.6044 80.8134 81.7862 81.2288 80.9878C81.3685 80.7193 81.2639 80.3883 80.9959 80.2486C80.7274 80.1088 80.3964 80.2135 80.2566 80.4815C79.8341 81.2936 79.4231 82.1265 79.0362 82.9568C78.908 83.2319 79.0269 83.5579 79.3015 83.6856Z" fill="#E3E5E8"/>
<path d="M77.2547 88.7617C77.3166 88.7842 77.3796 88.7946 77.4416 88.7946C77.6657 88.7946 77.8761 88.656 77.9567 88.4335C78.2641 87.5863 78.594 86.7352 78.9382 85.9039C79.0538 85.6244 78.9206 85.3039 78.6411 85.1882C78.3611 85.072 78.0411 85.2058 77.9255 85.4852C77.5753 86.3313 77.2394 87.1977 76.927 88.0597C76.8234 88.3442 76.9703 88.6582 77.2547 88.7617Z" fill="#E3E5E8"/>
<path d="M84.6813 74.1756C84.7772 74.2425 84.8868 74.2748 84.9953 74.2748C85.1679 74.2748 85.3383 74.1932 85.4447 74.0408C85.9603 73.3043 86.4996 72.5694 87.0465 71.856C87.2306 71.6159 87.1851 71.2718 86.9451 71.0877C86.7051 70.9035 86.3609 70.949 86.1768 71.189C85.62 71.9146 85.0715 72.6626 84.5465 73.4123C84.3728 73.6605 84.433 74.0025 84.6813 74.1756Z" fill="#E3E5E8"/>
<path d="M114.808 51.3306C114.871 51.3306 114.934 51.3196 114.996 51.2972C115.841 50.9881 116.703 50.6944 117.558 50.4237C117.847 50.3321 118.006 50.0242 117.915 49.7359C117.824 49.4477 117.516 49.2876 117.228 49.3792C116.357 49.6548 115.479 49.954 114.62 50.2686C114.336 50.3727 114.19 50.6872 114.294 50.9717C114.375 51.193 114.585 51.3306 114.808 51.3306Z" fill="#E3E5E8"/>
<path d="M120.014 49.6822C120.061 49.6822 120.109 49.6762 120.156 49.663C121.024 49.4296 121.909 49.2126 122.785 49.0175C123.081 48.9517 123.267 48.6591 123.201 48.3637C123.135 48.0683 122.843 47.882 122.547 47.9478C121.655 48.1461 120.755 48.367 119.872 48.6048C119.58 48.6832 119.407 48.984 119.485 49.2761C119.551 49.5211 119.772 49.6822 120.014 49.6822Z" fill="#E3E5E8"/>
<path d="M96.0314 62.2183C96.1558 62.2183 96.2813 62.1761 96.3837 62.0895C97.0709 61.5113 97.7806 60.9403 98.4914 60.3929C98.7314 60.2082 98.7758 59.8641 98.5911 59.6246C98.4064 59.3846 98.0623 59.3402 97.8228 59.5248C97.0989 60.0822 96.3777 60.6625 95.6779 61.251C95.4461 61.4461 95.4165 61.7914 95.6116 62.0232C95.7201 62.152 95.8752 62.2183 96.0314 62.2183Z" fill="#E3E5E8"/>
<path d="M125.344 48.4969C125.376 48.4969 125.408 48.4942 125.44 48.4887C126.324 48.3325 127.224 48.1939 128.115 48.076C128.416 48.0366 128.627 47.7609 128.587 47.4612C128.548 47.1609 128.273 46.9488 127.972 46.9893C127.065 47.1094 126.149 47.2502 125.25 47.4097C124.952 47.4623 124.753 47.7467 124.805 48.0448C124.852 48.31 125.083 48.4969 125.344 48.4969Z" fill="#E3E5E8"/>
<path d="M109.78 53.4239C109.858 53.4239 109.937 53.4075 110.013 53.3719C110.825 52.9916 111.655 52.6239 112.482 52.2797C112.762 52.1635 112.894 51.8424 112.778 51.5635C112.662 51.284 112.341 51.1514 112.062 51.2681C111.22 51.6183 110.374 51.9926 109.548 52.3795C109.274 52.5077 109.155 52.8343 109.284 53.1083C109.377 53.3072 109.574 53.4239 109.78 53.4239Z" fill="#E3E5E8"/>
<path d="M100.356 58.8897C100.465 58.8897 100.574 58.8574 100.67 58.79C101.405 58.2738 102.16 57.7669 102.916 57.2835C103.171 57.1202 103.245 56.7816 103.082 56.5267C102.919 56.2719 102.58 56.1974 102.325 56.3607C101.556 56.8528 100.788 57.3685 100.04 57.894C99.7924 58.0677 99.7327 58.4097 99.907 58.6574C100.013 58.8081 100.183 58.8897 100.356 58.8897Z" fill="#E3E5E8"/>
<path d="M104.95 55.9502C105.043 55.9502 105.138 55.9261 105.225 55.8763C106.001 55.4258 106.797 54.9869 107.591 54.5715C107.859 54.4312 107.963 54.1002 107.823 53.8317C107.683 53.5637 107.351 53.4596 107.083 53.5999C106.275 54.0224 105.465 54.4695 104.674 54.9277C104.412 55.0795 104.324 55.4148 104.475 55.6768C104.577 55.8521 104.761 55.9502 104.95 55.9502Z" fill="#E3E5E8"/>
<path d="M171.027 58.8393C171.027 60.7803 170.233 62.5449 168.954 63.8239C167.675 65.1029 165.91 65.897 163.969 65.897H113.094C109.212 65.897 106.036 62.7208 106.036 58.8393C106.036 58.0157 106.18 57.2222 106.442 56.4867C106.798 55.4866 107.374 54.5901 108.11 53.8547C109.059 52.905 110.277 52.2222 111.636 51.9345C112.02 40.7416 121.216 31.784 132.502 31.784C139.887 31.784 146.377 35.6189 150.088 41.4063C151.126 41.077 152.232 40.9005 153.382 40.9005C153.737 40.9005 154.088 40.9181 154.432 40.9504C159.948 41.4798 164.263 46.1263 164.263 51.7811C164.263 51.7838 164.263 51.7838 164.263 51.7871C168.009 51.9427 171.027 55.0576 171.027 58.8393Z" fill="#B32C28"/>
<path d="M142.48 47.7446C142.199 47.7446 141.919 47.6378 141.705 47.4235L136.726 42.4444L131.815 47.355C131.387 47.783 130.693 47.783 130.265 47.355C129.837 46.927 129.837 46.2332 130.265 45.8053L135.951 40.1198C136.379 39.6918 137.073 39.6918 137.501 40.1198L143.255 45.8738C143.683 46.3017 143.683 46.9955 143.255 47.4235C143.041 47.6378 142.76 47.7446 142.48 47.7446Z" fill="white"/>
<path d="M136.726 60.143C136.12 60.143 135.63 59.6526 135.63 59.047V40.8945C135.63 40.289 136.12 39.7985 136.726 39.7985C137.331 39.7985 137.822 40.289 137.822 40.8945V59.047C137.822 59.6526 137.331 60.143 136.726 60.143Z" fill="white"/>
<path d="M232.772 78.0845V195.497C232.772 197.462 231.18 199.054 229.215 199.054H50.9786C49.0141 199.054 47.4221 197.462 47.4221 195.497V78.0845C47.4221 76.12 49.0141 74.528 50.9786 74.528H229.215C231.18 74.528 232.772 76.12 232.772 78.0845Z" fill="#3C3C48"/>
<path d="M227.856 83.1163V190.466C227.856 192.461 226.24 194.077 224.244 194.077H55.9452C55.5035 194.077 55.0843 193.999 54.693 193.848C53.3175 193.345 52.3394 192.02 52.3394 190.466V83.1163C52.3394 81.1199 53.9554 79.5044 55.9457 79.5044H224.244C224.725 79.5044 225.189 79.5997 225.608 79.7729C226.928 80.3094 227.856 81.6065 227.856 83.1163Z" fill="white"/>
<path d="M227.856 83.1146V88.4587H52.3376V83.1146C52.3376 81.1205 53.9537 79.5049 55.9473 79.5049H224.246C226.24 79.5044 227.856 81.1205 227.856 83.1146Z" fill="#E3E5E8"/>
<path d="M214.085 83.9816C214.085 84.9499 213.301 85.7352 212.332 85.7352C211.363 85.7352 210.579 84.9504 210.579 83.9816C210.579 83.0133 211.363 82.228 212.332 82.228C213.3 82.228 214.085 83.0133 214.085 83.9816Z" fill="#B32C28"/>
<path d="M207.597 83.9816C207.597 84.9499 206.813 85.7352 205.844 85.7352C204.876 85.7352 204.091 84.9504 204.091 83.9816C204.091 83.0133 204.876 82.228 205.844 82.228C206.813 82.228 207.597 83.0133 207.597 83.9816Z" fill="#3C3C48"/>
<path d="M220.573 83.9816C220.573 84.9499 219.788 85.7352 218.82 85.7352C217.852 85.7352 217.066 84.9504 217.066 83.9816C217.066 83.0133 217.851 82.228 218.82 82.228C219.788 82.228 220.573 83.0133 220.573 83.9816Z" fill="#D7243A"/>
<path d="M79.2666 181.356V99.2204C79.2666 97.4246 80.7226 95.9686 82.5184 95.9686H197.449C199.245 95.9686 200.701 97.4246 200.701 99.2204V181.356C200.701 183.152 199.245 184.608 197.449 184.608H82.5184C80.7226 184.608 79.2666 183.152 79.2666 181.356Z" fill="#E3E5E8"/>
<path d="M197.658 101.672V178.905C197.658 178.935 197.658 178.965 197.657 178.997C197.609 180.422 196.436 181.566 194.997 181.566H84.9697C84.1423 181.566 83.4008 181.187 82.9131 180.593C82.5366 180.134 82.3103 179.545 82.3103 178.905V101.672C82.3103 100.204 83.5011 99.0116 84.9692 99.0116H194.997C196.466 99.0116 197.658 100.203 197.658 101.672Z" fill="#B32C28"/>
<path d="M175.082 142.747C177.386 132.182 170.689 121.749 160.124 119.445C149.559 117.14 139.127 123.837 136.822 134.402C134.518 144.967 141.214 155.4 151.779 157.704C162.344 160.008 172.777 153.312 175.082 142.747Z" fill="#D7243A"/>
<path d="M197.656 159.721V178.996C197.608 180.422 196.436 181.565 194.997 181.565H136.318L173.471 118.99L192.049 150.278L197.656 159.721Z" fill="#1A100E"/>
<path d="M174.945 181.565H84.9708C84.1427 181.565 83.4018 181.186 82.9136 180.592L105.469 144.246L128.627 106.926L151.786 144.246L174.945 181.565Z" fill="#3C3C48"/>
<path d="M113.613 131.122L128.627 142.361L143.641 131.122L128.627 106.927L113.613 131.122Z" fill="white"/>
<path d="M160.826 140.288L173.472 150.278L186.117 140.288L173.472 118.99L160.826 140.288Z" fill="white"/>
<path d="M195.997 190.156H193.265C193.001 190.156 192.786 189.941 192.786 189.677C192.786 189.412 193.001 189.197 193.265 189.197H195.997C196.262 189.197 196.477 189.412 196.477 189.677C196.477 189.941 196.262 190.156 195.997 190.156ZM190.533 190.156H187.801C187.537 190.156 187.322 189.941 187.322 189.677C187.322 189.412 187.537 189.197 187.801 189.197H190.533C190.798 189.197 191.012 189.412 191.012 189.677C191.012 189.941 190.798 190.156 190.533 190.156ZM185.069 190.156H182.338C182.073 190.156 181.858 189.941 181.858 189.677C181.858 189.412 182.073 189.197 182.338 189.197H185.069C185.334 189.197 185.549 189.412 185.549 189.677C185.549 189.941 185.334 190.156 185.069 190.156ZM179.605 190.156H176.874C176.609 190.156 176.394 189.941 176.394 189.677C176.394 189.412 176.609 189.197 176.874 189.197H179.605C179.87 189.197 180.085 189.412 180.085 189.677C180.085 189.941 179.87 190.156 179.605 190.156ZM174.142 190.156H171.41C171.145 190.156 170.93 189.941 170.93 189.677C170.93 189.412 171.145 189.197 171.41 189.197H174.142C174.406 189.197 174.621 189.412 174.621 189.677C174.621 189.941 174.406 190.156 174.142 190.156ZM168.678 190.156H165.946C165.681 190.156 165.466 189.941 165.466 189.677C165.466 189.412 165.681 189.197 165.946 189.197H168.678C168.942 189.197 169.157 189.412 169.157 189.677C169.157 189.941 168.942 190.156 168.678 190.156ZM163.214 190.156H160.482C160.218 190.156 160.003 189.941 160.003 189.677C160.003 189.412 160.218 189.197 160.482 189.197H163.214C163.479 189.197 163.694 189.412 163.694 189.677C163.694 189.941 163.479 190.156 163.214 190.156ZM157.75 190.156H155.018C154.754 190.156 154.539 189.941 154.539 189.677C154.539 189.412 154.754 189.197 155.018 189.197H157.75C158.015 189.197 158.229 189.412 158.229 189.677C158.229 189.941 158.015 190.156 157.75 190.156ZM152.286 190.156H149.555C149.29 190.156 149.075 189.941 149.075 189.677C149.075 189.412 149.29 189.197 149.555 189.197H152.286C152.551 189.197 152.766 189.412 152.766 189.677C152.766 189.941 152.551 190.156 152.286 190.156ZM146.822 190.156H144.091C143.826 190.156 143.611 189.941 143.611 189.677C143.611 189.412 143.826 189.197 144.091 189.197H146.822C147.087 189.197 147.302 189.412 147.302 189.677C147.302 189.941 147.087 190.156 146.822 190.156ZM141.358 190.156H138.626C138.362 190.156 138.147 189.941 138.147 189.677C138.147 189.412 138.362 189.197 138.626 189.197H141.358C141.623 189.197 141.838 189.412 141.838 189.677C141.838 189.941 141.623 190.156 141.358 190.156ZM135.895 190.156H133.163C132.898 190.156 132.683 189.941 132.683 189.677C132.683 189.412 132.898 189.197 133.163 189.197H135.895C136.159 189.197 136.374 189.412 136.374 189.677C136.374 189.941 136.159 190.156 135.895 190.156ZM130.431 190.156H127.699C127.434 190.156 127.219 189.941 127.219 189.677C127.219 189.412 127.434 189.197 127.699 189.197H130.431C130.695 189.197 130.91 189.412 130.91 189.677C130.91 189.941 130.695 190.156 130.431 190.156ZM124.967 190.156H122.235C121.971 190.156 121.756 189.941 121.756 189.677C121.756 189.412 121.971 189.197 122.235 189.197H124.967C125.232 189.197 125.446 189.412 125.446 189.677C125.446 189.941 125.232 190.156 124.967 190.156ZM119.503 190.156H116.771C116.506 190.156 116.292 189.941 116.292 189.677C116.292 189.412 116.506 189.197 116.771 189.197H119.503C119.768 189.197 119.982 189.412 119.982 189.677C119.982 189.941 119.768 190.156 119.503 190.156ZM114.039 190.156H111.307C111.042 190.156 110.827 189.941 110.827 189.677C110.827 189.412 111.042 189.197 111.307 189.197H114.039C114.303 189.197 114.518 189.412 114.518 189.677C114.518 189.941 114.304 190.156 114.039 190.156ZM108.575 190.156H105.843C105.579 190.156 105.364 189.941 105.364 189.677C105.364 189.412 105.579 189.197 105.843 189.197H108.575C108.84 189.197 109.055 189.412 109.055 189.677C109.055 189.941 108.84 190.156 108.575 190.156ZM103.111 190.156H100.379C100.115 190.156 99.8998 189.941 99.8998 189.677C99.8998 189.412 100.115 189.197 100.379 189.197H103.111C103.376 189.197 103.591 189.412 103.591 189.677C103.591 189.941 103.376 190.156 103.111 190.156ZM97.6475 190.156H94.9158C94.6511 190.156 94.4363 189.941 94.4363 189.677C94.4363 189.412 94.6511 189.197 94.9158 189.197H97.6475C97.9122 189.197 98.127 189.412 98.127 189.677C98.127 189.941 97.9122 190.156 97.6475 190.156ZM92.1834 190.156H89.4516C89.187 190.156 88.9721 189.941 88.9721 189.677C88.9721 189.412 89.187 189.197 89.4516 189.197H92.1834C92.4481 189.197 92.6629 189.412 92.6629 189.677C92.6629 189.941 92.4481 190.156 92.1834 190.156ZM86.7199 190.156H83.9881C83.7234 190.156 83.5086 189.941 83.5086 189.677C83.5086 189.412 83.7234 189.197 83.9881 189.197H86.7199C86.9845 189.197 87.1994 189.412 87.1994 189.677C87.1994 189.941 86.9845 190.156 86.7199 190.156ZM82.0224 190.156C81.047 190.156 80.0913 189.988 79.1816 189.655C78.9328 189.564 78.8046 189.289 78.8955 189.04C78.9865 188.792 79.2616 188.663 79.5104 188.754C80.3148 189.048 81.1599 189.197 82.0224 189.197C82.2871 189.197 82.5019 189.412 82.5019 189.677C82.5019 189.941 82.2871 190.156 82.0224 190.156ZM198.727 190.117C198.484 190.117 198.275 189.932 198.25 189.685C198.224 189.422 198.417 189.187 198.68 189.16C199.535 189.075 200.361 188.842 201.134 188.468C201.373 188.353 201.66 188.453 201.775 188.691C201.89 188.929 201.791 189.216 201.552 189.331C200.677 189.754 199.743 190.018 198.775 190.114C198.759 190.117 198.743 190.117 198.727 190.117ZM76.994 188.322C76.8849 188.322 76.7753 188.285 76.6854 188.21C75.9413 187.584 75.3176 186.841 74.8316 186.002C74.6989 185.773 74.7767 185.479 75.0058 185.347C75.2354 185.214 75.5286 185.293 75.6612 185.521C76.0914 186.264 76.6438 186.921 77.3025 187.475C77.5052 187.646 77.5316 187.948 77.3606 188.151C77.2663 188.264 77.1304 188.322 76.994 188.322ZM203.546 187.79C203.426 187.79 203.305 187.745 203.212 187.654C203.022 187.469 203.018 187.166 203.203 186.976C203.804 186.359 204.288 185.65 204.642 184.869C204.751 184.628 205.035 184.52 205.276 184.63C205.518 184.739 205.624 185.023 205.515 185.265C205.116 186.147 204.568 186.949 203.889 187.646C203.796 187.742 203.671 187.79 203.546 187.79ZM74.3148 183.689C74.0863 183.689 73.8841 183.525 73.843 183.292C73.7602 182.819 73.718 182.335 73.718 181.852V180.484C73.718 180.219 73.9328 180.004 74.1975 180.004C74.4622 180.004 74.677 180.219 74.677 180.484V181.852C74.677 182.28 74.7143 182.708 74.7877 183.126C74.8337 183.387 74.6595 183.635 74.3986 183.681C74.3701 183.686 74.3422 183.689 74.3148 183.689ZM205.749 182.912C205.737 182.912 205.726 182.911 205.714 182.911C205.45 182.892 205.251 182.662 205.27 182.397C205.284 182.217 205.29 182.033 205.29 181.852V179.701C205.29 179.437 205.505 179.222 205.77 179.222C206.034 179.222 206.249 179.437 206.249 179.701V181.852C206.249 182.056 206.241 182.263 206.227 182.468C206.209 182.72 205.998 182.912 205.749 182.912ZM74.1975 178.232C73.9328 178.232 73.718 178.017 73.718 177.753V175.021C73.718 174.756 73.9328 174.541 74.1975 174.541C74.4622 174.541 74.677 174.756 74.677 175.021V177.753C74.677 178.017 74.4627 178.232 74.1975 178.232ZM205.77 177.449C205.505 177.449 205.291 177.234 205.291 176.97V174.238C205.291 173.973 205.505 173.758 205.77 173.758C206.035 173.758 206.25 173.973 206.25 174.238V176.97C206.25 177.234 206.035 177.449 205.77 177.449ZM74.1975 172.768C73.9328 172.768 73.718 172.553 73.718 172.288V169.557C73.718 169.292 73.9328 169.077 74.1975 169.077C74.4622 169.077 74.677 169.292 74.677 169.557V172.288C74.677 172.553 74.4627 172.768 74.1975 172.768ZM205.77 171.985C205.505 171.985 205.291 171.77 205.291 171.505V168.774C205.291 168.509 205.505 168.294 205.77 168.294C206.035 168.294 206.25 168.509 206.25 168.774V171.505C206.25 171.77 206.035 171.985 205.77 171.985ZM74.1975 167.304C73.9328 167.304 73.718 167.089 73.718 166.824V164.093C73.718 163.828 73.9328 163.613 74.1975 163.613C74.4622 163.613 74.677 163.828 74.677 164.093V166.824C74.677 167.09 74.4627 167.304 74.1975 167.304ZM205.77 166.521C205.505 166.521 205.291 166.307 205.291 166.042V163.31C205.291 163.045 205.505 162.831 205.77 162.831C206.035 162.831 206.25 163.045 206.25 163.31V166.042C206.25 166.307 206.035 166.521 205.77 166.521ZM74.1975 161.84C73.9328 161.84 73.718 161.626 73.718 161.361V158.629C73.718 158.364 73.9328 158.15 74.1975 158.15C74.4622 158.15 74.677 158.364 74.677 158.629V161.361C74.677 161.626 74.4627 161.84 74.1975 161.84ZM205.77 161.057C205.505 161.057 205.291 160.842 205.291 160.578V157.846C205.291 157.581 205.505 157.366 205.77 157.366C206.035 157.366 206.25 157.581 206.25 157.846V160.578C206.25 160.842 206.035 161.057 205.77 161.057ZM74.1975 156.376C73.9328 156.376 73.718 156.161 73.718 155.897V153.165C73.718 152.9 73.9328 152.685 74.1975 152.685C74.4622 152.685 74.677 152.9 74.677 153.165V155.897C74.677 156.161 74.4627 156.376 74.1975 156.376ZM205.77 155.593C205.505 155.593 205.291 155.378 205.291 155.114V152.382C205.291 152.117 205.505 151.902 205.77 151.902C206.035 151.902 206.25 152.117 206.25 152.382V155.114C206.25 155.379 206.035 155.593 205.77 155.593ZM74.1975 150.913C73.9328 150.913 73.718 150.698 73.718 150.433V147.701C73.718 147.437 73.9328 147.222 74.1975 147.222C74.4622 147.222 74.677 147.437 74.677 147.701V150.433C74.677 150.698 74.4627 150.913 74.1975 150.913ZM205.77 150.13C205.505 150.13 205.291 149.915 205.291 149.65V146.918C205.291 146.654 205.505 146.439 205.77 146.439C206.035 146.439 206.25 146.654 206.25 146.918V149.65C206.25 149.915 206.035 150.13 205.77 150.13ZM74.1975 145.449C73.9328 145.449 73.718 145.234 73.718 144.969V142.237C73.718 141.973 73.9328 141.758 74.1975 141.758C74.4622 141.758 74.677 141.973 74.677 142.237V144.969C74.677 145.234 74.4627 145.449 74.1975 145.449ZM205.77 144.665C205.505 144.665 205.291 144.451 205.291 144.186V141.454C205.291 141.189 205.505 140.975 205.77 140.975C206.035 140.975 206.25 141.189 206.25 141.454V144.186C206.25 144.451 206.035 144.665 205.77 144.665ZM74.1975 139.985C73.9328 139.985 73.718 139.77 73.718 139.506V136.774C73.718 136.509 73.9328 136.294 74.1975 136.294C74.4622 136.294 74.677 136.509 74.677 136.774V139.506C74.677 139.77 74.4627 139.985 74.1975 139.985ZM205.77 139.202C205.505 139.202 205.291 138.987 205.291 138.722V135.991C205.291 135.726 205.505 135.511 205.77 135.511C206.035 135.511 206.25 135.726 206.25 135.991V138.722C206.25 138.987 206.035 139.202 205.77 139.202ZM74.1975 134.521C73.9328 134.521 73.718 134.306 73.718 134.041V131.31C73.718 131.045 73.9328 130.83 74.1975 130.83C74.4622 130.83 74.677 131.045 74.677 131.31V134.041C74.677 134.306 74.4627 134.521 74.1975 134.521ZM205.77 133.738C205.505 133.738 205.291 133.523 205.291 133.258V130.527C205.291 130.262 205.505 130.047 205.77 130.047C206.035 130.047 206.25 130.262 206.25 130.527V133.258C206.25 133.524 206.035 133.738 205.77 133.738ZM74.1975 129.057C73.9328 129.057 73.718 128.842 73.718 128.577V125.846C73.718 125.581 73.9328 125.366 74.1975 125.366C74.4622 125.366 74.677 125.581 74.677 125.846V128.577C74.677 128.842 74.4627 129.057 74.1975 129.057ZM205.77 128.274C205.505 128.274 205.291 128.059 205.291 127.795V125.063C205.291 124.798 205.505 124.583 205.77 124.583C206.035 124.583 206.25 124.798 206.25 125.063V127.795C206.25 128.059 206.035 128.274 205.77 128.274ZM74.1975 123.593C73.9328 123.593 73.718 123.378 73.718 123.114V120.382C73.718 120.117 73.9328 119.902 74.1975 119.902C74.4622 119.902 74.677 120.117 74.677 120.382V123.114C74.677 123.378 74.4627 123.593 74.1975 123.593ZM205.77 122.81C205.505 122.81 205.291 122.595 205.291 122.331V119.599C205.291 119.334 205.505 119.119 205.77 119.119C206.035 119.119 206.25 119.334 206.25 119.599V122.331C206.25 122.595 206.035 122.81 205.77 122.81ZM74.1975 118.129C73.9328 118.129 73.718 117.914 73.718 117.65V114.918C73.718 114.653 73.9328 114.438 74.1975 114.438C74.4622 114.438 74.677 114.653 74.677 114.918V117.65C74.677 117.914 74.4627 118.129 74.1975 118.129ZM205.77 117.346C205.505 117.346 205.291 117.131 205.291 116.867V114.135C205.291 113.87 205.505 113.655 205.77 113.655C206.035 113.655 206.25 113.87 206.25 114.135V116.867C206.25 117.132 206.035 117.346 205.77 117.346ZM74.1975 112.666C73.9328 112.666 73.718 112.451 73.718 112.186V109.454C73.718 109.19 73.9328 108.975 74.1975 108.975C74.4622 108.975 74.677 109.19 74.677 109.454V112.186C74.677 112.451 74.4627 112.666 74.1975 112.666ZM205.77 111.882C205.505 111.882 205.291 111.668 205.291 111.403V108.671C205.291 108.406 205.505 108.192 205.77 108.192C206.035 108.192 206.25 108.406 206.25 108.671V111.403C206.25 111.668 206.035 111.882 205.77 111.882ZM74.1975 107.201C73.9328 107.201 73.718 106.987 73.718 106.722V103.99C73.718 103.725 73.9328 103.511 74.1975 103.511C74.4622 103.511 74.677 103.725 74.677 103.99V106.722C74.677 106.987 74.4627 107.201 74.1975 107.201ZM205.77 106.418C205.505 106.418 205.291 106.204 205.291 105.939V103.207C205.291 102.942 205.505 102.728 205.77 102.728C206.035 102.728 206.25 102.942 206.25 103.207V105.939C206.25 106.204 206.035 106.418 205.77 106.418ZM74.1975 101.737C73.9328 101.737 73.718 101.523 73.718 101.258V98.7239C73.718 98.6537 73.7191 98.5836 73.7208 98.514C73.7273 98.2493 73.9487 98.04 74.2123 98.0466C74.477 98.0531 74.6863 98.2734 74.6792 98.5381C74.6776 98.6 74.677 98.662 74.677 98.7239V101.258C74.677 101.523 74.4627 101.737 74.1975 101.737ZM205.77 100.955C205.505 100.955 205.291 100.74 205.291 100.475V98.7239C205.291 98.4176 205.271 98.1085 205.234 97.8054C205.201 97.543 205.387 97.3029 205.65 97.27C205.915 97.2372 206.152 97.4235 206.185 97.686C206.228 98.0279 206.25 98.3775 206.25 98.7233V100.475C206.25 100.74 206.035 100.955 205.77 100.955ZM74.7395 96.3423C74.6809 96.3423 74.6217 96.3313 74.5636 96.3089C74.317 96.2119 74.1964 95.9335 74.2934 95.6869C74.6491 94.7854 75.1565 93.9585 75.8015 93.2285C75.9769 93.0302 76.2799 93.0115 76.4783 93.1869C76.6767 93.3623 76.6953 93.6653 76.5199 93.8637C75.9489 94.5092 75.5001 95.2408 75.1856 96.0381C75.111 96.2267 74.9307 96.3423 74.7395 96.3423ZM204.906 95.6304C204.732 95.6304 204.565 95.5356 204.479 95.3707C204.086 94.6084 203.567 93.9245 202.935 93.3392C202.741 93.1589 202.729 92.8559 202.909 92.6614C203.089 92.4674 203.392 92.4559 203.587 92.6356C204.3 93.297 204.887 94.0692 205.331 94.9306C205.452 95.1663 205.36 95.4551 205.125 95.5767C205.055 95.6129 204.98 95.6304 204.906 95.6304ZM78.2856 92.3309C78.1157 92.3309 77.9513 92.2405 77.8642 92.081C77.737 91.8487 77.8231 91.5571 78.0554 91.4306C78.9092 90.9642 79.8293 90.6551 80.79 90.5116C81.0519 90.4721 81.2958 90.6529 81.3352 90.9149C81.3741 91.1768 81.1938 91.4207 80.9319 91.4601C80.083 91.5873 79.2698 91.8602 78.5152 92.2723C78.4418 92.3117 78.3629 92.3309 78.2856 92.3309ZM200.979 91.9912C200.917 91.9912 200.853 91.9791 200.793 91.9534C200.002 91.6196 199.166 91.4295 198.306 91.3878C198.041 91.3752 197.837 91.15 197.85 90.8858C197.862 90.6212 198.084 90.4173 198.352 90.4299C199.325 90.477 200.271 90.6924 201.166 91.07C201.41 91.173 201.524 91.4541 201.421 91.698C201.343 91.881 201.166 91.9912 200.979 91.9912ZM195.598 91.379H192.866C192.601 91.379 192.386 91.1642 192.386 90.8995C192.386 90.6349 192.601 90.42 192.866 90.42H195.598C195.862 90.42 196.077 90.6349 196.077 90.8995C196.077 91.1642 195.862 91.379 195.598 91.379ZM190.134 91.379H187.402C187.137 91.379 186.922 91.1642 186.922 90.8995C186.922 90.6349 187.137 90.42 187.402 90.42H190.134C190.398 90.42 190.613 90.6349 190.613 90.8995C190.613 91.1642 190.398 91.379 190.134 91.379ZM184.669 91.379H181.938C181.673 91.379 181.458 91.1642 181.458 90.8995C181.458 90.6349 181.673 90.42 181.938 90.42H184.669C184.934 90.42 185.149 90.6349 185.149 90.8995C185.149 91.1642 184.935 91.379 184.669 91.379ZM179.206 91.379H176.474C176.209 91.379 175.995 91.1642 175.995 90.8995C175.995 90.6349 176.209 90.42 176.474 90.42H179.206C179.471 90.42 179.685 90.6349 179.685 90.8995C179.685 91.1642 179.471 91.379 179.206 91.379ZM173.742 91.379H171.01C170.745 91.379 170.53 91.1642 170.53 90.8995C170.53 90.6349 170.745 90.42 171.01 90.42H173.742C174.006 90.42 174.221 90.6349 174.221 90.8995C174.221 91.1642 174.006 91.379 173.742 91.379ZM168.278 91.379H165.546C165.282 91.379 165.067 91.1642 165.067 90.8995C165.067 90.6349 165.282 90.42 165.546 90.42H168.278C168.543 90.42 168.758 90.6349 168.758 90.8995C168.758 91.1642 168.543 91.379 168.278 91.379ZM162.814 91.379H160.082C159.818 91.379 159.603 91.1642 159.603 90.8995C159.603 90.6349 159.818 90.42 160.082 90.42H162.814C163.079 90.42 163.294 90.6349 163.294 90.8995C163.294 91.1642 163.079 91.379 162.814 91.379ZM157.35 91.379H154.618C154.353 91.379 154.139 91.1642 154.139 90.8995C154.139 90.6349 154.353 90.42 154.618 90.42H157.35C157.615 90.42 157.829 90.6349 157.829 90.8995C157.829 91.1642 157.615 91.379 157.35 91.379ZM151.886 91.379H149.155C148.89 91.379 148.675 91.1642 148.675 90.8995C148.675 90.6349 148.89 90.42 149.155 90.42H151.886C152.151 90.42 152.366 90.6349 152.366 90.8995C152.366 91.1642 152.151 91.379 151.886 91.379ZM146.422 91.379H143.691C143.426 91.379 143.211 91.1642 143.211 90.8995C143.211 90.6349 143.426 90.42 143.691 90.42H146.422C146.687 90.42 146.902 90.6349 146.902 90.8995C146.902 91.1642 146.687 91.379 146.422 91.379ZM140.959 91.379H138.227C137.962 91.379 137.747 91.1642 137.747 90.8995C137.747 90.6349 137.962 90.42 138.227 90.42H140.959C141.223 90.42 141.438 90.6349 141.438 90.8995C141.438 91.1642 141.223 91.379 140.959 91.379ZM135.495 91.379H132.763C132.498 91.379 132.283 91.1642 132.283 90.8995C132.283 90.6349 132.498 90.42 132.763 90.42H135.495C135.759 90.42 135.974 90.6349 135.974 90.8995C135.974 91.1642 135.76 91.379 135.495 91.379ZM130.031 91.379H127.299C127.035 91.379 126.82 91.1642 126.82 90.8995C126.82 90.6349 127.035 90.42 127.299 90.42H130.031C130.296 90.42 130.511 90.6349 130.511 90.8995C130.511 91.1642 130.296 91.379 130.031 91.379ZM124.567 91.379H121.835C121.57 91.379 121.356 91.1642 121.356 90.8995C121.356 90.6349 121.57 90.42 121.835 90.42H124.567C124.832 90.42 125.046 90.6349 125.046 90.8995C125.046 91.1642 124.832 91.379 124.567 91.379ZM119.103 91.379H116.372C116.107 91.379 115.892 91.1642 115.892 90.8995C115.892 90.6349 116.107 90.42 116.372 90.42H119.103C119.368 90.42 119.583 90.6349 119.583 90.8995C119.583 91.1642 119.368 91.379 119.103 91.379ZM113.639 91.379H110.907C110.643 91.379 110.428 91.1642 110.428 90.8995C110.428 90.6349 110.643 90.42 110.907 90.42H113.639C113.904 90.42 114.119 90.6349 114.119 90.8995C114.119 91.1642 113.904 91.379 113.639 91.379ZM108.175 91.379H105.443C105.179 91.379 104.964 91.1642 104.964 90.8995C104.964 90.6349 105.179 90.42 105.443 90.42H108.175C108.44 90.42 108.655 90.6349 108.655 90.8995C108.655 91.1642 108.44 91.379 108.175 91.379ZM102.712 91.379H99.9798C99.7151 91.379 99.5003 91.1642 99.5003 90.8995C99.5003 90.6349 99.7151 90.42 99.9798 90.42H102.712C102.976 90.42 103.191 90.6349 103.191 90.8995C103.191 91.1642 102.976 91.379 102.712 91.379ZM97.2475 91.379H94.5157C94.251 91.379 94.0362 91.1642 94.0362 90.8995C94.0362 90.6349 94.251 90.42 94.5157 90.42H97.2475C97.5122 90.42 97.727 90.6349 97.727 90.8995C97.727 91.1642 97.5122 91.379 97.2475 91.379ZM91.7839 91.379H89.0522C88.7875 91.379 88.5727 91.1642 88.5727 90.8995C88.5727 90.6349 88.7869 90.42 89.0516 90.42H91.7834C92.0481 90.42 92.2629 90.6349 92.2629 90.8995C92.2629 91.1642 92.0486 91.379 91.7839 91.379ZM86.3198 91.379H83.588C83.3234 91.379 83.1085 91.1642 83.1085 90.8995C83.1085 90.6349 83.3234 90.42 83.588 90.42H86.3198C86.5845 90.42 86.7993 90.6349 86.7993 90.8995C86.7993 91.1642 86.5845 91.379 86.3198 91.379Z" fill="#E3E5E8"/>
<path d="M99.0511 106.175C99.0511 112.38 94.0216 117.409 87.8171 117.409C85.8169 117.409 83.9384 116.886 82.3108 115.968V101.672C82.3108 100.204 83.5016 99.0116 84.9697 99.0116H96.4695C98.0822 100.956 99.0511 103.453 99.0511 106.175Z" fill="#D7243A"/>
<path d="M85.7621 115.24C91.9664 115.24 96.9961 110.21 96.9961 104.006C96.9961 97.8017 91.9664 92.7721 85.7621 92.7721C79.5577 92.7721 74.5281 97.8017 74.5281 104.006C74.5281 110.21 79.5577 115.24 85.7621 115.24Z" fill="#3C3C48"/>
<path d="M86.8583 108.71V99.3021C86.8583 98.6971 86.3678 98.2061 85.7623 98.2061C85.1567 98.2061 84.6663 98.6971 84.6663 99.3021V108.71C84.6663 109.315 85.1567 109.806 85.7623 109.806C86.3678 109.806 86.8583 109.315 86.8583 108.71Z" fill="white"/>
<path d="M90.4657 102.91H81.0582C80.4526 102.91 79.9622 103.401 79.9622 104.006C79.9622 104.611 80.4526 105.102 81.0582 105.102H90.4657C91.0712 105.102 91.5617 104.611 91.5617 104.006C91.5617 103.401 91.0712 102.91 90.4657 102.91Z" fill="white"/>
<path d="M156.952 199.002H125.486V226.336H156.952V199.002Z" fill="#1A100E"/>
<path d="M175.356 234.407H107.081V232.247C107.081 228.129 110.42 224.791 114.538 224.791H167.9C172.018 224.791 175.357 228.129 175.357 232.247L175.356 234.407Z" fill="#3C3C48"/>
<path d="M241.099 226.836L241.195 231.455L237.699 231.341L237.294 226.661L241.099 226.836Z" fill="#FCBB8C"/>
<path d="M239.681 230.629C239.681 230.629 237.935 230.219 237.457 230.243C236.979 230.267 233.88 233.95 232.806 234.194C230.86 234.636 230.949 237.694 232.145 237.81C235.605 238.145 241.457 236.511 241.457 236.511C241.457 236.511 241.883 232.572 241.609 231.347C241.336 230.123 240.655 230.962 239.681 230.629Z" fill="#B32C28"/>
<path d="M236.928 234.064C236.99 234.076 237.056 234.063 237.111 234.024C237.219 233.947 237.243 233.798 237.166 233.691C237.14 233.655 236.529 232.809 235.795 232.531C234.819 232.159 234.15 232.759 234.122 232.784C234.025 232.873 234.018 233.024 234.108 233.122C234.196 233.219 234.348 233.226 234.445 233.136C234.463 233.12 234.93 232.714 235.626 232.977C236.223 233.204 236.773 233.961 236.778 233.969C236.815 234.021 236.87 234.054 236.928 234.064Z" fill="white"/>
<path d="M237.566 233.322C237.628 233.333 237.694 233.321 237.75 233.281C237.857 233.205 237.882 233.056 237.805 232.948C237.779 232.913 237.168 232.066 236.434 231.788C235.457 231.416 234.789 232.016 234.761 232.042C234.664 232.131 234.657 232.282 234.747 232.379C234.836 232.476 234.987 232.483 235.084 232.394C235.103 232.378 235.57 231.971 236.265 232.235C236.865 232.463 237.411 233.219 237.417 233.227C237.454 233.278 237.508 233.31 237.566 233.322Z" fill="white"/>
<path d="M236.025 234.707C236.086 234.719 236.153 234.706 236.208 234.667C236.316 234.59 236.34 234.441 236.263 234.334C236.237 234.298 235.626 233.452 234.892 233.173C233.915 232.801 233.247 233.401 233.219 233.427C233.122 233.516 233.115 233.667 233.205 233.764C233.293 233.861 233.445 233.868 233.542 233.778C233.561 233.763 234.028 233.356 234.723 233.619C235.323 233.847 235.869 234.604 235.874 234.611C235.912 234.664 235.966 234.696 236.025 234.707Z" fill="white"/>
<path d="M228.239 172.48C228.239 172.48 228.306 173.526 228.429 175.261C228.461 175.72 228.497 176.227 228.537 176.779C228.959 182.602 229.781 193.132 230.712 200.605C232.016 211.081 236.245 228.313 236.245 228.313L240.751 228.193L241.196 228.179L242.264 228.152C242.264 228.152 241.599 217.266 240.716 207.813C240.133 201.578 239.873 186.835 239.765 177.524C239.709 172.723 239.692 169.365 239.692 169.365L228.239 172.48Z" fill="#3C3C48"/>
<path d="M228.239 172.48C228.239 172.48 228.306 173.526 228.429 175.261C228.461 175.72 228.497 176.227 228.537 176.779C230.612 177.184 236.323 177.497 239.765 177.524C239.709 172.723 239.692 169.365 239.692 169.365L228.239 172.48Z" fill="#1A100E"/>
<path d="M237.218 175.254C237.22 175.611 237.37 209.529 240.75 228.193L241.196 228.178C237.811 209.572 237.662 175.605 237.66 175.253L237.218 175.254Z" fill="#1A100E"/>
<path d="M214.321 227.483L214.437 231.5L218.111 231.335L218.227 227.07L214.321 227.483Z" fill="#FCBB8C"/>
<path d="M215.375 231.323C215.375 231.323 214.583 230.275 213.96 230.324C213.338 230.373 208.557 234.228 206.913 234.556C205.268 234.883 205.596 236.093 205.903 236.71C206.209 237.328 219.038 236.385 219.038 236.385C219.038 236.385 219.363 232.562 218.936 231.396C218.508 230.231 216.664 231.591 215.375 231.323Z" fill="#B32C28"/>
<path d="M212.737 234.008C212.796 234.025 212.86 234.019 212.917 233.986C213.027 233.922 213.065 233.781 213.001 233.671C212.98 233.634 212.471 232.764 211.791 232.428C210.887 231.979 210.189 232.493 210.159 232.515C210.057 232.592 210.037 232.737 210.114 232.838C210.19 232.94 210.335 232.96 210.437 232.884C210.456 232.87 210.942 232.523 211.586 232.841C212.14 233.115 212.597 233.895 212.602 233.902C212.633 233.956 212.682 233.992 212.737 234.008Z" fill="white"/>
<path d="M213.42 233.354C213.478 233.371 213.543 233.365 213.6 233.332C213.71 233.268 213.748 233.127 213.684 233.017C213.663 232.98 213.154 232.11 212.475 231.773C211.57 231.325 210.873 231.839 210.843 231.861C210.742 231.938 210.721 232.082 210.798 232.184C210.874 232.286 211.019 232.306 211.12 232.229C211.14 232.216 211.626 231.869 212.269 232.187C212.825 232.462 213.28 233.24 213.284 233.248C213.316 233.302 213.365 233.338 213.42 233.354Z" fill="white"/>
<path d="M211.809 234.542C211.867 234.559 211.932 234.553 211.989 234.52C212.099 234.456 212.137 234.315 212.073 234.205C212.052 234.168 211.543 233.298 210.864 232.961C209.96 232.513 209.261 233.027 209.232 233.049C209.13 233.126 209.11 233.27 209.186 233.372C209.263 233.474 209.408 233.494 209.509 233.417C209.528 233.404 210.016 233.057 210.658 233.375C211.215 233.651 211.669 234.428 211.673 234.436C211.704 234.49 211.753 234.526 211.809 234.542Z" fill="white"/>
<path d="M213.644 228.525L217.378 228.277L217.823 228.249L218.73 228.188C218.73 228.188 221.193 206.386 221.952 200.58C222.611 195.535 225.594 184.212 227.528 177.168C228.076 175.168 228.541 173.513 228.846 172.444C229.079 171.603 229.217 171.125 229.217 171.125L216.749 169.82C216.749 169.82 216.712 170.093 216.651 170.586C216.522 171.595 216.274 173.528 215.973 175.956C215.142 182.567 213.877 192.855 213.377 198.094C212.094 211.583 213.644 228.525 213.644 228.525Z" fill="#3C3C48"/>
<path d="M215.973 175.957L227.528 177.168C228.076 175.169 228.541 173.514 228.846 172.445L216.651 170.588C216.522 171.595 216.273 173.528 215.973 175.957Z" fill="#1A100E"/>
<path d="M217.378 228.277L217.823 228.249C218.092 221.503 218.887 204.657 220.294 197.523C222.063 188.531 226.072 175.449 226.114 175.317L225.689 175.187C225.648 175.319 221.633 188.424 219.861 197.438C218.444 204.618 217.644 221.544 217.378 228.277Z" fill="#1A100E"/>
<path d="M217.708 143.03C216.075 148.549 211.759 152.516 211.759 152.516C209.31 153.678 202.769 156.083 200.498 155.639C200.631 154.087 200.486 153.003 200.224 151.094C203.328 150.973 208.898 147.527 208.898 147.527C213.805 138.452 214.563 128.26 214.563 128.26C217.795 131.642 217.708 143.03 217.708 143.03Z" fill="#D7243A"/>
<path d="M241.595 163.634C241.607 163.811 241.617 163.987 241.627 164.159C241.813 167.315 241.945 169.762 242.002 170.964C239.004 171.973 235.988 172.691 232.953 173.121C232.815 173.14 232.679 173.159 232.541 173.177C232.467 173.187 232.394 173.197 232.32 173.205C232.157 173.226 231.993 173.246 231.831 173.264C231.65 173.286 231.47 173.307 231.287 173.327C229.219 173.548 227.142 173.635 225.056 173.591C224.635 173.581 224.215 173.566 223.794 173.546C223.766 173.545 223.74 173.543 223.712 173.543C223.606 173.538 223.498 173.531 223.39 173.525C223.324 173.521 223.259 173.517 223.195 173.513C220.764 173.371 218.323 173.045 215.869 172.54C215.829 171.995 215.778 171.186 215.717 170.168C215.705 169.978 215.694 169.784 215.683 169.58V169.579C215.596 168.121 215.496 166.305 215.388 164.253C215.378 164.078 215.369 163.901 215.36 163.722C215.289 162.356 215.215 160.892 215.142 159.366C215.133 159.189 215.124 159.012 215.116 158.834C215.041 157.268 214.967 155.642 214.895 153.99C214.851 152.982 214.807 151.964 214.767 150.945C214.726 149.913 214.685 148.88 214.648 147.853C214.64 147.629 214.631 147.405 214.624 147.182C214.276 137.469 214.148 128.53 214.764 127.495C215.191 126.779 216.216 125.905 217.431 125.014C217.579 124.906 217.73 124.796 217.884 124.686C218.402 124.318 222.706 122.56 223.245 122.198L227.87 121.594C227.9 121.609 232.431 122.839 232.461 122.853C232.658 122.95 232.858 123.049 233.056 123.148C234.758 123.998 236.441 124.899 237.427 125.704C237.571 125.82 237.701 125.935 237.811 126.048C237.9 126.138 237.98 126.225 238.045 126.312C238.106 126.391 238.168 126.525 238.232 126.71C238.917 128.718 239.695 136.725 240.368 145.448C240.417 146.073 240.463 146.702 240.511 147.333C240.532 147.609 240.552 147.887 240.573 148.164C240.588 148.355 240.602 148.546 240.615 148.737C240.622 148.833 240.629 148.928 240.636 149.024C240.671 149.498 240.705 149.972 240.738 150.443C240.763 150.792 240.788 151.14 240.812 151.488C241.119 155.883 241.389 160.153 241.595 163.634Z" fill="#B32C28"/>
<path d="M225.153 129.289C227.626 129.14 229.748 126.374 229.84 126.253C229.898 126.176 229.884 126.066 229.806 126.008C229.73 125.949 229.62 125.964 229.561 126.042C229.539 126.071 227.316 128.967 224.919 128.946C224.823 128.944 224.743 129.022 224.742 129.119C224.741 129.215 224.819 129.294 224.915 129.295C224.995 129.296 225.075 129.293 225.153 129.289Z" fill="#D7243A"/>
<path d="M229.079 158.716C229.166 158.71 229.238 158.641 229.243 158.551C229.248 158.454 229.174 158.372 229.078 158.367C222.647 158.016 219.334 147.12 219.302 147.01C219.274 146.918 219.177 146.865 219.085 146.893C218.992 146.92 218.939 147.017 218.967 147.11C219.103 147.568 222.384 158.352 229.059 158.715C229.065 158.716 229.072 158.716 229.079 158.716Z" fill="#D7243A"/>
<path d="M226.334 155.524C226.393 155.52 226.448 155.487 226.478 155.431C226.523 155.347 226.491 155.24 226.406 155.195C222.883 153.305 222.192 150.248 222.185 150.218C222.165 150.124 222.073 150.062 221.978 150.084C221.884 150.104 221.823 150.196 221.844 150.291C221.872 150.422 222.569 153.533 226.241 155.503C226.271 155.519 226.303 155.526 226.334 155.524Z" fill="#D7243A"/>
<path d="M231.486 111.537C231.486 111.537 232.32 111.011 231.815 109.094C231.31 107.177 232.488 106.581 231.7 105.519C230.913 104.456 230.194 104.439 229.687 103.099C229.179 101.758 226.3 100.872 224.501 101.672C222.702 102.471 219.908 101.207 218.97 102.627C217.27 105.196 218.379 106.134 217.733 106.71C216.838 107.509 217.322 112.824 219.008 113.006C220.695 113.189 231.486 111.537 231.486 111.537Z" fill="#3C3C48"/>
<path d="M219.411 112.436C219.411 112.436 218.233 111.048 217.495 112.299C216.757 113.549 218.117 117.03 220.048 116.044L219.411 112.436Z" fill="#FB927E"/>
<path d="M219.549 114.973C219.476 114.978 219.406 114.933 219.38 114.86C219.007 113.783 217.845 113.407 217.833 113.404C217.745 113.376 217.695 113.281 217.723 113.193C217.75 113.105 217.844 113.055 217.933 113.083C217.987 113.1 219.267 113.509 219.697 114.75C219.728 114.838 219.681 114.934 219.594 114.964C219.579 114.969 219.564 114.972 219.549 114.973Z" fill="#E6765D"/>
<path d="M218.37 114.49C218.339 114.491 218.307 114.485 218.278 114.468C218.197 114.423 218.168 114.32 218.214 114.239C218.221 114.226 218.404 113.907 218.813 113.694C218.894 113.651 218.996 113.683 219.039 113.765C219.082 113.848 219.05 113.949 218.968 113.992C218.652 114.157 218.508 114.402 218.507 114.404C218.478 114.456 218.425 114.487 218.37 114.49Z" fill="#E6765D"/>
<path d="M230.643 111.759C230.643 111.759 231.645 110.24 232.528 111.393C233.411 112.546 232.479 116.163 230.443 115.417L230.643 111.759Z" fill="#FB927E"/>
<path d="M230.81 114.294C230.883 114.29 230.948 114.237 230.964 114.162C231.205 113.048 232.314 112.535 232.325 112.53C232.41 112.492 232.447 112.393 232.41 112.308C232.372 112.224 232.272 112.186 232.188 112.224C232.136 112.247 230.914 112.808 230.636 114.091C230.616 114.182 230.674 114.272 230.764 114.291C230.78 114.294 230.795 114.295 230.81 114.294Z" fill="#E6765D"/>
<path d="M231.922 113.673C231.954 113.671 231.984 113.661 232.011 113.64C232.086 113.586 232.102 113.48 232.047 113.405C232.038 113.393 231.819 113.098 231.388 112.936C231.301 112.903 231.204 112.947 231.171 113.034C231.138 113.12 231.182 113.217 231.269 113.25C231.603 113.376 231.775 113.602 231.777 113.604C231.812 113.653 231.868 113.676 231.922 113.673Z" fill="#E6765D"/>
<path d="M228.111 118.579L228.323 122.109C228.323 122.109 227.379 123.97 225.963 124.178C224.549 124.388 223.184 122.792 223.184 122.792L222.964 119.138L228.111 118.579Z" fill="#FCBB8C"/>
<path d="M228.111 118.579L228.205 120.145C227.314 121.263 225.633 121.63 223.1 121.41L222.963 119.138L228.111 118.579Z" fill="#FB927E"/>
<path d="M231.285 109.29C231.303 110.666 231.276 112.389 231.096 113.776V113.78C231.096 113.783 231.095 113.787 231.095 113.793C231.095 113.794 231.093 113.794 231.093 113.795C231.049 114.134 230.995 114.453 230.933 114.741C230.896 114.91 230.855 115.087 230.808 115.269C230.13 117.944 228.42 121.859 223.444 120.415C221.348 119.808 220.152 117.753 219.469 115.488C219.429 115.353 219.391 115.219 219.356 115.09C219.333 115.004 219.31 114.921 219.29 114.839L219.258 114.718C219.253 114.697 219.25 114.683 219.248 114.673C219.246 114.668 219.246 114.666 219.246 114.666C218.818 112.918 218.662 111.134 218.608 109.856C218.555 108.552 219.195 107.318 220.289 106.608C223.253 104.683 226.532 105.137 228.715 105.828C230.23 106.307 231.266 107.703 231.285 109.29Z" fill="#FCBB8C"/>
<path d="M227.824 112.061C227.847 112.438 227.671 112.754 227.431 112.769C227.192 112.783 226.979 112.49 226.957 112.113C226.934 111.736 227.109 111.419 227.349 111.405C227.588 111.39 227.801 111.684 227.824 112.061Z" fill="#3C3C48"/>
<path d="M222.555 112.378C222.578 112.755 222.403 113.072 222.163 113.087C221.924 113.101 221.711 112.807 221.689 112.431C221.666 112.054 221.841 111.737 222.081 111.722C222.32 111.708 222.533 112.001 222.555 112.378Z" fill="#3C3C48"/>
<path d="M229.089 109.848C229.089 109.848 227.334 109.045 225.921 109.569L226.019 110.344C226.019 110.344 228.054 110.279 229.053 110.746C229.161 110.455 229.19 110.157 229.089 109.848Z" fill="#3C3C48"/>
<path d="M220.515 110.289C220.515 110.289 222.224 109.361 223.679 109.791L223.634 110.577C223.634 110.577 221.584 110.651 220.612 111.19C220.485 110.905 220.435 110.607 220.515 110.289Z" fill="#3C3C48"/>
<path d="M225.246 115.276C225.529 115.259 225.803 115.132 225.846 115.112C225.929 115.072 225.965 114.972 225.924 114.888C225.884 114.804 225.783 114.769 225.7 114.809C225.552 114.879 225.195 114.998 225.031 114.913C225 114.896 224.956 114.863 224.939 114.762C224.843 114.18 224.886 112.207 224.886 112.188C224.888 112.095 224.814 112.018 224.721 112.016C224.628 112.014 224.552 112.088 224.55 112.181C224.548 112.263 224.507 114.204 224.608 114.817C224.646 115.048 224.775 115.159 224.876 115.212C224.988 115.269 225.118 115.284 225.246 115.276Z" fill="#FB927E"/>
<path d="M223.216 116.681C223.382 117.314 223.876 118.466 225.302 118.381C226.731 118.295 227.067 117.194 227.16 116.443L223.216 116.681Z" fill="white"/>
<path d="M231.285 109.29C231.302 110.665 231.275 112.389 231.096 113.776L230.343 113.768C230.343 113.768 230.455 112.599 230.493 111.839C230.532 111.08 230.589 109.66 229.934 109.523C229.282 109.388 229.562 107.756 228.626 107.112C227.69 106.467 225.679 106.395 224.41 107.286C223.141 108.176 221.603 107.394 221.004 107.571C220.404 107.747 219.629 108.636 219.9 109.405C220.172 110.173 219.53 110.689 219.416 111.509C219.302 112.329 219.954 114.477 219.954 114.477L219.246 114.665C218.818 112.916 218.662 111.134 218.608 109.856C218.554 108.552 219.194 107.319 220.289 106.608C223.254 104.682 226.532 105.136 228.715 105.827C230.23 106.307 231.266 107.704 231.285 109.29Z" fill="#3C3C48"/>
<path d="M232.318 136.337L236.194 132.31H205.182L201.242 136.402L232.318 136.337Z" fill="#3C3C48"/>
<path d="M231.785 138.577L230.291 125.865C230.257 125.575 229.994 125.368 229.704 125.402L211.899 127.494C211.609 127.528 211.402 127.791 211.436 128.081L212.93 140.794C212.964 141.084 213.227 141.291 213.517 141.257L231.321 139.165C231.612 139.13 231.819 138.868 231.785 138.577Z" fill="#E3E5E8"/>
<path d="M211.951 128.386L213.36 140.378C213.361 140.382 213.361 140.387 213.362 140.392C213.395 140.612 213.598 140.769 213.822 140.742L230.905 138.734C231.034 138.719 231.142 138.647 231.207 138.545C231.257 138.467 231.281 138.372 231.27 138.272L229.86 126.281C229.834 126.053 229.627 125.889 229.399 125.916L212.315 127.925C212.087 127.951 211.924 128.158 211.951 128.386Z" fill="#B32C28"/>
<path d="M216.059 133.711C216.256 135.39 217.778 136.591 219.457 136.394C221.136 136.197 222.337 134.675 222.14 132.996C221.942 131.317 220.421 130.116 218.742 130.313C217.063 130.511 215.862 132.032 216.059 133.711Z" fill="#D7243A"/>
<path d="M213.01 137.4L213.362 140.392C213.396 140.612 213.599 140.769 213.822 140.742L222.933 139.672L216.022 130.633L213.709 135.831L213.01 137.4Z" fill="#1A100E"/>
<path d="M216.935 140.376L230.905 138.734C231.034 138.719 231.142 138.646 231.207 138.545L227.042 133.314L222.764 127.942L219.85 134.159L216.935 140.376Z" fill="#3C3C48"/>
<path d="M225.538 131.425L223.412 133.444L220.875 131.973L222.765 127.942L225.538 131.425Z" fill="white"/>
<path d="M218.374 133.71L216.593 135.491L214.447 134.171L216.022 130.633L218.374 133.71Z" fill="white"/>
<path d="M211.508 143.241L217.564 131.715C217.671 131.51 217.592 131.257 217.388 131.149L201.323 122.708C201.118 122.601 200.865 122.679 200.757 122.884L194.701 134.41C194.594 134.615 194.672 134.868 194.877 134.976L210.942 143.417C211.147 143.524 211.4 143.446 211.508 143.241Z" fill="#E3E5E8"/>
<path d="M200.959 123.524L195.343 134.213C195.341 134.217 195.338 134.221 195.336 134.225C195.239 134.427 195.318 134.67 195.518 134.775L210.745 142.775C210.86 142.836 210.99 142.837 211.101 142.79C211.186 142.754 211.26 142.689 211.307 142.601L216.923 131.912C217.029 131.709 216.951 131.457 216.748 131.35L201.52 123.349C201.317 123.242 201.066 123.321 200.959 123.524Z" fill="#B32C28"/>
<path d="M201.337 130.239C200.551 131.736 201.127 133.586 202.624 134.373C204.12 135.159 205.971 134.583 206.757 133.087C207.544 131.59 206.968 129.74 205.471 128.953C203.974 128.167 202.124 128.743 201.337 130.239Z" fill="#D7243A"/>
<path d="M196.738 131.558L195.336 134.226C195.239 134.427 195.318 134.67 195.518 134.775L203.639 139.042L203.047 127.68L198.201 130.659L196.738 131.558Z" fill="#1A100E"/>
<path d="M198.293 136.233L210.745 142.775C210.859 142.836 210.99 142.837 211.101 142.79L210.622 136.12L210.13 129.271L204.211 132.752L198.293 136.233Z" fill="#3C3C48"/>
<path d="M210.449 133.711L207.554 134.175L206.293 131.528L210.131 129.271L210.449 133.711Z" fill="white"/>
<path d="M203.248 131.547L200.772 132.01L199.748 129.708L203.047 127.68L203.248 131.547Z" fill="white"/>
<path d="M232.307 136.337H201.469V165.053H232.307V136.337Z" fill="#1A100E"/>
<path d="M225.94 165.052H195.103V136.272L225.94 136.337V165.052Z" fill="#3C3C48"/>
<path d="M195.103 136.272L190.989 132.244H222.001L225.94 136.337L195.103 136.272Z" fill="#1A100E"/>
<path d="M224.441 161.42L223.698 161.733C223.034 162.014 222.364 161.836 221.816 161.368C221.573 161.161 221.191 160.757 220.999 160.644C220.456 160.327 219.18 159.95 218.815 160.076C218.449 160.202 218.794 160.835 219.167 161.019C219.54 161.203 220.092 161.405 220.476 161.724C220.861 162.044 219.262 163.696 218.552 164.224C217.842 164.751 216.273 164.912 216.415 165.625C216.556 166.339 217.639 165.995 217.639 165.995C217.639 165.995 217.583 166.715 218.655 166.84C218.655 166.84 218.745 167.485 219.435 167.557C219.435 167.557 219.681 168.317 220.412 168.237C221.143 168.155 223.418 167.888 226.376 163.798L224.441 161.42Z" fill="#FCBB8C"/>
<path d="M224.219 161.014C224.219 161.014 234.901 152.789 238.37 148.389C238.37 148.389 237.934 143.013 237.409 138.707C237.069 135.917 237.011 133.099 237.272 130.301C237.418 128.731 237.657 127.214 238.045 126.312C238.045 126.312 241.041 127.291 242.71 137.42C243.619 142.933 243.918 147.296 244.017 149.569C244.067 150.715 243.686 151.836 242.949 152.715C240.655 155.45 234.932 161.412 226.732 164.061C226.732 164.061 224.626 162.324 224.219 161.014Z" fill="#D7243A"/>
<path d="M194.238 149.801C194.238 149.801 196.244 150.252 196.802 151.04C197.359 151.828 194.557 151.647 194.557 151.647C194.557 151.647 197.939 151.89 198.036 152.709C198.132 153.528 194.839 153.386 194.839 153.386C194.839 153.386 197.106 153.9 197.243 154.52C197.379 155.14 194.968 155.135 194.968 155.135C194.968 155.135 196.723 155.724 196.879 156.183C197.034 156.641 195.001 156.879 193.964 156.627C192.926 156.376 193.545 155.082 193.545 155.082C193.545 155.082 193.185 153.865 193.602 153.439C193.602 153.439 193.119 152.349 193.423 151.735C193.423 151.735 192.894 149.954 194.238 149.801Z" fill="#FCBB8C"/>
<path d="M57.2056 196.491C57.2056 196.491 68.2543 202.886 72.0399 203.22C73.7015 203.367 75.1898 203.091 76.2387 202.751C76.5911 202.637 77.4695 202.234 77.5183 202.215C77.5227 202.214 77.5265 202.214 77.5265 202.214C81.1976 200.339 85.295 197.539 90.1108 193.18L88.3161 190.868C88.3161 190.868 85.1815 192.825 81.1274 194.636C79.6319 195.303 76.1505 196.753 74.9186 197.441C74.541 197.413 74.1645 197.372 73.7913 197.315C66.9189 196.303 60.8311 191.369 60.8311 191.369C59.2617 192.712 57.6379 194.746 57.2056 196.491Z" fill="#FCBB8C"/>
<path d="M88.0979 190.712C88.0979 190.712 88.162 188.437 89.0262 187.481C89.8904 186.524 92.2117 183.417 93.0798 183.778C93.9478 184.14 94.8575 187.059 92.9981 190.453C91.8133 192.615 90.0367 193.188 90.0367 193.188L88.0979 190.712Z" fill="#FCBB8C"/>
<path d="M93.9397 185.534L90.9696 191.373C90.8583 191.593 90.5695 191.75 90.324 191.725L87.0821 191.394C86.9812 191.384 86.9034 191.345 86.8547 191.285L86.8404 191.266L86.5374 190.854L87.1676 190.311L93.2679 185.048L93.5989 184.764L93.9195 185.199L93.9425 185.228C93.9463 185.232 93.948 185.235 93.948 185.24C93.9967 185.319 93.9962 185.425 93.9397 185.534Z" fill="#1A100E"/>
<path d="M93.2683 185.049L87.168 190.312L89.8104 185.115C89.9217 184.896 90.2105 184.738 90.4543 184.763L93.2683 185.049Z" fill="#1F2232"/>
<path d="M90.0166 191.308L86.773 190.977C86.5286 190.952 86.4206 190.755 86.5318 190.536L89.5025 184.697C89.6138 184.479 89.902 184.321 90.147 184.346L93.3906 184.677C93.635 184.702 93.743 184.899 93.6317 185.118L90.6616 190.957C90.5498 191.176 90.261 191.333 90.0166 191.308Z" fill="#3C3C48"/>
<path d="M90.0773 190.433L87.5647 190.177C87.3203 190.152 87.2123 189.954 87.3236 189.736L89.6334 185.194C89.7447 184.976 90.0334 184.818 90.2779 184.843L92.7904 185.099C93.0348 185.124 93.1428 185.322 93.0316 185.54L90.7217 190.081C90.6105 190.301 90.3217 190.458 90.0773 190.433Z" fill="#616077"/>
<path d="M93.9506 185.238L93.949 185.24C93.949 185.235 93.9468 185.232 93.9436 185.228L93.9506 185.238Z" fill="#1F2232"/>
<path d="M88.5836 186.503C88.5836 186.503 89.261 186.37 89.5267 186.897C89.7925 187.424 89.1168 187.422 88.6894 187.44C88.262 187.458 87.9611 187.705 87.931 187.787C87.8351 188.045 87.3967 186.75 88.5836 186.503Z" fill="#FCBB8C"/>
<path d="M92.5369 188.453C92.5369 188.453 92.9413 186.435 93.3841 185.251C93.6789 184.463 94.2581 185.24 94.1277 185.976C93.9973 186.712 93.7551 188.204 92.5369 188.453Z" fill="#FCBB8C"/>
<path d="M42.2898 198.592C43.3765 202.562 45.9373 209.867 47.6087 216.135C50.575 223.491 51.4397 229.237 53.0519 232.312C53.0519 232.312 65.8998 228.674 69.3259 224.331L66.9065 217.722C65.034 214.284 63.7314 210.565 63.0502 206.711C63.0414 206.667 63.0343 206.622 63.0266 206.578C63.1297 206.395 63.2239 206.184 63.3105 205.952C63.6744 204.971 63.8865 203.617 63.8667 202.425C63.8569 201.836 63.7911 201.288 63.6579 200.845C62.9932 198.635 61.9674 195.651 61.781 195.111V195.11L61.6243 192.572C61.5684 191.675 60.8538 190.957 59.9556 190.9L52.8349 190.446L43.5979 195.511C42.5019 196.114 41.9604 197.387 42.2898 198.592Z" fill="#B32C28"/>
<path d="M66.1244 222.541H66.1233C61.9497 223.214 58.0748 221.907 55.5595 220.692C52.8392 219.378 51.0741 217.881 51.0566 217.866C50.9711 217.793 50.9612 217.665 51.0341 217.58C51.107 217.494 51.2358 217.484 51.3207 217.557C51.3377 217.572 53.0705 219.039 55.7464 220.331C58.2069 221.518 61.993 222.795 66.0581 222.139C66.1688 222.121 66.2735 222.197 66.2915 222.307C66.3102 222.418 66.2351 222.522 66.1244 222.541Z" fill="#D7243A"/>
<path d="M62.0134 224.678C58.3944 225.279 54.4433 223.815 54.2635 223.747C54.1583 223.708 54.1052 223.591 54.1446 223.485C54.1841 223.38 54.3013 223.328 54.4066 223.366C54.4531 223.384 59.1018 225.105 62.8025 224.09C62.9121 224.059 63.0228 224.124 63.0524 224.233C63.082 224.341 63.0184 224.453 62.9099 224.483C62.6151 224.564 62.3153 224.628 62.0134 224.678Z" fill="#D7243A"/>
<path d="M51.6029 198.284C51.5081 198.3 51.4133 198.247 51.3788 198.154C51.3399 198.048 51.3941 197.931 51.4999 197.893C56.4248 196.084 57.4145 192.559 57.4238 192.523C57.4528 192.415 57.5641 192.35 57.6726 192.379C57.7811 192.408 57.8458 192.52 57.8167 192.628C57.7762 192.781 56.7613 196.394 51.6402 198.275C51.6276 198.278 51.615 198.282 51.6029 198.284Z" fill="#D7243A"/>
<path d="M57.6211 208.631C57.6359 208.728 57.7192 208.8 57.8146 208.803C57.8277 208.803 57.8398 208.803 57.8529 208.802C60.2548 208.436 61.9268 207.57 63.0502 206.711C63.0414 206.668 63.0343 206.623 63.0266 206.579C63.1296 206.396 63.2239 206.185 63.3105 205.952C62.2539 206.9 60.5031 207.986 57.7921 208.398C57.6809 208.415 57.6047 208.52 57.6211 208.631Z" fill="#D7243A"/>
<path d="M100.516 232.354L102.78 236.275C102.78 236.275 104.464 236.459 106.404 235.107L103.849 230.482L100.516 232.354Z" fill="#FCBB8C"/>
<path d="M105.392 234.877C105.392 234.877 105.652 233.548 106.252 233.312C106.851 233.076 113.021 234.488 114.692 234.047C116.364 233.607 116.607 234.876 116.602 235.587C116.598 236.297 104.287 241.221 104.287 241.221C104.287 241.221 102.258 237.827 102.127 236.554C101.996 235.282 104.319 235.707 105.392 234.877Z" fill="#B32C28"/>
<path d="M109.05 236.172C109.004 236.214 108.941 236.238 108.874 236.233C108.743 236.224 108.644 236.111 108.654 235.98C108.657 235.936 108.735 234.9 109.213 234.282C109.847 233.457 110.727 233.618 110.764 233.625C110.893 233.65 110.977 233.775 110.952 233.904C110.927 234.033 110.802 234.117 110.673 234.092C110.649 234.088 110.042 233.986 109.589 234.572C109.2 235.076 109.129 236.004 109.128 236.014C109.123 236.077 109.094 236.132 109.05 236.172Z" fill="white"/>
<path d="M108.121 235.875C108.075 235.917 108.012 235.941 107.945 235.936C107.814 235.927 107.715 235.813 107.725 235.682C107.728 235.638 107.806 234.602 108.284 233.983C108.919 233.159 109.798 233.32 109.835 233.327C109.964 233.352 110.048 233.476 110.023 233.606C109.998 233.735 109.873 233.819 109.744 233.794C109.72 233.789 109.112 233.688 108.66 234.274C108.27 234.78 108.2 235.706 108.199 235.716C108.194 235.779 108.165 235.835 108.121 235.875Z" fill="white"/>
<path d="M110.151 236.247C110.105 236.289 110.042 236.313 109.975 236.308C109.844 236.299 109.745 236.185 109.755 236.054C109.758 236.01 109.836 234.974 110.313 234.356C110.948 233.531 111.828 233.692 111.865 233.699C111.994 233.724 112.078 233.849 112.053 233.978C112.028 234.107 111.903 234.191 111.774 234.166C111.75 234.162 111.142 234.061 110.69 234.646C110.299 235.152 110.23 236.078 110.229 236.088C110.224 236.151 110.195 236.207 110.151 236.247Z" fill="white"/>
<path d="M68.6058 227.495C68.6058 227.495 79.934 205.463 87.4712 207.793C92.4969 209.346 104.462 230.947 104.462 230.947C103.985 231.463 101.893 232.864 100.523 232.772C100.523 232.772 89.8945 224.416 86.5835 215.995C86.5835 215.995 80.1072 231.283 69.5325 232.565C68.7187 232.664 66.5831 229.728 68.6058 227.495Z" fill="#1A100E"/>
<path d="M112.384 236.109L116.704 237.463C116.704 237.463 118.069 236.458 118.581 234.149L113.569 232.476L112.384 236.109Z" fill="#FCBB8C"/>
<path d="M117.68 234.664C117.68 234.664 116.971 233.51 117.253 232.931C117.534 232.351 123.031 229.212 123.963 227.757C124.895 226.301 125.933 227.071 126.41 227.596C126.888 228.123 121.162 240.081 121.162 240.081C121.162 240.081 117.371 238.957 116.413 238.109C115.455 237.262 117.452 236.002 117.68 234.664Z" fill="#B32C28"/>
<path d="M121.248 233.141C121.243 233.204 121.213 233.264 121.159 233.306C121.056 233.388 120.907 233.371 120.826 233.268C120.798 233.234 120.154 232.418 120.087 231.64C119.996 230.604 120.752 230.127 120.784 230.107C120.896 230.038 121.042 230.073 121.111 230.185C121.18 230.296 121.145 230.443 121.033 230.512C121.013 230.525 120.497 230.861 120.561 231.599C120.616 232.234 121.192 232.965 121.198 232.972C121.237 233.021 121.254 233.082 121.248 233.141Z" fill="white"/>
<path d="M120.364 233.551C120.358 233.613 120.328 233.673 120.275 233.715C120.172 233.797 120.023 233.78 119.941 233.678C119.913 233.643 119.269 232.828 119.202 232.05C119.111 231.013 119.867 230.536 119.899 230.516C120.011 230.447 120.157 230.482 120.226 230.594C120.295 230.706 120.26 230.852 120.148 230.921C120.128 230.934 119.612 231.271 119.676 232.008C119.731 232.645 120.307 233.374 120.313 233.381C120.353 233.431 120.369 233.492 120.364 233.551Z" fill="white"/>
<path d="M122.11 232.451C122.104 232.513 122.074 232.573 122.021 232.616C121.918 232.697 121.769 232.681 121.686 232.578C121.659 232.543 121.015 231.728 120.948 230.95C120.857 229.913 121.613 229.436 121.645 229.416C121.757 229.347 121.903 229.382 121.972 229.494C122.041 229.606 122.006 229.753 121.894 229.821C121.874 229.835 121.358 230.172 121.422 230.909C121.477 231.546 122.053 232.274 122.059 232.281C122.098 232.331 122.115 232.391 122.11 232.451Z" fill="white"/>
<path d="M114.762 232.659C114.768 233.612 114.696 234.259 114.384 235.108C114.324 235.273 114.258 235.443 114.181 235.629C114.061 235.903 113.918 236.21 113.754 236.55C113.754 236.55 97.3194 233.366 85.9319 227.897C85.9319 227.897 71.3113 238.429 62.3844 239.783C61.535 239.909 60.6965 239.914 59.8964 239.805C59.5622 239.761 59.2279 239.695 58.91 239.613C55.1124 238.649 52.3121 235.18 52.5423 231.19C52.5423 231.19 75.3939 220.904 83.7783 220.241C92.1572 219.573 114.762 232.659 114.762 232.659Z" fill="#3C3C48"/>
<path d="M114.384 235.108C114.324 235.273 114.258 235.443 114.181 235.629C103.386 233.377 90.2119 227.705 86.3211 225.968C85.7731 225.721 85.1374 225.82 84.6936 226.214C77.712 232.407 64.2038 238.084 59.8966 239.805C59.5623 239.761 59.228 239.695 58.9102 239.613C61.9954 238.407 76.901 232.39 84.3264 225.803C84.9347 225.266 85.806 225.135 86.5403 225.464C90.4366 227.206 103.632 232.889 114.384 235.108Z" fill="#1A100E"/>
<path d="M46.8589 174.186C46.8589 174.186 44.5688 176.774 44.2164 182.183C43.9293 186.589 44.3227 192.353 48.2601 192.065C52.1975 191.778 58.6655 192.991 60.8438 189.524C63.0216 186.058 46.8589 174.186 46.8589 174.186Z" fill="#3C3C48"/>
<path d="M58.5565 181.741C58.5565 181.741 59.6201 180.273 60.4487 181.459C61.2773 182.645 60.1917 186.206 58.1975 185.374L58.5565 181.741Z" fill="#FB927E"/>
<path d="M58.6117 184.272C58.6851 184.271 58.7514 184.222 58.7706 184.147C59.0594 183.049 60.185 182.587 60.1965 182.582C60.282 182.548 60.3242 182.451 60.2897 182.365C60.2557 182.279 60.1582 182.237 60.0727 182.271C60.0201 182.292 58.7794 182.797 58.4467 184.062C58.4232 184.151 58.4763 184.243 58.5662 184.266C58.5816 184.271 58.5969 184.273 58.6117 184.272Z" fill="#E6765D"/>
<path d="M59.7467 183.703C59.7779 183.702 59.8091 183.693 59.8365 183.675C59.9133 183.623 59.9341 183.52 59.8826 183.442C59.8738 183.43 59.6689 183.127 59.2463 182.947C59.162 182.91 59.0633 182.949 59.0266 183.035C58.9904 183.12 59.0299 183.218 59.1148 183.255C59.4414 183.394 59.6031 183.627 59.6042 183.629C59.6371 183.678 59.6913 183.704 59.7467 183.703Z" fill="#E6765D"/>
<path d="M50.3831 188.507L50.4406 192.03C50.4406 192.03 51.5202 193.806 52.9428 193.905C54.3637 194.006 55.5978 192.316 55.5978 192.316L55.5381 188.67L50.3831 188.507Z" fill="#FCBB8C"/>
<path d="M50.3831 188.507L50.4088 190.07C51.3793 191.112 53.0781 191.459 55.577 191.048L55.5386 188.67L50.3831 188.507Z" fill="#FB927E"/>
<path d="M46.5213 179.522C46.6089 180.889 46.7673 182.599 47.0512 183.964C47.1219 184.304 47.2008 184.624 47.2879 184.911C48.0716 187.494 49.9989 191.915 55.1588 189.976C57.438 189.12 58.4589 186.549 58.8896 183.944C59.1823 182.175 59.2014 180.392 59.157 179.119C59.1105 177.819 58.3816 176.642 57.2401 176.02C54.1478 174.334 50.9255 175.034 48.8103 175.887C47.3416 176.478 46.4199 177.945 46.5213 179.522Z" fill="#FCBB8C"/>
<path d="M55.4159 182C55.4219 182.375 55.6209 182.677 55.8598 182.673C56.0987 182.669 56.2878 182.361 56.2818 181.985C56.2757 181.609 56.0768 181.307 55.8379 181.312C55.5989 181.316 55.4099 181.624 55.4159 182Z" fill="#3C3C48"/>
<path d="M50.0712 182.087C50.0772 182.463 50.2762 182.765 50.5151 182.761C50.754 182.757 50.9431 182.449 50.937 182.073C50.931 181.697 50.7321 181.395 50.4932 181.4C50.2537 181.403 50.0646 181.711 50.0712 182.087Z" fill="#3C3C48"/>
<path d="M56.4982 179.954C56.1371 179.859 55.4083 179.697 54.6422 179.707C54.4405 179.71 54.2892 179.892 54.3282 180.089L54.3292 180.094C54.3605 180.252 54.5035 180.362 54.6646 180.352C55.1852 180.319 56.5547 180.37 57.2052 180.621C57.2167 180.508 57.1482 180.386 57.0523 180.279C56.9065 180.117 56.7092 180.01 56.4982 179.954Z" fill="#3C3C48"/>
<path d="M49.5045 180.083C49.8624 179.976 50.5857 179.791 51.3518 179.776C51.5535 179.772 51.7108 179.948 51.6784 180.147L51.6773 180.152C51.6516 180.311 51.5118 180.426 51.3507 180.421C50.829 180.405 49.4623 180.501 48.8206 180.773C48.8053 180.661 48.8699 180.537 48.962 180.426C49.1017 180.259 49.2957 180.146 49.5045 180.083Z" fill="#3C3C48"/>
<path d="M52.9482 185.147C53.0765 185.145 53.2047 185.12 53.3105 185.055C53.4075 184.994 53.5269 184.874 53.5472 184.642C53.6009 184.026 53.4118 182.101 53.4036 182.019C53.3949 181.927 53.3126 181.859 53.2206 181.869C53.1285 181.878 53.0617 181.96 53.0704 182.052C53.0726 182.071 53.2644 184.028 53.2135 184.612C53.2047 184.714 53.1636 184.751 53.1335 184.77C52.9778 184.866 52.6134 184.776 52.4611 184.717C52.375 184.683 52.278 184.726 52.2446 184.812C52.2112 184.898 52.2534 184.995 52.34 185.029C52.3838 185.046 52.6655 185.152 52.9482 185.147Z" fill="#FB927E"/>
<path d="M55.0903 186.169C54.9741 186.808 54.573 187.986 53.1564 188.009C51.7366 188.032 51.3206 186.969 51.1721 186.233L55.0903 186.169Z" fill="white"/>
<path d="M53.1926 188.985C53.6014 188.978 53.9587 188.752 53.9735 188.743C54.0513 188.693 54.0737 188.589 54.0239 188.511C53.974 188.434 53.871 188.411 53.7932 188.461C53.7904 188.462 53.4989 188.645 53.1871 188.65C52.8495 188.656 52.5443 188.482 52.5415 188.48C52.4615 188.434 52.359 188.461 52.313 188.541C52.2664 188.621 52.2938 188.723 52.3733 188.77C52.3886 188.779 52.7596 188.992 53.1926 188.985Z" fill="#FB927E"/>
<path d="M47.3471 181.925C47.3471 181.925 46.2357 180.493 45.4466 181.705C44.6575 182.917 45.8587 186.441 47.8249 185.544L47.3471 181.925Z" fill="#FCBB8C"/>
<path d="M46.5816 185.644C46.5854 185.86 46.7635 186.033 46.98 186.03C47.1965 186.026 47.3691 185.848 47.3658 185.631C47.362 185.415 47.1839 185.242 46.9674 185.245C46.7504 185.249 46.5778 185.427 46.5816 185.644Z" fill="white"/>
<path d="M47.3746 184.456C47.3017 184.457 47.2337 184.41 47.2113 184.337C46.8863 183.248 45.7464 182.824 45.7349 182.819C45.6484 182.788 45.6029 182.692 45.6347 182.605C45.6659 182.519 45.7618 182.473 45.8484 182.504C45.9015 182.523 47.1581 182.988 47.5324 184.241C47.5587 184.33 47.5083 184.423 47.42 184.449C47.4047 184.454 47.3899 184.456 47.3746 184.456Z" fill="#FB927E"/>
<path d="M46.2221 183.924C46.1909 183.925 46.1597 183.916 46.1312 183.899C46.0528 183.85 46.0287 183.747 46.0775 183.668C46.0857 183.655 46.2808 183.346 46.6973 183.151C46.7806 183.112 46.8803 183.149 46.9197 183.232C46.9587 183.316 46.9225 183.415 46.8392 183.454C46.5175 183.605 46.3635 183.842 46.3619 183.845C46.3306 183.896 46.2769 183.923 46.2221 183.924Z" fill="#FB927E"/>
<path d="M45.8428 179.26C45.8993 179.412 46.05 179.507 46.2505 179.562C46.2423 179.931 46.2884 180.375 46.3317 180.799C46.5777 183.214 47.1948 183.629 47.323 183.029C47.4074 182.63 47.3646 180.353 47.3087 179.611C47.786 179.571 48.1932 179.485 48.1932 179.485L48.7155 177.128L48.95 179.444C49.7961 179.723 51.7519 179.222 51.7519 179.222L52.3723 176.897L52.8161 179.118C54.088 179.712 55.6592 179.277 55.6592 179.277L55.9825 176.869L56.8587 179.257C56.8587 179.257 59.5669 180.179 59.5806 179.212C59.5894 178.65 59.1516 177.074 58.7839 175.853C58.3827 174.522 57.4856 173.407 56.2872 172.789C52.9181 171.051 49.4021 172.062 48.202 172.806C45.6576 174.38 45.8428 179.26 45.8428 179.26Z" fill="#3C3C48"/>
<path d="M58.0146 174.182C58.0146 174.182 60.2746 176.782 61.0807 181.479C61.8868 186.176 61.8342 189.354 59.7682 190.668C56.814 192.549 57.3077 189.516 57.3368 188.578C57.3658 187.639 59.9359 185.032 58.0744 177.84C57.4732 175.518 58.0146 174.182 58.0146 174.182Z" fill="#3C3C48"/>
<path d="M42.2496 197.338C42.2496 197.338 41.2489 202.126 40.1162 206.721C39.9244 207.501 39.7309 208.296 39.5397 209.089C38.7347 212.421 37.9845 215.708 37.6502 217.655C36.9181 221.917 36.9953 229.94 37.043 232.554L40.0932 232.446C40.2625 229.447 42.6205 220.098 42.5334 217.232L42.8814 215.884L44.1539 210.946L46.1464 203.214C46.1464 203.214 45.8642 197.279 42.2496 197.338Z" fill="#FCBB8C"/>
<path d="M40.1716 231.631C38.977 231.54 35.7871 231.653 34.513 232.083C32.7775 232.67 31.7412 234.074 30.5789 234.384C29.4161 234.693 30.6354 235.478 33.0318 234.911C35.1427 234.412 36.8897 234.038 36.9971 234.536C37.1039 235.035 34.7437 234.752 34.0258 235.494C33.3074 236.234 35.2029 236.156 36.4299 236.321C37.219 236.426 37.824 236.338 38.988 235.888C39.8089 235.571 39.9694 234.894 40.0094 233.746L40.1716 231.631Z" fill="#FCBB8C"/>
<path d="M193.48 237.387H183.149C181.744 237.387 180.499 236.482 180.064 235.146L175.683 221.66C175.504 221.108 175.889 220.535 176.467 220.49C184.445 219.872 192.344 219.871 200.165 220.488C200.742 220.534 201.126 221.107 200.947 221.658L196.565 235.146C196.13 236.482 194.885 237.387 193.48 237.387Z" fill="#3C3C48"/>
<path d="M188.385 222.119C194.816 222.119 200.029 221.828 200.029 221.469C200.029 221.111 194.816 220.82 188.385 220.82C181.954 220.82 176.741 221.111 176.741 221.469C176.741 221.828 181.954 222.119 188.385 222.119Z" fill="#1A100E"/>
<path d="M187.768 196.891V221.391C188.163 221.501 188.533 221.501 188.86 221.391V196.891C188.86 196.589 188.616 196.345 188.314 196.345C188.013 196.344 187.768 196.589 187.768 196.891Z" fill="#D7243A"/>
<path d="M188.17 203.803C188.17 203.803 193.743 209.083 200.118 198.798C200.118 198.798 189.078 196.588 188.17 203.803Z" fill="#B32C28"/>
<path d="M188.685 199.378C188.685 199.378 194.92 194.901 186.022 186.701C186.022 186.701 181.769 197.126 188.685 199.378Z" fill="#B32C28"/>
<path d="M188.555 213.012C188.555 213.012 194.78 217.506 199.733 206.466C199.733 206.466 188.497 205.74 188.555 213.012Z" fill="#B32C28"/>
<path d="M188.314 216.965C188.314 216.965 188.095 209.292 176.32 212.074C176.32 212.074 182.577 221.435 188.314 216.965Z" fill="#B32C28"/>
<path d="M188.881 206.032C188.881 206.032 188.85 198.356 177.01 200.849C177.01 200.849 183.036 210.359 188.881 206.032Z" fill="#B32C28"/>
<path d="M211.333 43.4366C211.333 43.9463 211.125 44.4115 210.786 44.748C210.452 45.0867 209.987 45.2944 209.477 45.2944H169.768C168.748 45.2944 167.913 44.4587 167.913 43.4366C167.913 42.9265 168.12 42.4618 168.459 42.1253C168.793 41.7866 169.258 41.5789 169.768 41.5789H171.645C172.386 39.8566 174.098 38.6526 176.09 38.6526C177.431 38.6526 178.644 39.199 179.523 40.0796C180.693 38.0958 182.85 36.7631 185.32 36.7631C185.999 36.7631 186.653 36.8661 187.27 37.0524C188.561 34.6232 191.115 32.9688 194.059 32.9688C197.594 32.9688 200.568 35.3558 201.466 38.6038C202.118 38.2783 202.853 38.092 203.632 38.092C205.837 38.092 207.697 39.5639 208.282 41.58H209.477C210.498 41.5789 211.333 42.4146 211.333 43.4366Z" fill="#E3E5E8"/>
<path d="M110.836 36.9166C110.836 37.5243 110.588 38.0789 110.185 38.4795C109.786 38.8833 109.232 39.131 108.624 39.131H61.2845C60.0685 39.131 59.0728 38.1348 59.0728 36.9166C59.0728 36.3088 59.3205 35.7542 59.7243 35.3537C60.1227 34.9498 60.6773 34.7021 61.285 34.7021H63.5225C64.4064 32.6487 66.4472 31.213 68.8222 31.213C70.4213 31.213 71.8669 31.864 72.9141 32.914C74.3088 30.5488 76.8806 28.9601 79.8255 28.9601C80.6349 28.9601 81.4142 29.0829 82.1496 29.3048C83.6895 26.4087 86.7342 24.4364 90.2441 24.4364C94.4588 24.4364 98.0038 27.2822 99.074 31.1538C99.8505 30.7658 100.727 30.5433 101.656 30.5433C104.284 30.5433 106.502 32.298 107.199 34.7015H108.624C109.839 34.7021 110.836 35.6983 110.836 36.9166Z" fill="#E3E5E8"/>
<path d="M27.988 117.645C27.988 119.052 26.8427 120.197 25.4354 120.197C24.0281 120.197 22.8828 119.052 22.8828 117.645C22.8828 116.237 24.0281 115.092 25.4354 115.092C26.8427 115.092 27.988 116.237 27.988 117.645ZM27.1868 117.645C27.1868 116.678 26.401 115.893 25.4348 115.893C24.4687 115.893 23.6829 116.678 23.6829 117.645C23.6829 118.611 24.4687 119.397 25.4348 119.397C26.401 119.397 27.1868 118.611 27.1868 117.645Z" fill="#D7243A"/>
<path d="M38.4081 114.201C38.4081 115.609 37.2628 116.754 35.8556 116.754C34.4478 116.754 33.303 115.608 33.303 114.201C33.303 112.793 34.4483 111.648 35.8556 111.648C37.2628 111.648 38.4081 112.793 38.4081 114.201ZM37.6075 114.201C37.6075 113.235 36.8217 112.449 35.8556 112.449C34.8894 112.449 34.1036 113.235 34.1036 114.201C34.1036 115.167 34.8894 115.953 35.8556 115.953C36.8217 115.953 37.6075 115.167 37.6075 114.201Z" fill="#B32C28"/>
<path d="M38.7348 103.242C38.514 103.242 38.3342 103.421 38.3342 103.642V105.408C38.3342 105.629 38.5134 105.808 38.7348 105.808C38.9557 105.808 39.1354 105.629 39.1354 105.408V103.642C39.1349 103.421 38.9557 103.242 38.7348 103.242Z" fill="#A61A21"/>
<path d="M38.7348 100.151C38.514 100.151 38.3342 100.331 38.3342 100.552V102.318C38.3342 102.539 38.5134 102.718 38.7348 102.718C38.9557 102.718 39.1354 102.539 39.1354 102.318V100.552C39.1349 100.331 38.9557 100.151 38.7348 100.151Z" fill="#A61A21"/>
<path d="M41.2134 102.58H39.6269C39.4055 102.58 39.2263 102.759 39.2263 102.98C39.2263 103.202 39.4055 103.381 39.6269 103.381H41.2134C41.4342 103.381 41.614 103.202 41.614 102.98C41.6134 102.759 41.4342 102.58 41.2134 102.58Z" fill="#A61A21"/>
<path d="M37.842 102.58H36.2556C36.0347 102.58 35.855 102.759 35.855 102.98C35.855 103.202 36.0342 103.381 36.2556 103.381H37.842C38.0634 103.381 38.2426 103.202 38.2426 102.98C38.2426 102.759 38.0634 102.58 37.842 102.58Z" fill="#A61A21"/>
<path d="M27.9133 106.07C27.6924 106.07 27.5127 106.25 27.5127 106.471V108.237C27.5127 108.458 27.6919 108.638 27.9133 108.638C28.1347 108.638 28.3139 108.458 28.3139 108.237V106.471C28.3139 106.25 28.1347 106.07 27.9133 106.07Z" fill="#B32C28"/>
<path d="M27.9133 102.98C27.6924 102.98 27.5127 103.159 27.5127 103.381V105.146C27.5127 105.368 27.6919 105.547 27.9133 105.547C28.1347 105.547 28.3139 105.368 28.3139 105.146V103.381C28.3139 103.159 28.1347 102.98 27.9133 102.98Z" fill="#B32C28"/>
<path d="M30.3926 105.408H28.8061C28.5853 105.408 28.4055 105.587 28.4055 105.808C28.4055 106.03 28.5847 106.209 28.8061 106.209H30.3926C30.6134 106.209 30.7932 106.03 30.7932 105.808C30.7926 105.588 30.6134 105.408 30.3926 105.408Z" fill="#B32C28"/>
<path d="M27.0212 105.408H25.4348C25.2139 105.408 25.0342 105.587 25.0342 105.808C25.0342 106.03 25.2134 106.209 25.4348 106.209H27.0212C27.2421 106.209 27.4218 106.03 27.4218 105.808C27.4218 105.588 27.2426 105.408 27.0212 105.408Z" fill="#B32C28"/>
<path d="M243.735 119.192C243.735 120.599 242.59 121.744 241.182 121.744C239.775 121.744 238.63 120.599 238.63 119.192C238.63 117.784 239.775 116.639 241.182 116.639C242.59 116.639 243.735 117.784 243.735 119.192ZM242.934 119.192C242.934 118.226 242.148 117.44 241.182 117.44C240.216 117.44 239.43 118.226 239.43 119.192C239.43 120.158 240.216 120.944 241.182 120.944C242.148 120.944 242.934 120.158 242.934 119.192Z" fill="#D7243A"/>
<path d="M254.155 115.748C254.155 117.155 253.01 118.301 251.603 118.301C250.195 118.301 249.05 117.155 249.05 115.748C249.05 114.34 250.195 113.195 251.603 113.195C253.01 113.195 254.155 114.34 254.155 115.748ZM253.355 115.748C253.355 114.782 252.569 113.996 251.603 113.996C250.637 113.996 249.851 114.782 249.851 115.748C249.851 116.714 250.637 117.5 251.603 117.5C252.568 117.5 253.355 116.714 253.355 115.748Z" fill="#B32C28"/>
<path d="M254.481 104.789C254.26 104.789 254.081 104.968 254.081 105.19V106.955C254.081 107.177 254.26 107.356 254.481 107.356C254.703 107.356 254.882 107.177 254.882 106.955V105.19C254.882 104.968 254.703 104.789 254.481 104.789Z" fill="#A61A21"/>
<path d="M254.481 101.698C254.26 101.698 254.081 101.878 254.081 102.099V103.865C254.081 104.086 254.26 104.265 254.481 104.265C254.703 104.265 254.882 104.086 254.882 103.865V102.099C254.882 101.878 254.703 101.698 254.481 101.698Z" fill="#A61A21"/>
<path d="M256.96 104.127H255.374C255.153 104.127 254.973 104.306 254.973 104.527C254.973 104.749 255.153 104.928 255.374 104.928H256.96C257.181 104.928 257.361 104.749 257.361 104.527C257.36 104.306 257.181 104.127 256.96 104.127Z" fill="#A61A21"/>
<path d="M253.589 104.127H252.003C251.781 104.127 251.602 104.306 251.602 104.527C251.602 104.749 251.781 104.928 252.003 104.928H253.589C253.81 104.928 253.99 104.749 253.99 104.527C253.99 104.306 253.81 104.127 253.589 104.127Z" fill="#A61A21"/>
<path d="M243.66 107.617C243.44 107.617 243.26 107.797 243.26 108.018V109.784C243.26 110.005 243.439 110.185 243.66 110.185C243.882 110.185 244.061 110.005 244.061 109.784V108.018C244.061 107.797 243.882 107.617 243.66 107.617Z" fill="#B32C28"/>
<path d="M243.66 104.527C243.44 104.527 243.26 104.706 243.26 104.928V106.693C243.26 106.915 243.439 107.094 243.66 107.094C243.882 107.094 244.061 106.915 244.061 106.693V104.928C244.061 104.706 243.882 104.527 243.66 104.527Z" fill="#B32C28"/>
<path d="M246.139 106.955H244.553C244.332 106.955 244.152 107.134 244.152 107.355C244.152 107.577 244.331 107.756 244.553 107.756H246.139C246.36 107.756 246.54 107.577 246.54 107.355C246.54 107.135 246.361 106.955 246.139 106.955Z" fill="#B32C28"/>
<path d="M242.768 106.955H241.182C240.96 106.955 240.781 107.134 240.781 107.355C240.781 107.577 240.96 107.756 241.182 107.756H242.768C242.99 107.756 243.169 107.577 243.169 107.355C243.169 107.135 242.989 106.955 242.768 106.955Z" fill="#B32C28"/>
<path d="M30.9449 155.495H35.7766C36.3389 155.495 36.7943 155.039 36.7943 154.477V136.98H39.9239C40.4089 136.98 40.6494 136.391 40.3025 136.052L37.3061 133.118L33.7402 129.626C33.5298 129.42 33.1928 129.42 32.9824 129.626L29.4165 133.118L26.419 136.052C26.0721 136.391 26.3127 136.98 26.7976 136.98H29.9267V154.477C29.9267 155.039 30.3827 155.495 30.9449 155.495Z" fill="#E3E5E8"/>
<path d="M246.994 218.378H251.825C252.387 218.378 252.843 217.922 252.843 217.36V199.863H255.972C256.457 199.863 256.698 199.274 256.351 198.935L253.355 196.001L249.789 192.509C249.578 192.303 249.241 192.303 249.031 192.509L245.465 196.001L242.468 198.935C242.121 199.274 242.361 199.863 242.846 199.863H245.975V217.36C245.976 217.922 246.432 218.378 246.994 218.378Z" fill="#E3E5E8"/>
<path d="M142.537 255.075C142.3 255.318 142.097 255.585 141.93 255.871L141.675 255.739C141.638 255.576 141.484 255.463 141.314 255.484C141.132 255.505 141.002 255.669 141.024 255.851C141.045 256.032 141.21 256.162 141.391 256.141C141.427 256.136 141.461 256.126 141.491 256.112L141.739 256.24C141.601 256.544 141.502 256.865 141.444 257.196L141.853 257.268C141.979 256.553 142.319 255.895 142.835 255.365L142.537 255.075Z" fill="#112129"/>
<path d="M145.544 253.813C145.45 253.813 145.357 253.817 145.265 253.823L145.224 253.48C145.327 253.398 145.386 253.266 145.37 253.126C145.345 252.911 145.15 252.757 144.934 252.782C144.719 252.807 144.565 253.002 144.59 253.218C144.607 253.357 144.694 253.47 144.812 253.527L144.852 253.869C144.461 253.932 144.083 254.051 143.723 254.223L143.902 254.598C144.414 254.353 144.967 254.229 145.544 254.229C145.815 254.229 146.088 254.258 146.352 254.315L146.44 253.909C146.147 253.846 145.846 253.813 145.544 253.813Z" fill="#112129"/>
<path d="M149.162 255.21C149.344 255.188 149.472 255.023 149.45 254.841C149.429 254.66 149.264 254.531 149.082 254.553C148.913 254.574 148.789 254.72 148.792 254.887L148.564 255.086C148.335 254.85 148.076 254.64 147.792 254.462L147.571 254.813C148.192 255.205 148.678 255.759 148.975 256.416L149.354 256.244C149.216 255.941 149.043 255.657 148.838 255.398L149.058 255.205C149.091 255.212 149.127 255.214 149.162 255.21Z" fill="#112129"/>
<path d="M145.244 259.408C145.032 259.42 144.819 259.427 144.61 259.427C144.128 259.427 143.66 259.394 143.252 259.329C143.038 259.295 142.788 259.244 142.556 259.169C143.129 260.189 144.238 260.881 145.509 260.881C147.073 260.881 148.392 259.831 148.769 258.413C148.395 258.659 147.944 258.865 147.422 259.029C146.776 259.23 146.022 259.361 145.244 259.408Z" fill="#112129"/>
<path d="M145.544 254.645C143.707 254.645 142.212 256.106 142.212 257.901C142.212 258.135 142.238 258.367 142.287 258.592C142.656 258.857 143.77 259.08 145.218 258.993C146.796 258.898 148.121 258.469 148.874 257.81C148.872 257.703 148.863 257.596 148.85 257.491C148.642 255.868 147.22 254.645 145.544 254.645ZM144.361 258.214C143.802 258.214 143.347 257.759 143.347 257.201C143.347 256.642 143.802 256.187 144.361 256.187C144.92 256.187 145.374 256.642 145.374 257.201C145.374 257.76 144.92 258.214 144.361 258.214ZM146.957 257.717C146.546 257.717 146.212 257.382 146.212 256.971C146.212 256.56 146.546 256.226 146.957 256.226C147.368 256.226 147.703 256.56 147.703 256.971C147.703 257.383 147.368 257.717 146.957 257.717Z" fill="#112129"/>
<path d="M154.314 255.668C154.152 255.604 153.873 255.498 153.557 255.538C153.255 255.576 153.094 255.725 153.094 256.09V256.564H154.315V257.505H153.094V260.495H152.035V257.505H151.301V256.564H152.035V256.078C152.035 255.157 152.526 254.553 153.443 254.553C153.795 254.553 154.077 254.619 154.314 254.721V255.668Z" fill="#112129"/>
<path d="M156.891 257.494C156.794 257.477 156.695 257.469 156.603 257.469C156.112 257.469 155.775 257.769 155.775 258.353V260.495H154.717V256.564H155.743V256.994C155.99 256.626 156.368 256.459 156.85 256.459C157.077 256.459 157.315 256.529 157.45 256.644L156.891 257.494Z" fill="#112129"/>
<path d="M161.093 258.523C161.093 258.645 161.084 258.791 161.072 258.88H158.286C158.399 259.447 158.797 259.695 159.296 259.695C159.637 259.695 160.005 259.557 160.289 259.318L160.91 259.999C160.463 260.409 159.896 260.595 159.234 260.595C158.03 260.595 157.194 259.776 157.194 258.539C157.194 257.301 158.005 256.458 159.182 256.458C160.314 256.459 161.089 257.298 161.093 258.523ZM158.29 258.158H160.03C159.933 257.655 159.628 257.371 159.174 257.371C158.675 257.371 158.383 257.671 158.29 258.158Z" fill="#112129"/>
<path d="M165.286 258.523C165.286 258.645 165.278 258.791 165.266 258.88H162.48C162.593 259.447 162.991 259.695 163.49 259.695C163.83 259.695 164.199 259.557 164.483 259.318L165.103 259.999C164.657 260.409 164.09 260.595 163.428 260.595C162.224 260.595 161.388 259.776 161.388 258.539C161.388 257.301 162.199 256.458 163.376 256.458C164.508 256.459 165.283 257.298 165.286 258.523ZM162.484 258.158H164.224C164.126 257.655 163.822 257.371 163.368 257.371C162.869 257.371 162.577 257.671 162.484 258.158Z" fill="#112129"/>
<path d="M169.86 258.527C169.86 259.707 169.041 260.595 167.958 260.595C167.431 260.595 167.058 260.388 166.802 260.084V262.116H165.748V256.563H166.782V256.997C167.037 256.677 167.415 256.458 167.954 256.458C169.041 256.459 169.86 257.346 169.86 258.527ZM166.749 258.527C166.749 259.147 167.158 259.61 167.759 259.61C168.384 259.61 168.773 259.127 168.773 258.527C168.773 257.927 168.384 257.444 167.759 257.444C167.159 257.444 166.749 257.906 166.749 258.527Z" fill="#112129"/>
<path d="M171.561 255.278C171.561 255.66 171.265 255.952 170.884 255.952C170.502 255.952 170.21 255.66 170.21 255.278C170.21 254.897 170.502 254.597 170.884 254.597C171.265 254.596 171.561 254.897 171.561 255.278ZM171.419 260.494H170.36V256.564H171.419V260.494Z" fill="#112129"/>
<path d="M173.185 257.963L174.666 256.564H175.963L174.057 258.413L175.975 260.494H174.673L173.185 258.904V260.494H172.127V254.653H173.185V257.963Z" fill="#112129"/>
<path d="M101.058 260.458V259.88C100.769 260.274 100.295 260.554 99.7496 260.554C98.738 260.554 98.0239 259.784 98.0239 258.523C98.0239 257.287 98.7303 256.484 99.7496 256.484C100.271 256.484 100.745 256.741 101.058 257.167V255.103H101.66V260.457H101.058V260.458ZM101.058 259.407V257.649C100.841 257.312 100.375 257.022 99.8937 257.022C99.115 257.022 98.6497 257.665 98.6497 258.523C98.6497 259.382 99.1155 260.016 99.8937 260.016C100.376 260.017 100.841 259.744 101.058 259.407Z" fill="#112129"/>
<path d="M102.439 258.516C102.439 257.392 103.242 256.485 104.349 256.485C105.521 256.485 106.211 257.4 106.211 258.564V258.717H103.073C103.121 259.447 103.634 260.057 104.47 260.057C104.911 260.057 105.361 259.881 105.665 259.567L105.954 259.961C105.569 260.346 105.047 260.555 104.413 260.555C103.265 260.555 102.439 259.728 102.439 258.516ZM104.341 256.983C103.514 256.983 103.105 257.681 103.073 258.275H105.617C105.609 257.697 105.224 256.983 104.341 256.983Z" fill="#112129"/>
<path d="M106.645 259.944L106.957 259.511C107.214 259.808 107.704 260.065 108.234 260.065C108.828 260.065 109.149 259.784 109.149 259.399C109.149 258.459 106.749 259.037 106.749 257.601C106.749 256.999 107.27 256.485 108.193 256.485C108.851 256.485 109.317 256.734 109.63 257.047L109.349 257.465C109.117 257.184 108.691 256.975 108.193 256.975C107.663 256.975 107.334 257.239 107.334 257.585C107.334 258.435 109.735 257.873 109.735 259.383C109.735 260.033 109.213 260.554 108.21 260.554C107.576 260.555 107.038 260.362 106.645 259.944Z" fill="#112129"/>
<path d="M110.409 255.626C110.409 255.401 110.594 255.217 110.81 255.217C111.035 255.217 111.22 255.401 111.22 255.626C111.22 255.851 111.035 256.027 110.81 256.027C110.594 256.027 110.409 255.851 110.409 255.626ZM110.513 260.458V256.581H111.116V260.458H110.513Z" fill="#112129"/>
<path d="M112.111 261.454L112.415 261.004C112.737 261.389 113.122 261.534 113.676 261.534C114.318 261.534 114.92 261.221 114.92 260.37V259.816C114.639 260.21 114.165 260.507 113.619 260.507C112.608 260.507 111.894 259.752 111.894 258.5C111.894 257.256 112.6 256.485 113.619 256.485C114.141 256.485 114.607 256.742 114.92 257.167V256.581H115.522V260.346C115.522 261.631 114.622 262.032 113.675 262.032C113.018 262.032 112.568 261.903 112.111 261.454ZM114.92 259.343V257.649C114.712 257.312 114.246 257.022 113.765 257.022C112.986 257.022 112.521 257.641 112.521 258.499C112.521 259.35 112.986 259.976 113.765 259.976C114.246 259.977 114.712 259.68 114.92 259.343Z" fill="#112129"/>
<path d="M119.142 260.458V257.922C119.142 257.239 118.797 257.022 118.275 257.022C117.801 257.022 117.352 257.311 117.127 257.625V260.458H116.525V256.581H117.127V257.142C117.4 256.821 117.93 256.484 118.508 256.484C119.319 256.484 119.744 256.894 119.744 257.736V260.458H119.142V260.458Z" fill="#112129"/>
<path d="M120.523 258.516C120.523 257.392 121.326 256.485 122.433 256.485C123.605 256.485 124.295 257.4 124.295 258.564V258.717H121.157C121.205 259.447 121.718 260.057 122.554 260.057C122.995 260.057 123.445 259.881 123.75 259.567L124.039 259.961C123.653 260.346 123.132 260.555 122.498 260.555C121.35 260.555 120.523 259.728 120.523 258.516ZM122.425 256.983C121.598 256.983 121.189 257.681 121.157 258.275H123.702C123.693 257.697 123.308 256.983 122.425 256.983Z" fill="#112129"/>
<path d="M127.876 260.458V259.88C127.587 260.274 127.113 260.554 126.567 260.554C125.555 260.554 124.841 259.784 124.841 258.523C124.841 257.287 125.548 256.484 126.567 256.484C127.089 256.484 127.563 256.741 127.876 257.167V255.103H128.477V260.457H127.876V260.458ZM127.876 259.407V257.649C127.659 257.312 127.193 257.022 126.712 257.022C125.933 257.022 125.468 257.665 125.468 258.523C125.468 259.382 125.933 260.016 126.712 260.016C127.193 260.017 127.659 259.744 127.876 259.407Z" fill="#112129"/>
<path d="M131.351 260.458V255.104H131.953V257.168C132.266 256.742 132.731 256.485 133.261 256.485C134.272 256.485 134.987 257.288 134.987 258.524C134.987 259.784 134.272 260.555 133.261 260.555C132.716 260.555 132.242 260.274 131.953 259.881V260.459H131.351V260.458ZM133.109 260.017C133.896 260.017 134.361 259.383 134.361 258.524C134.361 257.665 133.895 257.023 133.109 257.023C132.636 257.023 132.162 257.312 131.953 257.649V259.407C132.162 259.744 132.636 260.017 133.109 260.017Z" fill="#112129"/>
<path d="M135.645 261.429C135.733 261.469 135.878 261.494 135.975 261.494C136.239 261.494 136.416 261.405 136.553 261.084L136.81 260.498L135.188 256.581H135.839L137.131 259.76L138.415 256.581H139.074L137.131 261.245C136.898 261.806 136.505 262.023 135.991 262.031C135.863 262.031 135.662 262.007 135.549 261.975L135.645 261.429Z" fill="#112129"/>
</g>
<defs>
<clipPath id="clip0_680_100067">
<rect width="274" height="274" fill="white"/>
</clipPath>
</defs>
</svg>
