<svg width="206" height="206" viewBox="0 0 206 206" fill="none" xmlns="http://www.w3.org/2000/svg">
<path d="M21.8061 97.6737L22.584 111.979C22.6116 112.489 23.031 112.889 23.5415 112.893L49.2836 113.081C49.8172 113.085 50.2527 112.656 50.2564 112.123L50.338 100.987C50.3417 100.451 49.9091 100.015 49.373 100.014L33.5411 100C33.2853 99.9998 33.0401 99.8985 32.8593 99.7176L30.1277 96.9873C29.9485 96.8081 29.7058 96.7063 29.452 96.7047L22.7776 96.6552C22.221 96.6515 21.7761 97.1175 21.8061 97.6737Z" fill="#EBEBEB"/>
<path d="M50.3619 98.3328L22.2346 98.1274L22.1119 114.935L50.2392 115.14L50.3619 98.3328Z" fill="#F5F5F5"/>
<path d="M19.9827 99.6171L22.0019 117.16C22.0378 117.472 22.3006 117.707 22.6142 117.71L50.0249 117.91C50.3492 117.913 50.6207 117.666 50.6483 117.343L52.1566 99.826C52.1875 99.4651 51.9045 99.1544 51.5423 99.1515L20.604 98.9249C20.2311 98.922 19.9399 99.2463 19.9827 99.6171Z" fill="#EBEBEB"/>
<path d="M138.679 100.144L139.349 112.462C139.373 112.9 139.734 113.245 140.173 113.248L162.339 113.41C162.798 113.414 163.173 113.044 163.176 112.585L163.246 102.996C163.25 102.535 162.877 102.159 162.415 102.159L148.783 102.147C148.563 102.146 148.352 102.059 148.196 101.903L145.844 99.5524C145.689 99.3979 145.481 99.3105 145.262 99.3089L139.516 99.2669C139.036 99.2632 138.653 99.6649 138.679 100.144Z" fill="#EBEBEB"/>
<path d="M163.271 100.708L139.052 100.532L138.946 115.004L163.166 115.181L163.271 100.708Z" fill="#F5F5F5"/>
<path d="M137.109 101.817L138.848 116.922C138.879 117.191 139.105 117.394 139.375 117.396L162.978 117.569C163.257 117.571 163.491 117.358 163.515 117.08L164.814 101.997C164.84 101.686 164.596 101.418 164.285 101.416L137.645 101.221C137.323 101.219 137.072 101.498 137.109 101.817Z" fill="#EBEBEB"/>
<path d="M182.935 19.4233H143.544V84.626H182.935V19.4233Z" fill="#E0E0E0"/>
<path d="M181.625 19.4233H142.235V84.626H181.625V19.4233Z" fill="#EBEBEB"/>
<path d="M179.948 20.7458H143.912V83.3039H179.948V20.7458Z" fill="white"/>
<path d="M172.931 28.8746H150.772V75.1748H172.931V28.8746Z" fill="#EBEBEB"/>
<path d="M150.772 58.7908C150.721 54.4656 154.609 50.2434 158.892 49.6394C160.935 49.3514 163.105 49.7568 165.013 48.9745C168.419 47.5778 169.503 43.052 172.931 41.7097L173.088 75.1748H150.772V58.7908H150.772Z" fill="#E0E0E0"/>
<path d="M180.659 102.96C180.659 102.96 177.396 102.725 177.697 110.044C177.997 117.363 178.744 121.261 178.744 121.261C178.744 121.261 178.648 122.884 177.391 122.565C176.134 122.247 173.77 120.668 172.602 121.848C171.392 123.073 171.822 124.951 173.428 127.163C175.035 129.375 178.376 134.35 178.677 134.801C178.972 135.244 179.09 136.074 178.199 135.994C177.308 135.914 171.295 133.876 170.499 136.787C169.702 139.699 175.19 145.125 175.778 145.73C176.367 146.335 176.399 146.717 176.16 147.083C175.921 147.449 173.964 146.573 172.23 146.063C170.496 145.554 168.396 145.267 168.077 146.985C167.759 148.703 170.176 153.732 179.227 159.016L183.582 161.19L187.703 158.562C196.181 152.398 198.083 147.153 197.594 145.476C197.105 143.798 195.044 144.294 193.37 144.974C191.695 145.654 189.836 146.721 189.562 146.381C189.288 146.041 189.281 145.658 189.806 144.997C190.332 144.337 195.249 138.388 194.165 135.571C193.082 132.754 187.302 135.384 186.424 135.552C185.545 135.721 185.58 134.883 185.829 134.413C186.083 133.934 188.91 128.649 190.287 126.287C191.664 123.926 191.905 122.015 190.577 120.917C189.297 119.859 187.103 121.667 185.884 122.11C184.665 122.553 184.408 120.948 184.408 120.948C184.408 120.948 184.761 116.995 184.327 109.683C183.894 102.37 180.593 102.961 180.593 102.961" fill="#EBEBEB"/>
<path d="M180.917 109.515C180.917 109.515 180.926 109.566 180.935 109.668C180.943 109.776 180.954 109.925 180.969 110.117C180.997 110.52 181.036 111.101 181.087 111.845C181.186 113.346 181.315 115.519 181.463 118.205C181.762 123.576 182.111 131 182.469 139.199C182.827 147.402 183.157 154.825 183.426 160.198C183.562 162.878 183.673 165.05 183.749 166.56C183.787 167.305 183.815 167.886 183.836 168.29C183.843 168.482 183.849 168.631 183.854 168.74C183.857 168.841 183.854 168.893 183.854 168.893C183.854 168.893 183.845 168.842 183.837 168.74C183.829 168.632 183.817 168.483 183.802 168.291C183.775 167.888 183.735 167.307 183.685 166.563C183.585 165.062 183.457 162.89 183.309 160.204C183.01 154.833 182.661 147.409 182.303 139.207C181.945 131.007 181.615 123.584 181.346 118.211C181.21 115.531 181.1 113.359 181.022 111.849C180.985 111.104 180.957 110.523 180.936 110.119C180.929 109.927 180.922 109.778 180.918 109.669C180.914 109.567 180.917 109.515 180.917 109.515Z" fill="#E0E0E0"/>
<path d="M175.821 124.19C175.829 124.182 175.925 124.263 176.092 124.416C176.26 124.568 176.495 124.796 176.783 125.08C177.358 125.649 178.131 126.456 178.967 127.362C179.785 128.257 180.524 129.066 181.096 129.693C181.35 129.968 181.567 130.203 181.744 130.396C181.898 130.561 181.979 130.657 181.971 130.665C181.963 130.673 181.867 130.593 181.698 130.442C181.531 130.289 181.296 130.061 181.011 129.774C180.441 129.199 179.68 128.383 178.844 127.476C178.02 126.587 177.274 125.784 176.698 125.162C176.442 124.888 176.225 124.654 176.046 124.462C175.893 124.295 175.813 124.199 175.821 124.19Z" fill="#E0E0E0"/>
<path d="M182.403 130.522C182.37 130.489 183.963 128.822 185.959 126.797C187.957 124.772 189.602 123.157 189.635 123.189C189.667 123.221 188.075 124.889 186.078 126.914C184.082 128.939 182.436 130.554 182.403 130.522Z" fill="#E0E0E0"/>
<path d="M182.385 143.14C182.38 143.13 182.488 143.061 182.689 142.947C182.921 142.816 183.206 142.657 183.54 142.469C184.259 142.065 185.25 141.504 186.32 140.846C187.393 140.19 188.344 139.563 189.028 139.104C189.348 138.891 189.619 138.71 189.841 138.562C190.034 138.435 190.144 138.37 190.15 138.379C190.157 138.388 190.06 138.472 189.879 138.615C189.697 138.757 189.431 138.959 189.096 139.201C188.427 139.685 187.483 140.33 186.407 140.988C185.333 141.648 184.33 142.194 183.596 142.573C183.228 142.76 182.928 142.908 182.718 143.004C182.509 143.102 182.39 143.15 182.385 143.14Z" fill="#E0E0E0"/>
<path d="M175.171 138.724C175.177 138.714 175.284 138.765 175.472 138.865C175.661 138.966 175.93 139.116 176.262 139.304C176.925 139.681 177.835 140.211 178.834 140.806C179.834 141.4 180.735 141.947 181.382 142.349C181.706 142.551 181.966 142.716 182.144 142.833C182.322 142.951 182.418 143.02 182.412 143.03C182.406 143.04 182.299 142.99 182.111 142.889C181.923 142.788 181.653 142.639 181.322 142.45C180.659 142.074 179.748 141.543 178.749 140.948C177.749 140.354 176.848 139.808 176.201 139.405C175.877 139.204 175.617 139.038 175.439 138.921C175.261 138.804 175.165 138.734 175.171 138.724Z" fill="#E0E0E0"/>
<path d="M173.74 149.862C173.746 149.852 173.882 149.919 174.123 150.048C174.391 150.195 174.731 150.383 175.137 150.607C175.989 151.085 177.16 151.756 178.449 152.506C179.737 153.255 180.9 153.943 181.736 154.447C182.131 154.689 182.462 154.891 182.723 155.052C182.954 155.198 183.079 155.283 183.073 155.293C183.068 155.303 182.932 155.237 182.69 155.108C182.422 154.96 182.082 154.772 181.677 154.549C180.825 154.07 179.653 153.4 178.364 152.65C177.076 151.9 175.914 151.213 175.077 150.709C174.682 150.467 174.351 150.264 174.09 150.104C173.859 149.957 173.734 149.872 173.74 149.862Z" fill="#E0E0E0"/>
<path d="M182.887 155.1C182.881 155.09 183.016 155 183.265 154.846C183.542 154.678 183.898 154.461 184.324 154.202C185.217 153.657 186.448 152.901 187.785 152.03C189.123 151.16 190.313 150.341 191.172 149.743C191.581 149.458 191.923 149.221 192.189 149.036C192.431 148.87 192.567 148.783 192.574 148.792C192.581 148.801 192.457 148.906 192.228 149.088C191.998 149.27 191.661 149.528 191.24 149.839C190.398 150.462 189.216 151.298 187.875 152.17C186.537 153.043 185.293 153.784 184.383 154.303C183.927 154.562 183.557 154.767 183.297 154.903C183.038 155.039 182.892 155.11 182.887 155.1Z" fill="#E0E0E0"/>
<path d="M189.431 162.615H177.385L181.317 192.378H185.5L189.431 162.615Z" fill="#E0E0E0"/>
<path d="M178.01 166.274C178.005 166.277 178.023 166.316 178.074 166.38C178.125 166.443 178.22 166.525 178.365 166.588C178.65 166.712 179.152 166.722 179.637 166.432C180.124 166.163 180.547 165.636 181.199 165.403C181.846 165.156 182.647 165.2 183.415 165.447C184.191 165.687 184.866 166.081 185.477 166.447C186.09 166.811 186.651 167.136 187.155 167.347C187.655 167.565 188.091 167.666 188.392 167.705C188.544 167.725 188.661 167.731 188.742 167.728C188.822 167.728 188.864 167.725 188.864 167.718C188.871 167.679 188.182 167.684 187.212 167.22C186.725 166.997 186.179 166.665 185.571 166.291C184.966 165.918 184.275 165.507 183.473 165.259C182.68 165.004 181.828 164.958 181.135 165.234C180.788 165.366 180.498 165.573 180.255 165.778C180.009 165.982 179.789 166.173 179.565 166.312C179.125 166.597 178.662 166.609 178.392 166.516C178.114 166.42 178.025 166.257 178.01 166.274Z" fill="#F5F5F5"/>
<path d="M178.449 171.755C178.465 171.765 178.545 171.633 178.733 171.436C178.925 171.245 179.239 170.995 179.695 170.826C180.147 170.652 180.728 170.549 181.371 170.574C182.016 170.596 182.719 170.738 183.467 170.859C184.213 170.985 184.953 171.041 185.613 170.948C186.274 170.863 186.847 170.673 187.302 170.466C187.758 170.258 188.096 170.03 188.318 169.863C188.54 169.694 188.646 169.581 188.639 169.573C188.617 169.54 188.152 169.957 187.246 170.339C186.795 170.525 186.233 170.697 185.591 170.769C184.95 170.848 184.24 170.79 183.498 170.665C182.756 170.545 182.042 170.406 181.376 170.393C180.709 170.378 180.108 170.499 179.643 170.697C179.174 170.891 178.856 171.172 178.676 171.385C178.59 171.496 178.526 171.585 178.494 171.652C178.459 171.717 178.444 171.752 178.449 171.755Z" fill="#F5F5F5"/>
<path d="M188.067 174.69C188.071 174.681 187.96 174.606 187.735 174.518C187.511 174.429 187.168 174.338 186.736 174.304C186.305 174.269 185.788 174.297 185.227 174.39C184.665 174.481 184.063 174.637 183.43 174.771C182.798 174.904 182.188 174.994 181.636 174.974C181.084 174.954 180.593 174.833 180.212 174.665C179.437 174.325 179.161 173.83 179.132 173.861C179.124 173.866 179.179 173.99 179.336 174.175C179.491 174.361 179.762 174.598 180.154 174.791C180.544 174.984 181.054 175.124 181.628 175.154C182.204 175.186 182.832 175.098 183.471 174.963C184.11 174.827 184.708 174.668 185.258 174.569C185.807 174.468 186.309 174.427 186.729 174.443C187.574 174.47 188.054 174.726 188.067 174.69Z" fill="#F5F5F5"/>
<path d="M179.514 178.818C179.519 178.85 179.944 178.55 180.683 178.7C181.046 178.766 181.451 178.949 181.907 179.156C182.361 179.368 182.908 179.549 183.495 179.594C184.679 179.708 185.732 179.325 186.377 178.926C186.708 178.73 186.938 178.519 187.094 178.375C187.241 178.218 187.316 178.129 187.307 178.12C187.28 178.091 186.964 178.447 186.308 178.806C185.663 179.163 184.646 179.508 183.513 179.398C182.373 179.333 181.497 178.653 180.706 178.563C180.321 178.506 179.999 178.561 179.798 178.642C179.594 178.721 179.508 178.811 179.514 178.818Z" fill="#F5F5F5"/>
<path d="M180.185 184.531C180.185 184.553 180.589 184.55 181.189 184.331C181.795 184.129 182.544 183.665 183.42 183.317C183.859 183.15 184.299 183.047 184.7 183.049C185.101 183.051 185.458 183.148 185.729 183.284C186.282 183.559 186.443 183.951 186.473 183.926C186.482 183.922 186.458 183.824 186.359 183.672C186.262 183.521 186.077 183.324 185.795 183.161C185.513 183 185.133 182.88 184.702 182.868C184.27 182.855 183.805 182.96 183.35 183.134C182.443 183.495 181.717 183.973 181.139 184.202C180.567 184.448 180.18 184.499 180.185 184.531Z" fill="#F5F5F5"/>
<path d="M180.776 187.189C180.769 187.213 181.058 187.317 181.538 187.436C182.018 187.556 182.692 187.683 183.445 187.757C184.198 187.831 184.884 187.837 185.378 187.814C185.873 187.79 186.176 187.745 186.175 187.719C186.172 187.66 184.954 187.712 183.464 187.562C181.975 187.419 180.79 187.131 180.776 187.189Z" fill="#F5F5F5"/>
<path d="M55.0067 26.5571H15.6335V83.627H55.0067V26.5571Z" fill="#E0E0E0"/>
<path d="M53.0348 26.5572H13.6616V83.627H53.0348V26.5572Z" fill="#F5F5F5"/>
<path d="M48.1428 32.7384H18.553V77.4461H48.1428V32.7384Z" fill="white"/>
<path d="M48.1428 77.4461C48.1428 77.4461 48.1391 77.3703 48.1371 77.2274C48.1358 77.0799 48.1338 76.8689 48.1313 76.5933C48.1284 76.0313 48.1247 75.209 48.1194 74.1411C48.1132 71.9983 48.1041 68.8757 48.093 64.9316C48.081 57.048 48.0646 45.8845 48.0448 32.7384L48.1428 32.8364C39.1027 32.8393 29.0854 32.8422 18.5567 32.8451H18.553L18.6601 32.7379C18.6519 49.6036 18.6445 65.1537 18.6383 77.4457L18.553 77.3604C27.5643 77.3794 34.9506 77.3946 40.0903 77.4053C42.6612 77.4148 44.6693 77.4222 46.0404 77.4272C46.7218 77.4313 47.2443 77.4346 47.6023 77.4367C47.9562 77.44 48.1428 77.4461 48.1428 77.4461C48.1428 77.4461 47.9686 77.4523 47.6208 77.4552C47.2665 77.4573 46.7495 77.4605 46.075 77.4647C44.708 77.4696 42.7065 77.477 40.1439 77.4865C34.9914 77.4972 27.5869 77.5125 18.5534 77.5314H18.4681V77.4457C18.4619 65.1537 18.4545 49.6036 18.4463 32.7379V32.6308H18.5534H18.5571C29.0858 32.6341 39.1031 32.637 48.1432 32.6395H48.2417V32.7375C48.2219 45.9104 48.205 57.0962 48.1935 64.9955C48.1824 68.9305 48.1733 72.0452 48.1671 74.1827C48.1622 75.2419 48.1581 76.0577 48.1552 76.6151C48.1527 76.8862 48.1507 77.093 48.1494 77.2381C48.1465 77.3781 48.1428 77.4461 48.1428 77.4461Z" fill="#E0E0E0"/>
<path d="M53.145 26.5571C53.1681 26.5748 52.9007 26.965 52.4433 27.5768C51.986 28.1886 51.3367 29.0205 50.5959 29.9203C49.8548 30.8201 49.1626 31.6165 48.6497 32.1826C48.1371 32.7487 47.8055 33.0857 47.7832 33.0667C47.7606 33.0469 48.0518 32.6749 48.5347 32.0837C49.0625 31.4434 49.7122 30.6553 50.4303 29.7839C51.148 28.9121 51.7965 28.124 52.3243 27.4829C52.8117 26.8962 53.1215 26.539 53.145 26.5571Z" fill="#E0E0E0"/>
<path d="M48.2935 77.3024C49.7631 79.6392 51.498 81.8092 53.4546 83.7568L48.2935 77.3024Z" fill="white"/>
<path d="M53.4545 83.7568C53.4352 83.7765 53.0837 83.4716 52.5547 82.9381C52.0257 82.405 51.3245 81.6378 50.608 80.7426C49.892 79.846 49.2974 78.9936 48.8941 78.36C48.4903 77.7267 48.2703 77.3168 48.2934 77.3024C48.3202 77.2855 48.5851 77.6662 49.0193 78.2751C49.4532 78.8844 50.0633 79.7175 50.7753 80.6087C51.4876 81.4986 52.1662 82.2768 52.6651 82.8343C53.1636 83.3921 53.4768 83.7341 53.4545 83.7568Z" fill="#E0E0E0"/>
<path d="M13.6558 83.582C15.375 81.4611 17.0939 79.3401 18.8132 77.2191L13.6558 83.582Z" fill="white"/>
<path d="M18.8131 77.2191C18.8588 77.2562 17.7415 78.711 16.3176 80.4677C14.8933 82.2253 13.7014 83.6191 13.6557 83.5821C13.6099 83.545 14.7269 82.0906 16.1511 80.333C17.575 78.5762 18.7669 77.1816 18.8131 77.2191Z" fill="#E0E0E0"/>
<path d="M13.6617 26.5571C13.7082 26.5205 14.8288 27.8603 16.165 29.5495C17.5015 31.2391 18.5467 32.6383 18.5002 32.6749C18.4536 32.7116 17.333 31.3722 15.9969 29.6822C14.6608 27.9934 13.6151 26.5938 13.6617 26.5571Z" fill="#E0E0E0"/>
<path d="M38.9241 41.816H29.0164V69.9469H38.9241V41.816Z" fill="#E0E0E0"/>
<path d="M104.357 17.0131H73.4099V49.2727H104.357V17.0131Z" fill="#E0E0E0"/>
<path d="M102.261 17.0131H71.3145V49.2727H102.261V17.0131Z" fill="#FAFAFA"/>
<path d="M102.271 49.2826H71.3047V17.0037H102.271V49.2826ZM71.3241 49.2633H102.252V17.0226H71.3241V49.2633Z" fill="#E0E0E0"/>
<path d="M98.1012 21.3499H75.4746V44.936H98.1012V21.3499Z" fill="white"/>
<path d="M75.4746 45.093C75.4923 45.114 75.2777 45.3608 74.9163 45.7423C74.555 46.1234 74.0474 46.6397 73.478 47.2004C72.9087 47.7611 72.3854 48.2609 71.9998 48.6152C71.6142 48.9695 71.3653 49.1796 71.3459 49.1599C71.3266 49.1401 71.54 48.8945 71.9013 48.5134C72.2626 48.1323 72.7719 47.6149 73.3429 47.0525C73.9139 46.4901 74.438 45.9895 74.8236 45.6352C75.2093 45.2805 75.4569 45.072 75.4746 45.093Z" fill="#E0E0E0"/>
<path d="M98.1011 45.0353C98.1221 45.0176 98.3689 45.2323 98.7504 45.5936C99.1315 45.9549 99.6477 46.4629 100.208 47.0319C100.769 47.6013 101.269 48.1245 101.623 48.5101C101.978 48.8962 102.188 49.1446 102.168 49.164C102.148 49.1833 101.903 48.9699 101.521 48.6086C101.14 48.2473 100.623 47.738 100.061 47.167C99.4986 46.5964 98.9976 46.0719 98.6433 45.6863C98.2885 45.3002 98.08 45.053 98.1011 45.0353Z" fill="#E0E0E0"/>
<path d="M98.0393 21.4129C98.0216 21.3919 98.2363 21.1451 98.5976 20.7636C98.9589 20.3821 99.4665 19.8662 100.036 19.3055C100.605 18.7444 101.129 18.245 101.514 17.8903C101.9 17.5355 102.149 17.3258 102.168 17.3456C102.187 17.3654 101.974 17.6105 101.613 17.992C101.251 18.3731 100.742 18.8906 100.171 19.453C99.6004 20.0154 99.0759 20.516 98.6899 20.8703C98.3047 21.2254 98.0571 21.4339 98.0393 21.4129Z" fill="#E0E0E0"/>
<path d="M75.4126 21.4706C75.3916 21.4883 75.1448 21.2736 74.7633 20.9123C74.3818 20.551 73.866 20.043 73.3052 19.474C72.7445 18.9046 72.2448 18.3814 71.8904 17.9957C71.5357 17.6097 71.326 17.3613 71.3458 17.3419C71.3655 17.3221 71.6107 17.536 71.9922 17.8973C72.3737 18.2586 72.8908 18.7678 73.4531 19.3389C74.0155 19.9099 74.5161 20.434 74.8704 20.82C75.2252 21.2056 75.4336 21.4528 75.4126 21.4706Z" fill="#E0E0E0"/>
<path d="M98.0395 44.936C98.0378 44.9344 98.0362 44.8957 98.0345 44.8215C98.0333 44.7412 98.0316 44.6328 98.0296 44.4923C98.0271 44.1965 98.0238 43.7713 98.0193 43.2192C98.0139 42.1019 98.0061 40.4761 97.9966 38.412C97.9859 34.2809 97.9707 28.3959 97.9521 21.3499L98.0395 21.4372C91.4524 21.4409 83.7171 21.4454 75.4771 21.45H75.475L75.5752 21.3499C75.5698 30.0068 75.5653 38.1059 75.5611 44.936L75.475 44.8503C82.2368 44.8685 87.8664 44.8837 91.8133 44.894C93.7851 44.9035 95.3367 44.9113 96.4026 44.9163C96.9291 44.9208 97.3345 44.9241 97.6167 44.9261C97.7502 44.9282 97.8536 44.9299 97.9303 44.9311C98.0011 44.9331 98.0378 44.9344 98.0395 44.936C98.0411 44.9377 98.0073 44.9393 97.9398 44.941C97.8652 44.9422 97.7647 44.9439 97.6353 44.9459C97.3568 44.9484 96.9571 44.9517 96.4376 44.9558C95.3763 44.9612 93.8317 44.9686 91.8677 44.9785C87.9076 44.9892 82.259 45.0044 75.4746 45.0226L75.3889 45.023V44.9364C75.3848 38.1063 75.3799 30.0072 75.3745 21.3503V21.2502H75.4746H75.4767C83.7167 21.2547 91.4524 21.2592 98.039 21.2629H98.1264V21.3503C98.1079 28.4198 98.0926 34.3242 98.0819 38.4685C98.072 40.5243 98.0642 42.1431 98.0588 43.2559C98.0543 43.801 98.051 44.2204 98.0485 44.5125C98.0465 44.6489 98.0448 44.7539 98.0436 44.8322C98.0428 44.9027 98.0411 44.9381 98.0395 44.936Z" fill="#E0E0E0"/>
<path d="M90.5632 29.3678H83.0129V36.9181H90.5632V29.3678Z" fill="#EBEBEB"/>
<path d="M57.2424 147.456L58.0157 161.682C58.0433 162.189 58.4603 162.587 58.9679 162.59L84.5675 162.778C85.0981 162.782 85.5312 162.355 85.5349 161.825L85.616 150.751C85.6197 150.218 85.1892 149.784 84.6565 149.783L68.9119 149.769C68.6577 149.769 68.4138 149.668 68.2337 149.488L65.517 146.773C65.3386 146.594 65.0972 146.493 64.8451 146.492L58.2077 146.443C57.6548 146.439 57.2123 146.903 57.2424 147.456Z" fill="#EBEBEB"/>
<path d="M85.6422 148.111L57.6707 147.907L57.5486 164.621L85.5201 164.826L85.6422 148.111Z" fill="#F5F5F5"/>
<path d="M55.4287 149.388L57.4368 166.833C57.4726 167.143 57.7338 167.378 58.0457 167.38L85.3049 167.58C85.6271 167.583 85.8969 167.337 85.9249 167.015L87.425 149.596C87.4559 149.237 87.1745 148.928 86.814 148.925L56.0467 148.699C55.6759 148.697 55.3863 149.02 55.4287 149.388Z" fill="#EBEBEB"/>
<path d="M101.717 155.47L102.492 169.728C102.52 170.236 102.938 170.634 103.446 170.638L129.102 170.826C129.634 170.83 130.068 170.402 130.072 169.871L130.153 158.772C130.157 158.239 129.725 157.803 129.191 157.803L113.412 157.789C113.157 157.788 112.913 157.687 112.733 157.507L110.01 154.786C109.831 154.607 109.589 154.506 109.336 154.504L102.685 154.455C102.131 154.451 101.687 154.916 101.717 155.47Z" fill="#EBEBEB"/>
<path d="M130.18 156.126L102.148 155.921L102.025 172.672L130.058 172.877L130.18 156.126Z" fill="#F5F5F5"/>
<path d="M99.8996 157.407L101.912 174.89C101.948 175.201 102.209 175.436 102.522 175.439L129.841 175.639C130.164 175.641 130.435 175.395 130.463 175.073L131.966 157.615C131.997 157.255 131.715 156.946 131.354 156.943L100.519 156.717C100.147 156.714 99.8572 157.037 99.8996 157.407Z" fill="#EBEBEB"/>
<path d="M38.545 131.367C34.3211 124.907 34.9371 115.677 39.9816 109.835C41.5472 108.022 43.7358 106.446 46.1225 106.65C48.5665 106.859 50.5358 108.955 51.2795 111.293C52.0231 113.631 51.7652 116.163 51.3285 118.577C50.7167 121.957 49.6925 125.415 47.3482 127.925C45.0039 130.435 41.5592 133.014 38.545 131.367Z" fill="#B32C28"/>
<path d="M39.8226 162.463C38.2319 158.752 39.3855 154.052 42.5142 151.499C43.4853 150.707 44.7555 150.093 45.9668 150.415C47.2069 150.744 48.0317 152.003 48.2031 153.274C48.3745 154.546 48.0119 155.827 47.5682 157.032C46.9469 158.718 46.1056 160.406 44.6702 161.487C43.2348 162.568 41.2263 163.585 39.8226 162.463Z" fill="#B32C28"/>
<path d="M30.6952 160.245C31.8567 154.518 28.8379 148.198 23.6533 145.502C22.0441 144.665 20.0632 144.169 18.4415 144.981C16.7808 145.813 15.9831 147.839 16.1146 149.692C16.2464 151.544 17.1371 153.253 18.1206 154.829C19.4975 157.035 21.1867 159.18 23.5388 160.289C25.8909 161.399 29.0361 162.248 30.6952 160.245Z" fill="#B32C28"/>
<path d="M31.427 144.758C33.4491 138.232 30.0204 130.32 24.3055 126.575C22.5319 125.413 20.2861 124.604 18.3043 125.359C16.2752 126.132 15.1097 128.395 15.0454 130.566C14.9816 132.736 15.8171 134.829 16.7767 136.777C18.1198 139.504 19.8329 142.198 22.4388 143.763C25.0451 145.329 29.2627 146.893 31.427 144.758Z" fill="#B32C28"/>
<path d="M34.4304 176.655C34.421 176.656 34.3983 176.547 34.3645 176.339C34.3291 176.101 34.2842 175.8 34.229 175.429C34.2009 175.228 34.1705 175.008 34.1375 174.771C34.0909 174.53 34.0411 174.271 33.9879 173.995C33.8816 173.438 33.7721 172.802 33.5895 172.112C33.5055 171.764 33.4177 171.401 33.3263 171.024C33.2167 170.65 33.1026 170.261 32.9847 169.859C32.7672 169.049 32.4454 168.212 32.1442 167.319C31.4756 165.557 30.6446 163.655 29.6253 161.733C28.5866 159.82 27.461 158.077 26.3618 156.545C25.7842 155.8 25.2638 155.069 24.7093 154.44C24.4394 154.12 24.1786 153.81 23.9277 153.512C23.6636 153.227 23.4098 152.953 23.1668 152.691C22.6926 152.157 22.2233 151.714 21.8179 151.318C21.6172 151.121 21.4289 150.936 21.2538 150.764C21.0742 150.606 20.9082 150.459 20.7562 150.324C20.4776 150.073 20.251 149.869 20.0726 149.708C19.9181 149.565 19.8399 149.486 19.846 149.479C19.8518 149.472 19.942 149.536 20.1081 149.666C20.2955 149.816 20.5337 150.008 20.8266 150.244C20.984 150.373 21.1558 150.514 21.342 150.667C21.5225 150.834 21.7165 151.014 21.9238 151.206C22.3411 151.593 22.8223 152.028 23.3081 152.556C23.5565 152.816 23.8165 153.087 24.0863 153.369C24.343 153.666 24.6092 153.973 24.8844 154.292C25.4501 154.919 25.9803 155.648 26.567 156.394C27.6843 157.926 28.8235 159.677 29.8688 161.602C30.8946 163.536 31.724 165.453 32.3836 167.231C32.6803 168.132 32.9954 168.977 33.2051 169.795C33.3184 170.2 33.4276 170.592 33.5331 170.97C33.6188 171.351 33.7012 171.717 33.7803 172.068C33.9513 172.764 34.0485 173.406 34.1404 173.968C34.1857 174.247 34.2286 174.508 34.2681 174.751C34.2924 174.99 34.3151 175.211 34.3361 175.414C34.3703 175.789 34.3983 176.093 34.4205 176.333C34.4362 176.544 34.4399 176.654 34.4304 176.655Z" fill="#263238"/>
<path d="M34.2812 177.828C34.2767 177.827 34.2767 177.783 34.2812 177.698C34.2886 177.596 34.2977 177.472 34.3092 177.319C34.3418 176.965 34.3867 176.481 34.4431 175.87C34.4744 175.553 34.5086 175.204 34.5465 174.823C34.5754 174.44 34.5857 174.022 34.6091 173.574C34.6425 172.677 34.7282 171.658 34.6969 170.528C34.694 169.963 34.6911 169.372 34.6883 168.756C34.6821 168.14 34.624 167.501 34.5927 166.838C34.5482 165.51 34.3677 164.102 34.2079 162.619C33.8025 159.663 33.1696 156.437 32.206 153.129C31.2101 149.83 29.9824 146.78 28.7105 144.08C28.0357 142.749 27.4197 141.47 26.7329 140.333C26.398 139.76 26.0981 139.193 25.7672 138.673C25.4339 138.155 25.1142 137.657 24.8085 137.182C24.2189 136.218 23.5914 135.41 23.0748 134.677C22.8111 134.314 22.5746 133.969 22.341 133.664C22.1021 133.365 21.8829 133.091 21.6843 132.843C21.3036 132.361 21.0024 131.979 20.782 131.7C20.6893 131.579 20.6143 131.479 20.5525 131.398C20.5019 131.329 20.478 131.292 20.4813 131.289C20.4846 131.286 20.5163 131.317 20.574 131.38C20.6411 131.456 20.7235 131.55 20.8245 131.664C21.0552 131.936 21.3699 132.306 21.7683 132.775C21.9735 133.02 22.1993 133.289 22.4457 133.583C22.6855 133.884 22.9289 134.225 23.1992 134.584C23.7291 135.311 24.3697 136.113 24.9721 137.074C25.2835 137.548 25.6098 138.044 25.9493 138.56C26.2859 139.079 26.5916 139.646 26.9324 140.219C27.6303 141.356 28.2565 142.636 28.9404 143.969C30.2304 146.674 31.4714 149.736 32.4717 153.051C33.4399 156.373 34.0682 159.616 34.4612 162.587C34.6149 164.077 34.7875 165.492 34.8222 166.825C34.8485 167.491 34.9017 168.133 34.9021 168.751C34.8988 169.369 34.8959 169.963 34.893 170.53C34.912 171.663 34.8123 172.686 34.7641 173.584C34.7332 174.033 34.715 174.451 34.6784 174.835C34.6318 175.215 34.5894 175.564 34.5506 175.881C34.4724 176.491 34.4106 176.974 34.3652 177.327C34.343 177.478 34.3249 177.602 34.31 177.702C34.2952 177.785 34.2857 177.828 34.2812 177.828Z" fill="#263238"/>
<path d="M45.2772 114.452C45.2813 114.454 45.2627 114.495 45.2232 114.572C45.1746 114.663 45.1148 114.775 45.0411 114.911C44.8652 115.226 44.6237 115.656 44.3193 116.2C44.1643 116.481 43.9781 116.785 43.7989 117.131C43.6246 117.482 43.4359 117.861 43.2336 118.267C43.0297 118.676 42.8122 119.111 42.5823 119.572C42.3623 120.039 42.153 120.543 41.9198 121.066C41.6936 121.593 41.4394 122.137 41.2058 122.717C40.9808 123.301 40.7468 123.908 40.5046 124.536C40.3838 124.85 40.2606 125.17 40.1358 125.495C40.0242 125.825 39.9109 126.16 39.7959 126.5C39.5668 127.18 39.3308 127.88 39.0889 128.597C38.1936 131.492 37.3453 134.716 36.6289 138.139C35.9355 141.569 35.4485 144.868 35.0892 147.878C34.781 150.894 34.5536 153.616 34.4914 155.909C34.4333 157.054 34.4214 158.091 34.4177 159.002C34.4028 159.913 34.3995 160.698 34.421 161.339C34.4296 161.963 34.4366 162.456 34.4416 162.816C34.4407 162.972 34.4403 163.098 34.4399 163.201C34.4379 163.288 34.4346 163.332 34.43 163.332C34.4251 163.332 34.4193 163.288 34.4119 163.202C34.4049 163.1 34.3967 162.974 34.3859 162.819C34.3682 162.459 34.3439 161.965 34.3134 161.342C34.2755 160.7 34.2632 159.914 34.2632 159.002C34.252 158.089 34.2504 157.05 34.2961 155.902C34.3332 153.604 34.5413 150.874 34.8363 147.85C35.1823 144.832 35.6627 141.523 36.3582 138.084C37.0763 134.651 37.9349 131.419 38.8463 128.52C39.0926 127.801 39.3328 127.1 39.5664 126.419C39.6839 126.079 39.7996 125.744 39.9137 125.413C40.0415 125.088 40.1671 124.768 40.2903 124.454C40.5383 123.825 40.7781 123.218 41.0084 122.635C41.2482 122.055 41.5086 121.512 41.741 120.986C41.9803 120.464 42.1962 119.961 42.4232 119.496C42.661 119.037 42.8851 118.603 43.0956 118.197C43.3053 117.793 43.5014 117.417 43.6823 117.068C43.8689 116.725 44.0626 116.423 44.2249 116.146C44.5492 115.613 44.8058 115.19 44.9929 114.882C45.0757 114.751 45.1433 114.644 45.1985 114.557C45.2467 114.485 45.2735 114.449 45.2772 114.452Z" fill="#263238"/>
<path d="M43.8422 154.093C43.8578 154.104 43.6971 154.385 43.3931 154.882C43.0841 155.376 42.6601 156.105 42.1629 157.019C41.6614 157.93 41.116 159.044 40.5626 160.302C40.0229 161.566 39.4836 162.979 39.0102 164.493C38.5467 166.011 38.1953 167.482 37.9279 168.831C37.6749 170.182 37.4974 171.409 37.3968 172.444C37.2918 173.479 37.2308 174.321 37.2073 174.902C37.1781 175.484 37.1525 175.807 37.1336 175.807C37.1146 175.807 37.1035 175.484 37.0998 174.899C37.0903 174.315 37.1216 173.469 37.2024 172.426C37.2782 171.383 37.4364 170.146 37.6774 168.783C37.9328 167.423 38.2793 165.94 38.7461 164.411C39.2228 162.886 39.7737 161.466 40.3299 160.199C40.8992 158.938 41.4666 157.827 41.9923 156.923C42.5139 156.017 42.965 155.301 43.3029 154.823C43.6349 154.343 43.8261 154.083 43.8422 154.093Z" fill="#263238"/>
<path d="M26.1348 173.747H44.6888L42.4438 192.697H28.4457L26.1348 173.747Z" fill="#455A64"/>
<path d="M26.8123 190.651L28.3882 192.697H42.4439L44.0648 190.717L26.8123 190.651Z" fill="#263238"/>
<path d="M43.9659 179.321C43.9659 179.397 40.1157 179.459 35.367 179.459C30.6171 179.459 26.7673 179.397 26.7673 179.321C26.7673 179.244 30.6167 179.182 35.367 179.182C40.1157 179.182 43.9659 179.244 43.9659 179.321Z" fill="white"/>
<path d="M43.9659 180.582C43.9659 180.658 40.1157 180.72 35.367 180.72C30.6171 180.72 26.7673 180.659 26.7673 180.582C26.7673 180.505 30.6167 180.444 35.367 180.444C40.1157 180.444 43.9659 180.506 43.9659 180.582Z" fill="white"/>
<path d="M43.7341 181.804C43.7341 181.88 40.0187 181.942 35.4364 181.942C30.8525 181.942 27.1379 181.88 27.1379 181.804C27.1379 181.727 30.8525 181.665 35.4364 181.665C40.0187 181.665 43.7341 181.727 43.7341 181.804Z" fill="white"/>
<path d="M190.272 192.718C190.272 192.778 150.089 192.825 100.532 192.825C50.9583 192.825 10.7842 192.777 10.7842 192.718C10.7842 192.659 50.9583 192.611 100.532 192.611C150.089 192.611 190.272 192.659 190.272 192.718Z" fill="#263238"/>
<path d="M182.905 61.739C181.52 59.9851 181.488 56.7847 181.535 55.9434C181.642 54.0012 177.318 42.6737 166.596 47.3524L166.595 47.345C162.753 47.345 162.69 51.137 161.96 51.8996C161.229 52.6622 160.419 53.4557 160.228 54.4944C159.889 56.3352 161.636 58.1229 161.192 59.941C161.026 60.6233 160.57 61.2009 160.248 61.8239L160.246 61.8226C159.903 62.3821 159.63 63.2881 159.777 63.7916C159.925 64.2951 160.245 64.7256 160.509 65.1788C160.773 65.632 160.99 66.1532 160.897 66.669C160.728 67.603 159.646 68.1197 159.357 69.0236C159.073 69.9094 159.631 70.8215 160.135 71.6031C160.64 72.3847 161.129 73.3648 160.722 74.2012C160.505 74.6461 160.077 74.9411 159.728 75.2922C158.67 76.3568 158.355 78.0896 158.97 79.4583C161.026 79.0533 163.082 78.6487 165.139 78.2437C165.408 75.3045 165.678 72.3649 165.947 69.4257C167.75 69.8735 169.725 68.7203 170.579 68.5036L171.63 67.9355C173.928 68.3397 176.409 68.1955 178.425 67.0208C180.441 65.8466 183.428 67.3476 183.037 65.047C182.847 63.9308 183.607 62.6277 182.905 61.739Z" fill="#263238"/>
<path d="M175.873 51.02L167.484 48.536C164.781 48.1397 162.842 51.4089 162.56 54.1261C162.247 57.1452 161.985 60.8429 162.252 63.1159C162.791 67.6858 166.248 68.4039 166.248 68.4039C166.248 68.3982 165.642 74.8769 165.586 76.4968L175.932 71.2014L177.237 52.6977C177.287 51.8691 176.694 51.1407 175.873 51.02Z" fill="#FFD3C1"/>
<path d="M163.081 57.8501C163.058 58.1571 163.299 58.4302 163.619 58.4603C163.939 58.4904 164.217 58.2666 164.241 57.9593C164.264 57.6524 164.023 57.3788 163.704 57.3487C163.383 57.3186 163.104 57.5428 163.081 57.8501Z" fill="#263238"/>
<path d="M162.77 56.5165C162.826 56.5927 163.324 56.4848 163.941 56.6681C164.559 56.8453 164.951 57.2128 165.033 57.1769C165.072 57.1621 165.026 57.0414 164.856 56.8774C164.69 56.7151 164.385 56.5148 164 56.4019C163.615 56.2899 163.264 56.2981 163.05 56.35C162.831 56.4011 162.741 56.4819 162.77 56.5165Z" fill="#263238"/>
<path d="M168.893 58.3223C168.869 58.6296 169.11 58.9024 169.43 58.9325C169.75 58.9625 170.029 58.7388 170.052 58.4315C170.075 58.1245 169.834 57.851 169.514 57.8209C169.195 57.7908 168.916 58.0153 168.893 58.3223Z" fill="#263238"/>
<path d="M168.997 57.3421C169.088 57.385 169.539 57.0809 170.24 56.9825C170.939 56.8778 171.497 57.0352 171.562 56.9697C171.595 56.94 171.496 56.8535 171.251 56.781C171.012 56.7085 170.617 56.6607 170.181 56.7241C169.744 56.7876 169.396 56.9429 169.204 57.078C169.008 57.2144 168.953 57.3232 168.997 57.3421Z" fill="#263238"/>
<path d="M166.833 61.4321C166.838 61.3966 166.451 61.3134 165.822 61.2075C165.663 61.1844 165.513 61.1465 165.49 61.0365C165.457 60.9191 165.531 60.7494 165.616 60.5664C165.782 60.1853 165.956 59.7857 166.139 59.3671C166.866 57.659 167.399 56.2516 167.33 56.2227C167.261 56.1943 166.615 57.5555 165.888 59.2637C165.713 59.6852 165.545 60.0869 165.385 60.4713C165.317 60.6509 165.205 60.8528 165.277 61.0959C165.315 61.217 165.429 61.3085 165.531 61.3406C165.632 61.376 165.722 61.3814 165.801 61.3892C166.435 61.4485 166.829 61.4675 166.833 61.4321Z" fill="#263238"/>
<path d="M166.247 68.4039C166.247 68.4039 169.232 68.7867 172.332 67.0892C172.28 67.0983 170.47 70.2501 166.136 69.6086L166.247 68.4039Z" fill="#F4AF9B"/>
<path d="M167.037 62.9528C167.274 62.6639 167.676 62.516 168.066 62.5741C168.337 62.6145 168.607 62.7566 168.763 62.9845C168.919 63.2123 168.941 63.5283 168.782 63.7335C168.603 63.9646 168.248 64.0054 167.953 63.9082C167.657 63.8109 167.407 63.6037 167.171 63.3977C167.105 63.3409 167.039 63.2815 167 63.2053C166.96 63.1291 166.955 63.0314 167.01 62.9721" fill="#F4AF9B"/>
<path d="M168.66 61.9397C168.558 61.9298 168.529 62.61 167.928 63.0689C167.327 63.53 166.605 63.4241 166.596 63.5193C166.585 63.5617 166.752 63.6577 167.058 63.6783C167.358 63.701 167.8 63.6218 168.168 63.3409C168.535 63.0591 168.704 62.6701 168.738 62.392C168.776 62.1094 168.706 61.9376 168.66 61.9397Z" fill="#263238"/>
<path d="M169.078 55.1111C169.133 55.2838 169.762 55.2286 170.493 55.3468C171.227 55.4502 171.811 55.6896 171.915 55.5405C171.962 55.4692 171.865 55.3048 171.632 55.1301C171.401 54.9558 171.028 54.784 170.589 54.7169C170.149 54.6509 169.742 54.7045 169.47 54.803C169.196 54.901 169.054 55.0292 169.078 55.1111Z" fill="#263238"/>
<path d="M163.443 54.7066C163.548 54.8532 163.985 54.723 164.505 54.7371C165.025 54.7329 165.46 54.8714 165.567 54.7268C165.614 54.6563 165.551 54.5109 165.364 54.3683C165.181 54.2266 164.868 54.1038 164.511 54.1005C164.154 54.0976 163.839 54.2138 163.653 54.3527C163.463 54.4911 163.397 54.6353 163.443 54.7066Z" fill="#263238"/>
<path d="M166.494 47.9424C169.866 48.4775 173.175 49.4157 176.326 50.7316C177.056 51.0365 177.822 51.399 178.235 52.0743C178.672 52.7891 178.616 53.6889 178.545 54.5236C178.2 58.5938 177.854 62.6644 177.508 66.7345L177.071 66.7118C175.812 66.9162 175.725 66.2764 174.825 65.3733C173.925 64.4701 173.494 63.1233 173.702 61.8655C173.885 60.7556 174.53 59.6436 174.183 58.5732C173.725 57.158 171.786 56.6541 171.319 55.2413C171.048 54.4206 171.355 53.4838 171.043 52.6775C170.751 51.9194 169.982 51.4596 169.229 51.1543C168.475 50.849 167.663 50.6269 167.041 50.1041C166.418 49.5817 166.054 48.6254 166.494 47.9424Z" fill="#263238"/>
<path d="M138.955 71.405H105.701C104.347 71.405 103.249 70.307 103.249 68.9527V42.2242C103.249 40.87 104.347 39.772 105.701 39.772H138.955C140.31 39.772 141.408 40.87 141.408 42.2242V68.9527C141.408 70.307 140.31 71.405 138.955 71.405Z" fill="#263238"/>
<path d="M122.328 60.4734C125.365 60.4734 127.827 58.0112 127.827 54.974C127.827 51.9368 125.365 49.4746 122.328 49.4746C119.291 49.4746 116.828 51.9368 116.828 54.974C116.828 58.0112 119.291 60.4734 122.328 60.4734Z" fill="#B32C28"/>
<path d="M121.003 56.5824V53.3379C121.003 53.1797 121.173 53.0804 121.311 53.1579L124.211 54.7927C124.351 54.8718 124.351 55.0749 124.21 55.1532L121.31 56.7633C121.172 56.8395 121.003 56.7402 121.003 56.5824Z" fill="white"/>
<path d="M156.839 177.794L157.791 186.961C157.791 186.961 148.793 191.007 148.803 192.718L166.644 191.512L165.748 177.168L156.839 177.794Z" fill="#455A64"/>
<g opacity="0.3">
<path d="M156.839 177.794L157.791 186.961C157.791 186.961 148.793 191.007 148.803 192.718L166.644 191.512L165.748 177.168L156.839 177.794Z" fill="black"/>
</g>
<g opacity="0.6">
<path d="M163.255 185.815C163.607 185.887 163.871 186.259 163.815 186.613C163.758 186.967 163.382 187.24 163.029 187.175C162.677 187.11 162.345 186.673 162.441 186.327C162.537 185.982 162.996 185.686 163.323 185.833" fill="white"/>
</g>
<g opacity="0.6">
<path d="M166.644 191.512L166.497 190.07L149.447 191.765C149.447 191.765 148.676 192.165 148.804 192.718L166.644 191.512Z" fill="white"/>
</g>
<path d="M157.495 186.89C157.504 186.977 157.942 186.987 158.39 187.238C158.844 187.478 159.09 187.84 159.168 187.8C159.247 187.778 159.082 187.266 158.535 186.971C157.991 186.672 157.471 186.812 157.495 186.89Z" fill="#263238"/>
<path d="M155.676 187.791C155.662 187.877 156.049 187.999 156.37 188.348C156.701 188.687 156.803 189.08 156.889 189.071C156.972 189.079 156.997 188.565 156.59 188.139C156.187 187.709 155.673 187.708 155.676 187.791Z" fill="#263238"/>
<path d="M154.765 190.102C154.845 190.115 154.937 189.672 154.681 189.21C154.429 188.746 154.005 188.586 153.973 188.661C153.928 188.736 154.21 188.974 154.415 189.356C154.628 189.734 154.678 190.099 154.765 190.102Z" fill="#263238"/>
<path d="M157.51 184.777C157.552 184.854 157.943 184.707 158.438 184.707C158.933 184.697 159.327 184.836 159.368 184.759C159.414 184.692 159.018 184.395 158.435 184.403C157.853 184.407 157.463 184.712 157.51 184.777Z" fill="#263238"/>
<path d="M157.352 182.924C157.354 182.96 157.701 182.991 158.245 182.859C158.516 182.793 158.832 182.682 159.161 182.509C159.325 182.422 159.491 182.32 159.656 182.202C159.734 182.143 159.828 182.083 159.911 181.973C160.001 181.876 160.041 181.641 159.92 181.507C159.819 181.376 159.654 181.328 159.525 181.334C159.393 181.339 159.288 181.372 159.193 181.403C158.997 181.465 158.815 181.543 158.65 181.631C158.319 181.809 158.056 182.024 157.863 182.228C157.474 182.639 157.355 182.974 157.386 182.989C157.428 183.015 157.61 182.729 158.01 182.384C158.21 182.212 158.467 182.031 158.777 181.881C158.933 181.807 159.101 181.741 159.279 181.688C159.465 181.626 159.626 181.614 159.68 181.694C159.7 181.725 159.703 181.738 159.667 181.796C159.63 181.849 159.557 181.905 159.479 181.963C159.328 182.076 159.176 182.177 159.025 182.264C158.724 182.44 158.434 182.565 158.184 182.654C157.682 182.83 157.348 182.877 157.352 182.924Z" fill="#263238"/>
<path d="M157.474 183.041C157.506 183.053 157.658 182.729 157.651 182.163C157.647 181.882 157.595 181.545 157.463 181.193C157.397 181.017 157.31 180.839 157.199 180.666C157.083 180.497 156.939 180.269 156.599 180.253C156.422 180.259 156.285 180.407 156.243 180.528C156.192 180.652 156.187 180.757 156.173 180.861C156.154 181.072 156.172 181.276 156.213 181.463C156.295 181.839 156.472 182.145 156.657 182.36C157.037 182.799 157.408 182.879 157.413 182.848C157.439 182.803 157.124 182.655 156.827 182.229C156.681 182.019 156.544 181.738 156.487 181.409C156.459 181.245 156.45 181.069 156.469 180.891C156.484 180.699 156.545 180.542 156.617 180.556C156.706 180.549 156.867 180.681 156.95 180.828C157.052 180.981 157.136 181.14 157.204 181.297C157.337 181.612 157.407 181.917 157.437 182.177C157.497 182.699 157.426 183.031 157.474 183.041Z" fill="#263238"/>
<path d="M155.293 110.705C155.293 110.705 147.389 146.582 147.147 149.785C146.904 152.988 156.941 180.646 156.941 180.646L165.578 179.015C165.578 179.015 165.03 138.173 164.749 137.372C164.469 136.571 166.956 116.499 166.956 116.499L155.293 110.705Z" fill="#263238"/>
<path d="M160.811 178.221L160.907 187.437C160.907 187.437 151.571 190.629 151.423 192.334L169.296 192.52L169.739 178.425L160.811 178.221Z" fill="#455A64"/>
<g opacity="0.6">
<path d="M166.454 186.804C166.798 186.907 167.027 187.302 166.937 187.65C166.848 187.997 166.448 188.233 166.103 188.136C165.758 188.039 165.468 187.573 165.596 187.238C165.723 186.902 166.208 186.65 166.52 186.828" fill="white"/>
</g>
<g opacity="0.6">
<path d="M169.296 192.52L169.286 191.341L152.152 191.445C152.152 191.445 151.347 191.771 151.423 192.334L169.296 192.52Z" fill="white"/>
</g>
<path d="M160.619 187.338C160.62 187.426 161.055 187.476 161.478 187.768C161.907 188.049 162.119 188.432 162.2 188.4C162.281 188.385 162.164 187.86 161.647 187.516C161.133 187.167 160.602 187.258 160.619 187.338Z" fill="#263238"/>
<path d="M158.725 188.066C158.703 188.15 159.077 188.308 159.364 188.685C159.662 189.053 159.726 189.454 159.813 189.453C159.895 189.469 159.969 188.959 159.603 188.497C159.241 188.033 158.729 187.983 158.725 188.066Z" fill="#263238"/>
<path d="M157.602 190.283C157.681 190.304 157.814 189.871 157.602 189.387C157.394 188.902 156.987 188.703 156.948 188.774C156.897 188.845 157.155 189.108 157.323 189.508C157.5 189.904 157.516 190.272 157.602 190.283Z" fill="#263238"/>
<path d="M160.83 185.236C160.865 185.316 161.268 185.206 161.761 185.253C162.255 185.288 162.634 185.464 162.682 185.39C162.733 185.328 162.367 184.996 161.786 184.949C161.206 184.899 160.789 185.166 160.83 185.236Z" fill="#263238"/>
<g opacity="0.3">
<path d="M160.832 180.046L160.847 181.689L169.634 181.833L169.683 180.355L160.832 180.046Z" fill="black"/>
</g>
<path d="M160.845 183.376C160.844 183.413 161.187 183.475 161.74 183.394C162.016 183.354 162.342 183.272 162.684 183.131C162.855 183.059 163.031 182.974 163.206 182.871C163.289 182.82 163.389 182.769 163.481 182.668C163.58 182.579 163.641 182.349 163.533 182.205C163.445 182.065 163.285 182.001 163.156 181.995C163.024 181.988 162.917 182.011 162.819 182.033C162.618 182.076 162.43 182.137 162.257 182.21C161.911 182.357 161.629 182.546 161.418 182.731C160.994 183.104 160.844 183.427 160.873 183.444C160.912 183.474 161.12 183.206 161.551 182.9C161.765 182.747 162.038 182.591 162.361 182.47C162.522 182.41 162.696 182.36 162.878 182.324C163.069 182.28 163.23 182.282 163.277 182.368C163.294 182.4 163.295 182.413 163.255 182.467C163.212 182.517 163.134 182.565 163.052 182.616C162.891 182.715 162.73 182.801 162.572 182.874C162.256 183.021 161.955 183.119 161.698 183.184C161.183 183.314 160.845 183.329 160.845 183.376Z" fill="#263238"/>
<path d="M160.956 183.504C160.986 183.518 161.168 183.21 161.214 182.646C161.237 182.366 161.216 182.025 161.117 181.662C161.067 181.481 160.997 181.296 160.903 181.113C160.803 180.934 160.681 180.694 160.343 180.647C160.167 180.636 160.016 180.77 159.963 180.887C159.901 181.006 159.886 181.11 159.863 181.213C159.825 181.421 159.823 181.626 159.847 181.816C159.893 182.198 160.041 182.518 160.206 182.75C160.543 183.223 160.905 183.336 160.913 183.307C160.943 183.263 160.643 183.087 160.387 182.635C160.261 182.413 160.151 182.12 160.125 181.787C160.112 181.621 160.119 181.446 160.155 181.27C160.188 181.081 160.263 180.929 160.334 180.951C160.423 180.952 160.57 181.099 160.64 181.252C160.727 181.415 160.796 181.58 160.849 181.743C160.953 182.069 160.993 182.38 160.999 182.641C161.01 183.165 160.909 183.49 160.956 183.504Z" fill="#263238"/>
<path d="M175.378 110.152L155.293 110.705L158.176 146.44L159.964 180.887L170.382 181.251C170.914 174.602 170.953 151.106 170.953 151.106L173.056 136.915C173.544 133.088 175.08 129.068 175.819 125.634C176.254 123.616 176.889 120.999 177.024 120.145C177.422 117.618 175.378 110.152 175.378 110.152Z" fill="#263238"/>
<path d="M156.462 118.928C156.466 118.928 156.467 118.983 156.465 119.089C156.462 119.204 156.457 119.36 156.452 119.558C156.435 119.982 156.412 120.588 156.382 121.363C156.347 122.146 156.307 123.105 156.274 124.218C156.239 125.331 156.186 126.598 156.16 128C156.084 130.802 156.042 134.141 156.056 137.847C156.084 141.552 156.173 145.627 156.381 149.899C156.601 154.172 156.924 158.235 157.291 161.923C157.494 163.765 157.672 165.517 157.894 167.15C158.001 167.967 158.092 168.758 158.201 169.516C158.312 170.273 158.418 170.999 158.519 171.693C158.71 173.082 158.934 174.33 159.112 175.429C159.286 176.529 159.458 177.472 159.603 178.243C159.741 179.006 159.848 179.602 159.924 180.02C159.956 180.215 159.982 180.369 160.002 180.483C160.018 180.587 160.025 180.641 160.022 180.642C160.018 180.643 160.005 180.59 159.981 180.487C159.957 180.374 159.924 180.222 159.883 180.028C159.799 179.612 159.678 179.018 159.524 178.258C159.367 177.489 159.184 176.547 158.999 175.449C158.811 174.351 158.576 173.103 158.376 171.715C158.27 171.021 158.16 170.294 158.044 169.538C157.931 168.781 157.836 167.99 157.726 167.173C157.496 165.539 157.311 163.786 157.103 161.943C156.726 158.252 156.396 154.186 156.176 149.909C155.968 145.634 155.884 141.557 155.867 137.848C155.864 134.139 155.92 130.799 156.015 127.996C156.05 126.594 156.114 125.327 156.16 124.213C156.204 123.1 156.255 122.142 156.302 121.359C156.349 120.585 156.385 119.979 156.41 119.556C156.424 119.358 156.436 119.203 156.444 119.088C156.453 118.982 156.459 118.928 156.462 118.928Z" fill="#455A64"/>
<path d="M145.03 71.1343L139.886 65.6427L135.832 68.4826L139.886 74.4793L145.03 71.1343Z" fill="#FFD3C1"/>
<path d="M177.549 73.1642L177.298 69.6832L165.685 69.5151L165.585 73.886C165.585 73.886 159.884 80.052 157.814 86.9699C154.335 98.5965 153.074 113.396 153.074 113.396H176.843C176.596 109.302 174.905 100.136 174.905 100.136L180.189 84.3776C181.503 78.7138 177.549 73.1642 177.549 73.1642Z" fill="#B32C28"/>
<path d="M148.792 88.8981C148.792 88.8981 148.857 88.9615 148.989 89.076C149.116 89.1963 149.319 89.3546 149.592 89.5437C150.136 89.9132 151.015 90.3701 152.196 90.5432C152.782 90.635 153.445 90.6326 154.132 90.5234C154.823 90.4443 155.56 90.3499 156.336 90.2469C157.886 90.0372 159.586 89.776 161.367 89.4757C164.911 88.854 168.118 88.2912 170.473 87.8775C171.62 87.6905 172.557 87.5372 173.238 87.426C173.546 87.377 173.795 87.337 173.991 87.3061C174.162 87.2777 174.252 87.2583 174.252 87.2583C174.252 87.2583 174.161 87.2657 173.988 87.2884C173.792 87.3152 173.542 87.3493 173.233 87.3918C172.578 87.4841 171.632 87.6266 170.464 87.8153C168.126 88.1869 164.911 88.7819 161.352 89.3875C159.573 89.6875 157.874 89.9511 156.325 90.1654C155.55 90.2704 154.814 90.3677 154.122 90.4501C153.434 90.5625 152.79 90.5675 152.205 90.481C151.034 90.3178 150.159 89.8737 149.611 89.5152C149.337 89.3311 149.131 89.1782 149.001 89.0629C148.866 88.9529 148.792 88.8981 148.792 88.8981Z" fill="#263238"/>
<path d="M178.281 83.2796C178.284 83.28 178.292 83.2483 178.306 83.1869C178.323 83.1025 178.341 83.0139 178.361 82.9183C178.406 82.6847 178.467 82.3452 178.526 81.9233C178.637 81.0853 178.757 79.8831 178.44 78.6055C178.116 77.3266 177.316 76.3514 176.593 75.8945C176.233 75.6613 175.905 75.5336 175.673 75.4768C175.441 75.4178 175.309 75.4096 175.309 75.4096C175.297 75.438 175.852 75.4698 176.558 75.9469C177.259 76.4087 178.036 77.3715 178.354 78.6273C178.666 79.8847 178.558 81.0775 178.463 81.9151C178.413 82.3366 178.361 82.6769 178.327 82.9121C178.313 83.0085 178.3 83.0979 178.288 83.1832C178.28 83.2463 178.278 83.2792 178.281 83.2796Z" fill="#263238"/>
<path d="M153.556 86.1162C153.562 86.1154 153.556 86.0227 153.539 85.8559C153.518 85.6354 153.497 85.4018 153.473 85.1493C153.423 84.5527 153.382 83.7258 153.404 82.8124C153.428 81.899 153.511 81.075 153.59 80.4817C153.626 80.2304 153.66 79.9985 153.691 79.7793C153.717 79.6137 153.728 79.5214 153.721 79.5201C153.715 79.5189 153.693 79.6091 153.657 79.7731C153.62 79.9371 153.575 80.176 153.527 80.4727C153.431 81.0655 153.338 81.8928 153.315 82.8104C153.293 83.7279 153.344 84.5581 153.41 85.1555C153.443 85.4542 153.476 85.6948 153.504 85.8608C153.532 86.0264 153.55 86.1175 153.556 86.1162Z" fill="#263238"/>
<path d="M165.724 73.8222C165.965 72.9998 166.484 72.2912 166.993 71.6019C167.826 70.4759 168.724 69.3 170.019 68.769C170.902 68.4068 173.181 68.6075 173.788 67.8716C175.683 65.5752 172.907 64.1492 173.916 60.9908C175.02 57.5321 174.449 58.0619 174.534 55.3415L178.743 53.5213C179.406 54.0161 181.245 55.8021 181.042 56.6039C180.838 57.4052 180.898 58.2984 181.203 59.2522C181.85 61.2805 184.083 62.4765 185.139 64.3251C186.221 66.2191 185.002 68.7294 184.973 70.9106C184.944 73.0917 185.767 75.7136 187.896 76.1887C187.102 77.7877 185.769 79.1131 184.165 79.8975C183.719 79.2915 183.274 78.685 182.829 78.0789C183.094 79.7241 181.974 81.4783 180.37 81.9307C179.922 80.0166 179.449 78.0452 178.29 76.4573C177.131 74.8695 175.098 73.7492 173.199 74.2576C171.929 74.5979 170.946 75.5777 169.811 76.2427C168.677 76.9076 167.068 77.1898 166.16 76.2385C165.568 75.6176 165.482 74.6445 165.724 73.8222Z" fill="#263238"/>
<g opacity="0.3">
<path d="M157.813 89.9738C163.291 88.9743 170.589 87.7795 176.066 86.78C176.27 86.7425 176.488 86.7062 176.681 86.7833C177.044 86.9279 177.15 87.4301 176.986 87.7853C176.823 88.1404 176.475 88.3711 176.128 88.5524C174.331 89.4918 172.223 89.5672 170.196 89.6228C166.735 89.7171 161.276 89.8795 157.813 89.9738Z" fill="black"/>
</g>
<path d="M153.814 90.5189C155.517 90.5539 175.129 86.9695 175.129 86.9695L153.814 90.5189Z" fill="#B32C28"/>
<path d="M174.795 74.7244C176.232 74.902 177.17 75.1517 178.848 76.9476C179.027 77.14 179.195 77.379 179.349 77.6521C181.219 80.9489 179.865 85.4999 176.283 86.7375L172.814 87.4515L153.814 90.5185C153.814 90.5185 149.766 91.4282 146.291 86.0326C145.015 84.053 136.237 70.9584 136.237 70.9584L142.005 67.0975L153.632 79.5374L174.795 74.7244Z" fill="#B32C28"/>
<path d="M148.792 88.8981C148.792 88.8981 148.857 88.9615 148.989 89.076C149.116 89.1963 149.319 89.3546 149.592 89.5437C150.136 89.9132 151.015 90.3701 152.196 90.5432C152.782 90.635 153.445 90.6326 154.132 90.5234C154.823 90.4443 155.56 90.3499 156.336 90.2469C157.886 90.0372 159.586 89.776 161.367 89.4757C164.911 88.854 168.118 88.2912 170.473 87.8775C171.62 87.6905 172.557 87.5372 173.238 87.426C173.546 87.377 173.795 87.337 173.991 87.3061C174.162 87.2777 174.252 87.2583 174.252 87.2583C174.252 87.2583 174.161 87.2657 173.988 87.2884C173.792 87.3152 173.542 87.3493 173.233 87.3918C172.578 87.4841 171.632 87.6266 170.464 87.8153C168.126 88.1869 164.911 88.7819 161.352 89.3875C159.573 89.6875 157.874 89.9511 156.325 90.1654C155.55 90.2704 154.814 90.3677 154.122 90.4501C153.434 90.5625 152.79 90.5675 152.205 90.481C151.034 90.3178 150.159 89.8737 149.611 89.5152C149.337 89.3311 149.131 89.1782 149.001 89.0629C148.866 88.9529 148.792 88.8981 148.792 88.8981Z" fill="#263238"/>
<path d="M178.281 83.2796C178.284 83.28 178.292 83.2483 178.306 83.1869C178.323 83.1025 178.341 83.0139 178.361 82.9183C178.406 82.6847 178.467 82.3452 178.526 81.9233C178.637 81.0853 178.757 79.8831 178.44 78.6055C178.116 77.3266 177.316 76.3514 176.593 75.8945C176.233 75.6613 175.905 75.5336 175.673 75.4768C175.441 75.4178 175.309 75.4096 175.309 75.4096C175.297 75.438 175.852 75.4698 176.558 75.9469C177.259 76.4087 178.036 77.3715 178.354 78.6273C178.666 79.8847 178.558 81.0775 178.463 81.9151C178.413 82.3366 178.361 82.6769 178.327 82.9121C178.313 83.0085 178.3 83.0979 178.288 83.1832C178.28 83.2463 178.278 83.2792 178.281 83.2796Z" fill="#263238"/>
<path d="M153.556 86.1162C153.562 86.1154 153.556 86.0227 153.539 85.8559C153.518 85.6354 153.497 85.4018 153.473 85.1493C153.423 84.5527 153.382 83.7258 153.404 82.8124C153.428 81.899 153.511 81.075 153.59 80.4817C153.626 80.2304 153.66 79.9985 153.691 79.7793C153.717 79.6137 153.728 79.5214 153.721 79.5201C153.715 79.5189 153.693 79.6091 153.657 79.7731C153.62 79.9371 153.575 80.176 153.527 80.4727C153.431 81.0655 153.338 81.8928 153.315 82.8104C153.293 83.7279 153.344 84.5581 153.41 85.1555C153.443 85.4542 153.476 85.6948 153.504 85.8608C153.532 86.0264 153.55 86.1175 153.556 86.1162Z" fill="#263238"/>
<path d="M139.861 61.4024C139.704 60.1776 139.725 59.4129 139.755 59.0404C139.769 58.8682 139.625 58.7298 139.453 58.7459C139.14 58.7747 138.679 58.9514 138.395 59.6708C138.221 60.11 138.272 60.5632 138.276 61.0028C138.283 61.7353 138.276 62.3134 138.276 62.3134C138.276 62.3134 134.618 57.9342 133.876 57.7364C133.475 57.6293 133.332 57.7496 133.185 57.9849C133.049 58.2028 133.32 58.7145 133.32 58.7145L135.382 61.6657C135.382 61.6657 132.264 57.9956 131.701 58.0063C131.123 58.017 130.889 58.4331 131.245 59.0981C131.511 59.595 134.234 62.8234 134.234 62.8234C134.234 62.8234 131.32 60.0107 130.742 60.0342C130.161 60.0581 130.26 60.6719 130.565 60.9278C130.869 61.1841 133.026 63.6894 133.026 63.6894C133.026 63.6894 130.921 61.9125 130.496 62.0521C130.06 62.1951 130.254 62.6631 130.479 63.0438C130.703 63.4245 135.983 68.7068 135.983 68.7068L140.561 66.4074C140.682 65.7643 140.659 65.1042 140.491 64.4714C140.283 63.6878 140.003 62.5152 139.861 61.4024Z" fill="#FFD3C1"/>
<path d="M72.5907 113.427C70.2629 113.427 68.3755 111.54 68.3755 109.212V72.5702C68.3755 70.7059 69.9893 69.1942 71.9801 69.1942H75.4256C76.8318 69.1942 78.1094 68.4287 78.6986 67.2331L79.4389 65.731C80.0281 64.5353 81.3057 63.7698 82.7119 63.7698H99.067C100.342 63.7698 101.522 64.4006 102.171 65.4285L102.974 66.7016C103.622 67.7296 104.802 68.3603 106.078 68.3603H126.927C128.918 68.3603 130.531 69.872 130.531 71.7363V109.213C130.531 111.54 128.644 113.428 126.316 113.428H72.5907V113.427Z" fill="#B32C28"/>
<g opacity="0.3">
<path d="M72.5907 113.427C70.2629 113.427 68.3755 111.54 68.3755 109.212V72.5702C68.3755 70.7059 69.9893 69.1942 71.9801 69.1942H75.4256C76.8318 69.1942 78.1094 68.4287 78.6986 67.2331L79.4389 65.731C80.0281 64.5353 81.3057 63.7698 82.7119 63.7698H99.067C100.342 63.7698 101.522 64.4006 102.171 65.4285L102.974 66.7016C103.622 67.7296 104.802 68.3603 106.078 68.3603H126.927C128.918 68.3603 130.531 69.872 130.531 71.7363V109.213C130.531 111.54 128.644 113.428 126.316 113.428H72.5907V113.427Z" fill="black"/>
</g>
<path d="M104.02 68.3594L90.7574 68.3302L89.5725 66.1145C88.8037 64.677 87.2344 63.7693 85.518 63.7693H72.5536C70.246 63.7693 68.3755 65.5212 68.3755 67.6825V69.1942V108.981C68.3755 111.437 70.501 113.427 73.1225 113.427H125.784C128.406 113.427 130.531 111.437 130.531 108.981V71.3955C130.531 69.7186 129.172 68.3594 127.495 68.3594H104.02Z" fill="#B32C28"/>
<path d="M110.71 99.655H104.839C104.61 99.655 104.424 99.4692 104.424 99.2397C104.424 99.0102 104.61 98.8244 104.839 98.8244H110.71C113.93 98.8244 116.551 96.2041 116.551 92.9835C116.551 89.8852 114.125 87.3267 111.03 87.1586C110.849 87.1487 110.695 87.023 110.65 86.8475C109.585 82.723 105.87 79.8427 101.615 79.8427C98.7696 79.8427 96.1127 81.1211 94.3262 83.3497C94.2368 83.4609 94.0955 83.5202 93.9546 83.5025C93.6283 83.4646 93.337 83.4465 93.0634 83.4465C88.8236 83.4465 85.3743 86.8957 85.3743 91.1356C85.3743 95.3751 88.8236 98.8244 93.0634 98.8244H97.8216C98.0511 98.8244 98.2369 99.0102 98.2369 99.2397C98.2369 99.4692 98.0511 99.655 97.8216 99.655H93.0634C88.3658 99.655 84.5437 95.8333 84.5437 91.1356C84.5437 86.438 88.3658 82.6159 93.0634 82.6159C93.3032 82.6159 93.5533 82.6282 93.8228 82.6534C95.7649 80.3363 98.5921 79.0121 101.615 79.0121C106.15 79.0121 110.121 82.0152 111.375 86.3523C114.767 86.6885 117.382 89.5449 117.382 92.983C117.381 96.6622 114.389 99.655 110.71 99.655Z" fill="white"/>
<path d="M101.217 103.403C100.988 103.403 100.802 103.217 100.802 102.988V92.276C100.802 92.0466 100.988 91.8607 101.217 91.8607C101.447 91.8607 101.633 92.0466 101.633 92.276V102.988C101.633 103.217 101.447 103.403 101.217 103.403Z" fill="white"/>
<path d="M104.347 96.5526C104.22 96.5526 104.095 96.4949 104.014 96.3858L101.284 92.728C101.261 92.6979 101.24 92.6971 101.204 92.6909C101.181 92.6909 101.15 92.6979 101.124 92.7293L98.2274 96.2861C98.0828 96.4644 97.8211 96.4908 97.6432 96.3458C97.4652 96.2012 97.4384 95.9396 97.5834 95.7616L100.48 92.2052C100.661 91.9819 100.931 91.8624 101.218 91.8604C101.506 91.8645 101.772 91.9984 101.947 92.227L104.679 95.8885C104.816 96.0722 104.779 96.3326 104.595 96.4694C104.521 96.5258 104.434 96.5526 104.347 96.5526Z" fill="white"/>
<path d="M93.1777 122.11V120.263H93.5185V122.096C93.5185 122.861 93.8777 123.211 94.5044 123.211C95.1356 123.211 95.4948 122.861 95.4948 122.096V120.263H95.8265V122.11C95.8265 123.036 95.3288 123.515 94.5044 123.515C93.6796 123.515 93.1777 123.036 93.1777 122.11Z" fill="#263238"/>
<path d="M99.2383 122.276C99.2383 123.013 98.7225 123.511 98.0316 123.511C97.6447 123.511 97.313 123.345 97.1103 123.031V124.381H96.7832V121.064H97.0963V121.543C97.2945 121.221 97.6307 121.046 98.0316 121.046C98.7225 121.046 99.2383 121.543 99.2383 122.276ZM98.9112 122.276C98.9112 121.714 98.5198 121.332 98.0081 121.332C97.4923 121.332 97.1054 121.714 97.1054 122.276C97.1054 122.843 97.4923 123.22 98.0081 123.22C98.5194 123.22 98.9112 122.843 98.9112 122.276Z" fill="#263238"/>
<path d="M99.9045 120.069H100.232V123.488H99.9045V120.069Z" fill="#263238"/>
<path d="M100.899 122.276C100.899 121.557 101.424 121.046 102.134 121.046C102.843 121.046 103.364 121.557 103.364 122.276C103.364 122.995 102.843 123.511 102.134 123.511C101.424 123.511 100.899 122.995 100.899 122.276ZM103.032 122.276C103.032 121.709 102.65 121.332 102.134 121.332C101.617 121.332 101.231 121.709 101.231 122.276C101.231 122.843 101.617 123.22 102.134 123.22C102.65 123.22 103.032 122.843 103.032 122.276Z" fill="#263238"/>
<path d="M105.846 121.986V123.488H105.532V123.11C105.385 123.359 105.099 123.511 104.699 123.511C104.15 123.511 103.814 123.225 103.814 122.806C103.814 122.433 104.053 122.119 104.749 122.119H105.518V121.972C105.518 121.557 105.283 121.332 104.832 121.332C104.518 121.332 104.223 121.442 104.026 121.617L103.878 121.373C104.122 121.166 104.482 121.046 104.864 121.046C105.491 121.046 105.846 121.359 105.846 121.986ZM105.518 122.76V122.363H104.758C104.289 122.363 104.137 122.548 104.137 122.796C104.137 123.077 104.362 123.252 104.749 123.252C105.118 123.253 105.389 123.078 105.518 122.76Z" fill="#263238"/>
<path d="M108.954 120.069V123.488H108.64V123.008C108.442 123.335 108.106 123.511 107.705 123.511C107.014 123.511 106.498 123.008 106.498 122.276C106.498 121.543 107.014 121.046 107.705 121.046C108.092 121.046 108.424 121.212 108.626 121.525V120.069H108.954ZM108.631 122.276C108.631 121.709 108.244 121.332 107.733 121.332C107.217 121.332 106.83 121.709 106.83 122.276C106.83 122.843 107.217 123.22 107.733 123.22C108.244 123.22 108.631 122.843 108.631 122.276Z" fill="#263238"/>
<path d="M109.652 123.257C109.652 123.115 109.763 123.009 109.897 123.009C110.031 123.009 110.145 123.115 110.145 123.257C110.145 123.4 110.03 123.511 109.897 123.511C109.763 123.511 109.652 123.4 109.652 123.257Z" fill="#263238"/>
<path d="M110.628 123.257C110.628 123.115 110.739 123.009 110.873 123.009C111.007 123.009 111.122 123.115 111.122 123.257C111.122 123.4 111.006 123.511 110.873 123.511C110.739 123.511 110.628 123.4 110.628 123.257Z" fill="#263238"/>
<path d="M111.605 123.257C111.605 123.115 111.716 123.009 111.849 123.009C111.983 123.009 112.097 123.115 112.097 123.257C112.097 123.4 111.982 123.511 111.849 123.511C111.715 123.511 111.605 123.4 111.605 123.257Z" fill="#263238"/>
<path d="M132.586 135.26H68.3285C66.8205 135.26 65.5981 134.038 65.5981 132.53V131.733C65.5981 130.225 66.8205 129.003 68.3285 129.003H132.586C134.094 129.003 135.316 130.225 135.316 131.733V132.53C135.316 134.038 134.094 135.26 132.586 135.26Z" fill="#E0E0E0"/>
<path d="M97.7271 135.26H68.3285C66.8205 135.26 65.5981 134.038 65.5981 132.53V131.733C65.5981 130.225 66.8205 129.003 68.3285 129.003H97.7271C99.2351 129.003 100.457 130.225 100.457 131.733V132.53C100.457 134.038 99.2351 135.26 97.7271 135.26Z" fill="#B32C28"/>
<g opacity="0.3">
<path d="M70.866 129.002L67.1555 134.888L67.7381 135.148C67.9029 135.222 68.0805 135.26 68.2593 135.26H69.4392L73.4682 129.003H70.866V129.002Z" fill="white"/>
</g>
<g opacity="0.3">
<path d="M77.4972 129.002L73.5522 135.26H76.07L80.0989 129.002H77.4972Z" fill="white"/>
</g>
<g opacity="0.3">
<path d="M84.1278 129.002L80.1829 135.26H82.701L86.7295 129.002H84.1278Z" fill="white"/>
</g>
<g opacity="0.3">
<path d="M90.7586 129.002L86.8137 135.26H89.3319L93.3608 129.002H90.7586Z" fill="white"/>
</g>
<g opacity="0.3">
<path d="M97.3892 129.002L93.4443 135.26H95.9625L99.1365 130.33L99.5123 129.794C99.0282 129.256 98.2812 129.04 97.3892 129.002Z" fill="white"/>
</g>
<path d="M132.647 135.26C132.646 135.252 132.776 135.256 133.024 135.22C133.269 135.185 133.642 135.099 134.057 134.842C134.471 134.595 134.925 134.149 135.182 133.485C135.312 133.154 135.37 132.774 135.361 132.362C135.353 131.95 135.391 131.506 135.264 131.063C135.046 130.181 134.259 129.3 133.146 129.102C132.873 129.046 132.587 129.058 132.29 129.056C131.995 129.057 131.693 129.058 131.386 129.058C130.771 129.059 130.133 129.061 129.471 129.063C126.825 129.068 123.812 129.073 120.483 129.079C107.157 129.087 88.7579 129.098 68.436 129.11C67.8246 129.113 67.2206 129.328 66.7509 129.714C66.2833 130.103 65.9578 130.651 65.8396 131.242C65.7774 131.536 65.7918 131.841 65.7889 132.157C65.7877 132.474 65.7856 132.773 65.849 133.067C65.9743 133.653 66.3093 134.186 66.769 134.562C67.2313 134.938 67.8196 135.144 68.41 135.151C69.0239 135.152 69.6353 135.152 70.2443 135.153C71.463 135.153 72.6714 135.153 73.8699 135.154C78.6622 135.156 83.2849 135.158 87.6888 135.16C96.4953 135.169 104.425 135.176 111.087 135.183C117.745 135.197 123.132 135.209 126.862 135.217C128.721 135.226 130.165 135.233 131.151 135.237C131.637 135.242 132.01 135.246 132.266 135.248C132.518 135.253 132.647 135.26 132.647 135.26C132.647 135.26 132.518 135.267 132.267 135.271C132.01 135.274 131.638 135.277 131.151 135.282C130.166 135.286 128.721 135.293 126.863 135.302C123.133 135.31 117.745 135.322 111.088 135.336C104.426 135.343 96.4953 135.351 87.6892 135.359C83.2853 135.361 78.6627 135.363 73.8703 135.365C72.6722 135.366 71.4634 135.366 70.2447 135.366C69.6349 135.366 69.0231 135.366 68.4088 135.365C67.771 135.358 67.1337 135.135 66.6339 134.729C66.1366 134.322 65.7741 133.747 65.6385 133.112C65.5693 132.794 65.5722 132.464 65.5734 132.157C65.5763 131.85 65.5602 131.523 65.6278 131.2C65.7555 130.56 66.1078 129.967 66.6137 129.547C67.1213 129.129 67.776 128.896 68.4364 128.894C88.7583 128.906 107.158 128.917 120.483 128.926C123.813 128.931 126.825 128.937 129.472 128.942C130.133 128.943 130.772 128.944 131.386 128.946C131.694 128.947 131.995 128.948 132.291 128.948C132.583 128.951 132.881 128.94 133.165 129C134.32 129.213 135.127 130.13 135.346 131.042C135.473 131.503 135.431 131.953 135.436 132.362C135.442 132.776 135.379 133.172 135.243 133.508C134.973 134.185 134.505 134.634 134.08 134.879C133.654 135.133 133.276 135.213 133.027 135.241C132.776 135.271 132.647 135.26 132.647 135.26Z" fill="#263238"/>
</svg>
