<svg width="244" height="244" viewBox="0 0 244 244" fill="none" xmlns="http://www.w3.org/2000/svg">
<g clip-path="url(#clip0_680_101950)">
<path d="M0 0H244.038V244.038H0V0Z" fill="#FEFEFE"/>
<path d="M219.735 189.764C220.081 189.81 220.207 189.77 220.448 190.034C220.72 191.018 220.505 191.996 220.383 192.991C220.061 192.971 220.007 192.972 219.746 192.789C219.394 191.879 219.64 190.717 219.735 189.764Z" fill="#192E35"/>
<path d="M211.852 203.912C212.66 203.894 213.566 203.824 214.363 203.987C214.659 204.047 214.778 204.131 214.927 204.385C214.796 204.58 214.664 204.704 214.482 204.852C213.737 204.87 212.957 204.911 212.22 204.783C211.849 204.718 211.54 204.631 211.315 204.316C211.465 204.104 211.624 204.03 211.852 203.912Z" fill="#192E35"/>
<path d="M208.191 203.875C208.556 203.877 209.149 203.878 209.433 204.157C209.487 204.21 209.528 204.276 209.575 204.335C209.427 204.58 209.293 204.684 209.014 204.775C208.324 205.001 207.442 204.725 206.698 204.883C206.398 204.859 206.13 204.754 205.848 204.656L205.814 204.237C206.384 203.773 207.491 203.871 208.191 203.875Z" fill="#192E35"/>
<path d="M219.751 195.001C219.967 195.033 220.137 195.069 220.337 195.159C220.405 195.283 220.459 195.388 220.496 195.527C220.712 196.353 220.702 197.808 220.279 198.544L219.802 198.408C219.658 198.216 219.624 198.054 219.584 197.822C219.454 197.088 219.304 195.632 219.751 195.001Z" fill="#192E35"/>
<path d="M220.821 68.2045C220.893 68.2176 220.966 68.2322 221.039 68.244C221.752 68.3627 222.746 68.0855 223.328 68.588C223.407 68.9243 223.364 68.9444 223.213 69.2619C222.886 69.5519 222.414 69.529 221.997 69.5507C221.684 69.5385 221.353 69.5393 221.043 69.4888C220.616 69.4192 220.316 69.2726 220.06 68.9364C220.171 68.5533 220.486 68.3937 220.821 68.2045Z" fill="#192E35"/>
<path d="M225.517 68.2093L225.63 68.2045C225.694 68.2024 225.757 68.2017 225.82 68.199C226.004 68.1918 226.186 68.1782 226.37 68.183C226.715 68.1918 226.911 68.3313 227.131 68.5806C227.364 68.8444 227.478 69.123 227.43 69.4776C227.354 70.0443 227.141 70.3034 226.682 70.6265C226.52 70.55 226.345 70.4571 226.232 70.3119C226.01 70.0245 225.132 68.6108 225.17 68.3436L225.517 68.2093Z" fill="#192E35"/>
<path d="M226.166 72.0517C226.347 72.0529 226.609 72.0307 226.779 72.0841C226.988 72.1492 227.074 72.2349 227.177 72.4179C227.602 73.1738 227.405 74.6004 227.189 75.4107C227.002 75.4264 226.74 75.4738 226.558 75.4386C226.35 75.3984 226.275 75.3378 226.181 75.1595C225.762 74.3662 225.935 72.8924 226.166 72.0517Z" fill="#192E35"/>
<path d="M225.896 77.2136C226.195 76.9452 226.32 76.8578 226.716 76.7925C227.037 76.9004 227.119 76.9159 227.288 77.2358C227.576 77.7803 227.52 79.3397 227.23 79.8961C227.13 80.0887 226.999 80.2285 226.849 80.3813C226.675 80.2864 226.441 80.1826 226.303 80.0426C225.73 79.4622 225.941 78.0078 225.896 77.2136Z" fill="#192E35"/>
<path d="M219.55 200.539C219.925 200.56 220.135 200.529 220.454 200.735C220.585 201.134 220.613 201.49 220.615 201.91C220.619 202.697 220.413 203.944 219.801 204.5C219.286 204.967 218.093 204.776 217.436 204.761C217.364 204.758 217.29 204.763 217.219 204.751C216.915 204.704 216.851 204.582 216.67 204.357C217.095 203.487 218.628 204.193 219.277 203.896C219.739 203.091 219.555 201.475 219.55 200.539Z" fill="#192E35"/>
<path d="M4.78288 222.012C6.70591 221.784 8.952 221.832 10.8906 221.926C11.5025 221.956 12.3884 222.04 12.8124 222.55C13.0664 222.855 13.062 223.155 13.0006 223.532C12.9022 224.138 12.6223 224.361 12.1568 224.708C9.85198 224.916 7.42008 224.766 5.09926 224.793C4.81033 224.62 4.4678 224.41 4.24902 224.152C4.01921 223.881 3.87351 223.51 3.93182 223.152C4.01651 222.631 4.3946 222.321 4.78288 222.012Z" fill="#375963"/>
<path d="M226.251 222.008C228.349 221.868 230.509 221.963 232.613 221.953C234.345 221.945 236.239 221.789 237.954 222.002C238.371 222.054 238.838 222.198 239.067 222.583C239.215 222.831 239.219 223.135 239.169 223.41C239.048 224.052 238.726 224.345 238.212 224.71C236.655 224.859 235.028 224.77 233.463 224.774C231.479 224.779 229.465 224.849 227.484 224.762C226.873 224.736 226.107 224.71 225.684 224.204C225.394 223.857 225.292 223.511 225.363 223.059C225.443 222.555 225.859 222.272 226.251 222.008Z" fill="#375963"/>
<path d="M215.931 221.894C216.951 221.908 218.999 221.608 219.774 222.331C220.085 222.622 220.195 222.938 220.193 223.354C220.193 223.4 220.19 223.445 220.185 223.49C220.18 223.536 220.173 223.581 220.162 223.625C220.152 223.67 220.14 223.714 220.125 223.757C220.11 223.8 220.093 223.843 220.074 223.884C220.054 223.925 220.033 223.965 220.009 224.004C219.985 224.043 219.959 224.081 219.931 224.117C219.903 224.153 219.873 224.188 219.842 224.22C219.81 224.253 219.776 224.284 219.741 224.313C219.215 224.749 218.368 224.766 217.711 224.781C213.943 224.861 210.155 224.739 206.384 224.744L175.707 224.756L156.865 224.716C153.861 224.704 150.552 224.91 147.585 224.634C149.348 224.399 151.326 224.57 153.112 224.577C153.083 223.715 153.107 222.847 153.114 221.985L196.602 221.97L209.568 221.961C211.622 221.959 213.905 222.141 215.931 221.894Z" fill="#375963"/>
<path d="M54.3195 197.079C54.3708 196.061 54.2569 194.123 54.9897 193.359C55.1951 193.145 55.47 193.035 55.7556 192.982C56.6272 192.82 59.8762 193.001 61.0225 192.977C61.4289 194.338 61.4275 195.738 61.4834 197.146C62.2864 197.394 63.0926 197.63 63.9021 197.856C64.3537 197.503 65.8129 196.042 66.3036 196.067C67.2351 196.115 69.6775 198.939 70.2449 199.702C70.3735 199.876 70.4928 200.055 70.6028 200.24C69.9895 200.979 69.3646 201.707 68.728 202.426C69.135 203.331 69.5326 204.241 69.9208 205.154C70.4013 205.196 72.6126 205.204 72.8451 205.548C73.3384 206.278 73.2705 209.966 73.0313 210.903C72.9629 211.171 72.9229 211.291 72.6757 211.434C72.0938 211.771 70.6141 211.637 69.9115 211.657C69.5752 212.583 69.2647 213.531 68.8255 214.415C69.5652 215.111 70.3621 215.791 70.9992 216.583C69.9859 218.327 68.1784 220.254 66.5048 221.362C65.6726 220.696 64.8999 219.901 64.0215 219.306C63.2176 219.693 62.4297 220.054 61.5842 220.341C61.5742 220.891 61.5489 221.445 61.5703 221.995L105.376 221.977L105.345 206.836L105.365 200.054L111.432 199.973L146.808 199.877C148.914 199.887 151.027 199.935 153.132 199.885L153.114 221.984C153.107 222.847 153.083 223.714 153.112 224.576C151.326 224.569 149.348 224.398 147.585 224.633C145.739 224.804 143.742 224.655 141.883 224.655C138.203 224.655 134.521 224.685 130.841 224.637C127.914 224.924 124.808 224.657 121.86 224.643L105.358 224.674C99.2499 224.8 93.1192 224.711 87.0084 224.721L51.6435 224.741L29.5504 224.768C26.535 224.771 23.466 224.949 20.4566 224.834C19.8689 224.811 19.2626 224.745 18.7551 224.421C18.4382 224.219 18.2031 223.927 18.1585 223.542C18.1145 223.16 18.3442 222.63 18.5998 222.347C18.892 222.023 19.3456 221.965 19.7547 221.927C21.0134 221.809 22.3599 221.92 23.6265 221.933C25.843 221.952 28.0596 221.956 30.2763 221.946C38.334 221.927 46.3917 221.951 54.4492 222.018C54.4706 221.428 54.4552 220.829 54.4568 220.238C53.8409 219.849 53.2698 219.578 52.5719 219.375C51.7966 220.07 51.0915 220.833 50.1866 221.362C48.4208 220.18 46.8465 218.502 45.5767 216.809C46.1406 215.912 47.0431 215.153 47.796 214.411C47.3667 213.546 46.9978 212.647 46.6108 211.762C45.8105 211.756 44.3148 211.948 43.6657 211.43C43.226 211.078 43.2625 210.567 43.2438 210.056C43.2491 209.199 42.9853 206.313 43.465 205.8C44.0788 205.144 45.5655 205.311 46.4059 205.305C46.6804 204.364 47.1348 203.474 47.5457 202.585C46.8093 201.855 45.7155 200.935 45.6654 199.834C46.1011 198.767 47.9847 196.62 49.0735 196.223C49.2311 196.166 49.2418 196.172 49.3848 196.16C50.2284 196.686 50.9031 197.416 51.757 197.941C52.6155 197.667 53.4602 197.346 54.3195 197.079Z" fill="#375963"/>
<path d="M54.4871 222.16C56.3555 222.441 59.7058 222.357 61.5796 222.093C61.6172 222.602 61.6082 223.122 61.6184 223.633C59.2354 223.7 56.8427 223.8 54.461 223.659C54.44 223.16 54.4687 222.659 54.4871 222.16Z" fill="#192E35"/>
<path d="M57.5704 203.313C58.7599 203.224 59.9536 203.432 60.9715 204.081C62.2128 204.872 63.0711 206.24 63.3332 207.68C63.3495 207.768 63.3637 207.856 63.3757 207.944C63.3878 208.032 63.3975 208.121 63.405 208.21C63.4125 208.299 63.4177 208.388 63.4207 208.477C63.4238 208.566 63.4245 208.655 63.4231 208.744C63.4217 208.833 63.4179 208.922 63.4118 209.011C63.406 209.1 63.3978 209.189 63.3873 209.278C63.3769 209.366 63.3642 209.454 63.3494 209.542C63.3345 209.63 63.3174 209.718 63.2982 209.805C63.2788 209.892 63.2573 209.978 63.2339 210.064C63.2102 210.15 63.1844 210.236 63.1564 210.321C63.1285 210.405 63.0985 210.489 63.0664 210.572C63.0341 210.655 62.9998 210.738 62.9636 210.819C62.9272 210.901 62.8889 210.981 62.8485 211.061C62.8082 211.14 62.7658 211.219 62.7215 211.296C62.6772 211.373 62.6311 211.45 62.583 211.525C62.5347 211.6 62.4847 211.673 62.4329 211.746C61.4806 213.095 60.2406 213.73 58.6551 214C57.4845 214.046 56.4075 213.802 55.419 213.154C55.3395 213.101 55.2615 213.047 55.1849 212.99C55.1082 212.934 55.0329 212.876 54.959 212.816C54.885 212.756 54.8125 212.694 54.7416 212.63C54.6708 212.567 54.6014 212.502 54.5335 212.435C54.4658 212.368 54.3998 212.299 54.3353 212.229C54.2709 212.159 54.2082 212.088 54.1472 212.015C54.0863 211.941 54.0272 211.867 53.9699 211.791C53.9125 211.715 53.857 211.638 53.8035 211.559C53.7498 211.48 53.6982 211.4 53.6487 211.319C53.5989 211.238 53.5512 211.155 53.5054 211.072C53.4597 210.988 53.4159 210.904 53.3744 210.818C53.3328 210.732 53.2933 210.646 53.2559 210.558C53.2184 210.471 53.1832 210.382 53.1501 210.293C53.1169 210.204 53.0859 210.114 53.0572 210.023C53.0285 209.933 53.0019 209.841 52.9777 209.749C52.9534 209.657 52.9313 209.564 52.9114 209.471C52.6466 208.175 52.9225 206.889 53.6546 205.79C54.5881 204.39 55.961 203.653 57.5704 203.313Z" fill="#FEFEFE"/>
<path d="M146.808 199.877C148.914 199.888 151.027 199.936 153.132 199.885L153.114 221.984C153.107 222.847 153.083 223.714 153.112 224.576C151.326 224.57 149.348 224.399 147.585 224.634C145.739 224.804 143.742 224.656 141.883 224.656C138.203 224.655 134.521 224.685 130.841 224.637C129.457 224.489 127.982 224.582 126.587 224.586C126.498 218.644 126.635 212.696 126.563 206.753C119.511 206.96 112.401 206.86 105.345 206.836L105.365 200.055L111.433 199.973L146.808 199.877Z" fill="#192E35"/>
<path d="M196.292 32.4421C196.601 32.9437 196.419 38.2407 196.414 39.2865L196.557 39.4269C198.167 40.9957 200.018 42.3008 201.643 43.8603C207.226 49.2194 212.514 55.1759 216.751 61.6728C217.503 62.8258 218.133 64.0197 218.836 65.1966C219.406 66.1507 220.483 67.1624 220.821 68.2046C220.486 68.3938 220.171 68.5534 220.06 68.9364C220.316 69.2728 220.616 69.4193 221.043 69.4888C221.353 69.5394 221.684 69.5386 221.997 69.5508C222.775 71.6847 224.046 73.6871 225.121 75.6861C225.377 76.1629 225.577 76.792 225.896 77.2137C225.941 78.0077 225.73 79.4622 226.303 80.0428C226.441 80.1827 226.675 80.2865 226.849 80.3815C226.907 80.7635 226.973 81.1364 226.967 81.5242C227.253 81.9363 227.346 82.2579 227.433 82.7467C227.446 82.813 227.459 82.8787 227.471 82.945C227.511 83.1663 227.507 83.3632 227.506 83.587C227.503 83.9721 227.583 84.1535 227.737 84.4947C231.63 93.1419 233.918 102.779 235.521 112.092C235.7 113.132 236.341 115.375 236.064 116.306C236.032 116.413 235.993 116.467 235.937 116.556C235.612 115.171 235.097 113.92 234.07 112.9C233.178 112.015 232.123 111.418 230.894 111.149C228.657 110.659 225.971 110.957 223.677 110.957L210.569 110.945C208.334 110.905 206.096 110.913 203.86 110.903C204.088 110.893 204.295 110.855 204.518 110.808C204.606 110.545 204.599 110.307 204.602 110.033C204.664 105.786 204.571 101.533 204.588 97.2843C204.597 94.9993 204.847 91.9869 204.542 89.7776C204.387 88.6562 203.969 87.4435 203.147 86.6363C202.373 85.8778 201.278 85.321 200.216 85.1155C198.169 84.7197 194.252 84.9584 192.022 84.9573L175.195 84.9739C174.157 84.9298 173.109 84.9599 172.07 84.9587L172.053 78.965C171.896 76.4466 172.03 73.8435 172.006 71.3159C172.663 70.9763 173.261 70.6439 173.655 69.9928C173.988 69.4423 174.128 68.8248 173.934 68.1985C173.639 67.2409 172.898 66.7855 172.051 66.3665L172.053 58.5019C177.271 58.2843 182.567 58.4984 187.791 58.5088C189.686 58.5126 191.904 58.7524 193.755 58.431C194.345 58.3287 194.84 58.0528 195.273 57.6414C195.74 57.198 196.036 56.6888 196.139 56.0539C196.465 54.0433 196.226 50.6179 196.226 48.4987L196.292 32.4421Z" fill="#DCDEDE"/>
<path d="M215.511 68.2876C216.285 68.2631 217.291 68.128 218.041 68.3539C218.342 68.4447 218.431 68.527 218.569 68.801C218.488 69.1499 218.389 69.2178 218.148 69.4723C217.408 69.5064 216.5 69.6422 215.77 69.5064C215.451 69.4468 215.342 69.3758 215.15 69.1217C215.149 68.739 215.291 68.5762 215.511 68.2876Z" fill="#192E35"/>
<path d="M205.242 68.2943C206.11 68.2785 207.64 68.014 208.303 68.6165C208.365 69.0252 208.295 69.1222 208.14 69.4944C207.436 69.5208 206.714 69.5776 206.01 69.5399C205.573 69.5164 205.302 69.445 205.006 69.1155C204.992 68.7215 205.062 68.6334 205.242 68.2943Z" fill="#192E35"/>
<path d="M210.339 68.3064C211.105 68.2721 211.954 68.1703 212.711 68.309C213.088 68.3781 213.257 68.4744 213.465 68.7927C213.414 69.155 213.325 69.2329 213.106 69.5156C212.33 69.5939 211.195 69.6833 210.453 69.4386C210.172 69.346 210.082 69.2635 209.942 69.0101C210.019 68.6466 210.087 68.587 210.339 68.3064Z" fill="#192E35"/>
<path d="M189.526 68.2919C190.328 68.255 191.453 68.0789 192.22 68.2924C192.535 68.3799 192.618 68.4569 192.771 68.7371C192.749 69.0813 192.595 69.2588 192.398 69.5235C191.658 69.545 190.863 69.622 190.127 69.5364C189.738 69.4914 189.544 69.396 189.297 69.0968C189.249 68.7339 189.353 68.5967 189.526 68.2919Z" fill="#192E35"/>
<path d="M194.659 68.2967C195.5 68.2622 196.62 68.1024 197.425 68.332C197.743 68.423 197.812 68.5115 197.969 68.7938C197.928 69.1189 197.858 69.2514 197.657 69.5084C197.007 69.54 196.342 69.597 195.692 69.5784C195.179 69.5636 194.803 69.5167 194.441 69.132C194.411 68.7381 194.488 68.6427 194.659 68.2967Z" fill="#192E35"/>
<path d="M227.433 82.7466C227.285 83.551 227.553 84.3939 226.981 85.0724C226.852 85.0907 226.862 85.1089 226.744 85.0504C226.385 84.8744 226.176 84.447 226.052 84.0859C225.837 83.4647 225.719 82.5626 226.087 81.9727C226.278 81.666 226.642 81.6067 226.967 81.5239C227.253 81.9361 227.346 82.2579 227.433 82.7466Z" fill="#192E35"/>
<path d="M226.348 86.201C226.695 86.2468 226.852 86.2664 227.133 86.4956C227.349 86.8729 227.446 87.2404 227.466 87.6771C227.497 88.3654 227.401 89.1316 226.936 89.6512C226.626 89.6399 226.442 89.6521 226.176 89.4751C226.035 89.2318 225.964 89.0214 225.918 88.7418C225.793 87.9899 225.905 86.8354 226.348 86.201Z" fill="#192E35"/>
<path d="M199.866 68.2914C200.644 68.2642 201.458 68.198 202.234 68.2602C202.713 68.2986 202.97 68.3764 203.28 68.7504C203.296 69.1177 203.254 69.188 203.084 69.5193C202.371 69.6036 201.544 69.6796 200.828 69.638C200.417 69.6139 200.115 69.535 199.827 69.2267C199.687 68.8717 199.772 68.6413 199.866 68.2914Z" fill="#192E35"/>
<path d="M184.263 68.28C185.06 68.2493 185.896 68.1761 186.69 68.24C187.138 68.276 187.393 68.338 187.687 68.6847C187.732 69.0567 187.648 69.1833 187.472 69.4964C186.79 69.5462 186.078 69.6287 185.394 69.6229C184.885 69.6186 184.535 69.5686 184.167 69.1965C184.062 68.8227 184.137 68.6282 184.263 68.28Z" fill="#192E35"/>
<path d="M179.318 68.201C179.985 68.1883 181.667 67.9824 182.18 68.4424C182.433 68.6685 182.424 68.796 182.443 69.1087C182.267 69.3829 182.221 69.4123 181.928 69.5598C180.986 69.5617 179.931 69.741 179.038 69.388C178.795 69.1263 178.802 69.1179 178.773 68.76C178.934 68.4433 179.017 68.4006 179.318 68.201Z" fill="#192E35"/>
<path d="M226.033 91.1801C226.497 91.1352 227.004 91.0809 227.461 91.1916C228.149 91.3579 228.807 91.8352 229.144 92.4611C229.18 92.5275 229.213 92.5956 229.242 92.6653C229.271 92.7352 229.296 92.8064 229.318 92.8788C229.34 92.9513 229.358 93.0246 229.372 93.0987C229.386 93.1731 229.396 93.248 229.403 93.3233C229.409 93.3987 229.411 93.4742 229.41 93.5499C229.408 93.6256 229.403 93.7009 229.394 93.7758C229.384 93.8508 229.371 93.9252 229.354 93.9988C229.337 94.0725 229.316 94.1451 229.292 94.2167C229.003 95.0472 228.386 95.5005 227.627 95.8718C227.177 95.9413 226.694 96.0009 226.244 95.9011C225.624 95.7636 225.048 95.3406 224.715 94.8029C224.67 94.7304 224.629 94.6559 224.591 94.579C224.554 94.5022 224.521 94.4236 224.492 94.3434C224.463 94.263 224.439 94.1814 224.418 94.0987C224.398 94.0157 224.382 93.932 224.371 93.8475C224.359 93.7628 224.352 93.6778 224.35 93.5925C224.347 93.5072 224.349 93.422 224.356 93.337C224.362 93.2518 224.373 93.1674 224.388 93.0835C224.404 92.9994 224.424 92.9166 224.448 92.8347C224.701 92.0022 225.292 91.5634 226.033 91.1801Z" fill="#375963"/>
<path d="M172.053 78.965L191.155 78.9001C194.443 78.8976 199.495 78.5548 202.547 79.2731C204.332 79.6933 205.9 80.6606 207.196 81.9477C209.602 84.3363 210.591 87.4163 210.582 90.7345L210.569 110.944C208.333 110.905 206.096 110.913 203.86 110.903C204.087 110.893 204.295 110.855 204.518 110.808C204.605 110.545 204.598 110.307 204.602 110.033C204.664 105.786 204.571 101.532 204.588 97.2841C204.596 94.9991 204.846 91.9868 204.542 89.7774C204.387 88.656 203.969 87.4433 203.147 86.6361C202.373 85.8776 201.278 85.3209 200.215 85.1153C198.168 84.7195 194.251 84.9583 192.022 84.9571L175.194 84.9737C174.157 84.9296 173.109 84.9597 172.07 84.9585L172.053 78.965Z" fill="#375963"/>
<path d="M151.778 16.4304C161.702 16.6361 171.659 16.4512 181.585 16.4483L188.999 16.4485C190.455 16.4491 192.052 16.3301 193.484 16.5915C194.223 16.7263 194.931 17.2336 195.429 17.7808C195.906 18.305 196.107 18.9894 196.21 19.678C196.404 20.9716 196.276 22.4014 196.274 23.7108C196.271 26.6184 196.231 29.5357 196.292 32.442L196.226 48.4988C196.225 50.6179 196.465 54.0433 196.138 56.054C196.036 56.6888 195.739 57.1982 195.273 57.6414C194.84 58.0528 194.344 58.3287 193.754 58.431C191.903 58.7525 189.686 58.5127 187.791 58.5089C182.567 58.4984 177.271 58.2843 172.053 58.5019C171.754 58.507 171.424 58.4624 171.157 58.6042C170.486 58.2729 166.903 58.4882 165.93 58.4906L149.502 58.4753C147.009 58.4696 143.933 58.6729 141.493 58.3829C140.845 58.3059 140.001 58.1915 139.497 57.7439C138.434 56.8013 138.305 55.895 138.272 54.5599C138.212 52.1817 138.323 49.7809 138.329 47.4002L138.322 32.0508L138.319 24.2151C138.302 22.6003 138.132 20.8452 138.348 19.2528C138.361 19.1621 138.377 19.0721 138.396 18.9828C138.416 18.8936 138.439 18.8051 138.466 18.7177C138.493 18.6303 138.524 18.5442 138.558 18.4594C138.592 18.3746 138.63 18.2912 138.671 18.2096C138.712 18.1278 138.756 18.0479 138.804 17.9699C138.851 17.8919 138.902 17.8159 138.956 17.7421C139.01 17.6682 139.067 17.5967 139.127 17.5276C139.187 17.4586 139.25 17.392 139.315 17.3281C139.696 16.9513 140.148 16.6841 140.671 16.5606C142.439 16.1429 149.457 16.481 151.778 16.4304Z" fill="#BC333D"/>
<path d="M144.705 42.4646C146.582 42.3399 148.509 42.4126 150.392 42.4046C152.17 42.3969 153.999 42.305 155.773 42.4103C156.243 42.4382 156.832 42.5256 157.12 42.9537C157.297 43.2149 157.324 43.6213 157.268 43.9239C157.175 44.4172 156.862 44.6438 156.466 44.8961C154.782 45.1728 146.899 45.2033 145.117 45.0005C144.699 44.9528 144.336 44.8429 144.095 44.4684C143.877 44.132 143.834 43.5644 143.958 43.1864C144.079 42.813 144.391 42.6584 144.705 42.4646Z" fill="#FD4F5A"/>
<path d="M144.939 29.011C149.853 28.9614 154.772 29.0092 159.686 29.0249C161.84 29.0318 164.111 28.8273 166.25 29.0106C166.775 29.0556 167.305 29.1402 167.776 29.389C168.128 29.5745 168.263 29.751 168.373 30.1257C168.347 30.4605 168.263 30.6813 168.078 30.9653C167.81 31.3795 167.479 31.4528 167.031 31.5537C159.577 31.6616 152.101 31.5868 144.646 31.5477C144.33 31.3182 143.981 31.0651 143.823 30.6929C143.689 30.3754 143.654 30.0093 143.835 29.7008C144.077 29.2846 144.502 29.1333 144.939 29.011Z" fill="#FD4F5A"/>
<path d="M145.097 35.7941C147.054 35.6968 149.045 35.7733 151.004 35.7781L162.146 35.8017C165.467 35.8031 184.687 35.4011 186.262 35.9695C186.6 36.0912 186.946 36.3107 187.065 36.6711C187.178 37.0128 187.051 37.6115 186.832 37.9015C186.6 38.2095 186.27 38.2783 185.918 38.3689L158.432 38.395L149.971 38.3934C148.096 38.3915 146.186 38.4782 144.324 38.2326C144.091 38.0919 143.896 37.8079 143.801 37.5534C143.677 37.2197 143.68 36.8908 143.86 36.5782C144.143 36.0869 144.573 35.9237 145.097 35.7941Z" fill="#FD4F5A"/>
<path d="M144.597 48.9942C147.899 48.8851 151.231 48.9676 154.537 48.9628L174.598 48.9528L184.413 48.9461C186.072 48.9459 187.933 48.7719 189.563 49.0538C189.876 49.1081 190.158 49.2326 190.317 49.526C190.481 49.8279 190.455 50.2163 190.375 50.5381C190.255 51.0193 190.035 51.234 189.633 51.4869L189.302 51.4911C180.864 51.5843 172.416 51.4844 163.977 51.5066C157.806 51.5228 151.586 51.7129 145.418 51.5421C145.079 51.5329 144.659 51.5269 144.352 51.3564C144.203 51.2737 144.101 51.2079 143.993 51.0748C143.82 50.8629 143.765 50.6039 143.782 50.3365C143.823 49.6997 144.128 49.3879 144.597 48.9942Z" fill="#FD4F5A"/>
<path d="M144.611 22.428C147.273 22.3063 149.984 22.4034 152.652 22.4001L168.147 22.3837L181.517 22.3993C183.896 22.4011 186.339 22.2896 188.711 22.4279C189.318 22.4633 190.023 22.5615 190.56 22.8682C190.88 23.0514 190.989 23.2451 191.071 23.5936C190.961 24.152 190.459 24.5974 190.022 24.9229C188.581 25.2075 186.852 25.0357 185.383 25.0325L176.756 25.0214L156.678 25.0101C153.129 25.0117 149.567 25.0942 146.02 25.0225C145.398 25.0099 144.361 25.0413 143.948 24.4939C143.786 24.2804 143.758 24.0386 143.787 23.7802C143.862 23.115 144.095 22.8311 144.611 22.428Z" fill="#FD4F5A"/>
<path d="M210.076 162.03C214.508 161.924 218.958 162.013 223.392 162.02C225.913 162.024 228.522 162.206 231.008 161.745C229.743 167.343 227.232 173.312 224.819 178.519C224.042 180.195 222.896 181.764 222.254 183.486C222.42 184.162 222.704 185.005 222.281 185.642C221.783 186.39 220.521 186.519 220.555 187.443C220.388 187.873 220.218 188.1 219.879 188.408L219.68 188.482C219.666 188.519 219.653 188.557 219.638 188.594C218.67 191.023 213.786 197.532 211.936 199.66C210.731 201.045 209.184 202.338 208.191 203.875C207.491 203.87 206.384 203.773 205.814 204.237L205.848 204.656C206.13 204.754 206.398 204.859 206.698 204.883C205.607 206.191 204.28 207.372 203.03 208.525C199.107 212.146 194.914 215.36 190.583 218.469C189.002 219.605 187.293 220.61 185.783 221.832L206.473 221.839L212.452 221.827C213.58 221.824 214.818 221.729 215.931 221.894C213.905 222.141 211.622 221.959 209.568 221.961L196.603 221.97L153.114 221.984L153.132 199.885C151.027 199.936 148.914 199.887 146.808 199.877L146.82 196.116C146.878 194.25 147.282 192.978 148.365 191.469C148.684 190.361 150.272 188.433 150.866 187.224C153.312 182.249 154.187 178.404 154.236 172.853C154.249 171.486 154.282 170.105 154.177 168.741C170.246 168.583 186.335 169.213 202.409 169.171L202.402 165.492C202.444 164.347 202.399 163.187 202.394 162.041C204.955 162.056 207.515 162.052 210.076 162.03Z" fill="#DCDEDE"/>
<path d="M191.164 196.428C191.347 196.471 191.646 196.487 191.765 196.639C192.244 197.248 191.969 199.163 191.939 199.903L191.414 199.833C190.824 199.17 191.128 197.272 191.164 196.428Z" fill="#192E35"/>
<path d="M195.77 203.933C196.553 203.908 197.824 203.698 198.467 204.177C198.547 204.445 198.566 204.44 198.447 204.689L198.033 204.792C197.306 204.809 195.958 204.954 195.306 204.606C195.116 204.505 195.185 204.56 195.108 204.322C195.315 204.114 195.504 204.043 195.77 203.933Z" fill="#192E35"/>
<path d="M200.749 203.908C201.563 203.901 203.241 203.594 203.901 204.111C203.971 204.446 203.923 204.494 203.787 204.814C202.999 204.829 201.238 205.064 200.655 204.539C200.581 204.217 200.604 204.21 200.749 203.908Z" fill="#192E35"/>
<path d="M191.206 201.658C191.459 201.708 191.589 201.74 191.783 201.914C192.048 202.473 191.967 203.114 191.99 203.723C192.413 203.836 192.818 203.931 193.202 204.144C193.389 204.436 193.373 204.471 193.356 204.822C193.209 204.83 193.062 204.837 192.915 204.834C192.443 204.825 191.958 204.675 191.637 204.316C191.023 203.63 191.161 202.508 191.206 201.658Z" fill="#192E35"/>
<path d="M219.557 187.045C219.376 186.184 218.261 185.973 218.123 184.917C218.046 184.333 218.177 183.711 218.573 183.264C219.001 182.783 219.64 182.573 220.27 182.565C221.12 182.553 221.667 182.907 222.255 183.486C222.42 184.162 222.704 185.005 222.281 185.642C221.783 186.39 220.521 186.519 220.555 187.443C220.388 187.873 220.218 188.1 219.879 188.408C219.871 188.393 219.862 188.378 219.853 188.363C219.591 187.922 219.585 187.55 219.557 187.045Z" fill="#375963"/>
<path d="M219.557 187.045C219.788 186.846 219.817 186.848 220.123 186.815C220.441 187.038 220.434 187.069 220.555 187.443C220.388 187.873 220.218 188.1 219.879 188.408C219.871 188.393 219.862 188.378 219.853 188.363C219.591 187.922 219.586 187.55 219.557 187.045Z" fill="#192E35"/>
<path d="M202.394 162.041C204.955 162.056 207.515 162.052 210.076 162.03L210.072 176.069C210.072 177.673 210.306 180.765 209.968 182.202C209.815 184.674 208.514 187.138 206.665 188.756C202.5 192.401 197.06 191.403 191.965 191.45C192.005 192.474 192.142 193.61 191.652 194.549L191.506 194.602C190.902 193.924 191.094 192.279 191.101 191.406L148.365 191.469C148.684 190.361 150.272 188.433 150.866 187.224C153.312 182.248 154.187 178.404 154.236 172.853C154.248 171.486 154.282 170.104 154.176 168.741C170.246 168.582 186.335 169.212 202.409 169.171L202.402 165.492C202.444 164.348 202.399 163.187 202.394 162.041Z" fill="#192E35"/>
<path d="M202.606 103.391C202.671 105.769 202.396 108.348 202.714 110.689C203.04 110.918 203.466 110.903 203.86 110.903C206.096 110.913 208.333 110.905 210.569 110.945L223.676 110.957C225.971 110.957 228.657 110.659 230.894 111.149C232.123 111.418 233.177 112.015 234.07 112.9C235.097 113.92 235.612 115.171 235.937 116.556C235.778 119.494 235.867 122.459 235.852 125.402L235.873 146.83C235.864 149.455 236.172 154.385 235.701 156.68C235.428 158.012 234.532 159.35 233.531 160.248C233.347 160.411 233.155 160.565 232.956 160.71C232.757 160.855 232.552 160.99 232.341 161.116C232.129 161.241 231.912 161.357 231.689 161.462C231.467 161.567 231.24 161.661 231.008 161.745C228.522 162.206 225.913 162.024 223.392 162.02C218.958 162.013 214.508 161.925 210.076 162.03C207.515 162.052 204.955 162.056 202.394 162.041C202.399 163.187 202.444 164.348 202.402 165.492L202.409 169.171C186.335 169.213 170.246 168.583 154.177 168.741C153.88 167.986 154.022 159.652 154.149 158.384C154.403 155.927 154.2 152.675 154.202 150.156C154.203 147.659 154.428 144.124 154.126 141.724C154.042 141.057 153.676 140.446 153.494 139.803L153.44 139.604C153.256 134.068 153.444 128.46 153.463 122.918C153.399 120.537 153.041 117.752 153.821 115.47C154.267 114.548 154.786 113.677 155.519 112.951C158.098 110.401 161.642 110.801 164.966 110.81L171.144 110.812C171.164 112.641 171.172 114.47 171.167 116.3C169.35 116.415 167.77 117.037 166.535 118.423C166.461 118.506 166.388 118.591 166.318 118.677C166.248 118.764 166.18 118.852 166.115 118.942C166.049 119.031 165.985 119.122 165.924 119.215C165.863 119.308 165.804 119.402 165.748 119.498C165.691 119.594 165.637 119.691 165.585 119.789C165.533 119.888 165.484 119.987 165.437 120.088C165.39 120.189 165.346 120.291 165.304 120.394C165.262 120.497 165.222 120.601 165.186 120.706C165.149 120.811 165.115 120.917 165.083 121.023C165.051 121.13 165.022 121.237 164.996 121.345C164.97 121.453 164.946 121.562 164.925 121.671C164.904 121.781 164.886 121.89 164.871 122C164.855 122.11 164.842 122.221 164.832 122.332C164.822 122.442 164.814 122.553 164.81 122.665C164.805 122.776 164.803 122.887 164.804 122.998C164.805 123.109 164.808 123.22 164.814 123.331C164.938 125.222 165.899 127.131 167.343 128.357C168.769 129.568 170.614 130.053 172.457 129.873C174.235 129.7 175.8 128.917 176.931 127.523C178.164 126.002 178.626 124.026 178.409 122.096C178.397 121.986 178.382 121.877 178.365 121.768C178.347 121.659 178.327 121.551 178.304 121.443C178.28 121.334 178.255 121.227 178.226 121.121C178.198 121.014 178.167 120.908 178.133 120.803C178.099 120.698 178.063 120.593 178.024 120.49C177.984 120.387 177.943 120.285 177.899 120.183C177.855 120.082 177.808 119.982 177.759 119.883C177.71 119.784 177.658 119.687 177.604 119.59C177.55 119.494 177.493 119.399 177.434 119.306C177.376 119.212 177.315 119.121 177.251 119.03C177.187 118.94 177.122 118.851 177.054 118.764C176.986 118.677 176.916 118.592 176.844 118.508C176.771 118.425 176.697 118.343 176.621 118.263C176.545 118.183 176.466 118.105 176.386 118.029C176.306 117.954 176.224 117.88 176.14 117.808C176.056 117.736 175.97 117.667 175.883 117.599C174.725 116.722 173.412 116.363 171.985 116.261L172.047 110.836L202.601 110.838C202.571 108.356 202.573 105.873 202.606 103.391Z" fill="#B32C28"/>
<path d="M186.966 139.665L201.996 139.741L202.003 142.408L186.964 142.359L186.966 139.665Z" fill="#FEFEFE"/>
<path d="M186.966 152.069L202.021 152.147L202.034 154.871C200.618 155.164 198.747 154.947 197.277 154.943L186.963 154.921L186.966 152.069Z" fill="#FEFEFE"/>
<path d="M186.989 126.929C193.96 126.898 200.931 126.903 207.903 126.944C207.912 127.921 207.898 128.9 207.895 129.877L187.027 129.89C186.953 128.91 186.988 127.912 186.989 126.929Z" fill="#FEFEFE"/>
<path d="M186.973 133.109L222.451 133.168C222.46 134.013 222.607 135.087 222.381 135.895C218.335 135.992 214.27 135.923 210.222 135.93L186.987 135.963L186.973 133.109Z" fill="#FEFEFE"/>
<path d="M186.965 146.218C200.775 146.058 214.604 146.211 228.416 146.212L228.423 148.96L186.971 148.939L186.965 146.218Z" fill="#FEFEFE"/>
<path d="M186.947 120.849L228.472 121.076L228.445 123.886C226.842 123.797 225.202 123.851 223.594 123.843L214.197 123.804L186.967 123.748L186.947 120.849Z" fill="#FEFEFE"/>
<path d="M154.149 158.384C155.185 160.056 156.606 161.305 158.559 161.774C160.525 162.246 162.816 162.006 164.83 161.985C166.936 161.967 169.041 161.961 171.147 161.966C181.549 161.947 191.972 161.815 202.372 161.955C202.381 163.115 202.318 164.338 202.402 165.492L202.409 169.171C186.335 169.212 170.246 168.583 154.177 168.741C153.88 167.986 154.022 159.652 154.149 158.384Z" fill="#FEFEFE"/>
<path d="M43.244 210.057C43.2104 209.953 43.1894 209.864 43.1179 209.774C42.5769 209.094 40.9611 208.021 40.2162 207.365C38.854 206.164 37.5811 204.856 36.3245 203.547C31.421 198.44 27.0276 192.418 23.4293 186.326C22.9391 185.506 22.4589 184.679 21.9889 183.847C21.5188 183.015 21.0591 182.177 20.6095 181.333C20.16 180.49 19.7208 179.641 19.292 178.787C18.8632 177.933 18.4449 177.073 18.0372 176.209C17.6294 175.344 17.2322 174.475 16.8458 173.601C16.4592 172.726 16.0835 171.848 15.7184 170.964C15.3534 170.081 14.9992 169.193 14.656 168.301C14.3128 167.409 13.9803 166.513 13.659 165.613C13.3376 164.713 13.0273 163.809 12.7279 162.901C12.4287 161.993 12.1404 161.082 11.8635 160.167C11.5865 159.252 11.3207 158.334 11.0661 157.413C10.8116 156.491 10.5684 155.567 10.3364 154.64C10.1045 153.713 9.8838 152.783 9.67464 151.85C9.46548 150.917 9.2677 149.982 9.0813 149.045C8.89489 148.107 8.72011 147.168 8.55681 146.226C8.3934 145.284 8.24161 144.34 8.10131 143.395C7.96101 142.449 7.83232 141.502 7.71525 140.554C7.59818 139.605 7.4926 138.655 7.39875 137.704C7.30491 136.753 7.22267 135.801 7.15194 134.848C7.08132 133.894 7.02243 132.94 6.97515 131.986C6.92788 131.031 6.89234 130.076 6.8684 129.12C6.84447 128.165 6.83227 127.209 6.83169 126.253C6.8311 125.297 6.84224 124.342 6.86512 123.386C6.88799 122.43 6.92248 121.475 6.96859 120.521C7.0148 119.566 7.07264 118.612 7.14208 117.658C7.21165 116.705 7.29271 115.753 7.3855 114.802C7.47829 113.85 7.58269 112.9 7.69871 111.951C7.81473 111.003 7.94236 110.055 8.0816 109.11C8.22084 108.164 8.37159 107.22 8.53382 106.278C8.69606 105.336 8.86991 104.397 9.05514 103.459C9.24037 102.521 9.43709 101.586 9.64519 100.653C9.8533 99.72 10.0728 98.7897 10.3038 97.8622C10.5052 97.0786 10.715 96.2972 10.9331 95.5181C11.1512 94.7391 11.3776 93.9625 11.6122 93.188C11.8468 92.4138 12.0897 91.6422 12.3408 90.873C12.5918 90.1039 12.8511 89.3375 13.1186 88.5739C13.3859 87.8103 13.6615 87.0497 13.945 86.292C14.2285 85.5343 14.5202 84.7797 14.8199 84.0282C15.1196 83.2767 15.4272 82.5284 15.7427 81.7835C16.0583 81.0385 16.3818 80.297 16.7132 79.559C17.0446 78.821 17.3839 78.0866 17.7309 77.3557C18.0779 76.6249 18.4327 75.8978 18.7952 75.1744C19.1577 74.4512 19.5279 73.7319 19.9057 73.0164C20.2836 72.3009 20.669 71.5897 21.062 70.8825C21.455 70.1753 21.8555 69.4724 22.2635 68.7738C22.6715 68.0752 23.0868 67.3809 23.5096 66.6912C23.9323 66.0013 24.3624 65.3161 24.7997 64.6355C25.2371 63.9548 25.6816 63.2789 26.1334 62.6076C26.5851 61.9364 27.0439 61.2701 27.5099 60.6088C27.9757 59.9474 28.4486 59.2909 28.9286 58.6395C29.4084 57.9881 29.8952 57.342 30.3889 56.701C30.8826 56.06 31.383 55.4245 31.8901 54.7942C32.3974 54.1638 32.9113 53.5389 33.4318 52.9196C33.9523 52.3003 34.4794 51.6866 35.0129 51.0783C35.5465 50.4701 36.0866 49.8677 36.633 49.2712C37.1794 48.6745 37.7322 48.0837 38.2913 47.4988C38.8502 46.914 39.4153 46.3351 39.9867 45.7622C40.558 45.1894 41.1354 44.6228 41.7189 44.0623C42.3022 43.5018 42.8916 42.9475 43.4867 42.3996C44.0818 41.8516 44.6828 41.31 45.2896 40.7747C45.8963 40.2397 46.5088 39.711 47.1268 39.1887C47.7446 38.6666 48.3681 38.1511 48.9971 37.6423C49.6261 37.1334 50.2604 36.6312 50.9001 36.1358C51.5398 35.6404 52.1846 35.1519 52.8347 34.6704C55.5544 32.6654 58.3643 30.5773 61.2845 28.8754C80.656 17.588 100.921 12.3343 123.321 12.4547C132.638 12.5047 141.441 13.4006 150.466 15.7917C150.925 15.9132 151.528 15.9983 151.779 16.4303C149.458 16.481 142.44 16.1429 140.672 16.5603C140.149 16.6837 139.697 16.9511 139.316 17.3279C139.25 17.3918 139.188 17.4583 139.128 17.5274C139.068 17.5965 139.011 17.668 138.957 17.7418C138.903 17.8157 138.852 17.8916 138.804 17.9696C138.757 18.0477 138.712 18.1277 138.671 18.2093C138.63 18.2911 138.592 18.3744 138.558 18.4592C138.524 18.544 138.494 18.6301 138.467 18.7175C138.44 18.8049 138.417 18.8932 138.397 18.9826C138.377 19.072 138.361 19.162 138.349 19.2525C138.133 20.8451 138.303 22.6001 138.319 24.2149L138.323 32.0506L138.33 47.3999C138.324 49.7807 138.213 52.1815 138.272 54.5597C138.306 55.8948 138.435 56.8011 139.497 57.7436C140.002 58.1912 140.846 58.3055 141.493 58.3826C143.934 58.6727 147.009 58.4694 149.503 58.4751L165.93 58.4903C166.904 58.488 170.486 58.2727 171.158 58.604C171.424 58.4622 171.755 58.5067 172.053 58.5017L172.052 66.3662C172.898 66.7851 173.639 67.2406 173.934 68.1982C174.128 68.8245 173.988 69.442 173.655 69.9926C173.261 70.6436 172.663 70.9761 172.006 71.3157C172.03 73.8433 171.896 76.4465 172.053 78.9647L172.07 84.9584C173.109 84.9596 174.157 84.9296 175.195 84.9737L192.023 84.957C194.252 84.9582 198.169 84.7195 200.216 85.1153C201.279 85.3207 202.374 85.8774 203.147 86.6361C203.97 87.4433 204.387 88.656 204.542 89.7773C204.847 91.9868 204.597 94.9992 204.588 97.2841C204.572 101.532 204.664 105.786 204.603 110.033C204.599 110.307 204.606 110.545 204.518 110.808C204.295 110.854 204.088 110.893 203.861 110.903C203.466 110.903 203.041 110.918 202.714 110.689C202.396 108.347 202.671 105.769 202.606 103.39C202.573 105.873 202.572 108.355 202.601 110.838L172.048 110.836L171.986 116.261C173.412 116.363 174.726 116.722 175.883 117.599C175.971 117.667 176.056 117.736 176.14 117.808C176.224 117.88 176.306 117.954 176.387 118.029C176.467 118.105 176.545 118.183 176.621 118.263C176.698 118.343 176.772 118.424 176.844 118.508C176.917 118.591 176.987 118.677 177.055 118.764C177.123 118.851 177.188 118.94 177.252 119.03C177.315 119.12 177.376 119.212 177.435 119.306C177.494 119.399 177.55 119.494 177.604 119.59C177.659 119.687 177.71 119.784 177.759 119.883C177.809 119.982 177.855 120.082 177.899 120.183C177.943 120.284 177.985 120.387 178.024 120.49C178.063 120.593 178.1 120.698 178.133 120.803C178.167 120.908 178.198 121.014 178.227 121.12C178.255 121.227 178.281 121.334 178.304 121.442C178.327 121.55 178.348 121.659 178.365 121.768C178.383 121.877 178.398 121.986 178.41 122.096C178.627 124.026 178.164 126.002 176.931 127.523C175.801 128.918 174.236 129.7 172.458 129.873C170.614 130.053 168.769 129.568 167.343 128.357C165.9 127.131 164.939 125.222 164.815 123.331C164.809 123.22 164.805 123.109 164.805 122.998C164.804 122.887 164.806 122.775 164.81 122.664C164.815 122.553 164.823 122.442 164.833 122.332C164.843 122.221 164.856 122.11 164.871 122C164.887 121.89 164.905 121.78 164.926 121.671C164.947 121.562 164.971 121.453 164.997 121.345C165.023 121.237 165.052 121.13 165.084 121.023C165.115 120.917 165.149 120.811 165.186 120.706C165.223 120.601 165.262 120.497 165.304 120.394C165.346 120.291 165.391 120.189 165.438 120.088C165.484 119.987 165.534 119.888 165.586 119.789C165.638 119.691 165.692 119.594 165.748 119.498C165.805 119.402 165.864 119.308 165.925 119.215C165.986 119.122 166.05 119.031 166.115 118.941C166.181 118.852 166.249 118.764 166.319 118.677C166.389 118.591 166.461 118.506 166.535 118.423C167.77 117.037 169.35 116.415 171.167 116.299C171.173 114.47 171.165 112.641 171.144 110.812L164.967 110.81C161.642 110.801 158.099 110.401 155.52 112.951C154.786 113.677 154.268 114.547 153.821 115.47C153.042 117.752 153.4 120.537 153.464 122.917C153.445 128.46 153.256 134.068 153.44 139.604L153.495 139.803C153.677 140.446 154.043 141.057 154.126 141.724C154.429 144.124 154.204 147.658 154.202 150.156C154.2 152.674 154.403 155.927 154.149 158.384C154.022 159.652 153.88 167.986 154.177 168.741C154.283 170.105 154.249 171.486 154.237 172.853C154.188 178.404 153.313 182.249 150.867 187.224C150.273 188.433 148.684 190.361 148.366 191.469C147.283 192.978 146.879 194.25 146.821 196.116L146.809 199.877L111.433 199.973L105.366 200.055L105.345 206.836L105.377 221.978L61.571 221.996C61.5495 221.446 61.5748 220.891 61.5848 220.341C62.4304 220.055 63.2182 219.693 64.0221 219.307C64.9005 219.901 65.6732 220.696 66.5054 221.362C68.1792 220.254 69.9865 218.327 70.9998 216.583C70.3628 215.791 69.5658 215.111 68.8261 214.415C69.2653 213.532 69.5758 212.583 69.9121 211.657C70.6147 211.637 72.0944 211.771 72.6764 211.434C72.9235 211.291 72.9635 211.171 73.0319 210.903C73.2712 209.966 73.3392 206.278 72.8458 205.548C72.6131 205.204 70.4018 205.196 69.9214 205.154C69.5332 204.241 69.1357 203.332 68.7286 202.426C69.3652 201.708 69.9901 200.979 70.6034 200.24C70.4933 200.055 70.374 199.876 70.2455 199.703C69.6781 198.94 67.2358 196.115 66.3042 196.068C65.8135 196.043 64.3543 197.504 63.9027 197.856C63.0932 197.631 62.287 197.394 61.484 197.147C61.4281 195.738 61.4295 194.339 61.0232 192.977C59.8768 193.001 56.6279 192.82 55.7563 192.982C55.4705 193.035 55.1958 193.145 54.9904 193.359C54.2575 194.123 54.3715 196.061 54.3202 197.079C53.4608 197.346 52.6162 197.668 51.7577 197.942C50.9038 197.416 50.2292 196.686 49.3855 196.161C49.2425 196.173 49.2318 196.166 49.0743 196.223C47.9855 196.621 46.1017 198.767 45.6662 199.834C45.7163 200.935 46.81 201.855 47.5465 202.585C47.1356 203.474 46.6811 204.364 46.4066 205.306C45.5663 205.312 44.0797 205.145 43.4657 205.801C42.9853 206.313 43.2492 209.2 43.244 210.057Z" fill="#DCDEDE"/>
<path d="M87.3369 64.8941C83.4269 64.8488 79.5168 64.8334 75.6066 64.8477C73.5576 64.8546 71.1436 65.1108 69.1331 64.7273C68.1925 64.5478 67.2639 64.029 66.6071 63.334C66.0644 62.7599 65.7892 62.1665 65.6569 61.3916C65.2011 58.7174 65.4896 53.615 65.4994 50.6579C65.5101 47.4506 65.3373 44.1707 65.5183 40.9767C65.5991 39.5516 66.2846 38.0859 67.3431 37.1198C67.9727 36.545 68.8397 36.015 69.6951 35.8865C71.359 35.6363 73.1936 35.7657 74.8777 35.7633L84.1742 35.7585L97.3479 35.7521C99.6427 35.7521 101.995 35.6405 104.28 35.8017C105.904 35.9158 107.216 36.6577 108.271 37.8798C108.97 38.6889 109.282 39.7613 109.421 40.8064C109.594 42.1038 109.515 43.4717 109.512 44.7808L109.493 50.9356L109.476 56.793C109.481 58.1078 109.555 59.4631 109.443 60.7729C109.346 61.8991 109.067 63.0106 108.174 63.7718C107.553 64.3011 106.731 64.6419 105.931 64.7785C104.109 65.0894 102.066 64.9039 100.218 64.8949C96.5372 64.8774 92.8491 64.8259 89.1691 64.8885C89.172 66.0942 89.0252 75.585 89.3336 75.992L89.7852 76.1588C89.9802 76.9665 89.886 77.9636 89.8918 78.8001C89.4438 79.0769 87.2007 78.9484 86.5363 78.9641C86.5406 78.0389 86.5622 77.111 86.4772 76.1886L87.2286 76.1558C87.5331 75.5018 87.338 66.3997 87.3369 64.8941Z" fill="#192E35"/>
<path d="M171.158 58.6043C171.424 58.4624 171.754 58.507 172.053 58.502L172.051 66.3665C172.897 66.7854 173.638 67.2409 173.934 68.1985C174.127 68.8248 173.988 69.4423 173.655 69.9929C173.261 70.6439 172.663 70.9764 172.006 71.316C172.03 73.8436 171.895 76.4468 172.052 78.965L172.07 84.9587C173.109 84.9599 174.157 84.9299 175.194 84.974L192.022 84.9573C194.251 84.9585 198.168 84.7198 200.215 85.1156C201.278 85.321 202.373 85.8777 203.146 86.6364C203.969 87.4435 204.387 88.6563 204.542 89.7776C204.846 91.9871 204.596 94.9995 204.588 97.2844C204.571 101.533 204.664 105.786 204.602 110.033C204.598 110.307 204.605 110.545 204.518 110.808C204.295 110.855 204.087 110.893 203.86 110.903C203.465 110.903 203.04 110.918 202.714 110.689C202.396 108.348 202.671 105.769 202.606 103.391C202.573 105.873 202.571 108.356 202.601 110.838L172.047 110.836L171.985 116.261C173.412 116.363 174.725 116.722 175.883 117.599C175.97 117.667 176.056 117.737 176.14 117.808C176.224 117.88 176.306 117.954 176.386 118.03C176.466 118.106 176.545 118.183 176.621 118.263C176.697 118.343 176.771 118.425 176.844 118.508C176.916 118.592 176.986 118.677 177.054 118.764C177.122 118.851 177.188 118.94 177.251 119.03C177.315 119.121 177.376 119.213 177.435 119.306C177.493 119.399 177.55 119.494 177.604 119.591C177.658 119.687 177.71 119.784 177.759 119.883C177.808 119.982 177.855 120.082 177.899 120.183C177.943 120.285 177.985 120.387 178.024 120.49C178.063 120.594 178.099 120.698 178.133 120.803C178.167 120.908 178.198 121.014 178.226 121.121C178.255 121.227 178.281 121.335 178.304 121.443C178.327 121.551 178.347 121.659 178.365 121.768C178.382 121.877 178.397 121.987 178.409 122.096C178.626 124.026 178.164 126.002 176.931 127.523C175.8 128.918 174.235 129.7 172.457 129.873C170.614 130.053 168.769 129.568 167.343 128.357C165.899 127.131 164.938 125.222 164.815 123.331C164.808 123.22 164.805 123.109 164.804 122.998C164.803 122.887 164.805 122.776 164.81 122.665C164.815 122.554 164.822 122.443 164.832 122.332C164.842 122.221 164.855 122.111 164.871 122.001C164.886 121.89 164.905 121.781 164.926 121.671C164.947 121.562 164.97 121.454 164.996 121.346C165.023 121.238 165.052 121.13 165.083 121.024C165.115 120.917 165.149 120.811 165.186 120.706C165.223 120.601 165.262 120.497 165.304 120.394C165.346 120.291 165.39 120.189 165.437 120.089C165.484 119.988 165.533 119.888 165.585 119.79C165.637 119.691 165.691 119.594 165.748 119.498C165.804 119.403 165.863 119.308 165.924 119.216C165.986 119.123 166.049 119.031 166.115 118.941C166.181 118.852 166.249 118.764 166.319 118.677C166.389 118.591 166.461 118.506 166.535 118.424C167.77 117.037 169.35 116.415 171.167 116.3C171.172 114.471 171.165 112.641 171.144 110.812L171.204 110.744C171.153 108.428 171.236 106.11 171.154 103.793C171.071 101.651 171.132 99.4941 171.143 97.3505C171.217 93.9099 171.149 90.4569 171.137 87.0151C169.18 86.8373 167.137 86.9491 165.168 86.9516L154.468 86.9439L117.094 86.9828L69.1247 86.949L54.2095 86.9428C51.9939 86.9411 49.7107 86.8032 47.503 86.9072C46.5452 86.9525 45.6088 87.2085 44.8689 87.8424C44.121 88.4835 43.5543 89.4577 43.5023 90.4539C43.3339 93.6894 43.4749 96.9862 43.482 100.229L43.4911 117.646L43.4929 168.786L98.6528 168.834C99.1502 170.689 99.7354 172.523 100.281 174.365C101.472 178.384 102.569 182.692 105.062 186.142C105.968 187.395 107.019 188.53 108.12 189.613C108.675 190.158 109.474 190.679 109.884 191.334L109.63 191.458L48.786 191.476C45.1566 191.483 41.8679 190.522 39.2513 187.879C35.8127 184.405 35.9587 180.59 35.9704 176.066L36.0023 168.721C36.1543 165.647 36.0263 162.517 36.0177 159.439L35.9989 142.954L35.9781 90.0038C35.9881 86.7324 36.6399 84.1783 39.0544 81.8142C40.4953 80.4036 42.228 79.5432 44.2078 79.187C46.0588 78.8538 48.0169 78.9708 49.8931 78.9687L57.7083 78.9624C67.2792 78.9134 76.85 78.9224 86.4208 78.9897C86.4115 78.0635 86.3554 77.1079 86.4767 76.1889C86.5618 77.1112 86.5401 78.0392 86.5358 78.9644C87.2003 78.9487 89.4433 79.0772 89.8913 78.8004C90.121 78.9894 90.1506 78.9613 90.459 78.9742C92.1417 79.0447 93.8474 78.9698 95.5327 78.9663L105.165 78.9577L135.643 78.9608L159.373 78.9813C163.033 78.9785 167.452 79.1846 171.045 78.9184C171.313 76.4638 171.085 73.7839 171.065 71.308C170.787 71.201 170.505 71.0943 170.24 70.957C169.353 70.4968 169.084 69.7892 168.802 68.8794C168.895 68.4742 168.987 68.0641 169.173 67.6892C169.578 66.8732 170.339 66.6322 171.136 66.3462L171.158 58.6043Z" fill="#192E35"/>
<path d="M171.974 87.0222C173.703 86.8396 175.556 86.9568 177.3 86.9535L187.221 86.9413L195.614 86.9379C197.057 86.9384 198.623 86.8199 200.055 87.0035C200.549 87.0666 201.009 87.3281 201.387 87.6451C202.253 88.3729 202.484 89.2278 202.552 90.3192C202.651 91.9084 202.581 93.5385 202.58 95.1319L202.606 103.391C202.573 105.873 202.571 108.356 202.601 110.838L172.047 110.836L172.03 106.575C172.084 105.611 172.041 104.62 172.046 103.652L172.042 97.4965C171.861 94.0308 171.988 90.4957 171.974 87.0222Z" fill="#FEFEFE"/>
<path d="M172.042 97.4962C178.109 97.4752 184.25 97.2748 190.311 97.4511L190.303 103.673L172.046 103.652L172.042 97.4962Z" fill="#DCDEDE"/>
<path d="M86.4771 76.1888C86.5622 77.1111 86.5405 78.0391 86.5363 78.9643C87.2007 78.9486 89.4437 79.0771 89.8917 78.8003C90.1214 78.9893 90.151 78.9612 90.4594 78.9741C92.1422 79.0446 93.8478 78.9697 95.5332 78.9662L105.166 78.9577L135.643 78.9607L159.374 78.9812C163.033 78.9784 167.453 79.1845 171.046 78.9184C171.005 80.9385 170.99 82.9588 171.002 84.9793C170.002 84.9767 168.984 84.9335 167.986 84.9872L78.8365 84.9028L56.6297 84.9345C54.6261 84.944 52.6225 84.9426 50.6191 84.9303C49.29 84.9231 47.914 84.8478 46.5927 84.9874C45.221 85.1325 43.9817 85.7807 43.0163 86.7607C42.1924 87.5968 41.5761 88.812 41.4122 89.9794C41.0962 92.228 41.3262 95.5894 41.3279 97.9748L41.3567 114.71L41.4519 168.724C39.6361 168.722 37.8183 168.702 36.0027 168.72C36.1547 165.647 36.0267 162.517 36.0182 159.439L35.9993 142.954L35.9785 90.0037C35.9885 86.7323 36.6404 84.1782 39.0548 81.8141C40.4957 80.4035 42.2284 79.5431 44.2082 79.1869C46.0592 78.8537 48.0173 78.9707 49.8936 78.9686L57.7087 78.9623C67.2796 78.9133 76.8504 78.9223 86.4212 78.9896C86.4118 78.0634 86.3557 77.1078 86.4771 76.1888Z" fill="#375963"/>
<path d="M43.4932 168.785L43.4913 117.646L43.4823 100.229C43.4751 96.986 43.334 93.6892 43.5026 90.4537C43.5545 89.4575 44.1212 88.4833 44.8691 87.8422C45.6091 87.2083 46.5454 86.9523 47.5032 86.907C49.711 86.8029 51.9941 86.9409 54.2097 86.9426L69.1249 86.9488L117.094 86.9826L154.468 86.9437L165.169 86.9514C167.137 86.949 169.18 86.8372 171.137 87.0149C171.149 90.4568 171.217 93.9097 171.143 97.3503C171.133 99.494 171.071 101.651 171.154 103.793C171.236 106.11 171.153 108.427 171.204 110.744L171.144 110.812L164.966 110.81C161.642 110.801 158.099 110.401 155.52 112.951C154.786 113.677 154.268 114.547 153.821 115.47C153.041 117.752 153.4 120.537 153.464 122.918C153.445 128.46 153.256 134.068 153.44 139.604L153.495 139.803C153.677 140.446 154.042 141.057 154.126 141.724C154.429 144.124 154.204 147.659 154.202 150.156C154.2 152.675 154.403 155.927 154.149 158.384C154.022 159.652 153.88 167.986 154.177 168.741C154.283 170.105 154.249 171.486 154.237 172.853C154.187 178.404 153.313 182.249 150.867 187.224C150.273 188.433 148.684 190.361 148.365 191.469C147.282 192.978 146.879 194.25 146.821 196.116L146.809 199.877L111.433 199.973L111.449 197.633L111.408 192.708C111.242 192.462 111.075 192.217 110.878 191.994C110.495 191.559 110.198 191.484 109.631 191.458L109.885 191.334C109.475 190.679 108.676 190.158 108.121 189.613C107.02 188.53 105.969 187.395 105.063 186.142C102.569 182.692 101.473 178.384 100.282 174.365C99.7364 172.523 99.151 170.689 98.6536 168.834L43.4932 168.785Z" fill="#FEFEFE"/>
<path d="M120.487 115.232C120.677 115.324 120.865 115.356 120.965 115.547C121.112 116.444 121.241 121.453 120.949 122.115C120.784 122.103 120.667 122.087 120.506 122.039L120.471 121.879L120.498 120.44L120.465 118.812C120.509 117.622 120.483 116.423 120.487 115.232Z" fill="#DCDEDE"/>
<path d="M153.475 97.3658C159.358 97.474 165.258 97.3458 171.143 97.3503C171.132 99.494 171.071 101.651 171.154 103.793L166.237 103.791L165.139 103.766C163.747 103.589 162.241 103.687 160.836 103.691L153.371 103.728C153.425 101.608 153.46 99.487 153.475 97.3658Z" fill="#DCDEDE"/>
<path d="M165.139 103.766C164.751 102.881 165.076 98.9678 164.966 97.6729L165.101 97.4862C165.479 97.4631 165.811 97.4295 166.18 97.5431C166.469 99.07 166.295 102.18 166.237 103.791L165.139 103.766Z" fill="#648B99"/>
<path d="M53.956 95.0863C57.8108 95.1017 61.6657 95.0979 65.5204 95.0748L65.5326 106.145L53.9086 106.175C53.8081 102.492 53.9591 98.7737 53.956 95.0863Z" fill="#FD9C75"/>
<path d="M65.203 131.848L65.4266 131.878C65.7015 132.354 65.5357 141.921 65.5363 143.314C61.7733 143.238 57.9956 143.308 54.2312 143.308L54.1125 143.288C54.0605 143.23 53.9915 143.184 53.9568 143.115C53.8127 142.827 53.8899 133.101 53.8839 131.867C57.657 131.887 61.43 131.88 65.203 131.848Z" fill="#FD9C75"/>
<path d="M53.8459 149.54L65.5434 149.538C65.5229 153.354 65.5269 157.169 65.5554 160.985L53.8699 160.979L53.8459 149.54Z" fill="#BC333D"/>
<path d="M69.0991 133.948L90.3088 133.897C90.3317 135.8 90.0076 138.917 90.5154 140.656L90.4413 140.766C83.3025 140.735 76.1639 140.761 69.0254 140.844C69.0005 138.545 69.025 136.246 69.0991 133.948Z" fill="#DCDEDE"/>
<path d="M53.9419 112.714C57.7978 112.739 61.6536 112.743 65.5094 112.725C65.5146 114.281 65.7649 124.779 65.3786 125.316C61.5744 125.274 57.7701 125.271 53.9657 125.307C53.8365 123.671 53.8975 122.003 53.8987 120.362C53.8903 117.812 53.9047 115.263 53.9419 112.714Z" fill="#BC333D"/>
<path d="M69.0984 115.398C71.8335 115.46 74.5785 115.38 77.3151 115.365L90.2513 115.347C90.2806 117.864 90.295 120.381 90.294 122.899C87.9699 122.972 85.6204 122.902 83.2939 122.9L69.1182 122.866L69.0984 115.398Z" fill="#DCDEDE"/>
<path d="M92.8878 151.449C93.6665 153.849 94.4922 156.233 95.3651 158.601L69.2544 158.614C69.2301 156.288 69.2313 153.961 69.2581 151.635C77.1296 151.692 85.0145 151.493 92.8878 151.449Z" fill="#DCDEDE"/>
<path d="M120.438 97.3555L139.264 97.3735C142.82 97.3871 146.461 97.5773 150.008 97.3871C149.995 99.4901 150.004 101.598 149.946 103.699L133.178 103.694C128.967 103.688 124.676 103.597 120.47 103.79C120.479 101.649 120.537 99.4941 120.438 97.3555Z" fill="#DCDEDE"/>
<path d="M124.381 115.34C134.194 115.565 144.013 115.254 153.821 115.47C153.041 117.752 153.399 120.537 153.463 122.917C153.405 122.661 153.337 122.409 153.269 122.155C150.378 121.912 146.802 122.132 143.823 122.134L124.406 122.138L124.381 115.34Z" fill="#DCDEDE"/>
<path d="M93.508 115.402C98.7405 115.49 104.051 115.434 109.283 115.293C109.345 122.618 109.364 129.944 109.34 137.27C109.343 140.829 109.662 144.584 109.291 148.118C109.113 145.718 109.293 143.211 109.27 140.798C106.383 140.672 103.342 140.763 100.451 140.883C100.066 140.432 99.6355 140.03 99.1588 139.678C99.0612 139.605 98.9618 139.535 98.8606 139.467C98.7596 139.399 98.6568 139.334 98.5524 139.271C98.448 139.208 98.3422 139.148 98.235 139.091C98.1276 139.033 98.0189 138.979 97.909 138.927C97.7989 138.875 97.6876 138.825 97.5752 138.779C97.4627 138.732 97.3491 138.689 97.2344 138.648C97.1196 138.607 97.004 138.569 96.8874 138.534C96.7709 138.499 96.6536 138.467 96.5353 138.438C96.4171 138.409 96.2983 138.382 96.1788 138.359C96.0594 138.336 95.9394 138.316 95.8189 138.298C95.6983 138.281 95.5775 138.266 95.4565 138.255C95.3353 138.244 95.2137 138.235 95.0921 138.23C94.9706 138.225 94.8489 138.223 94.7273 138.223C94.6056 138.224 94.484 138.228 94.3624 138.235C94.2409 138.241 94.1196 138.251 93.9986 138.264C93.8775 138.277 93.7568 138.293 93.6365 138.312C93.7455 136.842 93.6487 135.298 93.6525 133.821C98.8495 133.847 104.046 133.817 109.242 133.731L109.244 122.975C103.99 122.98 98.7358 122.959 93.4818 122.91L93.508 115.402Z" fill="#DCDEDE"/>
<path d="M69.0979 97.4612L97.2738 97.4326L105.338 97.4457C106.616 97.4457 108.1 97.5957 109.342 97.3571C109.258 99.4723 109.324 101.587 109.285 103.703C104.712 103.6 100.1 103.759 95.5205 103.747C86.7134 103.672 77.9062 103.662 69.0988 103.717C69.0595 101.632 69.0592 99.5463 69.0979 97.4612Z" fill="#DCDEDE"/>
<path d="M113.944 92.6376C115.654 92.4443 117.17 92.559 118.575 93.6729C119.595 94.481 120.215 95.5284 120.372 96.8144L120.439 97.3554C120.538 99.494 120.479 101.649 120.47 103.79C120.472 107.603 120.438 111.419 120.488 115.232C120.483 116.423 120.509 117.622 120.465 118.812L120.498 120.44L120.472 121.879L120.506 122.039C120.377 125.421 120.324 128.98 120.491 132.359C120.887 130.885 121.277 129.684 122.646 128.82C124.12 127.889 125.973 127.883 127.627 128.245C128.974 128.664 130.202 129.325 130.908 130.609C131.701 132.05 131.455 133.566 131.579 135.123C131.967 134.443 132.388 133.948 133.04 133.507C134.466 132.541 136.137 132.166 137.835 132.464C138.909 132.508 139.566 132.967 140.389 133.616C141.853 133.569 143.33 133.662 144.796 133.665C146.561 133.669 148.357 133.59 150.119 133.681C150.119 135.094 150.096 136.513 150.135 137.926C151.319 138.29 152.323 138.897 153.338 139.597L153.44 139.604L153.494 139.803C153.677 140.446 154.042 141.057 154.126 141.724C154.428 144.124 154.203 147.659 154.202 150.156C154.2 152.675 154.403 155.927 154.149 158.384C154.022 159.652 153.88 167.986 154.177 168.741C154.282 170.105 154.249 171.486 154.236 172.853C154.187 178.404 153.312 182.249 150.866 187.224C150.272 188.433 148.684 190.361 148.365 191.469C147.282 192.978 146.878 194.25 146.82 196.116L146.808 199.877L111.432 199.973L111.449 197.633L111.408 192.708C111.241 192.462 111.074 192.217 110.878 191.994C110.495 191.559 110.198 191.484 109.63 191.458L109.884 191.334C109.475 190.679 108.676 190.158 108.121 189.613C107.019 188.53 105.969 187.395 105.063 186.142C102.569 182.692 101.473 178.384 100.281 174.365C99.736 172.523 99.1506 170.689 98.6532 168.834C98.5084 167.768 98.0743 166.623 97.7493 165.595C96.9948 163.25 96.2003 160.919 95.3653 158.601C94.4924 156.234 93.6667 153.849 92.888 151.449L92.4038 150.059C91.7472 149.049 90.0194 143.909 90.0785 142.794C90.1298 142.084 90.2192 141.446 90.4415 140.766L90.5156 140.656C90.9319 140.005 91.4284 139.546 92.0499 139.097C92.5567 138.758 93.0756 138.54 93.6366 138.312C93.7568 138.293 93.8775 138.277 93.9986 138.265C94.1196 138.252 94.2409 138.242 94.3625 138.235C94.484 138.228 94.6056 138.225 94.7273 138.224C94.8489 138.223 94.9706 138.225 95.0921 138.231C95.2138 138.236 95.3353 138.244 95.4565 138.256C95.5775 138.267 95.6984 138.281 95.819 138.299C95.9394 138.316 96.0593 138.336 96.1789 138.359C96.2983 138.383 96.4172 138.409 96.5354 138.438C96.6536 138.468 96.7709 138.5 96.8874 138.535C97.004 138.57 97.1197 138.608 97.2344 138.649C97.3491 138.689 97.4627 138.733 97.5752 138.78C97.6877 138.826 97.799 138.875 97.909 138.927C98.0189 138.979 98.1277 139.034 98.235 139.091C98.3422 139.149 98.4481 139.209 98.5525 139.272C98.6569 139.334 98.7595 139.4 98.8606 139.467C98.9619 139.535 99.0612 139.605 99.1588 139.678C99.6357 140.031 100.066 140.433 100.451 140.884C103.342 140.764 106.383 140.672 109.27 140.799C109.293 143.212 109.113 145.719 109.291 148.119C109.662 144.585 109.343 140.829 109.34 137.271C109.364 129.945 109.345 122.619 109.283 115.293L109.286 103.704C109.324 101.588 109.258 99.4729 109.342 97.3576C109.423 96.2718 109.649 95.2735 110.35 94.4046C111.234 93.3092 112.59 92.8079 113.944 92.6376Z" fill="#FD9C75"/>
<path d="M142.348 140.261C142.847 139.625 143.387 139.023 144.039 138.54C145.364 137.557 146.645 137.303 148.246 137.524C148.312 137.968 148.467 138.2 148.717 138.565L148.822 138.721C148.843 138.752 148.865 138.782 148.887 138.813C147.223 139.236 145.578 139.826 144.654 141.393C144.615 141.458 144.579 141.524 144.541 141.59C144.474 143.672 144.756 148.172 144.356 149.91C143.765 150.247 142.873 150.04 142.225 149.951C142.163 148.23 141.948 141.487 142.348 140.261Z" fill="#FD4F5A"/>
<path d="M140.389 133.616C141.853 133.568 143.329 133.662 144.796 133.665C146.561 133.669 148.357 133.59 150.118 133.68C150.119 135.094 150.096 136.513 150.134 137.926C149.521 137.734 148.878 137.641 148.246 137.524C146.645 137.303 145.364 137.557 144.039 138.54C143.387 139.023 142.847 139.626 142.348 140.261C141.893 137.29 142.971 136.165 140.389 133.616Z" fill="#DCDEDE"/>
<path d="M131.579 135.123C131.967 134.443 132.387 133.948 133.039 133.507C134.466 132.541 136.137 132.166 137.835 132.464C137.866 132.486 137.897 132.509 137.929 132.531C138.396 132.85 138.872 132.962 139.411 133.099L139.366 133.234C137.219 133.926 135.324 133.578 134.127 135.922C133.865 136.436 133.709 136.984 133.632 137.555C133.467 138.77 133.568 140.084 133.573 141.31L133.588 147.823C132.844 147.805 132.094 147.805 131.354 147.738C131.298 145.761 131.041 136.376 131.579 135.123Z" fill="#FD4F5A"/>
<path d="M112.008 97.1351C112.341 96.0601 112.699 95.1785 113.735 94.5918C114.607 94.098 115.713 94.0394 116.662 94.3236C116.783 94.3595 116.902 94.4015 117.019 94.4495C117.136 94.4974 117.25 94.5513 117.362 94.6108C117.473 94.6704 117.581 94.7355 117.686 94.806C117.791 94.8765 117.892 94.9522 117.989 95.0331C118.086 95.1138 118.179 95.1993 118.268 95.2895C118.356 95.3797 118.44 95.4741 118.519 95.5729C118.598 95.6717 118.672 95.7742 118.74 95.8804C118.808 95.9865 118.871 96.0959 118.929 96.2085C119.42 97.1853 119.385 98.3173 119.004 99.3248C118.963 99.4341 118.917 99.5411 118.866 99.6458C118.814 99.7506 118.758 99.8524 118.696 99.9517C118.635 100.051 118.569 100.147 118.498 100.24C118.427 100.332 118.352 100.421 118.272 100.506C118.192 100.592 118.109 100.673 118.021 100.75C117.934 100.827 117.842 100.9 117.748 100.968C117.653 101.036 117.555 101.1 117.454 101.158C117.354 101.217 117.25 101.27 117.144 101.319C116.2 101.74 115.051 101.76 114.092 101.381C113.984 101.339 113.879 101.292 113.776 101.239C113.673 101.186 113.573 101.128 113.477 101.065C113.38 101.002 113.286 100.934 113.196 100.862C113.106 100.79 113.019 100.713 112.937 100.632C112.854 100.551 112.776 100.467 112.702 100.378C112.628 100.289 112.559 100.197 112.494 100.101C112.429 100.005 112.369 99.9066 112.315 99.8049C112.26 99.7032 112.21 99.599 112.166 99.4923C112.059 99.2359 111.984 98.9672 111.911 98.6992C111.893 98.1781 111.962 97.654 112.008 97.1351Z" fill="#DCDEDE"/>
<path d="M120.491 132.359C120.887 130.885 121.277 129.684 122.646 128.82C124.12 127.889 125.973 127.883 127.627 128.245C127.592 128.289 127.558 128.334 127.521 128.376C127.148 128.808 124.738 129.539 123.63 130.755C123.144 131.288 122.93 132.01 122.807 132.707C122.543 134.205 122.711 135.933 122.723 137.451L122.817 146.541L120.471 146.565C120.452 143.094 120.456 139.623 120.482 136.152C120.489 135.003 120.724 133.458 120.491 132.359Z" fill="#FD4F5A"/>
<path d="M90.0784 142.794C90.7562 141.862 91.3717 141.288 92.575 141.13C94.2452 140.911 96.2511 141.636 97.5387 142.696C97.6045 142.749 97.6688 142.804 97.7318 142.86C97.7949 142.917 97.8564 142.975 97.9162 143.035C97.9762 143.094 98.0347 143.155 98.0916 143.218C98.1486 143.28 98.2039 143.344 98.2577 143.41C98.3112 143.475 98.3631 143.542 98.4136 143.61C98.4639 143.678 98.5125 143.747 98.5591 143.817C98.606 143.888 98.651 143.96 98.694 144.032C98.7372 144.105 98.7786 144.179 98.8179 144.254C98.8573 144.328 98.8949 144.404 98.9304 144.481C98.9659 144.558 98.9994 144.635 99.031 144.714C99.0627 144.792 99.0923 144.871 99.1199 144.951C99.1476 145.031 99.1731 145.112 99.1966 145.193C99.2201 145.274 99.2415 145.356 99.261 145.439C99.2804 145.521 99.2976 145.604 99.3127 145.687C99.328 145.77 99.341 145.854 99.3518 145.937C99.3628 146.021 99.3716 146.105 99.3783 146.19C99.47 147.493 98.9987 148.768 98.1374 149.742C97.4146 150.56 96.3729 151.269 95.2471 151.292C94.1513 151.314 93.3067 150.698 92.5305 150L92.4037 150.058C91.7471 149.049 90.0193 143.909 90.0784 142.794Z" fill="#DCDEDE"/>
<path d="M111.562 196.115C123.307 195.834 135.073 196.1 146.82 196.116L146.808 199.877L111.432 199.973L111.449 197.633C111.578 197.151 111.55 196.613 111.562 196.115Z" fill="#FD4F5A"/>
<path d="M109.342 97.3571C109.423 96.2713 109.649 95.273 110.35 94.4041C111.234 93.3093 112.59 92.8081 113.944 92.6377L114.198 92.7585C114.064 92.9663 113.924 93.0665 113.732 93.2146C112.796 93.9361 112.09 94.9732 111.938 96.1597C111.918 96.323 111.914 96.4868 111.925 96.6509C111.937 96.815 111.965 96.9764 112.008 97.1352C111.962 97.654 111.892 98.178 111.911 98.6992C111.529 100.543 111.766 103.901 111.76 105.909L111.771 122.911L111.675 150.431C111.652 155.719 111.483 161.085 111.746 166.364L109.477 166.403C108.413 163.777 107.301 161.171 106.143 158.584C105.088 156.282 103.936 154.02 102.993 151.668C102.355 150.04 101.769 148.393 101.233 146.729C100.768 145.295 100.374 143.768 99.6323 142.449C99.0596 141.43 98.3004 140.634 97.2038 140.195C95.7451 139.61 93.032 139.726 92.0494 139.097C92.5563 138.758 93.0752 138.539 93.6361 138.312C93.7564 138.293 93.8771 138.277 93.9982 138.264C94.1192 138.251 94.2405 138.242 94.362 138.235C94.4836 138.228 94.6052 138.224 94.7269 138.223C94.8485 138.223 94.9702 138.225 95.0917 138.23C95.2133 138.236 95.3349 138.244 95.4561 138.255C95.5771 138.266 95.6979 138.281 95.8185 138.298C95.939 138.316 96.0589 138.336 96.1784 138.359C96.2979 138.382 96.4168 138.409 96.5349 138.438C96.6532 138.467 96.7705 138.499 96.887 138.534C97.0036 138.57 97.1192 138.607 97.234 138.648C97.3487 138.689 97.4622 138.733 97.5747 138.779C97.6872 138.826 97.7986 138.875 97.9086 138.927C98.0185 138.979 98.1273 139.034 98.2346 139.091C98.3418 139.148 98.4476 139.208 98.552 139.271C98.6564 139.334 98.7591 139.399 98.8602 139.467C98.9614 139.535 99.0608 139.605 99.1584 139.678C99.6353 140.03 100.066 140.432 100.451 140.883C103.342 140.763 106.383 140.672 109.269 140.798C109.292 143.212 109.112 145.718 109.29 148.119C109.662 144.584 109.343 140.829 109.339 137.27C109.363 129.944 109.344 122.618 109.282 115.293L109.285 103.703C109.324 101.587 109.258 99.4724 109.342 97.3571Z" fill="#FD4F5A"/>
<path d="M105.289 151.527C106.621 151.43 107.972 151.473 109.307 151.471C109.31 152.427 109.476 157.474 109.194 157.945L108.95 157.99L108.946 158.049L109.131 158.135C109.135 158.196 109.13 158.258 109.143 158.318C109.154 158.366 109.185 158.406 109.202 158.452C109.298 158.715 109.28 158.985 109.28 159.261L109.169 159.424C108.549 159.056 105.73 152.535 105.289 151.527Z" fill="#DCDEDE"/>
<path d="M100.451 140.883C103.342 140.763 106.383 140.672 109.27 140.798C109.293 143.212 109.113 145.718 109.291 148.119L109.307 151.471C107.972 151.473 106.62 151.43 105.289 151.527C103.773 148.155 102.408 143.971 100.451 140.883Z" fill="#FEFEFE"/>
</g>
<defs>
<clipPath id="clip0_680_101950">
<rect width="244" height="244" fill="white"/>
</clipPath>
</defs>
</svg>
