<svg width="66" height="65" viewBox="0 0 66 65" fill="none" xmlns="http://www.w3.org/2000/svg">
<path d="M37.4518 31.2338C36.893 31.0951 36.3344 30.9842 35.7768 30.8994C36.7296 29.9559 37.3415 28.5062 37.3415 26.8822C37.3415 24.2795 35.7098 22.5977 33.1847 22.5977C30.6596 22.5977 29.0279 24.2794 29.0279 26.8822C29.0279 28.5031 29.6374 29.9503 30.587 30.8939C30.0247 30.9799 29.4651 31.093 28.9092 31.2359C26.5447 31.8438 25.1885 33.2324 25.1885 35.0457V41.3867C25.1885 41.9476 25.6433 42.4023 26.2042 42.4023H40.1652C40.7261 42.4023 41.1808 41.9476 41.1808 41.3867V35.0455C41.1807 33.2111 39.8217 31.8217 37.4518 31.2338ZM33.1847 24.6289C34.5951 24.6289 35.3103 25.3871 35.3103 26.8822C35.3103 28.5697 34.3369 29.9952 33.1847 29.9952C32.0325 29.9952 31.0591 28.5697 31.0591 26.8822C31.0591 25.3871 31.7742 24.6289 33.1847 24.6289ZM39.1495 40.3711H38.0088V36.5033C38.0088 35.9425 37.554 35.4877 36.9932 35.4877C36.4323 35.4877 35.9775 35.9425 35.9775 36.5033V40.3711H30.3917V36.5033C30.3917 35.9425 29.937 35.4877 29.3761 35.4877C28.8152 35.4877 28.3605 35.9425 28.3605 36.5033V40.3711H27.2198V35.0455C27.2198 33.9892 28.4134 33.4605 29.4149 33.2031C31.8716 32.5712 34.4111 32.5721 36.9628 33.2052C37.7796 33.4078 39.1496 33.9163 39.1496 35.0455L39.1495 40.3711ZM33.1847 16.4953C36.26 16.4953 38.7619 13.9933 38.7619 10.9181C38.7619 7.84291 36.26 5.34092 33.1847 5.34092C30.1094 5.34092 27.6074 7.84278 27.6074 10.918C27.6074 13.9932 30.1094 16.4953 33.1847 16.4953ZM33.1847 7.37204C35.1399 7.37204 36.7306 8.96276 36.7306 10.918C36.7306 12.8732 35.14 14.4639 33.1847 14.4639C31.2294 14.4639 29.6386 12.8733 29.6386 10.918C29.6386 8.96264 31.2295 7.37204 33.1847 7.37204ZM33.1847 48.5047C30.1094 48.5047 27.6074 51.0067 27.6074 54.0819C27.6074 57.1571 30.1094 59.6591 33.1847 59.6591C36.26 59.6591 38.7619 57.1571 38.7619 54.0819C38.7619 51.0067 36.26 48.5047 33.1847 48.5047ZM33.1847 57.628C31.2295 57.628 29.6386 56.0372 29.6386 54.082C29.6386 52.1268 31.2294 50.5361 33.1847 50.5361C35.14 50.5361 36.7306 52.1268 36.7306 54.082C36.7306 56.0372 35.1399 57.628 33.1847 57.628ZM15.0748 31.1973L11.788 34.9149C11.595 35.1331 11.318 35.2578 11.0272 35.2578C11.0226 35.2578 11.018 35.2578 11.0135 35.2577C10.7177 35.2537 10.4382 35.1208 10.2484 34.894L8.7033 33.0477C8.34326 32.6176 8.40014 31.977 8.83038 31.6169C9.26024 31.2571 9.9011 31.3137 10.261 31.744L11.0485 32.685L13.5532 29.852C13.9249 29.4318 14.5668 29.3923 14.9867 29.7639C15.4069 30.1354 15.4463 30.7771 15.0748 31.1973ZM54.7666 25.181C54.7001 25.181 54.6343 25.1843 54.568 25.1861C53.5627 22.2527 51.9366 19.5122 49.8304 17.2192C47.9214 15.1407 45.6112 13.4222 43.0821 12.1847C43.0835 12.1633 43.087 12.1424 43.087 12.1207V9.71534C43.087 9.29513 42.8283 8.91846 42.4363 8.76751L41.4436 8.38538C41.283 7.86119 41.0729 7.35401 40.8152 6.86943L41.2472 5.89672C41.4177 5.51281 41.3343 5.0634 41.0371 4.76633L39.3363 3.06554C39.0393 2.76834 38.5902 2.68493 38.2061 2.85543L37.2328 3.2877C36.7483 3.03012 36.2413 2.81988 35.7174 2.65941L35.3351 1.66639C35.1842 1.27436 34.8074 1.01562 34.3873 1.01562H31.9821C31.5618 1.01562 31.1852 1.27436 31.0342 1.66639L30.652 2.65941C30.128 2.81988 29.6212 3.02999 29.1367 3.2877L28.1633 2.85543C27.7793 2.6848 27.33 2.76834 27.0329 3.06554L25.3323 4.76633C25.0352 5.0634 24.9518 5.51269 25.1223 5.89672L25.5544 6.86969C25.2967 7.35427 25.0865 7.86119 24.926 8.38525L23.9332 8.76738C23.5412 8.9182 23.2825 9.295 23.2825 9.71521V12.1206C23.2825 12.1421 23.286 12.1629 23.2873 12.1841C20.7816 13.4101 18.4896 15.1087 16.5917 17.1606C14.4889 19.434 12.8578 22.1537 11.8413 25.0658C7.83177 25.0966 4.5791 28.3667 4.5791 32.3833C4.5791 36.3735 7.78911 39.6259 11.7622 39.699C12.7601 42.663 14.3907 45.4331 16.5108 47.75C18.4256 49.8426 20.7456 51.5715 23.2873 52.8152C23.2859 52.8366 23.2823 52.8574 23.2823 52.8792V55.2845C23.2823 55.7047 23.5411 56.0814 23.9331 56.2324L24.9258 56.6145C25.0863 57.1387 25.2965 57.6459 25.5542 58.1304L25.1221 59.1032C24.9516 59.4871 25.0351 59.9365 25.3323 60.2335L27.033 61.9343C27.3301 62.2314 27.7792 62.3151 28.1633 62.1444L29.1365 61.7122C29.6211 61.9699 30.1279 62.18 30.6518 62.3405L31.0341 63.3335C31.1849 63.7256 31.5617 63.9842 31.9819 63.9842H34.3873C34.8075 63.9842 35.1842 63.7255 35.3351 63.3335L35.7173 62.3408C36.2416 62.1802 36.7485 61.9701 37.2331 61.7124L38.2058 62.1444C38.59 62.3151 39.039 62.2315 39.3362 61.9345L41.037 60.2337C41.3341 59.9366 41.4175 59.4873 41.247 59.1033L40.8147 58.1301C41.0723 57.6456 41.2825 57.1387 41.443 56.6147L42.436 56.2325C42.828 56.0817 43.0868 55.7049 43.0868 55.2847V52.8794C43.0868 52.8577 43.0832 52.8369 43.0818 52.8154C45.611 51.5779 47.9212 49.8594 49.8301 47.781C51.9363 45.4879 53.5624 42.7474 54.5678 39.814C54.6339 39.8158 54.6998 39.8191 54.7663 39.8191C58.8022 39.8191 62.0854 36.5357 62.0854 32.5C62.0854 28.4643 58.8024 25.181 54.7666 25.181ZM25.3136 10.4127L26.1354 10.0965C26.4479 9.97623 26.681 9.7095 26.7584 9.38374C26.9202 8.70403 27.1886 8.05683 27.556 7.46027C27.7317 7.17501 27.7553 6.82157 27.6194 6.51549L27.2617 5.70972L27.9763 4.9951L28.7822 5.35298C29.088 5.48869 29.4415 5.46521 29.7269 5.2895C30.3237 4.92197 30.9709 4.65372 31.6502 4.49211C31.976 4.41454 32.2427 4.18146 32.3629 3.8689L32.6793 3.04688H33.6898L34.0062 3.86877C34.1264 4.18133 34.3932 4.41441 34.7189 4.49198C35.3984 4.65359 36.0454 4.92197 36.6424 5.2895C36.9278 5.46508 37.2812 5.48856 37.587 5.35285L38.3929 4.99497L39.1076 5.70959L38.7499 6.51498C38.6141 6.82106 38.6377 7.1745 38.8134 7.45977C39.1808 8.05645 39.4492 8.70378 39.6108 9.38374C39.6884 9.7095 39.9215 9.97623 40.234 10.0965L41.0557 10.4127V11.4232L40.2336 11.7396C39.9211 11.8598 39.688 12.1266 39.6105 12.4523C39.4488 13.1319 39.1804 13.779 38.813 14.3757C38.6375 14.6609 38.6138 15.0144 38.7497 15.3204L39.1076 16.1262L38.3929 16.8408L37.5876 16.4832C37.2817 16.3472 36.928 16.3709 36.6428 16.5466C36.0462 16.9141 35.3987 17.1823 34.7188 17.3442C34.3932 17.4218 34.1264 17.6549 34.0062 17.9674L33.69 18.7891H32.6793L32.3629 17.9672C32.2427 17.6546 31.9761 17.4215 31.6503 17.344C30.9706 17.1822 30.3235 16.9138 29.727 16.5464C29.4416 16.3707 29.088 16.3471 28.7822 16.4831L27.9763 16.841L27.2617 16.1263L27.6193 15.321C27.7552 15.0149 27.7315 14.6614 27.5558 14.3762C27.1884 13.7795 26.9201 13.1322 26.7584 12.4522C26.6809 12.1264 26.4478 11.8597 26.1352 11.7395L25.3136 11.4232V10.4127ZM6.61022 32.3835C6.61022 29.4677 8.98247 27.0957 11.8981 27.0957C14.8137 27.0957 17.1858 29.4679 17.1858 32.3835C17.1858 35.2991 14.8137 37.6713 11.8981 37.6713C8.98247 37.6713 6.61022 35.2992 6.61022 32.3835ZM41.0558 54.5873L40.2338 54.9037C39.9212 55.0239 39.6881 55.2906 39.6107 55.6164C39.4489 56.296 39.1806 56.943 38.8132 57.5397C38.6376 57.825 38.614 58.1784 38.7498 58.4845L39.1077 59.2903L38.3931 60.0049L37.5877 59.6473C37.2818 59.5113 36.9282 59.5349 36.643 59.7106C36.0463 60.078 35.3989 60.3464 34.7189 60.5083C34.3933 60.5858 34.1266 60.8189 34.0063 61.1315L33.69 61.9531H32.6793L32.3629 61.1312C32.2427 60.8187 31.976 60.5856 31.6502 60.508C30.9708 60.3464 30.3237 60.078 29.7269 59.7106C29.4415 59.535 29.088 59.5114 28.7822 59.6471L27.9763 60.005L27.2617 59.2904L27.6193 58.485C27.7552 58.1789 27.7315 57.8255 27.5558 57.5402C27.1884 56.9436 26.9201 56.2963 26.7583 55.6163C26.6809 55.2905 26.4478 55.0238 26.1352 54.9035L25.3136 54.5873V53.5766L26.1354 53.2603C26.4479 53.1399 26.681 52.8733 26.7584 52.5475C26.9202 51.8677 27.1886 51.2205 27.556 50.6241C27.7317 50.3388 27.7553 49.9854 27.6194 49.6793L27.2617 48.8737L27.9763 48.159L28.7822 48.5169C29.088 48.6526 29.4416 48.6291 29.727 48.4534C30.3235 48.086 30.9706 47.8178 31.6503 47.6559C31.9761 47.5783 32.2427 47.3453 32.3629 47.0327L32.6793 46.2108H33.6898L34.0062 47.0327C34.1264 47.3453 34.393 47.5783 34.7188 47.6559C35.3985 47.8177 36.0457 48.086 36.6424 48.4534C36.9278 48.6293 37.2812 48.6528 37.587 48.5168L38.3929 48.1589L39.1076 48.8735L38.7499 49.6789C38.6141 49.985 38.6377 50.3384 38.8134 50.6237C39.1808 51.2204 39.4492 51.8677 39.6108 52.5477C39.6884 52.8734 39.9215 53.1402 40.234 53.2604L41.0557 53.5766V54.5873H41.0558ZM41.3826 51.3659C41.2306 50.9069 41.0426 50.4611 40.8152 50.0335L41.2472 49.0608C41.4177 48.6769 41.3343 48.2275 41.0372 47.9304L39.3365 46.2296C39.0393 45.9325 38.5902 45.8489 38.2061 46.0196L37.2328 46.4519C36.7484 46.1943 36.2413 45.9841 35.7174 45.8236L35.3351 44.8306C35.1843 44.4384 34.8075 44.1798 34.3873 44.1798H31.9821C31.5618 44.1798 31.1852 44.4385 31.0342 44.8306L30.652 45.8236C30.1279 45.9842 29.6212 46.1942 29.1367 46.4519L28.1633 46.0196C27.7794 45.8491 27.33 45.9325 27.0329 46.2297L25.3323 47.9306C25.0352 48.2277 24.9518 48.677 25.1223 49.061L25.5544 50.034C25.3269 50.4616 25.1389 50.9073 24.9869 51.3662C19.814 49.1113 15.728 44.7379 13.8227 39.4442C16.9275 38.5969 19.2172 35.7534 19.2172 32.3837C19.2172 29.0415 16.9645 26.2175 13.8985 25.3448C15.8344 20.1504 19.8918 15.8557 24.9869 13.6341C25.1389 14.0931 25.3269 14.5391 25.5544 14.9668L25.1224 15.9395C24.9519 16.3234 25.0353 16.7728 25.3324 17.0699L27.0332 18.7707C27.3304 19.0677 27.7794 19.1515 28.1636 18.9806L29.1368 18.5485C29.6212 18.8061 30.128 19.0162 30.6521 19.1768L31.0344 20.1698C31.1852 20.562 31.562 20.8206 31.9822 20.8206H34.3876C34.8078 20.8206 35.1845 20.5618 35.3354 20.1698L35.7175 19.1772C36.2418 19.0166 36.7488 18.8065 37.2333 18.5487L38.2061 18.9808C38.5897 19.1514 39.0394 19.068 39.3365 18.7708L41.0372 17.0699C41.3343 16.7728 41.4177 16.3235 41.2472 15.9395L40.815 14.9663C41.0423 14.5387 41.2303 14.0929 41.3823 13.6343C46.5433 15.8842 50.6278 20.2497 52.5368 25.5298C49.5884 26.4752 47.4477 29.242 47.4477 32.5003C47.4477 35.7585 49.5884 38.5253 52.5368 39.4707C50.6277 44.7505 46.5433 49.1159 41.3826 51.3659ZM54.7666 37.7879C51.8509 37.7879 49.4789 35.4157 49.4789 32.5C49.4789 29.5843 51.851 27.2123 54.7666 27.2123C57.6822 27.2123 60.0544 29.5844 60.0544 32.5C60.0544 35.4156 57.6823 37.7879 54.7666 37.7879ZM57.9433 31.314L54.6565 35.0314C54.4636 35.2497 54.1865 35.3743 53.8957 35.3743C53.8911 35.3743 53.8866 35.3743 53.882 35.3742C53.5861 35.3702 53.3068 35.2374 53.1168 35.0105L51.5719 33.1642C51.2119 32.7341 51.2688 32.0935 51.699 31.7336C52.129 31.3739 52.7696 31.4304 53.1297 31.8607L53.917 32.8015L56.4217 29.9687C56.7933 29.5485 57.4351 29.509 57.8552 29.8806C58.2756 30.2519 58.3149 30.8938 57.9433 31.314Z" fill="url(#paint0_linear_668_237)"/>
<defs>
<linearGradient id="paint0_linear_668_237" x1="15.3917" y1="50.293" x2="50.9777" y2="14.707" gradientUnits="userSpaceOnUse">
<stop stop-color="#1E1E1E"/>
<stop offset="1" stop-color="#E92E29"/>
</linearGradient>
</defs>
</svg>
