<svg width="66" height="65" viewBox="0 0 66 65" fill="none" xmlns="http://www.w3.org/2000/svg">
<path fill-rule="evenodd" clip-rule="evenodd" d="M15.0448 10.2336C18.2725 11.5241 20.6336 14.5191 21.0169 18.1054C21.0476 18.393 20.9547 18.6802 20.7613 18.8953C20.5678 19.1104 20.2923 19.2333 20.003 19.2333H2.97464C2.68533 19.2333 2.40952 19.1103 2.21618 18.8952C2.02284 18.6799 1.93005 18.3925 1.96089 18.1049C2.34605 14.5186 4.70785 11.5237 7.93478 10.2335C6.83526 9.25237 6.14129 7.82542 6.14129 6.24184C6.14129 3.29594 8.54297 0.89209 11.4889 0.89209C14.4375 0.89209 16.8386 3.29607 16.8386 6.24184C16.8386 7.82542 16.1447 9.25249 15.0448 10.2336ZM11.4889 11.5916C7.99443 11.5916 5.05477 13.9684 4.19753 17.1941H18.7807C17.9251 13.9684 14.985 11.5916 11.4889 11.5916ZM11.4889 9.55238C13.3135 9.55238 14.7994 8.06478 14.7994 6.24184C14.7994 4.41891 13.3135 2.93131 11.4889 2.93131C9.66607 2.93131 8.1805 4.41904 8.1805 6.24184C8.1805 8.06465 9.66607 9.55238 11.4889 9.55238ZM15.0448 55.1081C18.2725 56.3985 20.6336 59.3936 21.0169 62.9798C21.0476 63.2675 20.9547 63.5546 20.7613 63.7698C20.5678 63.9849 20.2923 64.1078 20.003 64.1078H2.97464C2.68533 64.1078 2.40952 63.9848 2.21618 63.7695C2.02284 63.5543 1.93005 63.267 1.96089 62.9793C2.34605 59.393 4.70785 56.3981 7.93478 55.108C6.83526 54.1268 6.14129 52.6999 6.14129 51.1163C6.14129 48.1704 8.54297 45.7666 11.4889 45.7666C14.4375 45.7666 16.8386 48.1705 16.8386 51.1163C16.8386 52.6999 16.1447 54.127 15.0448 55.1081ZM11.4889 56.4661C7.99443 56.4661 5.05477 58.8429 4.19753 62.0686H18.7807C17.9251 58.8429 14.985 56.4661 11.4889 56.4661ZM11.4889 54.4269C13.3135 54.4269 14.7994 52.9392 14.7994 51.1163C14.7994 49.2934 13.3135 47.8058 11.4889 47.8058C9.66607 47.8058 8.1805 49.2935 8.1805 51.1163C8.1805 52.939 9.66607 54.4269 11.4889 54.4269ZM58.0662 10.2336C61.2939 11.5241 63.6551 14.5191 64.0382 18.1054C64.069 18.393 63.9761 18.6802 63.7827 18.8953C63.5893 19.1104 63.3136 19.2333 63.0244 19.2333H45.9961C45.7068 19.2333 45.431 19.1103 45.2376 18.8952C45.0443 18.6799 44.9514 18.3925 44.9824 18.1049C45.3675 14.5186 47.7292 11.5237 50.9562 10.2335C49.8567 9.25237 49.1628 7.82542 49.1628 6.24184C49.1628 3.29594 51.5643 0.89209 54.5102 0.89209C57.4588 0.89209 59.86 3.29607 59.86 6.24184C59.86 7.82542 59.166 9.25249 58.0662 10.2336ZM54.5102 11.5916C51.0159 11.5916 48.0762 13.9684 47.219 17.1941H61.8022C60.9465 13.9684 58.0064 11.5916 54.5102 11.5916ZM54.5102 9.55238C56.3349 9.55238 57.8208 8.06478 57.8208 6.24184C57.8208 4.41891 56.3349 2.93131 54.5102 2.93131C52.6875 2.93131 51.202 4.41904 51.202 6.24184C51.202 8.06465 52.6875 9.55238 54.5102 9.55238ZM58.0662 55.1081C61.2939 56.3985 63.6551 59.3936 64.0382 62.9798C64.069 63.2675 63.9761 63.5546 63.7827 63.7698C63.5893 63.9849 63.3136 64.1078 63.0244 64.1078H45.9961C45.7068 64.1078 45.431 63.9848 45.2376 63.7695C45.0443 63.5543 44.9514 63.267 44.9824 62.9793C45.3675 59.393 47.7292 56.3981 50.9562 55.108C49.8567 54.1268 49.1628 52.6999 49.1628 51.1163C49.1628 48.1704 51.5643 45.7666 54.5102 45.7666C57.4588 45.7666 59.86 48.1705 59.86 51.1163C59.86 52.6999 59.166 54.127 58.0662 55.1081ZM54.5102 56.4661C51.0159 56.4661 48.0762 58.8429 47.219 62.0686H61.8022C60.9465 58.8429 58.0064 56.4661 54.5102 56.4661ZM54.5102 54.4269C56.3349 54.4269 57.8208 52.9392 57.8208 51.1163C57.8208 49.2934 56.3349 47.8058 54.5102 47.8058C52.6875 47.8058 51.202 49.2935 51.202 51.1163C51.202 52.939 52.6875 54.4269 54.5102 54.4269ZM11.4912 43.096C11.4912 43.6586 11.0343 44.1156 10.4716 44.1156C9.90887 44.1156 9.45195 43.6586 9.45195 43.096V22.1148C9.45195 21.552 9.90887 21.0952 10.4716 21.0952C11.0343 21.0952 11.4912 21.552 11.4912 22.1148V43.096ZM43.5696 57.3065C44.1324 57.3065 44.5892 57.7634 44.5892 58.3261C44.5892 58.8889 44.1324 59.3457 43.5696 59.3457H22.2893C21.7266 59.3457 21.2697 58.8889 21.2697 58.3261C21.2697 57.7634 21.7266 57.3065 22.2893 57.3065H43.5696ZM54.5079 22.1338C54.5079 21.571 54.9648 21.1142 55.5275 21.1142C56.0902 21.1142 56.5471 21.571 56.5471 22.1338V43.096C56.5471 43.6586 56.0902 44.1156 55.5275 44.1156C54.9648 44.1156 54.5079 43.6586 54.5079 43.096V22.1338ZM22.2893 11.6134C21.7266 11.6134 21.2697 11.1565 21.2697 10.5938C21.2697 10.0311 21.7266 9.57418 22.2893 9.57418H43.5696C44.1324 9.57418 44.5892 10.0311 44.5892 10.5938C44.5892 11.1565 44.1324 11.6134 43.5696 11.6134H22.2893ZM32.9995 18.4961C41.8142 18.4961 48.9634 25.6454 48.9634 34.46C48.9634 43.2746 41.8142 50.4237 32.9995 50.4237C24.1849 50.4237 17.0357 43.2746 17.0357 34.46C17.0357 25.6454 24.1849 18.4961 32.9995 18.4961ZM22.4272 25.3987C20.5448 27.5931 19.3334 30.3798 19.1117 33.4404H23.252C23.3825 30.9839 23.9965 28.6523 25.0003 26.5396C24.0883 26.2193 23.2246 25.839 22.4272 25.3987ZM28.8704 21.1581C27.0336 21.7279 25.3594 22.6679 23.935 23.8906C24.5791 24.2133 25.2652 24.4956 25.983 24.7375C26.7952 23.427 27.7668 22.2246 28.8704 21.1581ZM42.0656 23.892C40.6421 22.6695 38.969 21.7297 37.1332 21.1595C38.2359 22.2256 39.2069 23.4275 40.0192 24.7375C40.7362 24.4959 41.4219 24.2141 42.0656 23.892ZM46.8874 33.4404C46.6659 30.3806 45.4549 27.5945 43.5733 25.4005C42.7764 25.8399 41.9133 26.2195 41.0022 26.5394C42.0066 28.6522 42.6215 30.9838 42.7522 33.4404H46.8874ZM43.5703 43.5229C45.4537 41.3283 46.6657 38.541 46.8874 35.4796H42.7493C42.6139 37.9109 42.0102 40.2491 40.9998 42.3849C41.9108 42.7044 42.7735 43.0838 43.5703 43.5229ZM37.1481 47.7558C38.9764 47.1857 40.643 46.2487 42.062 45.0312C41.4196 44.7101 40.7356 44.429 40.0203 44.188C39.2194 45.4846 38.2565 46.6837 37.1481 47.7558ZM23.9387 45.0324C25.3585 46.2504 27.0262 47.1874 28.8555 47.7572C27.7461 46.6847 26.7827 45.4851 25.9817 44.188C25.2658 44.4292 24.5814 44.7108 23.9387 45.0324ZM19.1117 35.4796C19.3335 38.5417 20.5461 41.3297 22.4303 43.5246C23.2274 43.0847 24.0908 42.7048 25.0026 42.3848C23.9928 40.2491 23.3901 37.9109 23.2549 35.4796H19.1117ZM26.9839 27.1247C26.0234 29.0479 25.4295 31.1839 25.2945 33.4404H31.9799V27.8036C30.2717 27.7391 28.5795 27.5129 26.9839 27.1247ZM31.9799 21.1944C30.443 22.326 29.109 23.7181 28.0437 25.3046C29.312 25.5811 30.6399 25.7475 31.9799 25.8034V21.1944ZM37.9582 25.3043C36.8918 23.7165 35.5565 22.3236 34.0191 21.1915V25.8035C35.3601 25.7476 36.6889 25.5811 37.9582 25.3043ZM40.7097 33.4404C40.5745 31.1837 39.9797 29.0477 39.0185 27.1244C37.4216 27.5129 35.7283 27.7393 34.0191 27.8036V33.4404H40.7097ZM39.0159 41.7999C39.983 39.855 40.5667 37.7124 40.7065 35.4796H34.0191V41.1214C35.7274 41.1857 37.4197 41.4118 39.0159 41.7999ZM34.0191 47.7343C35.5814 46.5861 36.9081 45.1915 37.9594 43.6211C36.6898 43.344 35.3604 43.1775 34.0191 43.1216V47.7343ZM28.0426 43.6208C29.0928 45.19 30.4182 46.5837 31.9799 47.7313V43.1216C30.6394 43.1775 29.3111 43.344 28.0426 43.6208ZM25.2977 35.4796C25.4372 37.7123 26.0201 39.8549 26.9865 41.7997C28.5815 41.4119 30.2727 41.1858 31.9799 41.1215V35.4796H25.2977Z" fill="url(#paint0_linear_668_777)"/>
<defs>
<linearGradient id="paint0_linear_668_777" x1="0.86558" y1="64.9999" x2="65.4998" y2="0.000235027" gradientUnits="userSpaceOnUse">
<stop stop-color="#1E1E1E"/>
<stop offset="1" stop-color="#E92E29"/>
</linearGradient>
</defs>
</svg>
