<svg width="66" height="65" viewBox="0 0 66 65" fill="none" xmlns="http://www.w3.org/2000/svg">
<path fill-rule="evenodd" clip-rule="evenodd" d="M32.7505 16.57C41.0665 16.57 47.8063 23.3098 47.8063 31.6257C47.8063 39.9417 41.0665 46.6815 32.7505 46.6815C24.4346 46.6815 17.6948 39.9417 17.6948 31.6257C17.6948 23.3098 24.4346 16.57 32.7505 16.57ZM43.0775 39.5512C44.7643 37.3563 45.7671 34.6082 45.7671 31.6257C45.7671 24.4361 39.9402 18.6092 32.7505 18.6092C25.5609 18.6092 19.734 24.4361 19.734 31.6257C19.734 34.6082 20.7368 37.3563 22.4236 39.5512C23.4208 36.3609 25.8547 33.805 28.9668 32.6419C27.63 31.5437 26.774 29.8792 26.774 28.0237C26.774 24.7356 29.4624 22.0472 32.7505 22.0472C36.0387 22.0472 38.7271 24.7356 38.7271 28.0237C38.7271 29.8792 37.8711 31.5437 36.5343 32.6419C39.6464 33.805 42.0803 36.3609 43.0775 39.5512ZM24.089 41.3429C26.3899 43.3952 29.4243 44.6423 32.7505 44.6423C36.0768 44.6423 39.1112 43.3952 41.4121 41.3429C40.7255 37.1779 37.1078 34.0004 32.7505 34.0004C28.3933 34.0004 24.7756 37.1779 24.089 41.3429ZM32.7505 31.9612C34.9168 31.9612 36.6879 30.19 36.6879 28.0237C36.6879 25.8576 34.9168 24.0864 32.7505 24.0864C30.5843 24.0864 28.8132 25.8576 28.8132 28.0237C28.8132 30.19 30.5843 31.9612 32.7505 31.9612ZM53.8001 31.6257C53.8001 31.0631 54.257 30.6061 54.8197 30.6061C55.3825 30.6061 55.8393 31.0631 55.8393 31.6257C55.8393 44.3688 45.4936 54.7145 32.7505 54.7145C20.0075 54.7145 9.66178 44.3688 9.66178 31.6257C9.66178 18.8827 20.0075 8.53698 32.7505 8.53698C40.5386 8.53698 47.4312 12.4008 51.6138 18.315C51.9387 18.7745 51.8295 19.4112 51.37 19.7362C50.9105 20.0611 50.2738 19.9519 49.9488 19.4924C46.1355 14.1001 39.8514 10.5762 32.7505 10.5762C21.133 10.5762 11.701 20.0081 11.701 31.6257C11.701 43.2433 21.133 52.6753 32.7505 52.6753C44.3681 52.6753 53.8001 43.2433 53.8001 31.6257ZM32.7505 59.6418C33.3132 59.6418 33.7702 60.0987 33.7702 60.6614C33.7702 61.2242 33.3132 61.681 32.7505 61.681C16.1625 61.681 2.69531 48.2137 2.69531 31.6257C2.69531 22.0045 7.22556 13.4329 14.268 7.93032C14.7115 7.5839 15.3527 7.66267 15.6993 8.10607C16.0457 8.54947 15.967 9.19081 15.5235 9.53722C8.95851 14.6667 4.73453 22.6568 4.73453 31.6257C4.73453 47.0882 17.2881 59.6418 32.7505 59.6418ZM27.6062 4.08168C27.053 4.18453 26.5204 3.81875 26.4175 3.26548C26.3147 2.71222 26.6803 2.1796 27.2336 2.07675C29.0222 1.74435 30.8662 1.57038 32.7505 1.57038C49.3386 1.57038 62.8058 15.0377 62.8058 31.6257C62.8058 43.792 55.5615 54.2798 45.1545 59.0062C44.6421 59.2388 44.0372 59.0118 43.8045 58.4994C43.5718 57.9869 43.7989 57.3821 44.3112 57.1493C54.0127 52.7435 60.7666 42.9672 60.7666 31.6257C60.7666 16.1633 48.213 3.6096 32.7505 3.6096C30.9935 3.6096 29.2741 3.77172 27.6062 4.08168ZM55.2361 21.0806L59.2982 28.1163C59.4803 28.4317 59.4803 28.8204 59.2982 29.1359C59.1161 29.4513 58.7795 29.6457 58.4152 29.6457H50.291C49.9267 29.6457 49.5901 29.4513 49.408 29.1359C49.2259 28.8204 49.2259 28.4317 49.408 28.1163L53.4701 21.0806C53.6523 20.7651 53.9889 20.5708 54.3531 20.5708C54.7174 20.5708 55.054 20.7651 55.2361 21.0806ZM54.3531 23.6296L52.0571 27.6065H56.6491L54.3531 23.6296ZM21.2058 0.89209C23.5892 0.89209 25.5243 2.82718 25.5243 5.21064C25.5243 7.59397 23.5892 9.52906 21.2058 9.52906C18.8224 9.52906 16.8874 7.59397 16.8874 5.21064C16.8874 2.82718 18.8224 0.89209 21.2058 0.89209ZM21.2058 2.93131C19.9478 2.93131 18.9266 3.95257 18.9266 5.21064C18.9266 6.46858 19.9478 7.48984 21.2058 7.48984C22.4639 7.48984 23.4851 6.46858 23.4851 5.21064C23.4851 3.95257 22.4639 2.93131 21.2058 2.93131ZM43.3013 56.8932V63.0882C43.3013 63.6512 42.8448 64.1078 42.2817 64.1078H36.0867C35.5235 64.1078 35.0671 63.6512 35.0671 63.0882V56.8932C35.0671 56.3301 35.5235 55.8736 36.0867 55.8736H42.2817C42.8448 55.8736 43.3013 56.3301 43.3013 56.8932ZM41.2621 57.9128H37.1063V62.0686H41.2621V57.9128Z" fill="url(#paint0_linear_668_158)"/>
<defs>
<linearGradient id="paint0_linear_668_158" x1="1.75753" y1="63.5283" x2="63.8021" y2="0.000826314" gradientUnits="userSpaceOnUse">
<stop stop-color="#1E1E1E"/>
<stop offset="1" stop-color="#E92E29"/>
</linearGradient>
</defs>
</svg>
