<svg width="66" height="65" viewBox="0 0 66 65" fill="none" xmlns="http://www.w3.org/2000/svg">
<path d="M24.1786 13.323C23.1679 13.323 22.2795 13.9683 21.967 14.9299C21.654 15.893 21.995 16.939 22.8154 17.5326L26.8895 20.4808C27.0016 20.562 27.0396 20.679 26.9966 20.8107L25.4336 25.5901C25.1188 26.5525 25.4577 27.5991 26.2772 28.1945C26.6862 28.4916 27.1649 28.6401 27.6439 28.64C28.1245 28.64 28.605 28.4906 29.0146 28.1917L33.077 25.2283C33.1891 25.1466 33.3123 25.1466 33.424 25.2283L37.4866 28.1918C38.3047 28.7884 39.4047 28.7897 40.2241 28.1944C41.0432 27.5992 41.382 26.5525 41.0675 25.5901L39.5044 20.8108C39.4614 20.6791 39.4995 20.562 39.6117 20.4808L43.6854 17.5327C44.506 16.9392 44.8468 15.8933 44.534 14.9301C44.2216 13.9684 43.3332 13.3231 42.3224 13.3231C42.3209 13.3231 42.3193 13.3231 42.3178 13.3231L37.2892 13.3327C37.2889 13.3327 37.2887 13.3327 37.2884 13.3327C37.1504 13.3327 37.051 13.2604 37.0086 13.1289L35.4635 8.34336C35.1525 7.37966 34.2631 6.73232 33.2503 6.73232C32.2375 6.73232 31.3483 7.37991 31.0371 8.34336L29.4924 13.1289C29.45 13.2606 29.3468 13.3288 29.2117 13.3326L24.1832 13.323C24.1815 13.323 24.1801 13.323 24.1786 13.323ZM29.2123 15.364C30.2253 15.364 31.1142 14.7169 31.4255 13.753L32.9703 8.96746C33.0127 8.83606 33.1121 8.7637 33.2503 8.7637C33.3886 8.7637 33.488 8.83606 33.5304 8.96746L35.0751 13.753C35.3866 14.7172 36.2753 15.364 37.2882 15.364H37.2928L42.3214 15.3543H42.3221C42.4599 15.3543 42.5592 15.4265 42.6018 15.5577C42.6445 15.6891 42.6064 15.8062 42.4943 15.8872L38.4205 18.8353C37.5985 19.43 37.2581 20.4777 37.5734 21.4423L39.1365 26.2215C39.1794 26.3529 39.1414 26.4701 39.0296 26.5514C38.918 26.6326 38.795 26.6326 38.6831 26.551L34.6206 23.5875C33.8012 22.9897 32.6995 22.9894 31.8795 23.5875L27.817 26.551C27.7054 26.6325 27.5821 26.6325 27.4705 26.5515C27.3587 26.4702 27.3207 26.3532 27.3636 26.2217L28.9267 21.4423C29.242 20.4775 28.9017 19.4299 28.0796 18.8354L24.0056 15.8873C23.8937 15.8063 23.8557 15.6894 23.8983 15.558C23.941 15.4267 24.0402 15.3545 24.178 15.3545H24.1788L29.2072 15.3641C29.2094 15.364 29.2109 15.364 29.2123 15.364ZM64.6184 28.1714C64.306 27.2097 63.4175 26.5644 62.4067 26.5644C62.4052 26.5644 62.4037 26.5644 62.4022 26.5644L57.3736 26.5741C57.3733 26.5741 57.3731 26.5741 57.3728 26.5741C57.2348 26.5741 57.1354 26.5017 57.093 26.3702L55.5482 21.5848C55.2372 20.6211 54.3478 19.9737 53.3348 19.9737C52.3221 19.9739 51.4329 20.6215 51.1219 21.5848L49.5771 26.3703C49.5347 26.5018 49.4353 26.5741 49.2972 26.5741C49.2969 26.5741 49.2967 26.5741 49.2964 26.5741L44.2679 26.5644C44.2663 26.5644 44.2649 26.5644 44.2634 26.5644C43.2527 26.5644 42.3643 27.2097 42.0517 28.1713C41.7387 29.1345 42.0796 30.1803 42.9001 30.7741L46.9741 33.7221C47.0863 33.8033 47.1244 33.9204 47.0813 34.0521L45.5183 38.8315C45.2036 39.7941 45.5425 40.8407 46.3618 41.4358C46.7709 41.733 47.2497 41.8816 47.7288 41.8815C48.2092 41.8815 48.6897 41.732 49.0994 41.4332L53.1618 38.4696C53.2739 38.388 53.397 38.388 53.5087 38.4696L57.5712 41.4331C58.3892 42.0299 59.4895 42.0308 60.309 41.4357C61.1279 40.8404 61.4668 39.7938 61.1522 38.8315L59.5891 34.0523C59.546 33.9205 59.5841 33.8032 59.6962 33.7221L63.77 30.7741C64.5903 30.1804 64.9315 29.1345 64.6184 28.1714ZM62.5791 29.1284L58.5051 32.0765C57.6832 32.6714 57.343 33.7189 57.6582 34.6835L59.2212 39.4627C59.2641 39.5941 59.2262 39.7113 59.1145 39.7924C59.0028 39.8738 58.8796 39.8737 58.768 39.7921L54.7055 36.8286C53.8858 36.2305 52.7841 36.2305 51.9643 36.8286L47.9018 39.7922C47.7901 39.8737 47.667 39.8739 47.5554 39.7924C47.4435 39.7113 47.4057 39.5941 47.4486 39.4629L49.0118 34.6833C49.3269 33.7189 48.9865 32.6713 48.1645 32.0765L44.0906 29.1285C43.9787 29.0475 43.9405 28.9306 43.9833 28.7992C44.026 28.6679 44.1252 28.5957 44.263 28.5957H44.2637L49.2922 28.6053H49.2968C50.3098 28.6053 51.1987 27.9583 51.51 26.9943L53.055 22.2088C53.0974 22.0773 53.1969 22.0049 53.3351 22.0049C53.4732 22.0049 53.5727 22.0773 53.6151 22.2088V22.2089L55.1599 26.9943C55.4713 27.9585 56.3601 28.6053 57.3729 28.6053H57.3775L62.4061 28.5957H62.4069C62.5446 28.5957 62.6439 28.6678 62.6866 28.7992C62.7293 28.9306 62.6911 29.0475 62.5791 29.1284ZM20.1394 41.4356C20.9583 40.8403 21.2972 39.7937 20.9826 38.8314L19.4195 34.052C19.3765 33.9205 19.4146 33.8032 19.5267 33.7221L23.6005 30.7741C24.4211 30.1804 24.7621 29.1345 24.4492 28.1714C24.1367 27.2097 23.2483 26.5644 22.2375 26.5644C22.236 26.5644 22.2345 26.5644 22.2329 26.5644L17.2043 26.5741C17.2041 26.5741 17.2038 26.5741 17.2036 26.5741C17.0656 26.5741 16.9662 26.5017 16.9238 26.3702L15.379 21.5848C15.068 20.6211 14.1785 19.9737 13.1656 19.9737C12.1529 19.9739 11.2637 20.6215 10.9526 21.5848L9.40788 26.3703C9.36548 26.5018 9.26607 26.5741 9.12795 26.5741C9.1277 26.5741 9.12744 26.5741 9.12719 26.5741L4.0987 26.5644C4.09705 26.5644 4.09565 26.5644 4.09413 26.5644C3.08346 26.5644 2.19504 27.2097 1.88248 28.1713C1.56941 29.1345 1.91041 30.1803 2.73091 30.7741L6.80471 33.7219C6.91693 33.8033 6.95515 33.9204 6.91211 34.0521L5.34906 38.8315C5.03435 39.7941 5.37331 40.8407 6.19254 41.4358C6.60171 41.733 7.08045 41.8816 7.55957 41.8815C8.03996 41.8815 8.52048 41.732 8.93016 41.4332L12.9925 38.4696C13.1046 38.388 13.2278 38.388 13.3395 38.4696L17.402 41.4331C18.2194 42.0297 19.3197 42.0306 20.1394 41.4356ZM11.795 36.8286L7.73248 39.7922C7.62076 39.8737 7.49762 39.8739 7.38603 39.7924C7.27418 39.7113 7.23635 39.5941 7.27926 39.4629L8.84243 34.6833C9.15753 33.719 8.81717 32.6714 7.99515 32.0765L3.92122 29.1285C3.80937 29.0475 3.77116 28.9306 3.81394 28.7992C3.8566 28.6679 3.95588 28.5957 4.09362 28.5957H4.09438L9.12287 28.6053H9.12744C10.1404 28.6053 11.0293 27.9583 11.3406 26.9943L12.8854 22.2088C12.9278 22.0773 13.0273 22.0049 13.1654 22.0049C13.3036 22.0049 13.4031 22.0773 13.4455 22.2088V22.2089L14.9903 26.9943C15.3017 27.9585 16.1905 28.6053 17.2033 28.6053H17.2079L22.2365 28.5957H22.2373C22.375 28.5957 22.4743 28.6678 22.5169 28.7992C22.5597 28.9306 22.5215 29.0475 22.4095 29.1285L18.3355 32.0766C17.5135 32.6716 17.1732 33.7191 17.4886 34.6836L19.0516 39.4629C19.0945 39.5943 19.0566 39.7114 18.9449 39.7926C18.833 39.8739 18.7099 39.8738 18.5984 39.7922L14.5358 36.8287C13.7163 36.2305 12.6147 36.2305 11.795 36.8286ZM32.2347 4.9565V2.03125C32.2347 1.47037 32.6894 1.01562 33.2503 1.01562C33.8112 1.01562 34.2659 1.47037 34.2659 2.03125V4.9565C34.2659 5.51738 33.8112 5.97213 33.2503 5.97213C32.6894 5.97213 32.2347 5.51738 32.2347 4.9565ZM21.4616 7.33497C21.065 6.93837 21.065 6.29535 21.4617 5.89875C21.8583 5.50228 22.5013 5.50228 22.8979 5.89888L24.9662 7.96732C25.3628 8.36393 25.3628 9.00694 24.9661 9.40354C24.7678 9.60185 24.5079 9.701 24.2481 9.701C23.9881 9.701 23.7282 9.60185 23.5299 9.40342L21.4616 7.33497ZM41.5343 9.40342C41.1377 9.00669 41.1377 8.3638 41.5343 7.96707L43.6027 5.89862C43.9997 5.50215 44.6426 5.50228 45.0391 5.89862C45.4357 6.29535 45.4357 6.93824 45.0391 7.33497L42.9706 9.40342C42.7723 9.60172 42.5123 9.70087 42.2524 9.70087C41.9924 9.70087 41.7326 9.60172 41.5343 9.40342ZM45.9725 46.7733C44.506 46.7733 43.1243 47.143 41.9146 47.7926C40.6767 47.0425 39.3546 46.4617 37.9788 46.0576C40.5215 44.4731 42.2182 41.6528 42.2182 38.4424C42.2182 33.4976 38.1953 29.4747 33.2504 29.4747C28.3056 29.4747 24.2827 33.4976 24.2827 38.4424C24.2827 41.6535 25.9801 44.4741 28.5236 46.0585C26.1307 46.7617 23.9081 47.9963 22.0242 49.7C18.9654 52.466 17.0403 56.2383 16.6035 60.3216C16.5727 60.6083 16.6652 60.8943 16.8579 61.1086C17.0506 61.3229 17.3252 61.4453 17.6132 61.4453L39.8752 61.4452C41.4347 63.0125 43.592 63.9844 45.9725 63.9844C50.7177 63.9844 54.5781 60.124 54.5781 55.3789C54.5781 50.6337 50.7177 46.7733 45.9725 46.7733ZM26.314 38.4424C26.314 34.6177 29.4257 31.506 33.2504 31.506C37.0752 31.506 40.1869 34.6177 40.1869 38.4424C40.1869 42.2663 37.0767 45.3772 33.2532 45.3788C33.2522 45.3788 33.2513 45.3788 33.2503 45.3788C33.2492 45.3788 33.2482 45.3788 33.247 45.3788C29.4238 45.3769 26.314 42.266 26.314 38.4424ZM18.7867 59.4141C20.0648 52.4971 26.0927 47.4115 33.2469 47.41C33.248 47.41 33.2492 47.4101 33.2503 47.4101H33.2531C35.6573 47.4106 37.9962 47.9923 40.0973 49.0995C38.4188 50.6709 37.3669 52.9038 37.3669 55.379C37.3669 56.8364 37.7323 58.2098 38.3745 59.4141H18.7867ZM45.9725 61.9531C42.3474 61.9531 39.3983 59.004 39.3983 55.3789C39.3983 51.7537 42.3474 48.8046 45.9725 48.8046C49.5977 48.8046 52.5468 51.7537 52.5468 55.3789C52.5468 59.004 49.5977 61.9531 45.9725 61.9531ZM50.2928 52.4026C50.6698 52.8178 50.6387 53.4602 50.2232 53.8371L45.168 58.4248C44.9741 58.6011 44.7297 58.6884 44.4857 58.6884C44.2252 58.6884 43.9652 58.5887 43.7674 58.3909L41.686 56.3096C41.2894 55.9128 41.2894 55.2699 41.686 54.8732C42.0827 54.4767 42.7256 54.4767 43.1223 54.8732L44.5194 56.2705L48.8582 52.333C49.2734 51.9559 49.9158 51.987 50.2928 52.4026Z" fill="url(#paint0_linear_668_773)"/>
<defs>
<linearGradient id="paint0_linear_668_773" x1="13.0927" y1="57.3454" x2="54.7893" y2="15.6487" gradientUnits="userSpaceOnUse">
<stop stop-color="#1E1E1E"/>
<stop offset="1" stop-color="#E92E29"/>
</linearGradient>
</defs>
</svg>
