<svg width="66" height="65" viewBox="0 0 66 65" fill="none" xmlns="http://www.w3.org/2000/svg">
<path fill-rule="evenodd" clip-rule="evenodd" d="M7.44111 30.5097C7.43156 29.8232 7.13205 29.303 6.71974 28.8317C6.1754 28.2096 5.45211 27.6679 4.74616 27.0615C3.04342 25.5987 1.44059 23.8295 1.66338 20.486L1.66351 20.4843L1.91841 16.7666C2.08957 14.2379 4.17607 12.3733 6.63155 11.8812V10.5458C6.63155 8.69415 8.14936 7.18717 9.99013 7.18717C10.6753 7.18717 11.3133 7.39351 11.8452 7.74731C12.4457 6.81832 13.491 6.19751 14.6681 6.19751C16.0527 6.19751 17.2446 7.04633 17.7578 8.24412C18.232 7.98628 18.7734 7.83933 19.3461 7.83933C20.654 7.83933 21.7899 8.59665 22.3442 9.69018C22.8397 9.40035 23.4142 9.23377 24.0241 9.23377C25.8756 9.23377 27.3827 10.7516 27.3827 12.5924V16.3708C27.3827 16.6341 27.3521 16.8906 27.2945 17.1368C28.3923 23.508 29.0117 27.1743 25.6509 30.9097V37.684C25.6509 38.2471 25.1944 38.7036 24.6313 38.7036H8.46085C7.89764 38.7036 7.44124 38.2471 7.44124 37.684V30.5196C7.44124 30.5163 7.44111 30.513 7.44111 30.5097ZM7.65867 13.7993C5.83281 13.9031 4.07641 15.0811 3.95291 16.9044V16.9053L3.69813 20.6223C3.49332 23.6987 5.43312 24.968 6.95616 26.2559C8.08156 27.2075 9.02049 28.1808 9.35224 29.4901C12.6791 29.4901 24.1841 29.4901 24.1841 29.4899C25.8119 27.6459 26.2382 25.8084 26.1324 23.5143C26.0748 22.2656 25.869 20.8931 25.6047 19.3334C25.1334 19.586 24.5951 19.7294 24.0241 19.7294C23.12 19.7294 22.2939 19.3657 21.6872 18.7765C21.0817 19.3657 20.2554 19.7294 19.3461 19.7294C18.6638 19.7294 18.0258 19.5223 17.493 19.1673C17.0257 19.8924 16.287 20.4268 15.4218 20.6261C15.7598 21.7688 15.7702 23.02 15.7702 24.1299C15.7702 24.6926 15.3134 25.1495 14.7506 25.1495C14.1879 25.1495 13.7309 24.6926 13.7309 24.1299C13.7309 23.3994 13.7522 22.5875 13.624 21.8091C13.5277 21.2233 13.3469 20.6536 12.9492 20.1872C12.9267 20.1641 12.9054 20.1401 12.8853 20.1152C12.8738 20.1028 12.8622 20.0904 12.8504 20.0781C12.1633 19.365 10.97 18.9647 8.97805 18.9647H7.51618C6.95349 18.9647 6.49658 18.5077 6.49658 17.945C6.49658 17.3824 6.95349 16.9254 7.51618 16.9254H11.8493C12.7076 16.9254 13.416 16.2215 13.416 15.3587C13.416 14.5003 12.7076 13.7919 11.8493 13.7919H7.92097C7.86145 13.7919 7.8018 13.7931 7.74228 13.7954C7.71475 13.7978 7.68684 13.7992 7.65867 13.7993ZM11.3095 10.5458C11.3095 9.81839 10.7175 9.22638 9.99013 9.22638C9.26698 9.22638 8.67076 9.81839 8.67076 10.5458V11.7527H11.3095V10.5458ZM14.2703 18.6135C14.3959 18.6527 14.5301 18.6722 14.6681 18.6722C15.3955 18.6722 15.9875 18.0801 15.9875 17.3528V9.55623C15.9875 8.83307 15.3955 8.23673 14.6681 8.23673C13.9449 8.23673 13.3487 8.83307 13.3487 9.55623V12.084C14.5864 12.6584 15.4552 13.9166 15.4552 15.3587C15.4552 16.5707 14.8479 17.6464 13.9254 18.3009C14.0487 18.4016 14.1634 18.5061 14.2703 18.6135ZM18.0267 16.3708C18.0267 17.0981 18.623 17.6901 19.3461 17.6901C20.0734 17.6901 20.6654 17.0981 20.6654 16.3708V11.1979C20.6654 10.4749 20.0734 9.87855 19.3461 9.87855C18.623 9.87855 18.0267 10.4749 18.0267 11.1979V16.3708ZM22.7046 16.3708C22.7046 17.0981 23.301 17.6901 24.0241 17.6901C24.7514 17.6901 25.3435 17.0981 25.3435 16.3708V12.5924C25.3435 11.8692 24.7514 11.273 24.0241 11.273C23.301 11.273 22.7046 11.8692 22.7046 12.5924V16.3708ZM23.6117 31.5293H9.48046V36.6644H23.6117V31.5293ZM12.0867 32.9152C12.7734 32.9152 13.331 33.4727 13.331 34.1595C13.331 34.8462 12.7734 35.4038 12.0867 35.4038C11.3999 35.4038 10.8424 34.8462 10.8424 34.1595C10.8424 33.4727 11.3999 32.9152 12.0867 32.9152ZM51.9576 30.1724V57.7828C51.9576 58.3459 51.5012 58.8024 50.938 58.8024H43.9868C43.4236 58.8024 42.9672 58.3459 42.9672 57.7828V30.1724C42.9672 29.6092 43.4236 29.1528 43.9868 29.1528H50.938C51.5012 29.1528 51.9576 29.6092 51.9576 30.1724ZM49.9184 31.192H45.0064V56.7632H49.9184V31.192ZM39.0533 37.4654V57.7828C39.0533 58.3459 38.5968 58.8024 38.0337 58.8024H31.0853C30.5222 58.8024 30.0657 58.3459 30.0657 57.7828V37.4654C30.0657 36.9024 30.5222 36.4458 31.0853 36.4458H38.0337C38.5968 36.4458 39.0533 36.9024 39.0533 37.4654ZM37.0141 38.485H32.1049V56.7632H37.0141V38.485ZM56.8911 22.5911H63.8395C64.4025 22.5911 64.8591 23.0477 64.8591 23.6108V57.7828C64.8591 58.3459 64.4025 58.8024 63.8395 58.8024H56.8911C56.328 58.8024 55.8715 58.3459 55.8715 57.7828V23.6108C55.8715 23.0477 56.328 22.5911 56.8911 22.5911ZM57.9107 24.6304V56.7632H62.8198C62.8198 51.7388 62.8198 29.6547 62.8198 24.6304H57.9107ZM18.1809 43.4331H25.1293C25.6924 43.4331 26.1489 43.8896 26.1489 44.4527V57.7828C26.1489 58.3459 25.6924 58.8024 25.1293 58.8024H18.1809C17.6178 58.8024 17.1613 58.3459 17.1613 57.7828V44.4527C17.1613 43.8896 17.6178 43.4331 18.1809 43.4331ZM19.2005 45.4723V56.7632H24.1097V45.4723H19.2005ZM28.7589 30.4581C28.2251 30.636 27.6472 30.3469 27.4693 29.813C27.2913 29.2791 27.5804 28.7013 28.1142 28.5235C29.9612 27.908 31.8421 27.0778 33.775 25.9997C38.2498 23.5033 43.419 18.7179 46.3464 14.3685L44.1086 12.8694C43.7894 12.6555 43.6176 12.2802 43.6641 11.8988C43.7106 11.5173 43.9678 11.1944 44.3291 11.0636L53.7684 7.64637C54.0629 7.5397 54.3902 7.57449 54.6558 7.74056C54.9216 7.90663 55.0961 8.18562 55.1293 8.49711L56.2473 18.9945C56.2894 19.3883 56.0995 19.7708 55.7605 19.9755C55.4213 20.18 54.9945 20.1698 54.6655 19.9493L52.5418 18.525C49.8898 22.4734 46.0746 26.0444 41.3153 28.7006L41.3149 28.7009C36.709 31.2693 31.8391 32.6366 27.2228 32.8865C26.6609 32.917 26.18 32.4854 26.1495 31.9235C26.1192 31.3617 26.5506 30.8807 27.1125 30.8504C31.4403 30.616 36.0035 29.3278 40.3216 26.9199C45.1117 24.2465 48.8874 20.5909 51.3811 16.5634C51.5268 16.328 51.7619 16.162 52.0326 16.1035C52.3032 16.045 52.5859 16.0992 52.8158 16.2534L53.9884 17.0398L53.2394 10.0066L46.9163 12.2958L48.3131 13.2315C48.768 13.5363 48.9011 14.1457 48.6144 14.6122C45.657 19.4273 39.7991 24.9741 34.7684 27.7806C32.7167 28.9249 30.7194 29.8047 28.7589 30.4581Z" fill="url(#paint0_linear_668_57)"/>
<defs>
<linearGradient id="paint0_linear_668_57" x1="0.75083" y1="64.9999" x2="65.7508" y2="-5.57167e-05" gradientUnits="userSpaceOnUse">
<stop stop-color="#1E1E1E"/>
<stop offset="1" stop-color="#E92E29"/>
</linearGradient>
</defs>
</svg>
