<svg width="66" height="65" viewBox="0 0 66 65" fill="none" xmlns="http://www.w3.org/2000/svg">
<path d="M58.1788 27.2547C58.1314 25.5794 56.4673 24.0782 54.6728 24.0782C54.6557 24.0782 54.6385 24.0783 54.6214 24.0786C53.7468 24.0925 50.895 24.5621 50.9155 30.0141L50.9502 39.1138C50.9508 39.2877 50.9418 39.4572 50.9228 39.6232C50.8712 39.5648 50.817 39.5072 50.7605 39.4507C50.1303 38.8205 49.2569 38.4725 48.3621 38.4912C47.5012 38.511 46.7154 38.8637 46.1493 39.4842C44.5614 41.2252 42.7386 42.8069 41.2739 44.078C40.8175 44.4741 40.3865 44.8481 40.0255 45.1736C38.3606 46.6741 38.1385 48.7373 38.1406 50.5576L38.1485 56.9964L37.3498 56.9895C36.7688 56.9868 36.2231 57.2062 35.8085 57.6139C35.3939 58.0214 35.1628 58.5649 35.1579 59.144L35.136 61.679C35.1257 62.8772 36.0922 63.8606 37.2905 63.871L50.459 63.9841C50.4654 63.9841 50.4716 63.9842 50.4779 63.9842C51.6676 63.9841 52.6407 63.0216 52.6508 61.8296L52.6726 59.2946C52.6828 58.0963 51.7163 57.1129 50.518 57.1028L49.4755 57.0937V56.0007L56.755 48.7213C58.0475 47.4291 58.704 45.7986 58.6533 44.006L58.1788 27.2547ZM50.6416 59.2772L50.6199 61.8122C50.6192 61.8879 50.5536 61.9541 50.4765 61.953L37.3082 61.8399C37.2324 61.8392 37.1666 61.7722 37.1673 61.6966L37.1891 59.1616C37.1895 59.1146 37.213 59.0817 37.2326 59.0624C37.2521 59.0434 37.2848 59.0206 37.3312 59.0206H37.3324L50.5009 59.1338C50.5764 59.1346 50.6422 59.2015 50.6416 59.2772ZM55.3189 47.285L47.7418 54.8619C47.5514 55.0523 47.4444 55.3107 47.4444 55.5801V57.0763L40.1799 57.0139L40.172 50.5551C40.1696 48.5834 40.5211 47.4614 41.3855 46.6824C41.7324 46.3698 42.1564 46.0018 42.6053 45.6122C44.1098 44.3066 45.9823 42.6818 47.6502 40.8531C47.8387 40.6465 48.1081 40.5289 48.4088 40.522C48.751 40.5138 49.0844 40.6472 49.3243 40.887C49.5027 41.0654 50.0411 41.6048 49.327 42.5758C48.5529 43.4458 47.7387 44.2343 46.8771 45.0681C46.4633 45.4685 46.0354 45.8828 45.6037 46.3144C45.2071 46.7111 45.2071 47.3541 45.6037 47.7508C45.802 47.9491 46.0619 48.0482 46.3219 48.0482C46.5819 48.0482 46.8417 47.9491 47.04 47.7508C47.46 47.3308 47.8817 46.9225 48.2898 46.5278C49.191 45.6555 50.0422 44.8318 50.8766 43.8905C50.8812 43.8852 50.8851 43.8794 50.8896 43.8741C50.8941 43.8689 50.8989 43.8645 50.9031 43.8591L51.5302 43.0912C52.5122 41.8822 52.9869 40.5787 52.9814 39.1059L52.9468 30.0063C52.9378 27.6197 53.592 26.1264 54.6539 26.1094C54.661 26.1093 54.6679 26.1093 54.675 26.1093C55.4392 26.1093 56.1333 26.7764 56.1484 27.3119L56.623 44.0633C56.6579 45.3011 56.2191 46.3849 55.3189 47.285ZM38.0851 60.1522C38.2459 59.7479 38.7039 59.5505 39.1081 59.7113C39.5123 59.872 39.7098 60.33 39.549 60.7342C39.3883 61.1385 38.9303 61.3359 38.526 61.1752C38.1218 61.0146 37.9244 60.5565 38.0851 60.1522ZM26.9315 57.614C26.5169 57.2063 25.971 56.987 25.3903 56.9896L24.5915 56.9965L24.5994 50.5577C24.6017 48.7374 24.3795 46.6742 22.7147 45.1737C22.3536 44.8483 21.9226 44.4743 21.4665 44.0785C20.0017 42.8075 18.1788 41.2256 16.5907 39.4845C16.0246 38.8639 15.2388 38.5111 14.3779 38.4914C13.4839 38.472 12.6097 38.8207 11.9795 39.4508C11.923 39.5073 11.8689 39.5649 11.8174 39.6233C11.7983 39.4574 11.7892 39.2878 11.79 39.114L11.8246 30.0143C11.8453 24.5623 8.99332 24.0928 8.11874 24.0788C6.30356 24.0523 4.60912 25.5635 4.56139 27.2548L4.08671 44.0063C4.03605 45.7987 4.69253 47.4292 5.98504 48.7214L13.2645 56.0009V57.094L12.2221 57.103C11.6428 57.108 11.0993 57.339 10.6917 57.7536C10.2841 58.1683 10.0624 58.7157 10.0675 59.2949L10.0892 61.8297C10.0941 62.4089 10.3252 62.9524 10.7398 63.36C11.1499 63.7631 11.6898 63.9845 12.262 63.9845C12.2683 63.9845 12.2747 63.9845 12.281 63.9844L25.4494 63.8711C26.0287 63.8662 26.5721 63.6351 26.9797 63.2205C27.3872 62.8059 27.609 62.2586 27.6039 61.6793L27.5822 59.1444C27.5774 58.565 27.3462 58.0215 26.9315 57.614ZM15.2958 55.5801C15.2958 55.3107 15.1888 55.0523 14.9983 54.8619L7.42126 47.285C6.52103 46.3849 6.08216 45.3009 6.1172 44.0635L6.59188 27.3121C6.60724 26.7717 7.31297 26.0956 8.08624 26.1097C9.14833 26.1267 9.80252 27.6199 9.79338 30.0064L9.75872 39.1063C9.75326 40.579 10.2279 41.8826 11.2116 43.0933L11.8369 43.8593C11.8413 43.8646 11.8462 43.8692 11.8507 43.8744C11.8552 43.8797 11.859 43.8854 11.8636 43.8906C12.6982 44.8322 13.5498 45.6562 14.4513 46.5286C14.8589 46.9231 15.2805 47.3312 15.7003 47.7508C15.8986 47.9491 16.1584 48.0482 16.4184 48.0482C16.6784 48.0482 16.9383 47.9491 17.1366 47.7508C17.5332 47.3541 17.5332 46.7111 17.1366 46.3145C16.7052 45.883 16.2774 45.4692 15.8639 45.0689C15.002 44.2348 14.1875 43.446 13.4133 42.5759C12.6992 41.6048 13.2376 41.0654 13.416 40.887C13.6558 40.6472 13.9907 40.514 14.3314 40.522C14.6322 40.5289 14.9016 40.6465 15.0901 40.8531C16.7582 42.6819 18.6307 44.3069 20.1354 45.6125C20.5841 46.0018 21.008 46.3698 21.3549 46.6824C22.2192 47.4614 22.5707 48.5834 22.5683 50.5551L22.5604 57.0139L15.2959 57.0763L15.2958 55.5801ZM25.432 61.8399L12.2636 61.9531C12.2118 61.9548 12.1834 61.9307 12.1638 61.9114C12.1442 61.8921 12.1208 61.8592 12.1203 61.8122L12.0986 59.2772C12.0982 59.2302 12.1211 59.197 12.1404 59.1774C12.1595 59.1579 12.1924 59.1344 12.2395 59.134L23.5729 59.0366H23.5735H23.5748H23.576L25.4079 59.0209C25.4548 59.026 25.4881 59.0435 25.5076 59.0627C25.5273 59.082 25.5507 59.1148 25.5512 59.1618L25.5729 61.6967C25.5735 61.7723 25.5078 61.8392 25.432 61.8399ZM24.6549 60.1522C24.8156 60.5564 24.6182 61.0144 24.214 61.1752C23.8098 61.3359 23.3517 61.1385 23.191 60.7342C23.0303 60.33 23.2277 59.872 23.6319 59.7113C24.0363 59.5505 24.4942 59.7479 24.6549 60.1522ZM30.3545 5.11697V2.03125C30.3545 1.47037 30.8092 1.01562 31.3701 1.01562C31.931 1.01562 32.3857 1.47037 32.3857 2.03125V5.11685C32.3857 5.67772 31.931 6.13247 31.3701 6.13247C30.8092 6.13247 30.3545 5.67785 30.3545 5.11697ZM19.0677 5.5999C18.7872 5.11418 18.9537 4.493 19.4394 4.21256C19.9253 3.93237 20.5462 4.09855 20.8267 4.58428L22.3696 7.25639C22.65 7.74211 22.4836 8.36329 21.9979 8.64373C21.8379 8.73603 21.6634 8.77995 21.491 8.77995C21.1399 8.77995 20.7986 8.59777 20.6104 8.27201L19.0677 5.5999ZM10.7055 12.9464C10.986 12.4606 11.607 12.294 12.0929 12.5747L14.7651 14.1174C15.2508 14.3979 15.4173 15.0191 15.1368 15.5048C14.9487 15.8305 14.6073 16.0127 14.2563 16.0127C14.084 16.0127 13.9095 15.9688 13.7494 15.8765L11.0773 14.3338C10.5915 14.0533 10.4251 13.4321 10.7055 12.9464ZM41.0483 23.8911C40.5501 23.8088 40.042 23.767 39.5381 23.767C37.212 23.767 34.9909 24.6365 33.2843 26.2152C32.9602 26.515 32.6604 26.8355 32.3857 27.1734V25.4436C35.5729 24.9531 38.0213 22.192 38.0213 18.8698C38.0213 15.2023 35.0375 12.2185 31.37 12.2185C27.7024 12.2185 24.7186 15.2023 24.7186 18.8698C24.7186 22.192 27.1672 24.9531 30.3543 25.4436V27.1734C30.0795 26.8355 29.7799 26.515 29.4558 26.2152C27.7491 24.6364 25.5281 23.767 23.2018 23.767C22.698 23.767 22.1898 23.8088 21.6916 23.8911C21.1695 23.9773 20.8012 24.4498 20.8449 24.977C21.0353 27.2727 22.0746 29.4015 23.7713 30.971C25.4779 32.5498 27.699 33.4191 30.0251 33.4191C30.1347 33.4191 30.2444 33.4163 30.3542 33.4124V36.0685C30.3542 36.6294 30.8089 37.0842 31.3698 37.0842C31.9307 37.0842 32.3855 36.6294 32.3855 36.0685V33.4124C32.4953 33.4163 32.605 33.4191 32.7145 33.4191C35.0407 33.4191 37.2617 32.5496 38.9683 30.971C40.6651 29.4015 41.7043 27.2727 41.8947 24.977C41.9387 24.4498 41.5704 23.9773 41.0483 23.8911ZM30.0254 31.388C26.658 31.388 23.7556 29.003 23.023 25.8006C26.4602 25.7131 29.4589 28.1267 30.2044 31.3859C30.1446 31.3873 30.0849 31.388 30.0254 31.388ZM26.75 18.8698C26.75 16.3224 28.8225 14.2497 31.3701 14.2497C33.9176 14.2497 35.9902 16.3222 35.9902 18.8698C35.9902 21.4174 33.9176 23.4899 31.3701 23.4899C28.8225 23.4899 26.75 21.4174 26.75 18.8698ZM32.7148 31.388C32.6552 31.388 32.5956 31.3873 32.5359 31.3857C33.2684 28.1832 36.1708 25.7983 39.5382 25.7983C39.5978 25.7983 39.6575 25.799 39.7172 25.8006C38.9846 29.003 36.0822 31.388 32.7148 31.388ZM32.3827 22.514C32.911 22.3595 33.3695 22.0844 33.6851 21.7195C34.0819 21.2606 34.2518 20.689 34.1763 20.0666C34.0753 19.2351 33.5359 18.1749 31.5398 17.8473C31.4122 17.8264 30.775 17.7108 30.7645 17.4949C30.7527 17.2532 31.07 17.1622 31.1675 17.1401C31.2379 17.1241 31.8615 17.0002 32.0928 17.5509C32.3099 18.068 32.9052 18.3115 33.4224 18.0941C33.9396 17.877 34.1827 17.2817 33.9656 16.7645C33.6597 16.036 33.0837 15.508 32.3844 15.2532C32.3582 14.7156 31.9141 14.2879 31.3701 14.2879C30.8219 14.2879 30.3751 14.7222 30.3551 15.2656C29.323 15.641 28.6844 16.5381 28.7357 17.5934C28.7608 18.1104 28.9688 18.9149 29.9203 19.4353C29.7338 19.3647 29.5244 19.3483 29.3165 19.4003C28.7722 19.5361 28.441 20.0873 28.5767 20.6315C28.8007 21.5293 29.4683 22.2026 30.3561 22.495C30.3867 23.0284 30.829 23.4517 31.3701 23.4517C31.9047 23.4517 32.3429 23.0386 32.3827 22.514ZM30.5475 20.1401C30.4822 19.8781 30.3206 19.6654 30.1097 19.5305C30.4088 19.6681 30.7715 19.7797 31.2108 19.8519C32.1223 20.0015 32.1506 20.2349 32.16 20.3116C32.1671 20.3699 32.1595 20.3788 32.1488 20.391C32.0554 20.4991 31.757 20.6157 31.4195 20.6237C31.3428 20.6257 30.669 20.6273 30.5475 20.1401ZM60.7666 10.3571L59.4727 9.85905C59.2697 9.17185 58.9949 8.50929 58.6519 7.87922L59.2151 6.61108C59.3857 6.22718 59.3022 5.77776 59.0051 5.48069L56.9524 3.42812C56.6553 3.13104 56.206 3.04776 55.822 3.21813L54.5534 3.78155C53.9234 3.4384 53.2611 3.1638 52.5744 2.96093L52.0761 1.66651C51.9252 1.27436 51.5484 1.01562 51.1283 1.01562H48.2255C47.8054 1.01562 47.4286 1.27436 47.2777 1.66639L46.7794 2.9608C46.0927 3.16367 45.4304 3.43827 44.8004 3.78143L43.5318 3.21801C43.1479 3.04764 42.6985 3.13092 42.4014 3.42812L40.3488 5.48069C40.0518 5.77776 39.9682 6.22705 40.1387 6.61108L40.7021 7.8796C40.359 8.50967 40.0844 9.17198 39.8816 9.8588L38.5874 10.357C38.5361 10.3766 38.4874 10.4006 38.441 10.4277C36.299 9.18366 33.8801 8.52935 31.3703 8.52935C23.5872 8.52935 17.2552 14.8614 17.2552 22.6446C17.2552 26.3015 18.3632 28.195 19.5363 30.1997C20.7884 32.3397 22.2071 34.765 22.533 40.2431V42.3379C22.533 43.7163 23.425 44.8895 24.6617 45.3129V46.5952C24.6617 47.9937 25.5799 49.1814 26.8448 49.5886V50.8529C26.8448 52.5867 28.2553 53.9972 29.9891 53.9972H32.7517C34.4855 53.9972 35.8961 52.5867 35.8961 50.8529V49.5886C37.161 49.1815 38.079 47.9939 38.079 46.5952V45.3129C39.3158 44.8895 40.2078 43.7163 40.2078 42.3379V40.2431C40.5338 34.765 41.9525 32.3395 43.2046 30.1997C44.3777 28.195 45.4857 26.3014 45.4857 22.6446C45.4857 22.4505 45.4804 22.256 45.4725 22.0617C45.8969 22.2537 46.3326 22.4194 46.7798 22.5516L47.2781 23.8461C47.4289 24.2381 47.8057 24.4969 48.2259 24.4969H51.1288C51.549 24.4969 51.9257 24.2381 52.0766 23.8461L52.5747 22.5521C53.2617 22.3492 53.9244 22.0745 54.5544 21.7315L55.8224 22.2946C56.2066 22.4652 56.6557 22.3817 56.9528 22.0846L59.0055 20.0319C59.3026 19.7349 59.3861 19.2856 59.2156 18.9015L58.6522 17.6329C58.9952 17.003 59.2699 16.3405 59.4727 15.654L60.7672 15.1557C61.1592 15.0048 61.418 14.628 61.418 14.2078V11.3048C61.4175 10.8847 61.1587 10.5079 60.7666 10.3571ZM32.7513 51.966H29.9887C29.375 51.966 28.8757 51.4667 28.8757 50.8529V49.7395H33.8643V50.8529C33.8645 51.4665 33.3651 51.966 32.7513 51.966ZM34.9345 47.7082H27.8059C27.1921 47.7082 26.6927 47.2089 26.6927 46.5952V45.4821H36.0475V46.5952C36.0474 47.209 35.5482 47.7082 34.9345 47.7082ZM37.0633 43.4509H25.677C25.0633 43.4509 24.564 42.9515 24.564 42.3379V41.2245H38.1762V42.3379C38.1762 42.9515 37.6769 43.4509 37.0633 43.4509ZM41.451 29.174C40.1569 31.3857 38.6995 33.8766 38.2465 39.1933H24.4935C24.0406 33.8766 22.5831 31.3857 21.289 29.1741C20.1699 27.2615 19.286 25.7509 19.286 22.6448C19.286 15.9816 24.7068 10.5607 31.37 10.5607C33.7218 10.5607 35.9808 11.2298 37.9362 12.4993V14.2078C37.9362 14.628 38.1949 15.0047 38.587 15.1557L39.881 15.6537C40.084 16.341 40.3586 17.0036 40.7016 17.6334L40.1385 18.9014C39.9678 19.2854 40.0514 19.7347 40.3485 20.0318L42.4012 22.0845C42.6772 22.3606 43.0842 22.4492 43.4483 22.3242C43.4511 22.4311 43.4539 22.538 43.4539 22.6448C43.4541 25.7508 42.5701 27.2614 41.451 29.174ZM59.3862 13.5104L58.2596 13.944C57.9472 14.0642 57.714 14.331 57.6364 14.6567C57.4361 15.4984 57.1037 16.3001 56.6485 17.0396C56.4729 17.3249 56.4493 17.6782 56.5851 17.9843L57.0755 19.0887L56.0091 20.1552L54.9054 19.665C54.5992 19.5289 54.2458 19.5528 53.9606 19.7284C53.2215 20.1835 52.4195 20.516 51.5771 20.7165C51.2513 20.794 50.9846 21.0271 50.8644 21.3397L50.4309 22.4658H48.9227L48.4891 21.3392C48.3688 21.0267 48.1021 20.7935 47.7764 20.716C46.9347 20.5156 46.1329 20.1833 45.3934 19.728C45.1083 19.5524 44.7549 19.5288 44.4488 19.6647L43.3444 20.1551L42.2779 19.0885L42.7681 17.9848C42.904 17.6786 42.8803 17.325 42.7046 17.0399C42.2496 16.3012 41.9171 15.4993 41.7165 14.6566C41.6389 14.3308 41.4058 14.0641 41.0933 13.9439L39.9672 13.5104V12.0021L41.0935 11.5686C41.4061 11.4484 41.6392 11.1817 41.7168 10.8559C41.9171 10.0141 42.2495 9.21223 42.7047 8.47298C42.8803 8.18771 42.904 7.83428 42.7682 7.52819L42.2778 6.42396L43.3442 5.35755L44.4485 5.84797C44.7546 5.98381 45.1081 5.96007 45.3932 5.78449C46.1326 5.32937 46.9343 4.99688 47.7761 4.79654C48.1019 4.71897 48.3685 4.48589 48.4887 4.17333L48.9227 3.04688H50.4309L50.8646 4.17333C50.9848 4.48576 51.2514 4.71897 51.5772 4.79654C52.419 4.99688 53.2209 5.32937 53.9601 5.78449C54.2453 5.96007 54.5988 5.98368 54.9048 5.84784L56.0091 5.35742L57.0757 6.42383L56.5854 7.52769C56.4494 7.83377 56.4732 8.18733 56.6489 8.47247C57.104 9.21159 57.4365 10.0134 57.6369 10.8559C57.7145 11.1817 57.9476 11.4484 58.2601 11.5686L59.3862 12.002V13.5104ZM49.6768 6.67812C46.3253 6.67812 43.5987 9.40481 43.5987 12.7564C43.5987 16.1078 46.3254 18.8345 49.6768 18.8345C53.0283 18.8345 55.755 16.1078 55.755 12.7564C55.7551 9.40481 53.0284 6.67812 49.6768 6.67812ZM49.6768 16.8031C47.4454 16.8031 45.63 14.9877 45.63 12.7563C45.63 10.5247 47.4454 8.70924 49.6768 8.70924C51.9083 8.70924 53.7237 10.5247 53.7237 12.7563C53.7239 14.9878 51.9083 16.8031 49.6768 16.8031Z" fill="url(#paint0_linear_668_954)"/>
<defs>
<linearGradient id="paint0_linear_668_954" x1="8.43079" y1="61.051" x2="61.503" y2="7.97863" gradientUnits="userSpaceOnUse">
<stop stop-color="#1E1E1E"/>
<stop offset="1" stop-color="#E92E29"/>
</linearGradient>
</defs>
</svg>
