<svg width="66" height="65" viewBox="0 0 66 65" fill="none" xmlns="http://www.w3.org/2000/svg">
<path fill-rule="evenodd" clip-rule="evenodd" d="M42.1386 58.0818C38.3142 61.004 33.774 63.0612 28.7934 63.9294L27.8604 64.0925C27.7441 64.1129 27.6253 64.1129 27.5091 64.0925L26.5764 63.9295C11.9044 61.3717 1.05908 48.4945 1.05908 33.593V12.8876C1.05908 12.4797 1.30213 12.1111 1.67696 11.9504L27.283 0.974582C27.5396 0.864592 27.8299 0.864592 28.0865 0.974582L53.6924 11.9504C54.0673 12.1111 54.3104 12.4797 54.3104 12.8876V33.593C54.3104 35.6201 54.1097 37.6097 53.726 39.541C59.6691 40.2801 64.2748 45.3547 64.2748 51.4964C64.2748 58.1459 58.8762 63.5445 52.2268 63.5445C48.0069 63.5445 44.2908 61.3702 42.1386 58.0818ZM51.6609 39.4616C52.0613 37.56 52.2712 35.5961 52.2712 33.593V13.5599C48.686 12.0232 30.615 4.27709 27.6847 3.02106L3.0983 13.5599V33.593C3.0983 47.5079 13.2259 59.5321 26.9267 61.9206L27.6847 62.0532L28.4427 61.9206C33.2053 61.0904 37.5358 59.0953 41.1592 56.2614C40.5284 54.7997 40.1788 53.1886 40.1788 51.4964C40.1788 45.0367 45.2737 39.7575 51.6609 39.4616ZM52.2268 41.4877C46.7029 41.4877 42.218 45.9724 42.218 51.4964C42.218 57.0204 46.7029 61.5053 52.2268 61.5053C57.7508 61.5053 62.2356 57.0204 62.2356 51.4964C62.2356 45.9724 57.7508 41.4877 52.2268 41.4877ZM50.8107 50.9991L55.3207 46.4421L55.3226 46.4402C56.3388 45.4188 57.9973 45.4138 59.0187 46.43C60.0396 47.4456 60.0463 49.098 59.0307 50.1243L59.0303 50.1248C56.9066 52.2676 54.799 54.4234 52.6658 56.5566C51.6449 57.5775 49.9873 57.5775 48.9664 56.5566L45.431 53.018C44.4106 51.9977 44.4089 50.3462 45.4291 49.3206L45.431 49.3186C46.4519 48.2978 48.1095 48.2978 49.1304 49.3186L50.8107 50.9991ZM50.0936 53.1658L47.6884 50.7606C47.4637 50.5358 47.099 50.5355 46.8731 50.7604C46.6492 50.9872 46.6479 51.3511 46.873 51.5761L50.4084 55.1147C50.6334 55.3397 50.9988 55.3397 51.2238 55.1147C53.3548 52.9838 55.46 50.8303 57.5814 48.6898C57.8051 48.4636 57.8055 48.0995 57.5805 47.8756C57.3562 47.6525 56.992 47.6539 56.7687 47.8779L51.5392 53.1619C51.3483 53.3548 51.0884 53.4636 50.8171 53.4644C50.5459 53.465 50.2854 53.3576 50.0936 53.1658ZM11.3125 33.869C11.1954 34.1341 11.13 34.282 11.1301 34.2817C10.614 35.459 9.22984 35.9954 8.05219 35.4721C8.05219 35.4721 5.41956 34.3112 5.42147 34.3121C4.24663 33.7969 3.70968 32.4067 4.22484 31.2318C4.22522 31.2308 4.2256 31.2299 4.22598 31.229L10.2724 17.5521C10.2729 17.551 10.2733 17.55 10.2738 17.5489C10.7972 16.3758 12.1782 15.8438 13.3513 16.3582L13.3548 16.3597L15.9875 17.5259C17.155 18.0417 17.6983 19.4258 17.1751 20.6028C17.1751 20.6028 17.0468 20.8933 16.8276 21.3894L18.305 22.0713C18.3298 22.0828 18.3543 22.0952 18.3781 22.1086C18.9826 22.4491 19.5935 22.4293 20.2264 22.3286C20.7816 22.2403 21.3516 22.0862 21.9459 21.9559C23.5635 21.6011 25.327 21.407 27.3711 22.5603C30.0917 20.9264 32.2173 21.3387 34.0488 22.0113C34.8728 22.3138 35.6247 22.6831 36.3461 22.8821C36.8358 23.0174 37.3056 23.0723 37.778 22.8283L39.0656 22.1396L38.7389 21.2978C38.7384 21.2965 38.7379 21.2952 38.7375 21.294C38.2768 20.0927 38.8748 18.7392 40.0749 18.2769L42.7582 17.2331L42.7604 17.2322C43.9527 16.7716 45.309 17.3646 45.7788 18.566C45.7791 18.5669 45.7795 18.5678 45.7798 18.5687L51.1844 32.5105C51.1848 32.5117 51.1853 32.5128 51.1857 32.514C51.6468 33.7164 51.0457 35.0704 49.8546 35.5306L47.1701 36.5748C47.1686 36.5755 47.167 36.576 47.1655 36.5766C45.9641 37.0372 44.6106 36.4392 44.1483 35.2389L44.012 34.8874L42.266 35.6156C42.328 36.2138 42.2147 36.8347 41.902 37.3998C41.5213 38.093 40.9065 38.5843 40.2079 38.8269C40.3789 39.5438 40.2964 40.3221 39.9161 41.0153L39.9152 41.0169C39.3366 42.0671 38.2294 42.6481 37.1074 42.6134C37.092 43.0785 36.9706 43.546 36.7325 43.9799C36.7318 43.9811 36.7312 43.9823 36.7306 43.9834C36.1119 45.1003 34.8889 45.6887 33.6892 45.5606C33.6584 45.9876 33.5379 46.4142 33.3196 46.8121C32.5025 48.3011 30.5896 48.8681 29.1163 48.0207L28.5759 47.7102C27.6431 48.826 26.0141 49.1806 24.6779 48.4697L24.6768 48.4691C24.0673 48.1438 23.6094 47.6443 23.3304 47.0643C22.5389 47.3271 21.6457 47.2796 20.8574 46.86C20.8554 46.859 20.8535 46.8578 20.8515 46.8568C20.3169 46.5676 19.8981 46.1449 19.6158 45.6514C18.7652 46.0219 17.7609 46.0165 16.8786 45.5455C15.766 44.9531 15.1557 43.7753 15.2208 42.591C14.7951 42.5606 14.3693 42.4427 13.9702 42.2296C12.4398 41.4149 11.8584 39.5 12.6793 37.9712L13.3456 36.7242C13.2133 36.3616 13.1251 35.952 13.0476 35.5365C12.9989 35.2756 12.9522 35.0129 12.87 34.7775C12.8226 34.6415 12.7842 34.5003 12.6448 34.4461C12.4572 34.3734 11.9426 34.1488 11.3125 33.869ZM16.0031 23.2549C14.8795 25.7974 13.2013 29.595 12.1366 32.0042C12.7259 32.2663 13.2049 32.4761 13.3817 32.5447L13.3832 32.5452C14.1837 32.857 14.6182 33.495 14.856 34.2938C14.8731 34.3513 14.8892 34.4097 14.9043 34.4688C15.8491 33.7817 17.1459 33.6457 18.2447 34.2304C18.2456 34.2309 18.2465 34.2314 18.2475 34.2319C19.0821 34.6792 19.6342 35.4584 19.828 36.3221C20.4267 36.2626 21.0481 36.3733 21.6162 36.6751C21.6171 36.6755 21.6179 36.676 21.6187 36.6764C22.3126 37.0475 22.8119 37.6477 23.0729 38.3344C23.7895 38.1691 24.5663 38.2508 25.2609 38.6223C25.9545 38.9933 26.4524 39.5929 26.7123 40.2802C27.4278 40.1141 28.2031 40.196 28.9007 40.567C28.9062 40.5699 28.9117 40.5728 28.9172 40.5759C29.2589 40.7657 29.562 41.0104 29.8144 41.3078L33.5265 43.4128L33.5349 43.4174C34.0361 43.6886 34.6682 43.4962 34.9465 42.9956C35.2218 42.4894 35.0236 41.8549 34.5207 41.5696C34.4757 41.5441 34.4333 41.5157 34.3938 41.4847L29.2515 38.5915C28.7611 38.3156 28.587 37.6933 28.8629 37.2029C29.1388 36.7125 29.761 36.5382 30.2515 36.8143L36.7078 40.4469L36.7095 40.4479C36.7116 40.449 36.7135 40.4501 36.7155 40.4512C37.2171 40.7246 37.8512 40.5363 38.1287 40.0336C38.4048 39.5294 38.2103 38.8958 37.7097 38.6133L37.7077 38.6121C36.0653 37.694 34.4177 36.7707 32.7856 35.8373C32.2971 35.5579 32.1272 34.9345 32.4065 34.446C32.6859 33.9575 33.3094 33.7877 33.7978 34.0671C35.425 34.9976 37.0674 35.9179 38.7047 36.8333C39.2052 37.113 39.8402 36.9182 40.1149 36.4177C40.1157 36.4164 40.1164 36.415 40.1172 36.4137C40.2853 36.1104 40.2772 35.7586 40.1345 35.4682C40.1344 35.468 40.1344 35.468 40.1344 35.4679C40.133 35.4651 40.1316 35.4622 40.1302 35.4592C40.0391 35.2691 39.8896 35.106 39.6918 34.994C39.6908 34.9934 39.6897 34.9929 39.6887 34.9923L32.5525 30.9225C31.8725 30.5349 31.1271 30.6188 30.3473 30.8279C29.3236 31.1026 28.253 31.61 27.1668 32.0151C25.6177 32.5931 24.0389 32.9543 22.5119 32.5263C21.4547 32.23 20.4038 31.5673 19.411 30.2909C19.3958 30.2712 19.3813 30.2511 19.3675 30.2304C19.1682 29.9314 19.0984 29.6012 19.1731 29.2525C19.2498 28.8945 19.4666 28.5964 19.7728 28.4177C21.6882 27.2988 23.3858 26.0508 24.7734 24.6485L24.774 24.6478C25.0078 24.4121 25.2509 24.1796 25.5024 23.9546C23.9985 23.4567 22.6927 23.8783 21.4876 24.1538C20.0613 24.4801 18.7354 24.6336 17.4159 23.9068L16.0031 23.2549ZM39.8086 24.0548L38.734 24.6296C38.7305 24.6314 38.7271 24.6332 38.7237 24.635C37.2998 25.376 35.8856 24.9508 34.3019 24.3037C32.6351 23.6227 30.6802 22.743 27.964 24.6025L27.9637 24.6026C27.339 25.0301 26.7531 25.548 26.2229 26.0828C24.9157 27.4037 23.3585 28.6029 21.6108 29.6906C23.5665 31.5162 25.7284 30.407 27.7604 29.5873C29.8329 28.7515 31.8322 28.1647 33.5623 29.1509H33.5625C33.5625 29.1509 40.6989 33.221 40.6958 33.2192C40.9641 33.371 41.2009 33.5558 41.4041 33.7657L43.274 32.9855L39.8086 24.0548ZM29.5946 45.9437L30.1324 46.2527C30.6249 46.536 31.2588 46.3286 31.5318 45.8311C31.8087 45.3266 31.62 44.6889 31.1193 44.4054C31.1183 44.4049 30.4869 44.0334 30.4869 44.0334C30.4263 44.3066 30.3283 44.5734 30.1922 44.8259L29.5946 45.9437ZM12.1364 18.3793C12.1364 18.3793 6.09212 32.0511 6.09136 32.0529C6.02738 32.202 6.09161 32.3791 6.24035 32.4444L6.24239 32.4453L8.87591 33.6067C8.87718 33.6073 8.87858 33.6079 8.87986 33.6084C9.02592 33.6737 9.19848 33.6089 9.26259 33.4629L9.26374 33.4602L15.3101 19.7782C15.3107 19.7772 15.311 19.776 15.3115 19.7749C15.3771 19.6281 15.309 19.4555 15.1633 19.3911L15.1624 19.3907C15.1624 19.3907 12.5318 18.2255 12.5302 18.2248C12.3797 18.1602 12.2037 18.2291 12.1364 18.3793ZM13.2155 19.1834C13.8664 19.2101 14.3629 19.7605 14.336 20.4114C14.3025 21.0623 13.7523 21.5656 13.1014 21.5388C12.4572 21.5051 11.9538 20.9549 11.9807 20.3041C12.0143 19.653 12.5645 19.1499 13.2155 19.1834ZM43.8794 19.3081L43.8787 19.3062C43.8179 19.1543 43.6472 19.0759 43.4955 19.1343L40.8131 20.1779C40.8116 20.1785 40.81 20.179 40.8085 20.1797C40.6562 20.238 40.5833 20.4109 40.6413 20.5632L46.0497 34.5018C46.0502 34.5031 46.0507 34.5044 46.0512 34.5057C46.1096 34.6578 46.2821 34.7307 46.4344 34.673L49.1152 33.6301L49.1174 33.6293C49.2687 33.5708 49.3401 33.3972 49.2819 33.2448L43.8794 19.3081ZM42.767 22.4162C42.1154 22.4162 41.5847 21.8855 41.5847 21.2404C41.5847 20.5888 42.1154 20.0581 42.767 20.0581C43.4186 20.0581 43.9426 20.5888 43.9426 21.2404C43.9426 21.8855 43.4186 22.4162 42.767 22.4162ZM17.7863 37.4259C17.998 36.909 17.7866 36.2995 17.2855 36.0298C16.747 35.7444 16.0733 35.9467 15.7869 36.4823L14.4779 38.9322L14.477 38.9339C14.1884 39.4713 14.3913 40.1437 14.9286 40.4295L14.9303 40.4305C15.3103 40.6335 15.7589 40.5907 16.0903 40.3572L17.7863 37.4259ZM19.4896 38.5538L17.3877 42.2459C17.3867 42.2479 17.3856 42.25 17.3845 42.2519C17.0964 42.786 17.3004 43.46 17.8371 43.7456L17.8388 43.7465C18.3793 44.0353 19.048 43.8237 19.3398 43.2883L21.229 39.6279C21.3012 39.1758 21.0834 38.7034 20.6582 38.4752C20.2746 38.2721 19.8217 38.3144 19.4896 38.5538ZM21.237 44.0586C21.2276 44.4625 21.4419 44.8562 21.8214 45.0629C22.2956 45.3118 22.8758 45.1808 23.2017 44.7771L24.8659 41.5778C24.9384 41.1227 24.7253 40.6484 24.299 40.4204C23.8771 40.1948 23.3691 40.2735 23.0332 40.5784L21.237 44.0586ZM25.0564 45.6301C25.0345 46.0469 25.2453 46.4607 25.6363 46.6697C26.175 46.9558 26.8492 46.7537 27.1357 46.2178L28.3939 43.8645C28.3944 43.8635 28.395 43.8625 28.3955 43.8615C28.5968 43.4879 28.5542 43.0278 28.3026 42.6813C28.2038 42.549 28.0782 42.4439 27.9325 42.3617C27.5082 42.142 27.0053 42.2233 26.6691 42.5302L25.0564 45.6301Z" fill="url(#paint0_linear_668_1755)"/>
<defs>
<linearGradient id="paint0_linear_668_1755" x1="0.166927" y1="65" x2="65.1669" y2="-3.46537e-05" gradientUnits="userSpaceOnUse">
<stop stop-color="#1E1E1E"/>
<stop offset="1" stop-color="#E92E29"/>
</linearGradient>
</defs>
</svg>
