<svg width="46" height="46" viewBox="0 0 46 46" fill="none" xmlns="http://www.w3.org/2000/svg">
<g clip-path="url(#clip0_715_302)">
<path fill-rule="evenodd" clip-rule="evenodd" d="M6.04924 27.5627L8.04053 27.8426C8.65589 27.929 9.08874 28.503 9.0022 29.1187L7.61005 39.0244C7.52352 39.6401 6.94917 40.073 6.33381 39.9865L4.34252 39.7066C3.72678 39.6201 3.29398 39.0458 3.38052 38.43L4.77268 28.5243C4.85921 27.9086 5.4335 27.4762 6.04924 27.5627Z" fill="#1E1E1E"/>
<path fill-rule="evenodd" clip-rule="evenodd" d="M26.1032 25.5348C26.0109 26.1914 25.3983 26.6534 24.7416 26.5611L20.3445 25.9431C19.6874 25.8508 19.2255 25.2378 19.3178 24.5811L19.4069 23.9475C19.8688 20.6608 16.606 19.2606 17.2267 14.8441C17.7963 10.7915 21.4736 9.24205 24.8666 9.7189C28.2595 10.1958 31.3672 12.6988 30.7977 16.7514C30.177 21.1678 26.6543 21.6144 26.1924 24.9012L26.1033 25.5348L26.1032 25.5348Z" fill="#B32C28"/>
<path fill-rule="evenodd" clip-rule="evenodd" d="M24.5241 28.1085L24.467 28.5145C24.3631 29.2534 23.6732 29.7733 22.9342 29.6695L21.2245 29.4292C20.4855 29.3254 19.966 28.6355 20.0699 27.8965L20.127 27.4905L24.5241 28.1085Z" fill="#1E1E1E"/>
<path fill-rule="evenodd" clip-rule="evenodd" d="M14.4279 9.73432C14.0892 9.46866 14.0296 8.97873 14.2949 8.63993C14.5605 8.30125 15.0506 8.24169 15.3893 8.50696L16.823 9.62723C17.162 9.89295 17.2212 10.3828 16.9559 10.7216C16.6903 11.0603 16.2006 11.1199 15.8616 10.8542L14.4279 9.73432ZM18.9332 5.83645C18.7715 5.43773 18.9638 4.98311 19.3626 4.82149C19.7614 4.65948 20.216 4.85181 20.3776 5.25052L21.0593 6.93784C21.221 7.33656 21.029 7.79122 20.6303 7.95285C20.2312 8.11443 19.7765 7.92248 19.6149 7.52377L18.9332 5.83645ZM24.7813 4.71057C24.8414 4.28328 25.2365 3.98561 25.6637 4.04565C26.0909 4.10569 26.3886 4.50082 26.3286 4.92803L26.0754 6.7297C26.0153 7.15729 25.6202 7.45465 25.193 7.39461C24.7658 7.33457 24.468 6.93991 24.5281 6.51224L24.7813 4.71057ZM30.4133 6.66095C30.6785 6.32222 31.1682 6.2626 31.5072 6.52831C31.8459 6.79358 31.9051 7.28354 31.6395 7.6222L30.5198 9.05636C30.2539 9.39498 29.7639 9.45416 29.4251 9.18888C29.0867 8.92366 29.0272 8.43365 29.2925 8.09493L30.4132 6.66094L30.4133 6.66095ZM34.3108 11.1662C34.7092 11.0045 35.1641 11.1968 35.3257 11.5956C35.4873 11.9944 35.2947 12.4489 34.8966 12.611L33.2098 13.2924C32.8106 13.4544 32.3556 13.262 32.194 12.8633C32.032 12.4644 32.2247 12.0099 32.6234 11.8479L34.3108 11.1662ZM35.4362 17.0174C35.862 17.0772 36.1583 17.4709 36.0985 17.8964C36.0387 18.3218 35.6453 18.6185 35.2196 18.5587L33.4179 18.3055C32.9914 18.2455 32.6958 17.8523 32.7556 17.4265C32.8154 17.0008 33.2081 16.7042 33.6345 16.7641L35.4362 17.0174ZM12.4774 15.3655C12.0502 15.3054 11.7525 14.9103 11.8125 14.4831C11.8726 14.0559 12.2677 13.7582 12.6949 13.8182L14.4966 14.0714C14.9238 14.1314 15.2215 14.5266 15.1615 14.9538C15.1014 15.381 14.7064 15.6787 14.2791 15.6187L12.4774 15.3655Z" fill="#1E1E1E"/>
<path fill-rule="evenodd" clip-rule="evenodd" d="M9.22779 38.7397C11.2635 39.2006 13.1663 39.7912 15.2463 40.48C18.7008 41.6242 20.5393 42.1207 24.8231 41.1419C28.1333 40.3855 31.7447 39.2488 34.9599 38.0901C36.1514 37.6609 37.2684 37.1969 37.8281 36.784C38.7003 36.1405 38.8512 35.3694 38.5974 34.7138C38.2675 33.8636 37.3466 33.2651 34.7185 33.8461C32.9245 34.2431 30.838 34.5952 29.2254 34.7997C29.0381 35.481 28.6205 36.0142 28.0426 36.4127C26.5652 37.4307 23.4669 37.815 17.5839 36.4876C17.1635 36.3928 16.899 35.975 16.9938 35.5542C17.089 35.1338 17.5067 34.8696 17.9275 34.9645C22.1372 35.9139 24.6959 35.9696 26.1679 35.5654C26.9957 35.3376 27.5278 35.0789 27.6049 34.1493C27.6828 33.2106 27.0374 32.4601 25.3935 32.1843C22.7751 31.7449 20.4505 31.1637 17.8547 30.4692C15.9663 29.9634 13.1082 29.9513 10.4849 29.7954L9.22779 38.7397Z" fill="#1E1E1E"/>
</g>
<defs>
<clipPath id="clip0_715_302">
<rect width="40" height="40" fill="white" transform="translate(5.97803 0.411133) rotate(8)"/>
</clipPath>
</defs>
</svg>
