<svg width="46" height="46" viewBox="0 0 46 46" fill="none" xmlns="http://www.w3.org/2000/svg">
<g clip-path="url(#clip0_715_279)">
<path d="M10.0854 37.01C9.78365 36.9676 9.57753 36.6941 9.61993 36.3924C9.66234 36.0907 9.93588 35.8845 10.2376 35.9269L31.1802 38.8702C31.4819 38.9126 31.6881 39.1862 31.6457 39.4879C31.6033 39.7896 31.3297 39.9957 31.028 39.9533L10.0854 37.01Z" fill="#1E1E1E"/>
<path fill-rule="evenodd" clip-rule="evenodd" d="M5.55475 10.8672L3.29971 26.9127L40.7442 32.1752L42.9993 16.1297C43.1297 15.2013 42.8692 14.3048 42.3439 13.6077C41.8186 12.9106 41.0286 12.413 40.1002 12.2826L35.1953 11.5932C35.3017 11.7344 35.407 11.8833 35.4968 12.0301C35.824 12.5652 36.0629 13.1668 36.1792 13.7985C36.9494 14.3249 37.5653 15.0505 37.9606 15.887C38.3802 16.7744 38.5527 17.7927 38.407 18.8294C38.2058 20.2606 37.4451 21.4633 36.3774 22.2679C35.3098 23.0724 33.9362 23.4711 32.5127 23.271L29.7663 22.885C29.7126 23.0984 29.5395 23.2634 29.3065 23.2938L28.2936 23.4276C28.2518 23.5006 28.21 23.5736 28.1692 23.6389C28.1274 23.7119 28.0867 23.7772 28.0449 23.8502L28.4105 24.7852C28.5004 24.9871 28.459 25.2259 28.2937 25.392C27.9354 25.7519 27.6377 26.0177 27.3211 26.2494C27.0035 26.4887 26.6659 26.7016 26.2289 26.9479C26.0413 27.0478 25.8059 27.0384 25.6277 26.9029L24.8165 26.276C24.7414 26.3049 24.6597 26.325 24.578 26.3451C24.4963 26.3652 24.4223 26.3863 24.3417 26.3987L23.9339 27.3354C23.8515 27.5289 23.6584 27.6675 23.4308 27.6591C22.9104 27.657 22.5192 27.6336 22.1324 27.5792C21.7533 27.526 21.3719 27.4329 20.8778 27.3003C20.6644 27.2467 20.4994 27.0736 20.469 26.8405L20.3309 25.8586C20.2579 25.8168 20.1838 25.7827 20.1185 25.742C20.0532 25.7013 19.9802 25.6595 19.9072 25.6176L18.9722 25.9833C18.7702 26.0732 18.5237 26.0307 18.3654 25.8664C18.0276 25.5192 17.754 25.2204 17.508 24.8939C17.262 24.5674 17.0424 24.221 16.8028 23.7928C16.703 23.6052 16.7046 23.3688 16.8479 23.1917L17.4669 22.3793C17.4458 22.3053 17.418 22.2225 17.4046 22.1497C17.3845 22.0679 17.3644 21.9862 17.351 21.9133L16.4142 21.5056C16.2207 21.4231 16.0832 21.2224 16.0905 21.0025C16.0916 20.9947 16.0916 20.9947 16.0927 20.987L13.3462 20.601C11.915 20.3999 10.7123 19.6391 9.9077 18.5715C9.10315 17.5038 8.7045 16.1303 8.90456 14.7067C9.08179 13.4457 9.70133 12.3494 10.5856 11.5585C11.3806 10.8419 12.3839 10.3833 13.4752 10.2526C13.6197 9.67336 13.8615 9.13143 14.1731 8.65453L9.39973 7.98367C8.47136 7.8532 7.57481 8.11377 6.87773 8.63905C6.18283 9.14887 5.68414 9.9466 5.55475 10.8672Z" fill="#1E1E1E"/>
<path fill-rule="evenodd" clip-rule="evenodd" d="M40.5764 33.2561L3.16284 27.9979C3.12822 28.8057 3.3918 29.5685 3.85059 30.1774C4.37588 30.8744 5.16588 31.372 6.09425 31.5025L13.4052 32.53L29.0638 34.7307L36.7926 35.8169C37.7209 35.9473 38.6175 35.6868 39.3146 35.1615C39.9234 34.7027 40.3793 34.041 40.5764 33.2561Z" fill="#B32C28"/>
<path fill-rule="evenodd" clip-rule="evenodd" d="M16.4347 18.4396C16.4884 18.2262 16.6615 18.0612 16.8945 18.0308L17.9074 17.8971C17.9492 17.824 17.9822 17.7577 18.024 17.6847C18.0658 17.6116 18.1076 17.5386 18.1484 17.4734L17.7827 16.5384C17.6928 16.3364 17.7342 16.0976 17.8996 15.9315C18.2391 15.5927 18.5446 15.3279 18.8721 15.0742C19.1986 14.8281 19.545 14.6086 19.9732 14.369C20.1608 14.2691 20.3961 14.2785 20.5743 14.414L21.3856 15.0408C21.4607 15.0119 21.5424 14.9919 21.6241 14.9718C21.7058 14.9517 21.7798 14.9306 21.8604 14.9182L22.2682 13.9815C22.3506 13.7879 22.5514 13.6505 22.7713 13.6577C23.2684 13.6566 23.6751 13.6822 24.0697 13.7376C24.4565 13.792 24.8467 13.8784 25.3254 14.0088C25.5387 14.0624 25.7038 14.2355 25.7341 14.4686L25.8679 15.4814C25.9409 15.5233 26.015 15.5573 26.0803 15.5981C26.1533 15.6399 26.2186 15.6806 26.2905 15.7302L27.2255 15.3646C27.4275 15.2746 27.674 15.3171 27.8323 15.4814C28.1845 15.8386 28.4492 16.144 28.6897 16.4539C28.9291 16.7716 29.142 17.1092 29.3882 17.5462C29.4881 17.7338 29.4864 17.9702 29.3432 18.1473L28.7164 18.9586C28.7375 19.0326 28.7654 19.1154 28.7777 19.196C28.7978 19.2777 28.8189 19.3517 28.8313 19.4323L29.768 19.8401C29.9615 19.9225 30.1001 20.1155 30.0995 20.3443C30.0974 20.8646 30.0739 21.2558 30.0196 21.6426L29.9935 21.8283L32.6471 22.2013C33.7766 22.36 34.862 22.0471 35.7002 21.4154C36.5396 20.776 37.1396 19.8189 37.2972 18.6971C37.4136 17.8693 37.2736 17.0686 36.9461 16.3678C36.6053 15.6493 36.068 15.0373 35.3854 14.6179C35.2394 14.5343 35.133 14.3931 35.1105 14.2164C35.034 13.6376 34.8339 13.0967 34.5378 12.6212C34.2429 12.1379 33.8452 11.7112 33.3705 11.3842C33.2554 11.3049 33.1634 11.1736 33.1454 11.0212C33.1465 11.0134 33.1398 11.0046 33.142 10.9891C33.1397 10.9494 33.1376 10.9649 33.1331 10.9406C33.1275 10.924 33.1297 10.9085 33.1319 10.893C32.8061 9.00117 31.9245 7.58343 30.7599 6.60717C29.6607 5.67164 28.3093 5.1267 26.9421 4.91878C25.575 4.71085 24.1909 4.84768 23.0318 5.29226C21.9224 5.72015 21.0268 6.42266 20.5705 7.36835C20.4495 7.61169 20.1636 7.73719 19.8927 7.64389C19.7655 7.59446 19.6285 7.55942 19.4836 7.52329C19.3543 7.48933 19.2161 7.46202 19.0691 7.44137C17.9551 7.2848 16.8874 7.58443 16.0513 8.20063C15.8847 8.31922 15.7315 8.45547 15.5848 8.60054C15.5661 8.62157 15.5474 8.64261 15.5209 8.66256C14.9665 9.23945 14.5704 9.9806 14.4287 10.8206C14.4061 11.0936 14.179 11.3062 13.9017 11.3146C12.9107 11.3489 11.9813 11.731 11.2767 12.3657C10.581 12.9938 10.0891 13.8556 9.94771 14.8613C9.78896 15.9908 10.1019 17.0762 10.7336 17.9145C11.3719 18.7615 12.3223 19.3527 13.4518 19.5114L16.1054 19.8844C16.1141 19.8225 16.1228 19.7606 16.1315 19.6987C16.2102 19.3074 16.3022 18.9337 16.4347 18.4396Z" fill="#1E1E1E"/>
<path fill-rule="evenodd" clip-rule="evenodd" d="M17.3963 19.0638C17.3252 19.3457 17.2749 19.5911 17.239 19.8464C17.2031 20.1017 17.1838 20.3514 17.1745 20.642L18.0438 21.0245C18.2219 21.1048 18.3338 21.2625 18.3641 21.4403C18.3909 21.5861 18.4178 21.7319 18.4601 21.8798C18.4958 22.019 18.5392 22.1592 18.5903 22.3005C18.6581 22.4915 18.6144 22.6905 18.4998 22.8321L17.9314 23.5648C18.0855 23.8153 18.2208 24.0315 18.3737 24.2345C18.5267 24.4374 18.6962 24.6348 18.8889 24.8355L19.7664 24.4854C19.9497 24.4165 20.1431 24.4437 20.2859 24.5506C20.4076 24.6387 20.5304 24.719 20.6621 24.7928C20.7937 24.8665 20.9253 24.9402 21.0592 24.9985C21.2372 25.0787 21.347 25.2519 21.3684 25.4364L21.4899 26.3686C21.7718 26.4398 22.0171 26.4901 22.2725 26.5259C22.5278 26.5618 22.7775 26.5811 23.0681 26.5904L23.4429 25.7201C23.5231 25.542 23.6809 25.43 23.8587 25.3998C24.0045 25.373 24.1502 25.3461 24.2971 25.3115C24.4362 25.2759 24.5765 25.2325 24.7255 25.1824C24.9165 25.1146 25.1155 25.1583 25.2571 25.2729L25.9909 25.8336C26.2403 25.6872 26.4499 25.5431 26.6528 25.3901C26.8558 25.2372 27.0532 25.0677 27.2616 24.8761L26.9115 23.9985C26.8426 23.8153 26.8698 23.6219 26.9766 23.4791C27.0648 23.3574 27.1451 23.2346 27.2178 23.1107C27.2915 22.979 27.3641 22.8551 27.4312 22.7146C27.5115 22.5366 27.6847 22.4268 27.8691 22.4054L28.7936 22.2828C28.8648 22.0009 28.9151 21.7556 28.9509 21.5003C28.9868 21.2449 29.0061 20.9952 29.0154 20.7046L28.1451 20.3298C27.967 20.2496 27.855 20.0918 27.8248 19.914C27.798 19.7682 27.7711 19.6225 27.7288 19.4745C27.6931 19.3354 27.6508 19.1874 27.5986 19.0539C27.5307 18.8629 27.5745 18.6639 27.6891 18.5222L28.2498 17.7884C28.1034 17.5391 27.9593 17.3295 27.8063 17.1265C27.6534 16.9236 27.4839 16.7262 27.2923 16.5178L26.407 16.8667C26.2237 16.9357 26.0381 16.9096 25.8876 16.8016C25.7658 16.7135 25.643 16.6331 25.5114 16.5594C25.3797 16.4857 25.2481 16.412 25.1142 16.3537C24.9362 16.2735 24.8264 16.1002 24.805 15.9158L24.6825 14.9913C24.4083 14.9212 24.1552 14.8698 23.8999 14.834C23.6446 14.7981 23.3871 14.7777 23.1042 14.7695L22.7217 15.6388C22.6415 15.8168 22.4837 15.9288 22.3059 15.959C22.1601 15.9859 22.0143 16.0127 21.8664 16.055C21.7273 16.0907 21.587 16.1341 21.438 16.1842C21.247 16.252 21.048 16.2083 20.9064 16.0937L20.1726 15.533C19.9232 15.6794 19.7059 15.8224 19.5029 15.9753C19.3 16.1283 19.1037 16.29 18.8942 16.4894L19.2431 17.3747C19.3131 17.5502 19.286 17.7436 19.178 17.8941C19.0899 18.0158 19.0085 18.1464 18.9358 18.2703C18.8621 18.4019 18.7895 18.5258 18.7301 18.6674C18.6499 18.8455 18.4766 18.9552 18.2922 18.9767L17.3963 19.0638ZM19.5213 20.1671C19.6605 19.1768 20.1878 18.3437 20.9212 17.7841C21.6624 17.2255 22.6153 16.9571 23.5979 17.0952C24.5881 17.2344 25.4213 17.7617 25.9809 18.4952C26.5394 19.2364 26.8079 20.1892 26.6698 21.1718C26.5306 22.162 26.0033 22.9952 25.2698 23.5548C24.5286 24.1133 23.5835 24.3829 22.5932 24.2437C21.6029 24.1045 20.7698 23.5772 20.2102 22.8437C19.6594 22.1036 19.3821 21.1574 19.5213 20.1671Z" fill="#B32C28"/>
<path fill-rule="evenodd" clip-rule="evenodd" d="M20.6044 20.3193C20.5076 21.0079 20.698 21.6737 21.0914 22.1865C21.4771 22.6983 22.0646 23.0649 22.7531 23.1617C23.4417 23.2584 24.1075 23.068 24.6193 22.6823C25.131 22.2967 25.4976 21.7092 25.5944 21.0206C25.6912 20.3321 25.5007 19.6663 25.1151 19.1545C24.7294 18.6427 24.143 18.2684 23.4544 18.1716C22.7659 18.0749 22.1001 18.2653 21.5872 18.6587C21.0677 19.0433 20.7011 19.6308 20.6044 20.3193Z" fill="#B32C28"/>
<path fill-rule="evenodd" clip-rule="evenodd" d="M13.7935 33.697L28.369 35.7455L27.9928 38.4223L13.4173 36.3738L13.7935 33.697Z" fill="#1E1E1E"/>
</g>
<defs>
<clipPath id="clip0_715_279">
<rect width="40" height="40" fill="white" transform="translate(5.97754) rotate(8)"/>
</clipPath>
</defs>
</svg>
