<svg width="43" height="44" viewBox="0 0 43 44" fill="none" xmlns="http://www.w3.org/2000/svg">
<path fill-rule="evenodd" clip-rule="evenodd" d="M35.2394 10.4551L30.6519 4.40075L29.8944 9.71455L35.2394 10.4551ZM6.12354 1L29.5615 4.24729L28.7263 10.1054C28.6837 10.4043 28.8948 10.6791 29.1948 10.7206L35.0899 11.5374L34.4507 16.0212C34.3178 15.9443 34.1815 15.8694 34.0427 15.8012L33.4644 13.3311L29.8491 12.8302L28.6026 15.0475C28.262 15.1124 27.9253 15.2 27.597 15.3069L25.427 13.9703L22.5093 16.1559L23.2036 18.5978C23.0097 18.8821 22.8322 19.1796 22.6756 19.4872L20.1878 20.0671L19.676 23.6573L21.9049 24.8931C21.9695 25.2313 22.0572 25.5632 22.1638 25.8914L20.8136 28.0502L23.0072 30.9438L25.4669 30.2487C25.7526 30.4407 26.0517 30.6164 26.361 30.7713L26.9392 33.2414L30.5545 33.7423L31.8011 31.525C31.9536 31.4972 32.1048 31.4621 32.2548 31.4245L30.7035 42.306L0.825033 38.1664L6.12354 1ZM12.6308 8.12332L9.95207 7.75218L9.57258 10.4141L12.2513 10.7852L12.6308 8.12332ZM9.56041 6.59253L13.3308 7.11491C13.6307 7.15647 13.8417 7.43205 13.7989 7.73246L13.2648 11.4791C13.2223 11.7772 12.9421 11.9871 12.6421 11.9456L8.87175 11.4232C8.56943 11.3813 8.3611 11.1037 8.4036 10.8056L8.93773 7.05895C8.98056 6.75854 9.2581 6.55065 9.56041 6.59253ZM11.5714 15.5547L8.89263 15.1836L8.51281 17.8479L11.1916 18.219L11.5714 15.5547ZM8.50065 14.0263L12.271 14.5487C12.571 14.5902 12.782 14.8658 12.7391 15.1662L12.205 18.9129C12.1624 19.2118 11.8826 19.4186 11.5827 19.377L7.81231 18.8546C7.51 18.8127 7.30134 18.5375 7.34383 18.2394L7.87797 14.4927C7.92079 14.1923 8.19833 13.9844 8.50065 14.0263ZM10.5116 22.9885L7.83287 22.6173L7.45338 25.2793L10.1321 25.6504L10.5116 22.9885ZM7.44121 21.4577L11.2116 21.9801C11.5115 22.0216 11.7222 22.2995 11.6797 22.5976L11.1456 26.3443C11.1028 26.6447 10.8229 26.8523 10.5229 26.8107L6.75254 26.2884C6.45023 26.2465 6.24157 25.9712 6.2844 25.6708L6.81853 21.9241C6.86103 21.626 7.1389 21.4158 7.44121 21.4577ZM9.45185 30.4222L6.7731 30.0511L6.39361 32.713L9.07236 33.0842L9.45185 30.4222ZM6.38144 28.8914L10.1518 29.4138C10.4518 29.4554 10.6628 29.731 10.6199 30.0314L10.0858 33.7781C10.0433 34.0762 9.76311 34.286 9.46313 34.2445L5.69278 33.7221C5.39046 33.6802 5.18213 33.4026 5.22463 33.1045L5.75876 29.3579C5.80159 29.0575 6.07913 28.8496 6.38144 28.8914ZM15.3388 10.4077C15.0388 10.3661 14.8278 10.0905 14.8706 9.7901C14.9134 9.48969 15.1933 9.28212 15.4933 9.32368L18.4596 9.73465C18.7595 9.77622 18.9702 10.0541 18.9277 10.3522C18.8852 10.6503 18.605 10.8602 18.305 10.8186L15.3388 10.4077ZM14.279 17.8414C13.979 17.7998 13.7683 17.5219 13.8108 17.2238C13.8533 16.9258 14.1335 16.7159 14.4335 16.7574L17.3998 17.1684C17.6998 17.21 17.9104 17.4879 17.8679 17.786C17.8254 18.084 17.5452 18.2939 17.2453 18.2524L14.279 17.8414ZM13.2192 25.2751C12.9192 25.2336 12.7086 24.9557 12.7511 24.6576C12.7936 24.3595 13.0738 24.1496 13.3738 24.1912L16.34 24.6021C16.64 24.6437 16.851 24.9193 16.8082 25.2197C16.7653 25.5201 16.4855 25.7277 16.1855 25.6861L13.2192 25.2751ZM12.1598 32.7066C11.8598 32.665 11.6488 32.3894 11.6916 32.089C11.7345 31.7886 12.0143 31.581 12.3143 31.6226L15.2806 32.0336C15.5806 32.0751 15.7912 32.353 15.7487 32.6511C15.7062 32.9492 15.426 33.1591 15.126 33.1175L12.1598 32.7066Z" fill="#1E1E1E"/>
<path fill-rule="evenodd" clip-rule="evenodd" d="M30.8264 19.0266C33.1987 19.3552 34.8503 21.5338 34.5142 23.8911C34.1781 26.2484 31.9811 27.8962 29.6088 27.5675C27.2365 27.2388 25.5826 25.0599 25.919 22.7003C26.2554 20.3407 28.4518 18.6976 30.8264 19.0266ZM33.2417 16.467C33.7912 16.7042 34.3045 17.0059 34.7719 17.362L37.047 16.717L38.4615 18.5847L37.2129 20.5811C37.4261 21.1255 37.578 21.6993 37.6567 22.2899L39.72 23.431L39.3896 25.7488L37.0868 26.2873C36.8468 26.8337 36.5419 27.3443 36.1824 27.8094L36.8244 30.0676L34.9427 31.4771L32.9358 30.2412C32.3872 30.4542 31.8095 30.6048 31.2146 30.6858L30.0613 32.738L27.7288 32.4148L27.1917 30.1285C26.6425 29.8889 26.1293 29.5872 25.6615 29.2334L23.3868 29.8761L21.9721 28.0099L23.221 26.0113C23.0074 25.4692 22.8571 24.8955 22.7768 24.3048L20.7139 23.1614L21.0443 20.8436L23.3467 20.3073C23.5891 19.7612 23.894 19.2507 24.2512 18.7853L23.6091 16.527L25.4911 15.116L27.5 16.3546C28.0462 16.1412 28.6242 15.9891 29.2189 15.9096L30.3744 13.8578L32.707 14.1809L33.2417 16.467ZM27.7729 23.2533C27.5913 23.011 27.6401 22.6687 27.8821 22.4874C28.1245 22.3038 28.4713 22.3519 28.6529 22.5942L29.5307 23.7503L32.0875 21.8373C32.3298 21.6537 32.6766 21.7018 32.8582 21.9441C33.0402 22.1841 32.9914 22.5264 32.749 22.71L29.7524 24.9545C29.5078 25.1378 29.1633 25.0901 28.9793 24.8474L27.7713 23.2539L27.7729 23.2533Z" fill="#B32C28"/>
</svg>
