<svg width="48" height="48" viewBox="0 0 48 48" fill="none" xmlns="http://www.w3.org/2000/svg">
<path d="M6 39H42V42H6V39ZM42 6H10.5C10.1022 6 9.72064 6.15804 9.43934 6.43934C9.15804 6.72064 9 7.10218 9 7.5V27C9 28.5913 9.63214 30.1174 10.7574 31.2426C11.8826 32.3679 13.4087 33 15 33H30C31.5913 33 33.1174 32.3679 34.2426 31.2426C35.3679 30.1174 36 28.5913 36 27V21H42C42.7957 21 43.5587 20.6839 44.1213 20.1213C44.6839 19.5587 45 18.7956 45 18V9C45 8.20435 44.6839 7.44129 44.1213 6.87868C43.5587 6.31607 42.7957 6 42 6ZM42 18H36V9H42V18Z" fill="#BB413D"/>
</svg>
