<svg width="48" height="48" viewBox="0 0 48 48" fill="none" xmlns="http://www.w3.org/2000/svg">
<g clip-path="url(#clip0_391_26369)">
<path d="M43.3337 14.6665H37.3337V25.9998H14.667V43.3332C14.667 45.9064 16.7604 47.9999 19.3337 47.9999H28.6671C31.2402 47.9999 33.3337 45.9064 33.3337 43.3332V37.3332H24.0004V33.3332H43.3337C45.9069 33.3332 48.0004 31.2397 48.0004 28.6665V19.3331C48.0004 16.76 45.9069 14.6665 43.3337 14.6665ZM26.0003 40.6666C27.1049 40.6666 28.0003 41.5621 28.0003 42.6665C28.0003 43.7712 27.1048 44.6665 26.0003 44.6665C24.8958 44.6665 24.0004 43.7712 24.0004 42.6665C24.0004 41.562 24.8959 40.6666 26.0003 40.6666Z" fill="#BB413D"/>
<path d="M28.6667 0H19.3333C16.7602 0 14.6666 2.09344 14.6666 4.66669V10.6667H24V14.6667H4.66669C2.09344 14.6666 0 16.7602 0 19.3333V28.6667C0 31.2398 2.09344 33.3334 4.66669 33.3334H10.6667V22H33.3334V4.66669C33.3334 2.09344 31.2398 0 28.6667 0ZM22 7.33331C20.8955 7.33331 20.0001 6.43781 20.0001 5.33334C20.0001 4.22869 20.8956 3.33337 22 3.33337C23.1045 3.33337 24 4.22869 24 5.33334C24 6.43791 23.1045 7.33331 22 7.33331Z" fill="#BB413D"/>
</g>
<defs>
<clipPath id="clip0_391_26369">
<rect width="48" height="48" fill="white"/>
</clipPath>
</defs>
</svg>
