<svg width="48" height="48" viewBox="0 0 48 48" fill="none" xmlns="http://www.w3.org/2000/svg">
<path d="M41.3283 24C44.1739 20.2078 46.6916 14.8736 44.123 10.9219C41.849 7.42209 36.9429 7.14488 32.7811 7.81969C31.0997 3.98063 28.1732 0 23.9995 0C19.8257 0 16.8993 3.98091 15.218 7.81969C11.071 7.14722 6.15499 7.41469 3.87611 10.9219C1.30755 14.8735 3.8252 20.2078 6.6708 24C3.8252 27.7921 1.30755 33.1264 3.87611 37.0781C5.32736 39.3122 8.07705 40.4803 11.7661 40.4803C12.9226 40.4803 14.0574 40.3685 15.218 40.1803C16.8991 44.0191 19.8259 48 23.9995 48C28.1732 48 31.0999 44.0191 32.7811 40.1803C33.9257 40.3659 35.0627 40.4803 36.233 40.4803C39.9221 40.4803 42.6717 39.3122 44.123 37.0781C46.6916 33.1265 44.174 27.7922 41.3283 24ZM6.23392 35.5453C4.54895 32.9526 6.7007 28.8 8.5158 26.2388C9.72986 27.5897 11.1014 28.9144 12.6052 30.1847C12.9333 32.7928 13.4705 35.2603 14.197 37.4897C10.2867 38.0278 7.38986 37.3237 6.23392 35.5453ZM12.2667 26.0878C11.5617 25.4006 10.9008 24.7031 10.2877 24C10.9008 23.2969 11.5617 22.5994 12.2667 21.9122C12.2386 22.6031 12.2236 23.2987 12.2236 24C12.2236 24.7013 12.2386 25.3969 12.2667 26.0878ZM12.6052 17.8153C11.1014 19.0856 9.72986 20.4103 8.5158 21.7612C6.7008 19.2001 4.55242 15.042 6.23392 12.4547C7.70795 10.1854 11.5254 10.1399 14.197 10.5103C13.4705 12.7397 12.9333 15.2063 12.6052 17.8153ZM32.1436 15.3C30.5794 14.1912 28.974 13.1797 27.3005 12.2559C28.5652 11.7694 29.8111 11.3681 31.0224 11.0597C31.4714 12.3816 31.8464 13.8038 32.1436 15.3ZM23.9995 2.8125C26.1202 2.8125 28.2896 4.85719 29.9686 8.43C28.0299 8.9475 26.0217 9.67781 23.9995 10.5956C21.9774 9.67781 19.9692 8.9475 18.0305 8.43C19.7095 4.85719 21.8789 2.8125 23.9995 2.8125ZM16.9767 11.0597C18.188 11.3681 19.4339 11.7694 20.6986 12.2559C19.0259 13.1793 17.4205 14.1907 15.8555 15.3C16.1527 13.8038 16.5277 12.3816 16.9767 11.0597ZM15.8555 32.7C17.4197 33.8088 19.0251 34.8203 20.6986 35.7441C19.4339 36.2306 18.188 36.6319 16.9767 36.9403C16.5277 35.6184 16.1527 34.1962 15.8555 32.7ZM23.9995 45.1875C21.8789 45.1875 19.7095 43.1428 18.0305 39.57C19.9692 39.0525 21.9774 38.3222 23.9995 37.4044C26.0217 38.3222 28.0299 39.0525 29.9686 39.57C28.2896 43.1428 26.1202 45.1875 23.9995 45.1875ZM31.0224 36.9403C29.8111 36.6319 28.5652 36.2306 27.3005 35.7441C28.9732 34.8207 30.5786 33.8093 32.1436 32.7C31.8464 34.1962 31.4714 35.6184 31.0224 36.9403ZM32.7295 28.7381C30.07 30.872 27.0502 32.7983 23.9995 34.2956C20.9509 32.7993 17.9309 30.8735 15.2695 28.7381C15.1158 27.2016 15.0361 25.6153 15.0361 24C15.0361 22.3847 15.1158 20.7984 15.2695 19.2619C17.9291 17.128 20.9488 15.2017 23.9995 13.7044C27.0482 15.2007 30.0682 17.1265 32.7295 19.2619C32.8833 20.7984 32.963 22.3847 32.963 24C32.963 25.6153 32.8833 27.2016 32.7295 28.7381ZM41.7652 12.4547C43.4501 15.0474 41.2984 19.2 39.4833 21.7612C38.2692 20.4103 36.8977 19.0856 35.3939 17.8153C35.0658 15.2063 34.5286 12.7397 33.802 10.5103C36.4883 10.1383 40.2934 10.1903 41.7652 12.4547ZM35.7324 21.9122C36.4374 22.5994 37.0992 23.2969 37.7114 24C37.0992 24.7031 36.4374 25.4006 35.7324 26.0878C35.7605 25.3969 35.7755 24.7013 35.7755 24C35.7755 23.2987 35.7605 22.6031 35.7324 21.9122ZM41.7652 35.5453C40.6092 37.3237 37.7124 38.0278 33.802 37.4897C34.5286 35.2603 35.0658 32.7928 35.3939 30.1847C36.8977 28.9144 38.2692 27.5897 39.4833 26.2388C41.2983 28.7999 43.4467 32.958 41.7652 35.5453Z" fill="#BB413D"/>
<path d="M29.1742 23.0305H28.643C28.5496 22.7223 28.4264 22.4271 28.2766 22.1481L28.6529 21.7718C29.2021 21.2227 29.2021 20.3323 28.6529 19.7831C28.1038 19.234 27.2133 19.234 26.6642 19.7831L26.2878 20.1594C26.0088 20.0095 25.7135 19.8864 25.4055 19.7929V19.2617C25.4055 18.4851 24.7758 17.8555 23.9992 17.8555C23.2226 17.8555 22.593 18.4851 22.593 19.2617V19.7929C22.2848 19.8864 21.9896 20.0096 21.7106 20.1594L21.3343 19.7831C20.7852 19.234 19.8947 19.234 19.3456 19.7831C18.7964 20.3322 18.7964 21.2226 19.3456 21.7718L19.7219 22.1481C19.572 22.4271 19.4489 22.7224 19.3554 23.0305H18.8242C18.0476 23.0305 17.418 23.6601 17.418 24.4367C17.418 25.2133 18.0476 25.843 18.8242 25.843H19.3553C19.4488 26.1511 19.572 26.4463 19.7218 26.7253L19.3455 27.1017C18.7963 27.6508 18.7963 28.5412 19.3455 29.0904C19.6201 29.365 19.98 29.5023 20.3398 29.5023C20.6996 29.5023 21.0596 29.365 21.3341 29.0904L21.7104 28.7141C21.9894 28.864 22.2847 28.9871 22.5928 29.0805V29.6117C22.5928 30.3883 23.2224 31.018 23.999 31.018C24.7757 31.018 25.4053 30.3883 25.4053 29.6117V29.0805C25.7134 28.9871 26.0087 28.8639 26.2877 28.7141L26.664 29.0904C26.9386 29.365 27.2985 29.5023 27.6583 29.5023C28.0181 29.5023 28.3781 29.365 28.6526 29.0904C29.2018 28.5413 29.2018 27.6508 28.6526 27.1017L28.2763 26.7253C28.4262 26.4463 28.5493 26.151 28.6427 25.843H29.1739C29.9506 25.843 30.5802 25.2133 30.5802 24.4367C30.5802 23.6601 29.9508 23.0305 29.1742 23.0305ZM21.9593 24.4367C21.9593 23.3119 22.8744 22.3968 23.9992 22.3968C25.124 22.3968 26.0391 23.3119 26.0391 24.4367C26.0391 25.5615 25.124 26.4766 23.9992 26.4766C22.8744 26.4766 21.9593 25.5615 21.9593 24.4367Z" fill="#BB413D"/>
</svg>
