<svg width="48" height="48" viewBox="0 0 48 48" fill="none" xmlns="http://www.w3.org/2000/svg">
<g clip-path="url(#clip0_391_27033)">
<path d="M43.9675 32.6954C44.077 32.4674 44.077 32.2499 44.1955 32.0234C46.882 21.4754 40.492 9.13939 29.5 2.63989C34.3195 9.13939 36.226 16.8824 34.546 23.8364C34.4127 24.4505 34.2244 25.0514 33.9835 25.6319C33.6748 25.4596 33.3749 25.2719 33.085 25.0694C33.085 25.0694 22.2085 18.3434 10.5445 6.56089C10.2085 6.22489 16.8265 15.9824 24.2245 23.7254C20.749 21.7034 10.8805 14.6399 4.70805 8.92189C5.38005 10.1474 6.39555 11.3819 7.40355 12.6179C12.559 19.2344 19.294 27.3119 27.3655 33.4754C21.646 36.9599 13.6855 37.1789 5.60805 33.4754C3.59205 32.5859 1.90455 31.4594 -0.00195312 30.1169C3.36555 35.3894 8.63805 40.2089 14.92 42.7889C22.4365 46.0454 30.0595 45.8189 35.5525 42.7889H35.671C35.8885 42.6794 36.1165 42.5609 36.343 42.3434C39.031 40.9919 44.3035 39.5399 47.2165 45.1469C48.007 46.7174 49.4605 39.4289 43.9675 32.6954Z" fill="#BB413D"/>
</g>
<defs>
<clipPath id="clip0_391_27033">
<rect width="48" height="48" fill="white"/>
</clipPath>
</defs>
</svg>
