<svg width="28" height="28" viewBox="0 0 28 28" fill="none" xmlns="http://www.w3.org/2000/svg">
<path d="M11.4187 12.1818C10.8987 12.1818 10.4803 12.6032 10.4803 13.1201V14.0585H12.3571V13.1201C12.357 12.6012 11.9367 12.1818 11.4187 12.1818Z" fill="#BB413D"/>
<path d="M23.8946 17.1364H24.884C29.0402 16.9782 29.037 11.0204 24.884 10.8637H23.8946C22.8059 10.8231 22.8064 9.26096 23.8946 9.2207C25.0784 9.2207 26.0415 8.25762 26.0415 7.07383C26.0415 5.34444 24.6345 3.93747 22.9051 3.93747H22.614C22.2622 5.08199 21.1952 5.91643 19.9367 5.91643C19.4831 5.91643 19.1152 5.54861 19.1152 5.09492C19.1152 4.64123 19.4831 4.27341 19.9367 4.27341C20.575 4.27341 21.0942 3.75422 21.0942 3.11596C20.937 -1.03847 14.9786 -1.03842 14.8215 3.11596V7.84057C14.7811 8.9294 13.2185 8.92857 13.1785 7.84057V3.11596C13.0205 -1.03918 7.06298 -1.03798 6.9058 3.11601C6.9058 3.75422 7.42505 4.27341 8.0632 4.27341C8.51689 4.27341 8.88471 4.64123 8.88471 5.09492C8.88471 5.54861 8.51689 5.91643 8.0632 5.91643C6.80481 5.91643 5.73783 5.08199 5.38595 3.93747H5.09481C3.36542 3.93747 1.95845 5.34444 1.95845 7.07383C1.95845 8.25762 2.92153 9.2207 4.10533 9.2207C5.19334 9.26046 5.19399 10.8236 4.10533 10.8637H3.1159C-1.04022 11.0219 -1.03705 16.9798 3.1159 17.1364H4.10538C5.1941 17.177 5.19356 18.7392 4.10538 18.7794C2.92159 18.7794 1.95851 19.7425 1.95851 20.9263C1.95851 22.6557 3.36548 24.0626 5.09486 24.0626H5.38601C5.73794 22.9181 6.80486 22.0837 8.06325 22.0837C8.51694 22.0837 8.88476 22.4516 8.88476 22.9052C8.88476 23.3589 8.51694 23.7268 8.06325 23.7268C7.42505 23.7268 6.90586 24.2459 6.90586 24.8842C7.06304 29.0386 13.0214 29.0385 13.1785 24.8842V20.1595C13.2189 19.0707 14.7815 19.0715 14.8215 20.1595V24.8842C14.9795 29.0393 20.937 29.0381 21.0943 24.8841C21.0943 24.2459 20.575 23.7267 19.9368 23.7267C19.4831 23.7267 19.1153 23.3589 19.1153 22.9052C19.1153 22.4515 19.4831 22.0837 19.9368 22.0837C21.1952 22.0837 22.2622 22.9181 22.6141 24.0626H22.9052C24.6346 24.0626 26.0415 22.6557 26.0415 20.9262C26.0415 19.7424 25.0785 18.7794 23.8947 18.7794C22.8066 18.7396 22.806 17.1765 23.8946 17.1364ZM14 16.6398C13.9596 17.7286 12.397 17.7278 12.357 16.6398V15.7015H10.4802V16.6398C10.4398 17.7286 8.87726 17.7278 8.83722 16.6398V13.1201C8.97091 9.68289 13.8826 9.71684 14 13.1201V16.6398ZM18.3996 15.8183C19.4885 15.8587 19.4877 17.4213 18.3996 17.4613H15.7599C14.671 17.4209 14.6719 15.8583 15.7599 15.8183H16.2582V12.1818H15.7599C14.671 12.1413 14.6719 10.5788 15.7599 10.5387H18.3996C19.4885 10.5792 19.4877 12.1417 18.3996 12.1818H17.9013V15.8183H18.3996Z" fill="#BB413D"/>
</svg>
