<svg width="19" height="18" viewBox="0 0 19 18" fill="none" xmlns="http://www.w3.org/2000/svg">
<g clip-path="url(#clip0_106_888)">
<mask id="mask0_106_888" style="mask-type:luminance" maskUnits="userSpaceOnUse" x="0" y="0" width="19" height="18">
<path d="M0.5 1.90735e-06H18.5V18H0.5V1.90735e-06Z" fill="white"/>
</mask>
<g mask="url(#mask0_106_888)">
<path d="M15.8633 2.63672H17.9727V14.2383H1.02734V2.63672H3.13672" stroke="#BB413D" stroke-miterlimit="10" stroke-linecap="round" stroke-linejoin="round"/>
<path d="M7.39062 17.4727V14.2383" stroke="#BB413D" stroke-miterlimit="10" stroke-linecap="round" stroke-linejoin="round"/>
<path d="M11.6094 14.2383V17.4727" stroke="#BB413D" stroke-miterlimit="10" stroke-linecap="round" stroke-linejoin="round"/>
<path d="M5.28125 17.4727H13.7188" stroke="#BB413D" stroke-miterlimit="10" stroke-linecap="round" stroke-linejoin="round"/>
<path d="M15.8633 12.1289H3.13672V0.527344H15.8633V12.1289Z" stroke="#BB413D" stroke-miterlimit="10" stroke-linecap="round" stroke-linejoin="round"/>
<path d="M5.80859 2.63672C5.80859 2.92795 5.57248 3.16406 5.28125 3.16406C4.99002 3.16406 4.75391 2.92795 4.75391 2.63672C4.75391 2.34548 4.99002 2.10938 5.28125 2.10938C5.57248 2.10938 5.80859 2.34548 5.80859 2.63672Z" fill="#BB413D"/>
<path d="M7.91797 2.63672C7.91797 2.92795 7.68186 3.16406 7.39062 3.16406C7.09939 3.16406 6.86328 2.92795 6.86328 2.63672C6.86328 2.34548 7.09939 2.10938 7.39062 2.10938C7.68186 2.10938 7.91797 2.34548 7.91797 2.63672Z" fill="#BB413D"/>
<path d="M10.0273 2.63672C10.0273 2.92795 9.79123 3.16406 9.5 3.16406C9.20877 3.16406 8.97266 2.92795 8.97266 2.63672C8.97266 2.34548 9.20877 2.10938 9.5 2.10938C9.79123 2.10938 10.0273 2.34548 10.0273 2.63672Z" fill="#BB413D"/>
<path d="M3.13672 4.74609H15.8633" stroke="#BB413D" stroke-miterlimit="10" stroke-linecap="round" stroke-linejoin="round"/>
<path d="M7.39062 6.85547L5.28125 8.4375L7.39062 10.0195" stroke="#BB413D" stroke-miterlimit="10" stroke-linecap="round" stroke-linejoin="round"/>
<path d="M11.6094 10.0195L13.7188 8.4375L11.6094 6.85547" stroke="#BB413D" stroke-miterlimit="10" stroke-linecap="round" stroke-linejoin="round"/>
<path d="M10.0273 6.85547L8.97266 10.0195" stroke="#BB413D" stroke-miterlimit="10" stroke-linecap="round" stroke-linejoin="round"/>
</g>
</g>
<defs>
<clipPath id="clip0_106_888">
<rect width="18" height="18" fill="white" transform="translate(0.5)"/>
</clipPath>
</defs>
</svg>
