<svg width="13" height="12" viewBox="0 0 13 12" fill="none" xmlns="http://www.w3.org/2000/svg">
<g clip-path="url(#clip0_106_967)">
<mask id="mask0_106_967" style="mask-type:luminance" maskUnits="userSpaceOnUse" x="0" y="0" width="13" height="12">
<path d="M0.5 9.53674e-07H12.5V12H0.5V9.53674e-07Z" fill="white"/>
</mask>
<g mask="url(#mask0_106_967)">
<path d="M2.89906 5.00717C2.4872 4.59528 2.28125 4.05547 2.28125 3.51561" stroke="#BB413D" stroke-miterlimit="10" stroke-linecap="round" stroke-linejoin="round"/>
<path d="M10.4844 3.75C10.0313 3.75 9.62116 3.93363 9.32428 4.23051" stroke="#BB413D" stroke-miterlimit="10" stroke-linecap="round" stroke-linejoin="round"/>
<path d="M6.5 9.77344C5.98221 9.77344 5.5625 9.3537 5.5625 8.83594C5.5625 8.31816 5.98221 7.89844 6.5 7.89844C7.01778 7.89844 7.4375 8.31816 7.4375 8.83594C7.4375 9.3537 7.01778 9.77344 6.5 9.77344ZM8.84375 8.83594C8.84375 8.66114 8.82314 8.49141 8.78684 8.32753L9.28725 8.03862L8.58413 6.82076L8.08229 7.11049C7.83249 6.8813 7.53453 6.70395 7.20312 6.59981V6.02344H5.79687V6.59981C5.46546 6.70395 5.1675 6.8813 4.91771 7.11049L4.41586 6.82076L3.71274 8.03862L4.21315 8.32753C4.17685 8.49141 4.15625 8.66114 4.15625 8.83594C4.15625 9.01073 4.17685 9.18047 4.21315 9.34434L3.71274 9.63326L4.41586 10.8511L4.91771 10.5614C5.1675 10.7906 5.46549 10.9679 5.79687 11.0721V11.6484H7.20312V11.0721C7.5345 10.9679 7.83249 10.7906 8.08229 10.5614L8.58413 10.8511L9.28725 9.63326L8.78684 9.34434C8.82314 9.18047 8.84375 9.01073 8.84375 8.83594Z" stroke="#BB413D" stroke-miterlimit="10" stroke-linecap="round" stroke-linejoin="round"/>
<path d="M8.70566 7.03125H10.4844C11.3905 7.03125 12.125 6.29672 12.125 5.39062C12.125 4.48453 11.3905 3.75 10.4844 3.75C10.3879 3.75 10.2936 3.75886 10.2018 3.77508C10.2937 3.51023 10.3438 3.22582 10.3438 2.92969C10.3438 1.50584 9.1895 0.351562 7.76562 0.351562C6.7805 0.351562 5.92456 0.904172 5.49052 1.71621C5.17034 1.51985 4.79391 1.40625 4.39062 1.40625C3.22564 1.40625 2.28125 2.35064 2.28125 3.51562C2.28125 3.60056 2.2877 3.68386 2.29745 3.76615C1.49476 3.87312 0.875 4.55869 0.875 5.39062C0.875 6.29672 1.60951 7.03125 2.51562 7.03125H4.29432" stroke="#BB413D" stroke-miterlimit="10" stroke-linecap="round" stroke-linejoin="round"/>
</g>
</g>
<defs>
<clipPath id="clip0_106_967">
<rect width="12" height="12" fill="white" transform="translate(0.5)"/>
</clipPath>
</defs>
</svg>
