<svg width="48" height="48" viewBox="0 0 48 48" fill="none" xmlns="http://www.w3.org/2000/svg">
<path fill-rule="evenodd" clip-rule="evenodd" d="M13.9056 6.57096C18.3054 6.57096 21.8721 10.1377 21.8721 14.5375C21.8721 15.2979 21.7885 15.9198 21.6484 16.4615C19.9009 18.2033 18.0772 20.0931 16.0314 21.5195V17.1972H17.1326C18.5649 17.1972 19.7339 16.0282 19.7339 14.5961C19.7339 13.1638 18.5649 11.9948 17.1326 11.9948C15.7004 11.9948 14.5314 13.1638 14.5314 14.5961V15.6973H13.28V14.5961C13.28 13.1638 12.1109 11.9948 10.6788 11.9948C9.24658 11.9948 8.07751 13.1638 8.07751 14.5961C8.07751 16.0283 9.24658 17.1972 10.6788 17.1972H11.78V23.2529C10.875 23.4955 9.88192 23.6921 9.05654 24.1361C8.44229 18.7131 5.93917 18.7014 5.93917 14.5374C5.93917 10.1377 9.50579 6.57096 13.9056 6.57096ZM46.8734 36.4381V45.0335C46.8734 45.9781 46.103 46.7485 45.1585 46.7485C40.9714 46.7485 36.7843 46.7485 32.5973 46.7485C31.6526 46.7485 30.8823 45.978 30.8823 45.0335C30.8823 42.1684 30.8823 39.3032 30.8823 36.4381C30.8823 35.4935 31.6527 34.7231 32.5973 34.7231H34.0485V31.2296L37.4045 34.7231H45.1585C46.1031 34.7231 46.8734 35.4935 46.8734 36.4381ZM34.5472 44.5746H43.2085C43.6227 44.5746 43.9585 44.2388 43.9585 43.8246C43.9585 43.4104 43.6227 43.0746 43.2085 43.0746H34.5472C34.133 43.0746 33.7972 43.4104 33.7972 43.8246C33.7972 44.2389 34.133 44.5746 34.5472 44.5746ZM34.5472 38.3969H43.2085C43.6227 38.3969 43.9585 38.0611 43.9585 37.6469C43.9585 37.2327 43.6227 36.8969 43.2085 36.8969H34.5472C34.133 36.8969 33.7972 37.2327 33.7972 37.6469C33.7972 38.0611 34.133 38.3969 34.5472 38.3969ZM34.5472 41.4857H43.2085C43.6227 41.4857 43.9585 41.1499 43.9585 40.7357C43.9585 40.3215 43.6227 39.9857 43.2085 39.9857H34.5472C34.133 39.9857 33.7972 40.3215 33.7972 40.7357C33.7972 41.15 34.133 41.4857 34.5472 41.4857ZM46.8734 13.0366C46.8734 10.1715 46.8734 7.30634 46.8734 4.44124C46.8734 3.49662 46.103 2.72627 45.1585 2.72627C40.9714 2.72627 36.7843 2.72627 32.5973 2.72627C31.6526 2.72627 30.8823 3.49671 30.8823 4.44124V13.0366C30.8823 13.9812 31.6527 14.7516 32.5973 14.7516H34.0485V18.2451L37.4045 14.7516H45.1585C46.1031 14.7516 46.8734 13.9811 46.8734 13.0366ZM34.5472 6.39996C34.133 6.39996 33.7972 6.06415 33.7972 5.64996C33.7972 5.23577 34.133 4.89996 34.5472 4.89996H43.2085C43.6227 4.89996 43.9585 5.23577 43.9585 5.64996C43.9585 6.06415 43.6227 6.39996 43.2085 6.39996H34.5472ZM34.5472 12.5778C34.133 12.5778 33.7972 12.242 33.7972 11.8278C33.7972 11.4136 34.133 11.0778 34.5472 11.0778H43.2085C43.6227 11.0778 43.9585 11.4136 43.9585 11.8278C43.9585 12.242 43.6227 12.5778 43.2085 12.5778H34.5472ZM34.5472 9.48893C34.133 9.48893 33.7972 9.15312 33.7972 8.73893C33.7972 8.32474 34.133 7.98893 34.5472 7.98893H43.2085C43.6227 7.98893 43.9585 8.32474 43.9585 8.73893C43.9585 9.15312 43.6227 9.48893 43.2085 9.48893H34.5472ZM32.2546 28.5755C31.897 28.37 31.7738 27.9135 31.9792 27.556C32.1847 27.1984 32.6411 27.0751 32.9987 27.2805L34.7635 28.2994C35.1211 28.5049 35.2444 28.9614 35.039 29.3189C34.8335 29.6765 34.377 29.7998 34.0195 29.5944L32.2546 28.5755ZM31.2458 19.9932C31.0403 20.3508 30.5838 20.4741 30.2262 20.2687C29.8687 20.0632 29.7454 19.6067 29.9508 19.2491L30.9697 17.4843C31.1752 17.1267 31.6316 17.0035 31.9892 17.2089C32.3468 17.4144 32.47 17.8708 32.2646 18.2284L31.2458 19.9932ZM33.2045 24.1644C32.8048 24.2711 32.3943 24.0337 32.2875 23.6341C32.1807 23.2345 32.4181 22.8239 32.8178 22.7171L34.7861 22.1897C35.1858 22.0829 35.5963 22.3204 35.7031 22.72C35.8099 23.1196 35.5725 23.5301 35.1729 23.6369L33.2045 24.1644ZM14.8226 23.9906L10.6383 25.1118C8.44811 25.6987 7.13636 27.9707 7.72323 30.1607C8.31011 32.3509 10.5821 33.6626 12.7722 33.0759L16.9565 31.9546L14.8226 23.9906ZM16.1705 23.2253L18.4892 31.8793C20.868 31.8685 23.1663 32.3366 25.3856 32.9498L21.5593 18.6698C19.9374 20.2803 18.1583 21.9671 16.1705 23.2253ZM22.783 17.4485L27.0685 33.4417C27.3311 33.5219 27.5928 33.6029 27.8532 33.6844C28.3005 33.8242 28.7553 33.7172 29.0934 33.3927C29.4314 33.0683 29.557 32.6183 29.4357 32.1656L28.1244 27.2717L28.2394 27.2412C29.539 26.8931 30.3101 25.5573 29.962 24.2578C29.6138 22.9583 28.278 22.1871 26.9785 22.5354L26.8636 22.5665L25.4825 17.412C25.3642 16.9705 25.045 16.6496 24.6042 16.5287C24.1633 16.4079 23.7252 16.5213 23.3983 16.8408C23.1956 17.0388 22.9906 17.2418 22.783 17.4485ZM18.9036 39.2215L18.1376 39.4267C16.9324 39.7496 15.686 39.03 15.363 37.8248L14.3905 34.1951L17.2207 33.4367C17.2641 33.433 17.3074 33.4295 17.3507 33.4261L18.9036 39.2215ZM14.6556 3.87809C14.6556 4.29227 14.3198 4.62809 13.9056 4.62809C13.4914 4.62809 13.1556 4.29227 13.1556 3.87809V2.00159C13.1556 1.5874 13.4914 1.25159 13.9056 1.25159C14.3198 1.25159 14.6556 1.5874 14.6556 2.00159V3.87809ZM24.6847 10.5341C24.3271 10.7396 23.8706 10.6162 23.6651 10.2586C23.4596 9.90106 23.583 9.44459 23.9406 9.23909L25.5656 8.30084C25.9232 8.09534 26.3797 8.21862 26.5852 8.57627C26.7907 8.93384 26.6673 9.39031 26.3097 9.59581L24.6847 10.5341ZM20.5615 5.86015C20.356 6.21771 19.8996 6.34099 19.542 6.13559C19.1845 5.93009 19.0612 5.47362 19.2666 5.11606L20.2048 3.49099C20.4103 3.13343 20.8668 3.01015 21.2244 3.21556C21.5819 3.42106 21.7052 3.87752 21.4998 4.23509L20.5615 5.86015ZM3.87067 9.23909C4.22823 9.44459 4.35151 9.90106 4.14611 10.2586C3.94061 10.6162 3.48414 10.7395 3.12658 10.5341L1.50151 9.59581C1.14395 9.39031 1.02067 8.93384 1.22608 8.57627C1.43158 8.21871 1.88804 8.09543 2.24561 8.30084L3.87067 9.23909ZM8.54458 5.11596C8.75008 5.47352 8.6268 5.92999 8.26914 6.13549C7.91158 6.34099 7.45511 6.21762 7.24961 5.86005L6.31136 4.23499C6.10586 3.87743 6.22923 3.42096 6.58679 3.21546C6.94436 3.00996 7.40083 3.13334 7.60633 3.4909L8.54458 5.11596ZM13.2799 22.8511C13.7031 22.7378 14.1445 22.6605 14.5313 22.4507V17.1972H13.2799V22.8511ZM11.7799 15.6973V14.5961C11.7799 13.9919 11.2828 13.4948 10.6787 13.4948C10.0745 13.4948 9.57742 13.9918 9.57742 14.5961C9.57742 15.2002 10.0745 15.6973 10.6787 15.6973H11.7799ZM16.0313 15.6973H17.1325C17.7367 15.6973 18.2338 15.2003 18.2338 14.5961C18.2338 13.9918 17.7368 13.4948 17.1325 13.4948C16.5284 13.4948 16.0313 13.9919 16.0313 14.5961V15.6973Z" fill="#B32C28"/>
</svg>
