<svg width="28" height="28" viewBox="0 0 28 28" fill="none" xmlns="http://www.w3.org/2000/svg">
<g clip-path="url(#clip0_104_567)">
<path d="M23.6606 7.88806C23.3633 7.88806 23.0702 7.91768 22.7834 7.97653C21.6896 6.14937 19.5751 5.06575 17.4218 5.27323C14.1 -0.566659 5.20485 1.25661 4.41642 7.88937C-1.39917 7.9745 -1.50871 16.3365 4.31021 16.567C4.31016 16.567 23.6606 16.567 23.6606 16.567C26.0534 16.567 28.0001 14.6203 28.0001 12.2275C28.0001 9.83473 26.0534 7.88806 23.6606 7.88806Z" fill="#BB413D"/>
<path d="M4.53005 21.5214H4.09029C3.56638 21.5214 3.37226 21.0467 3.37226 20.8033C3.37226 20.4074 3.69437 20.0852 4.09029 20.0852H5.18972C5.64323 20.0852 6.0109 19.7175 6.0109 19.264C6.0109 18.8105 5.64323 18.4428 5.18972 18.4428H4.09029C0.946901 18.5706 0.979912 23.051 4.09034 23.1636H4.53011C4.91573 23.1636 5.24819 23.4787 5.24819 23.8817C5.24819 24.2776 4.92602 24.5998 4.53011 24.5998H3.43061C2.97711 24.5998 2.60944 24.9675 2.60944 25.421C2.60944 25.8745 2.97711 26.2422 3.43061 26.2422H4.53005C7.67486 26.1137 7.63933 21.6333 4.53005 21.5214Z" fill="#BB413D"/>
<path d="M10.604 18.4428C9.18126 18.4428 8.02368 19.6004 8.02368 21.0231V25.4209C8.06354 26.5082 9.62562 26.5095 9.66602 25.4209V23.6034H11.542V25.4209C11.5818 26.5082 13.1439 26.5095 13.1843 25.4209V21.0231C13.1842 19.6004 12.0268 18.4428 10.604 18.4428ZM11.5419 21.9611H9.66597V21.0232C9.66597 20.506 10.0868 20.0852 10.604 20.0852C11.1211 20.0852 11.5419 20.506 11.5419 21.0232V21.9611Z" fill="#BB413D"/>
<path d="M23.8805 21.5214H23.4408C22.9168 21.5214 22.7227 21.0467 22.7227 20.8033C22.7227 20.4074 23.0448 20.0852 23.4408 20.0852H24.5402C24.9937 20.0852 25.3614 19.7175 25.3614 19.264C25.3614 18.8105 24.9937 18.4428 24.5402 18.4428H23.4408C20.2974 18.5706 20.3304 23.051 23.4408 23.1636C23.4408 23.1636 23.8806 23.1636 23.8806 23.1636C24.2662 23.1636 24.5987 23.4787 24.5987 23.8817C24.5987 24.2776 24.2765 24.5998 23.8806 24.5998H22.7811C22.3276 24.5998 21.96 24.9675 21.96 25.421C21.96 25.8745 22.3276 26.2422 22.7811 26.2422H23.8806C27.0253 26.1137 26.9897 21.6333 23.8805 21.5214Z" fill="#BB413D"/>
<path d="M17.3668 18.4428C15.9441 18.4428 14.7865 19.6004 14.7865 21.0231V25.4209C14.8264 26.5082 16.3884 26.5095 16.4288 25.4209V23.6034H18.3048V25.4209C18.3446 26.5082 19.9067 26.5095 19.9471 25.4209V21.0231C19.9471 19.6004 18.7896 18.4428 17.3668 18.4428ZM18.3048 21.9611H16.4288V21.0232C16.4288 20.506 16.8497 20.0852 17.3668 20.0852C17.884 20.0852 18.3048 20.506 18.3048 21.0232V21.9611Z" fill="#BB413D"/>
</g>
<defs>
<clipPath id="clip0_104_567">
<rect width="28" height="28" fill="white"/>
</clipPath>
</defs>
</svg>
