<svg width="28" height="28" viewBox="0 0 28 28" fill="none" xmlns="http://www.w3.org/2000/svg">
<g clip-path="url(#clip0_104_562)">
<path d="M9.89575 18.9219C9.89575 19.8265 10.6317 20.5625 11.5364 20.5625H16.4583C17.3629 20.5625 18.0989 19.8265 18.0989 18.9219V13.1797H9.89575V18.9219ZM10.9564 16.2637C11.2767 15.9434 11.7961 15.9434 12.1164 16.2637L13.1771 17.3243L15.8783 14.6231C16.1986 14.3028 16.718 14.3028 17.0384 14.6231C17.3587 14.9434 17.3587 15.4628 17.0384 15.7831L13.7571 19.0644C13.4368 19.3847 12.9175 19.3847 12.597 19.0644L10.9564 17.4238C10.6359 17.1035 10.6359 16.584 10.9564 16.2637Z" fill="#BB413D"/>
<path d="M16.4583 9.89844C16.4583 8.54148 15.3543 7.4375 13.9973 7.4375C12.6404 7.4375 11.5364 8.54148 11.5364 9.89844V11.5391H16.4583V9.89844Z" fill="#BB413D"/>
<path d="M24.6196 3.04281C24.5728 3.04527 19.8476 3.26933 14.393 0.110415C14.138 -0.0372959 13.8233 -0.0366943 13.5688 0.111563C8.15054 3.26933 3.42745 3.04566 3.38201 3.04287C2.90803 3.01503 2.5127 3.39177 2.5127 3.86176V13.2344C2.5127 18.1422 4.19237 22.5378 8.18149 25.4624C10.9762 27.5113 13.7543 27.9713 13.8712 27.9899C13.9563 28.0034 14.0436 28.0034 14.1288 27.9899C14.2457 27.9713 17.0245 27.5111 19.8196 25.4547C23.7568 22.5582 25.4874 18.1861 25.4874 13.1797V3.86176C25.4874 3.39298 25.0915 3.01613 24.6196 3.04281ZM19.7395 18.9219C19.7395 20.7312 18.2675 22.2031 16.4582 22.2031H11.5364C9.72707 22.2031 8.2551 20.7312 8.2551 18.9219V12.3594C8.2551 11.9063 8.62238 11.5391 9.07541 11.5391H9.89573V9.89844C9.89573 7.63684 11.7357 5.79688 13.9973 5.79688C16.2589 5.79688 18.0989 7.63684 18.0989 9.89844V11.5391H18.9192C19.3722 11.5391 19.7395 11.9063 19.7395 12.3594V18.9219Z" fill="#BB413D"/>
</g>
<defs>
<clipPath id="clip0_104_562">
<rect width="28" height="28" fill="white"/>
</clipPath>
</defs>
</svg>
