<svg width="28" height="28" viewBox="0 0 28 28" fill="none" xmlns="http://www.w3.org/2000/svg">
<g clip-path="url(#clip0_104_555)">
<path d="M27.8079 19.8575C27.5782 19.4144 27.2182 19.0863 26.8409 19.0207L25.6268 18.5449C24.1336 17.9706 23.0015 16.7894 22.4929 15.329C23.2148 15.1321 23.9203 14.9188 24.6094 14.6891C25.8716 14.2906 26.6127 12.8877 26.1681 11.5881C25.7567 10.2852 24.3104 9.59276 23.0671 10.0294C22.7882 10.1115 22.5092 10.21 22.2468 10.2756L22.2795 9.93097C22.4764 7.61757 21.7053 5.30416 20.1301 3.58127C18.5551 1.85848 16.3236 0.874084 13.9937 0.874084C11.6639 0.874084 9.4324 1.85848 7.85733 3.58127C6.28216 5.30411 5.51106 7.61757 5.70795 9.93097L5.74071 10.2756C5.47824 10.21 5.19932 10.1116 4.92033 10.0294C3.62212 9.58543 2.21835 10.3247 1.81937 11.5881C1.37533 12.8861 2.11438 14.2901 3.37808 14.6891C4.06714 14.9353 4.78913 15.1322 5.51106 15.329C4.98602 16.7893 3.87031 17.9706 2.39358 18.5449L1.27787 18.9879C0.736368 19.1028 0.348166 19.4637 0.134869 19.956C-0.0948361 20.481 -0.0292608 21.1045 0.315351 21.6295C0.545056 21.9741 0.834867 22.2859 1.31074 22.532C1.9998 22.9093 2.8858 23.1062 3.64055 23.2539C3.95229 24.6157 4.67422 25.2228 5.78993 25.0587C8.23465 24.6814 8.51352 24.8618 9.38317 25.5017C9.77695 25.7806 10.2691 26.1416 11.0895 26.5846C11.9756 26.9292 12.96 27.1261 13.9608 27.1261C15.0602 27.1261 16.1759 26.8964 17.1439 26.4533C17.3408 26.3549 17.5541 26.2073 17.8002 26.0431C18.8175 25.3541 20.0645 24.4845 21.8528 24.9603C23.1791 25.2918 24.0864 24.7486 24.3632 23.254C25.6594 22.9914 27.3154 22.6141 27.8569 21.3015C28.0703 20.8255 28.0375 20.284 27.8079 19.8575Z" fill="#BB413D"/>
</g>
<defs>
<clipPath id="clip0_104_555">
<rect width="28" height="28" fill="white"/>
</clipPath>
</defs>
</svg>
