<svg width="28" height="26" viewBox="0 0 28 26" fill="none" xmlns="http://www.w3.org/2000/svg">
<path fill-rule="evenodd" clip-rule="evenodd" d="M10.5879 19.743H17.3578C17.4202 20.7858 17.6282 21.8148 17.9758 22.8H10.0133C10.3141 21.9431 10.5355 20.8334 10.5879 19.743ZM9.48828 8.95153C9.4621 9.04949 9.39808 9.13304 9.3103 9.1838C9.22252 9.23455 9.11817 9.24836 9.02021 9.22218C8.92225 9.196 8.8387 9.13198 8.78795 9.0442C8.73719 8.95642 8.72338 8.85207 8.74956 8.75411L9.37557 6.4177C9.40217 6.32021 9.46627 6.23722 9.55388 6.18686C9.64149 6.1365 9.74547 6.12287 9.8431 6.14895C9.94072 6.17504 10.0241 6.23871 10.0749 6.32605C10.1257 6.41339 10.1399 6.5173 10.1143 6.61506L9.48828 8.95153ZM10.8679 8.58474C10.8323 8.62029 10.7901 8.64849 10.7437 8.66773C10.6972 8.68697 10.6475 8.69687 10.5972 8.69687C10.5469 8.69687 10.4971 8.68697 10.4507 8.66773C10.4042 8.64849 10.362 8.62029 10.3265 8.58474C10.2909 8.54919 10.2627 8.50699 10.2435 8.46054C10.2242 8.4141 10.2143 8.36431 10.2143 8.31404C10.2143 8.26377 10.2242 8.21398 10.2435 8.16754C10.2627 8.12109 10.2909 8.07889 10.3265 8.04334L10.6853 7.68453L10.3265 7.32573C10.2909 7.29018 10.2627 7.24798 10.2435 7.20153C10.2242 7.15508 10.2143 7.1053 10.2143 7.05503C10.2143 7.00475 10.2242 6.95497 10.2435 6.90852C10.2627 6.86207 10.2909 6.81987 10.3265 6.78432C10.362 6.74877 10.4042 6.72057 10.4507 6.70133C10.4971 6.6821 10.5469 6.67219 10.5972 6.67219C10.6475 6.67219 10.6972 6.6821 10.7437 6.70133C10.7901 6.72057 10.8323 6.74877 10.8679 6.78432L11.4974 7.41377C11.5329 7.44932 11.5611 7.49153 11.5804 7.53797C11.5996 7.58442 11.6095 7.6342 11.6095 7.68448C11.6095 7.73475 11.5996 7.78453 11.5804 7.83098C11.5611 7.87743 11.5329 7.91963 11.4974 7.95518L10.8679 8.58469V8.58474ZM8.53727 8.04334C8.60906 8.11513 8.64939 8.21251 8.64939 8.31404C8.64939 8.41557 8.60906 8.51295 8.53727 8.58474C8.46547 8.65654 8.3681 8.69687 8.26656 8.69687C8.16503 8.69687 8.06765 8.65654 7.99586 8.58474L7.36641 7.95524C7.33085 7.91969 7.30265 7.87749 7.28341 7.83104C7.26417 7.78459 7.25427 7.73481 7.25427 7.68453C7.25427 7.63426 7.26417 7.58448 7.28341 7.53803C7.30265 7.49158 7.33085 7.44938 7.36641 7.41383L7.99591 6.78438C8.06771 6.71258 8.16508 6.67225 8.26662 6.67225C8.36815 6.67225 8.46553 6.71258 8.53732 6.78438C8.60911 6.85617 8.64945 6.95355 8.64945 7.05508C8.64945 7.15661 8.60911 7.25399 8.53732 7.32578L8.17852 7.68437L8.53732 8.04317L8.53727 8.04334ZM14.7009 6.7502C13.5904 6.7502 13.033 5.40488 13.8184 4.61952C13.8528 4.58512 13.8801 4.54428 13.8987 4.49934C13.9173 4.45439 13.9269 4.40622 13.9269 4.35756C13.9269 4.30891 13.9173 4.26074 13.8987 4.21579C13.8801 4.17085 13.8528 4.13001 13.8184 4.09561L13.0211 3.2981C12.9516 3.22864 12.8574 3.18962 12.7591 3.18962C12.6609 3.18962 12.5667 3.22864 12.4972 3.2981C11.7119 4.08336 10.3665 3.52615 10.3665 2.41556C10.3665 2.31731 10.3275 2.22308 10.258 2.15361C10.1885 2.08413 10.0943 2.0451 9.99605 2.0451H8.86807C8.76982 2.0451 8.67559 2.08413 8.60612 2.15361C8.53665 2.22308 8.49762 2.31731 8.49762 2.41556C8.49762 3.52615 7.1523 4.08353 6.36694 3.2981C6.29746 3.22864 6.20323 3.18962 6.10498 3.18962C6.00674 3.18962 5.91251 3.22864 5.84303 3.2981L5.04552 4.09567C4.97606 4.16515 4.93704 4.25937 4.93704 4.35762C4.93704 4.45587 4.97606 4.55009 5.04552 4.61957C5.83073 5.40478 5.27352 6.75025 4.16298 6.75025C4.11433 6.75024 4.06616 6.75982 4.02121 6.77843C3.97627 6.79704 3.93543 6.82432 3.90103 6.85872C3.86663 6.89311 3.83934 6.93395 3.82072 6.97889C3.80211 7.02383 3.79252 7.072 3.79252 7.12065V8.24852C3.79252 8.29717 3.80211 8.34534 3.82072 8.39028C3.83934 8.43523 3.86663 8.47606 3.90103 8.51046C3.93543 8.54485 3.97627 8.57213 4.02121 8.59074C4.06616 8.60935 4.11433 8.61893 4.16298 8.61892C5.27352 8.61892 5.83095 9.96424 5.04552 10.7497C4.97606 10.8191 4.93704 10.9133 4.93704 11.0116C4.93704 11.1098 4.97606 11.204 5.04552 11.2735L5.84303 12.0711C5.91251 12.1405 6.00674 12.1796 6.10498 12.1796C6.20323 12.1796 6.29746 12.1405 6.36694 12.0711C7.15318 11.2848 8.49762 11.8414 8.49762 12.9536C8.49762 13.0519 8.53665 13.1461 8.60612 13.2156C8.67559 13.285 8.76982 13.3241 8.86807 13.3241H9.99589C10.0941 13.3241 10.1884 13.285 10.2578 13.2156C10.3273 13.1461 10.3663 13.0519 10.3663 12.9536C10.3663 11.843 11.7117 11.2857 12.497 12.0711C12.5665 12.1405 12.6607 12.1796 12.759 12.1796C12.8572 12.1796 12.9514 12.1405 13.0209 12.0711L13.8184 11.2735C13.8528 11.2391 13.8801 11.1983 13.8988 11.1533C13.9174 11.1084 13.927 11.0602 13.927 11.0116C13.927 10.9629 13.9174 10.9148 13.8988 10.8698C13.8801 10.8249 13.8528 10.784 13.8184 10.7497C13.0332 9.9644 13.5904 8.61892 14.701 8.61892C14.7496 8.61893 14.7978 8.60935 14.8427 8.59074C14.8877 8.57213 14.9285 8.54485 14.9629 8.51046C14.9973 8.47606 15.0246 8.43523 15.0432 8.39028C15.0619 8.34534 15.0714 8.29717 15.0714 8.24852V7.12065C15.0714 7.072 15.0619 7.02383 15.0432 6.97889C15.0246 6.93395 14.9973 6.89311 14.9629 6.85872C14.9285 6.82432 14.8877 6.79704 14.8427 6.77843C14.7978 6.75982 14.7496 6.75024 14.701 6.75025L14.7009 6.7502ZM9.43201 10.4406C8.88695 10.4406 8.35413 10.279 7.90092 9.97621C7.44771 9.67341 7.09447 9.24302 6.88586 8.73946C6.67725 8.2359 6.62265 7.68179 6.72895 7.1472C6.83526 6.61261 7.0977 6.12154 7.48309 5.7361C7.86847 5.35066 8.3595 5.08815 8.89408 4.98177C9.42865 4.87539 9.98277 4.92992 10.4864 5.13846C10.9899 5.347 11.4204 5.70018 11.7233 6.15334C12.0261 6.60651 12.1878 7.13931 12.1879 7.68437C12.1879 8.0463 12.1167 8.4047 11.9782 8.7391C11.8397 9.0735 11.6367 9.37735 11.3808 9.63329C11.1249 9.88924 10.8211 10.0923 10.4867 10.2308C10.1523 10.3693 9.79394 10.4406 9.43201 10.4406ZM25.7407 0.140228H2.75948C2.512 0.140221 2.26695 0.18896 2.03831 0.283661C1.80967 0.378362 1.60193 0.517171 1.42693 0.692163C1.25194 0.867154 1.11313 1.0749 1.01843 1.30354C0.923731 1.53218 0.874993 1.77723 0.875 2.0247V14.8461H27.125V1.52481C27.125 1.15765 26.9792 0.805514 26.7196 0.545862C26.46 0.286209 26.1079 0.140301 25.7407 0.140228ZM15.8368 8.24852C15.8368 8.5498 15.717 8.83871 15.504 9.05174C15.291 9.26477 15.002 9.38448 14.7008 9.38455C14.6053 9.3844 14.5119 9.41261 14.4324 9.4656C14.353 9.5186 14.2911 9.594 14.2545 9.68223C14.218 9.77046 14.2085 9.86756 14.2272 9.9612C14.2459 10.0549 14.292 10.1408 14.3596 10.2083C14.5726 10.4214 14.6922 10.7103 14.6922 11.0116C14.6922 11.3129 14.5726 11.6018 14.3596 11.8149C14.0938 12.0807 13.828 12.3466 13.5621 12.6125C13.3489 12.8254 13.06 12.945 12.7587 12.945C12.4575 12.945 12.1685 12.8254 11.9554 12.6125C11.888 12.5448 11.802 12.4987 11.7084 12.48C11.6147 12.4613 11.5176 12.4708 11.4294 12.5074C11.3412 12.5439 11.2658 12.6058 11.2128 12.6853C11.1598 12.7647 11.1316 12.8581 11.1318 12.9536C11.1317 13.2549 11.0119 13.5438 10.7989 13.7569C10.5859 13.9699 10.297 14.0896 9.99567 14.0897H8.86807C8.56679 14.0896 8.27787 13.9699 8.06484 13.7569C7.8518 13.5438 7.73208 13.2549 7.73199 12.9536C7.73243 12.858 7.7044 12.7644 7.65146 12.6848C7.59852 12.6051 7.52307 12.5431 7.43472 12.5065C7.34638 12.4699 7.24914 12.4604 7.1554 12.4793C7.06166 12.4982 6.97565 12.5445 6.90834 12.6124C6.69523 12.8254 6.40628 12.945 6.10501 12.945C5.80374 12.945 5.51479 12.8254 5.30168 12.6124C5.03586 12.3465 4.77001 12.0807 4.50412 11.8149C4.29118 11.6017 4.17157 11.3128 4.17157 11.0115C4.17157 10.7103 4.29118 10.4213 4.50412 10.2082C4.57176 10.1408 4.61786 10.0548 4.63657 9.96115C4.65528 9.8675 4.64576 9.7704 4.60922 9.68217C4.57268 9.59394 4.51076 9.51855 4.43132 9.46555C4.35187 9.41255 4.25848 9.38434 4.16298 9.38449C3.8617 9.38442 3.57279 9.26471 3.35975 9.05168C3.14671 8.83865 3.02699 8.54975 3.0269 8.24847V7.12065C3.02699 6.81938 3.14671 6.53047 3.35975 6.31744C3.57279 6.10441 3.8617 5.9847 4.16298 5.98463C4.25848 5.98478 4.35187 5.95657 4.43132 5.90357C4.51076 5.85057 4.57268 5.77518 4.60922 5.68695C4.64576 5.59872 4.65528 5.50162 4.63657 5.40797C4.61786 5.31432 4.57176 5.22834 4.50412 5.16092C4.29118 4.9478 4.17157 4.65886 4.17157 4.35759C4.17157 4.05632 4.29118 3.76738 4.50412 3.55426L5.30168 2.75675C5.51479 2.54379 5.80373 2.42416 6.10501 2.42416C6.40629 2.42416 6.69524 2.54379 6.90834 2.75675C6.97577 2.82438 7.06175 2.87046 7.15539 2.88916C7.24904 2.90786 7.34613 2.89833 7.43435 2.86179C7.52257 2.82524 7.59796 2.76332 7.65095 2.68388C7.70394 2.60444 7.73214 2.51105 7.73199 2.41556C7.73209 2.11429 7.85182 1.82538 8.06486 1.61236C8.27789 1.39933 8.5668 1.27962 8.86807 1.27953H9.99589C10.2972 1.27962 10.5861 1.39933 10.7991 1.61236C11.0121 1.82538 11.1319 2.11429 11.132 2.41556C11.1318 2.51105 11.16 2.60444 11.213 2.68388C11.266 2.76332 11.3414 2.82524 11.4296 2.86179C11.5178 2.89833 11.6149 2.90786 11.7086 2.88916C11.8022 2.87046 11.8882 2.82438 11.9556 2.75675C12.1687 2.54379 12.4577 2.42416 12.7589 2.42416C13.0602 2.42416 13.3492 2.54379 13.5623 2.75675L14.3598 3.55426C14.5728 3.76738 14.6924 4.05632 14.6924 4.35759C14.6924 4.65886 14.5728 4.9478 14.3598 5.16092C14.2922 5.22834 14.2461 5.31432 14.2274 5.40797C14.2087 5.50162 14.2182 5.59872 14.2547 5.68695C14.2913 5.77518 14.3532 5.85057 14.4326 5.90357C14.5121 5.95657 14.6055 5.98478 14.701 5.98463C15.0023 5.9847 15.2912 6.10441 15.5042 6.31744C15.7173 6.53047 15.837 6.81938 15.8371 7.12065L15.8368 8.24852ZM20.6548 13.7068H17.1027C17.0012 13.7068 16.9038 13.6665 16.832 13.5947C16.7602 13.5229 16.7199 13.4255 16.7199 13.324C16.7199 13.2225 16.7602 13.1251 16.832 13.0533C16.9038 12.9815 17.0012 12.9412 17.1027 12.9412H20.6551C20.7566 12.9412 20.854 12.9815 20.9258 13.0533C20.9976 13.1251 21.0379 13.2225 21.0379 13.324C21.0379 13.4255 20.9976 13.5229 20.9258 13.5947C20.854 13.6665 20.7566 13.7068 20.6551 13.7068H20.6548ZM24.2072 11.451H17.1027C17.0012 11.451 16.9038 11.4107 16.832 11.3389C16.7602 11.2671 16.7199 11.1697 16.7199 11.0682C16.7199 10.9667 16.7602 10.8693 16.832 10.7975C16.9038 10.7257 17.0012 10.6854 17.1027 10.6854H24.2075C24.309 10.6854 24.4064 10.7257 24.4782 10.7975C24.55 10.8693 24.5903 10.9667 24.5903 11.0682C24.5903 11.1697 24.55 11.2671 24.4782 11.3389C24.4064 11.4107 24.309 11.451 24.2075 11.451H24.2072ZM24.2072 9.19527H17.1027C17.0012 9.19527 16.9038 9.15494 16.832 9.08315C16.7602 9.01136 16.7199 8.91399 16.7199 8.81246C16.7199 8.71093 16.7602 8.61356 16.832 8.54177C16.9038 8.46998 17.0012 8.42965 17.1027 8.42965H24.2075C24.309 8.42965 24.4064 8.46998 24.4782 8.54177C24.55 8.61356 24.5903 8.71093 24.5903 8.81246C24.5903 8.91399 24.55 9.01136 24.4782 9.08315C24.4064 9.15494 24.309 9.19527 24.2075 9.19527H24.2072ZM16.7199 6.55666C16.7199 6.45513 16.7602 6.35776 16.832 6.28597C16.9038 6.21418 17.0012 6.17385 17.1027 6.17385H20.6551C20.7566 6.17385 20.854 6.21418 20.9258 6.28597C20.9976 6.35776 21.0379 6.45513 21.0379 6.55666C21.0379 6.65819 20.9976 6.75556 20.9258 6.82735C20.854 6.89914 20.7566 6.93947 20.6551 6.93947H17.1027C17.0012 6.93947 16.9038 6.89914 16.832 6.82735C16.7602 6.75556 16.7199 6.65819 16.7199 6.55666ZM24.2075 4.68372H17.1027C17.0012 4.68372 16.9038 4.64339 16.832 4.5716C16.7602 4.49981 16.7199 4.40244 16.7199 4.30091C16.7199 4.19938 16.7602 4.10201 16.832 4.03022C16.9038 3.95843 17.0012 3.9181 17.1027 3.9181H24.2075C24.309 3.9181 24.4064 3.95843 24.4782 4.03022C24.55 4.10201 24.5903 4.19938 24.5903 4.30091C24.5903 4.40244 24.55 4.49981 24.4782 4.5716C24.4064 4.64339 24.309 4.68372 24.2075 4.68372ZM24.2075 2.42797H17.1027C17.0012 2.42797 16.9038 2.38764 16.832 2.31585C16.7602 2.24406 16.7199 2.14669 16.7199 2.04516C16.7199 1.94363 16.7602 1.84626 16.832 1.77447C16.9038 1.70268 17.0012 1.66235 17.1027 1.66235H24.2075C24.309 1.66235 24.4064 1.70268 24.4782 1.77447C24.55 1.84626 24.5903 1.94363 24.5903 2.04516C24.5903 2.14669 24.55 2.24406 24.4782 2.31585C24.4064 2.38764 24.309 2.42797 24.2075 2.42797ZM7.8645 23.5656H20.1359C20.2872 23.5646 20.4373 23.5935 20.5774 23.6507C20.7174 23.7078 20.8448 23.7922 20.9522 23.8988C21.0596 24.0054 21.1448 24.1322 21.2029 24.2719C21.261 24.4116 21.291 24.5614 21.291 24.7127C21.291 24.864 21.261 25.0138 21.2029 25.1535C21.1448 25.2932 21.0596 25.42 20.9522 25.5267C20.8448 25.6333 20.7174 25.7176 20.5774 25.7748C20.4373 25.832 20.2872 25.8609 20.1359 25.8598H7.8645C7.71319 25.8609 7.56318 25.832 7.42309 25.7748C7.283 25.7176 7.1556 25.6333 7.04824 25.5267C6.94088 25.42 6.85568 25.2932 6.79753 25.1535C6.73939 25.0138 6.70945 24.864 6.70945 24.7127C6.70945 24.5614 6.73939 24.4116 6.79753 24.2719C6.85568 24.1322 6.94088 24.0054 7.04824 23.8988C7.1556 23.7922 7.283 23.7078 7.42309 23.6507C7.56318 23.5935 7.71319 23.5646 7.8645 23.5656ZM0.875 15.6118V17.093C0.875007 17.3404 0.923756 17.5855 1.01846 17.8141C1.11317 18.0427 1.25198 18.2505 1.42697 18.4254C1.60196 18.6004 1.8097 18.7392 2.03834 18.8339C2.26697 18.9286 2.51201 18.9773 2.75948 18.9773H25.2405C25.488 18.9773 25.733 18.9286 25.9617 18.8339C26.1903 18.7392 26.398 18.6004 26.573 18.4254C26.748 18.2505 26.8868 18.0427 26.9815 17.8141C27.0762 17.5855 27.125 17.3404 27.125 17.093V15.6118H0.875ZM15.0361 17.4861H12.9639C12.8624 17.4861 12.765 17.4457 12.6933 17.3739C12.6215 17.3021 12.5811 17.2048 12.5811 17.1033C12.5811 17.0017 12.6215 16.9044 12.6933 16.8326C12.765 16.7608 12.8624 16.7204 12.9639 16.7204H15.0361C15.1376 16.7204 15.235 16.7608 15.3067 16.8326C15.3785 16.9044 15.4189 17.0017 15.4189 17.1033C15.4189 17.2048 15.3785 17.3021 15.3067 17.3739C15.235 17.4457 15.1376 17.4861 15.0361 17.4861Z" fill="#BB413D"/>
</svg>
