<svg width="28" height="28" viewBox="0 0 28 28" fill="none" xmlns="http://www.w3.org/2000/svg">
<g clip-path="url(#clip0_104_574)">
<path d="M23.3192 3.52067C21.0325 1.48559 18.0752 0.187742 14.8203 0V3.91579C16.9945 4.09106 18.9768 4.95671 20.5471 6.29278L23.3192 3.52067Z" fill="#BB413D"/>
<path d="M13.1797 3.91579V0C9.92477 0.187742 6.96749 1.48559 4.68079 3.52067L7.4529 6.29278C9.02325 4.95671 11.0056 4.09106 13.1797 3.91579Z" fill="#BB413D"/>
<path d="M6.29273 7.45281L3.52067 4.6807C1.48559 6.96746 0.187742 9.92474 0 13.1797H3.91573C4.09101 11.0055 4.95671 9.02322 6.29273 7.45281Z" fill="#BB413D"/>
<path d="M14 14.8203C14.453 14.8203 14.8203 14.453 14.8203 14C14.8203 13.547 14.453 13.1797 14 13.1797C13.547 13.1797 13.1797 13.547 13.1797 14C13.1797 14.453 13.547 14.8203 14 14.8203Z" fill="#BB413D"/>
<path d="M24.0842 13.1797H28C27.8123 9.92474 26.5144 6.96746 24.4793 4.68076L21.7073 7.45287C23.0433 9.02322 23.9089 11.0055 24.0842 13.1797Z" fill="#BB413D"/>
<path d="M23.5703 23.625H4.42969C3.22159 23.625 2.24219 24.6044 2.24219 25.8125C2.24219 27.0206 3.22159 28 4.42969 28H23.5703C24.7784 28 25.7578 27.0206 25.7578 25.8125C25.7578 24.6043 24.7784 23.625 23.5703 23.625Z" fill="#BB413D"/>
<path d="M7.14826 21.4375C5.33023 19.7614 4.12612 17.429 3.91579 14.8203H0C0.129937 17.0726 0.791383 19.1824 1.8608 21.0261C2.00813 21.2801 2.27861 21.4375 2.57228 21.4375H7.14826Z" fill="#BB413D"/>
<path d="M20.8517 21.4375H25.4277C25.7213 21.4375 25.9918 21.2801 26.1391 21.0261C27.2086 19.1824 27.87 17.0726 27.9999 14.8203H24.0842C23.8738 17.429 22.6697 19.7614 20.8517 21.4375Z" fill="#BB413D"/>
<path d="M5.52344 14C5.52344 17.2026 7.30877 19.9961 9.93645 21.4375H18.0635C20.6912 19.9961 22.4766 17.2026 22.4766 14C22.4766 9.32602 18.674 5.52344 14 5.52344C9.32602 5.52344 5.52344 9.32602 5.52344 14ZM9.16628 9.16628C9.48664 8.84592 10.006 8.84592 10.3264 9.16628L12.9396 11.7795C13.2608 11.6254 13.6205 11.5391 14 11.5391C15.357 11.5391 16.4609 12.643 16.4609 14C16.4609 15.357 15.357 16.4609 14 16.4609C12.643 16.4609 11.5391 15.357 11.5391 14C11.5391 13.6205 11.6254 13.2608 11.7795 12.9396L9.16628 10.3264C8.84592 10.006 8.84592 9.48659 9.16628 9.16628Z" fill="#BB413D"/>
</g>
<defs>
<clipPath id="clip0_104_574">
<rect width="28" height="28" fill="white"/>
</clipPath>
</defs>
</svg>
