<svg width="28" height="28" viewBox="0 0 28 28" fill="none" xmlns="http://www.w3.org/2000/svg">
<g clip-path="url(#clip0_104_585)">
<path d="M27.1797 0H0.820312C0.367281 0 0 0.367281 0 0.820312V27.1797C0 27.6327 0.367281 28 0.820312 28H27.1797C27.6327 28 28 27.6327 28 27.1797V0.820312C28 0.367281 27.6327 0 27.1797 0ZM6.73296 7.87309C6.56124 7.62191 6.5427 7.29635 6.68467 7.02729C6.82664 6.75823 7.10588 6.58984 7.41016 6.58984H11.0879C11.3579 6.58984 11.6108 6.72279 11.7638 6.94531L14.0837 10.3184L16.2205 6.96899C16.3712 6.73285 16.6319 6.58984 16.9121 6.58984H20.5898C20.8941 6.58984 21.1734 6.75823 21.3153 7.02729C21.4574 7.29635 21.4388 7.62191 21.267 7.87309L17.0938 13.9779L21.6836 20.0977C21.8701 20.3462 21.9 20.6788 21.7611 20.9567C21.6222 21.2346 21.3381 21.4102 21.0274 21.4102H17.2949C17.0367 21.4102 16.7936 21.2886 16.6387 21.082L14 17.5638L11.3613 21.082C11.2064 21.2886 10.9633 21.4102 10.7051 21.4102H6.9726C6.66187 21.4102 6.37782 21.2346 6.23891 20.9567C6.09995 20.6788 6.12992 20.3462 6.31635 20.0977L10.9062 13.9779L6.73296 7.87309Z" fill="#BB413D"/>
<path d="M13.3437 15.7044C13.4987 15.4979 13.7418 15.3763 14 15.3763C14.2582 15.3763 14.5013 15.4979 14.6562 15.7044L17.7051 19.7695H19.3868L15.4288 14.4922C15.218 14.2111 15.2095 13.8271 15.4078 13.5371L19.0354 8.23047H17.3617L14.8009 12.2445C14.653 12.4765 14.3986 12.6188 14.1235 12.6236C14.1188 12.6236 14.114 12.6237 14.1093 12.6237C13.8395 12.6237 13.5866 12.491 13.4334 12.2682L10.6564 8.23047H8.96453L12.5921 13.5371C12.7904 13.8271 12.782 14.2111 12.5712 14.4922L8.61316 19.7695H10.2949L13.3437 15.7044Z" fill="#BB413D"/>
</g>
<defs>
<clipPath id="clip0_104_585">
<rect width="28" height="28" fill="white"/>
</clipPath>
</defs>
</svg>
